<?xml version="1.0" encoding="utf-8"?>
<!-- Generator: Adobe Illustrator 19.2.1, SVG Export Plug-In . SVG Version: 6.00 Build 0)  -->
<svg version="1.1" id="layer" xmlns="http://www.w3.org/2000/svg" xmlns:xlink="http://www.w3.org/1999/xlink" x="0px" y="0px"
	 viewBox="0 0 652 652" style="enable-background:new 0 0 652 652;" xml:space="preserve">
<style type="text/css">
	.st0{fill:#4B4B4B;}
	.st1{fill:url(#SVGID_1_);}
	.st2{fill:#FF9800;}
</style>
<g>
	<g>
		<path class="st0" d="M115.7,348v-14.5h7l1.6,7.4c0.1,0.5,0.2,0.9,0.4,1.1c0.2,0.2,0.5,0.4,1,0.6c2.8,0.8,5.5,1.2,8.1,1.2
			c0.1,0,0.2,0,0.2,0c8.1,0,12.2-3.1,12.2-9.2c0-1.6-0.3-2.9-0.9-4.1c-0.6-1.2-1.5-2.1-2.8-2.9c-1.3-0.8-2.5-1.4-3.6-1.8
			c-1.1-0.4-2.7-0.9-4.6-1.5c-5.4-1.6-9-3-11-4.3c-4.2-2.8-6.3-7.1-6.3-12.9c0-5.7,2-10.1,5.9-13c3.9-2.9,9-4.4,15.3-4.4
			c5.4,0,10.7,1,15.8,3v14.8l-7-0.6l-1.2-6.8c-0.2-0.8-0.4-1.3-0.8-1.6c-1.5-0.9-3.9-1.3-7.2-1.3c-3.7,0-6.4,0.8-8.3,2.3
			c-1.9,1.5-2.9,3.6-2.9,6.3c0,1.2,0.2,2.3,0.7,3.3c0.5,1,1,1.8,1.6,2.4c0.6,0.6,1.5,1.2,2.8,1.8c1.3,0.6,2.3,1,3.2,1.3
			c0.9,0.3,2.1,0.7,3.8,1.2c2.2,0.7,3.8,1.2,5,1.6c1.1,0.4,2.6,1.1,4.4,2.1c1.8,1,3.2,2,4.1,3.1c0.9,1.1,1.8,2.6,2.5,4.4
			c0.7,1.9,1.1,4,1.1,6.3c0,6.1-2.1,10.6-6.2,13.5c-4.1,2.9-9.5,4.4-16,4.4c-3.4,0-6.9-0.3-10.3-1
			C119.8,349.5,117.3,348.8,115.7,348z"/>
		<path class="st0" d="M159.5,313.2l0.8-5.3h14.2v27.4c0,3,0.4,5.1,1.1,6.4c0.7,1.3,2.2,2,4.4,2c3.9,0,7.7-1.9,11.4-5.7v-22
			c0-0.7-0.1-1.1-0.2-1.3c-0.1-0.2-0.5-0.4-1.1-0.5l-3.9-1l0.7-5.3h14v35c0,1,0.3,1.5,1,1.6l4.3,0.6v5.2h-13l-0.7-5l-0.2-0.1
			c-5.1,4.1-10.2,6.1-15.3,6.1c-4.3,0-7.4-1.1-9.1-3.3c-1.8-2.2-2.7-5.8-2.7-10.6V316c0-0.7-0.1-1.1-0.2-1.3
			c-0.1-0.2-0.5-0.4-1.1-0.5L159.5,313.2L159.5,313.2z"/>
		<path class="st0" d="M207.1,293.6l0.8-5.2h14.3v23.1c4.6-2.9,9.1-4.4,13.4-4.4c0,0,0.1,0,0.1,0c4.8,0,8.6,1.7,11.4,5
			c2.8,3.4,4.2,8.6,4.2,15.6c0,8.1-1.5,14-4.6,17.8c-3.1,3.8-7.4,5.7-12.8,5.7c-4.9,0-9-1.6-12.3-4.8h-0.3l-0.5,3.8h-9.1
			c0.7-3.9,1-7.7,1-11.4c0-0.1,0-0.3,0-0.4v-41.6c0-0.9-0.3-1.5-1-1.7C211.8,295.1,207.1,293.6,207.1,293.6z M222.3,338.9
			c3.3,3.1,6.7,4.7,10.2,4.7c6.1,0,9.2-5.1,9.2-15.3c0-4.4-0.8-7.7-2.3-10c-1.5-2.3-3.6-3.5-6.3-3.5c-3.3,0-6.9,1.3-10.7,4V338.9z"
			/>
		<path class="st0" d="M254.4,350.2v-5.2l4.7-0.6c0.5-0.1,0.9-0.2,1.1-0.4c0.2-0.2,0.3-0.6,0.3-1.2v-45.9c0-0.9-0.4-1.5-1.1-1.7
			l-4.7-1.6l0.8-5.2h14.3v54.4c0,0.7,0.1,1.1,0.2,1.3c0.1,0.2,0.5,0.3,1.1,0.4l4.6,0.6v5.2C275.8,350.2,254.4,350.2,254.4,350.2z"/>
		<path class="st0" d="M280.5,350.2v-5.2l4.9-0.6c0.5-0.1,0.9-0.2,1.1-0.4c0.2-0.2,0.3-0.6,0.3-1.2v-26.4c0-0.9-0.4-1.5-1.1-1.7
			l-4.5-1.6l0.8-5.2h14.2v35c0,0.7,0.1,1.1,0.2,1.3c0.1,0.2,0.5,0.3,1.1,0.4l4.8,0.6v5.2C302.3,350.2,280.5,350.2,280.5,350.2z
			 M284.3,293.7c0-1.9,0.5-3.4,1.6-4.4c1.1-1,2.6-1.6,4.6-1.6c1.9,0,3.4,0.5,4.5,1.6c1.1,1,1.6,2.5,1.6,4.4c0,2-0.5,3.5-1.6,4.5
			c-1.1,1.1-2.6,1.6-4.5,1.6c-2,0-3.5-0.5-4.6-1.6C284.8,297.1,284.3,295.6,284.3,293.7z"/>
		<path class="st0" d="M306.4,313.1l0.8-5.2h12.1l0.6,4.6l0.4,0.1c4.8-3.7,9.5-5.5,14-5.5c4.6,0,7.9,1.6,9.8,4.9
			c5.1-3.3,9.8-4.9,14.3-4.9c4.3,0,7.4,1.2,9.3,3.6c1.9,2.4,2.8,5.9,2.8,10.4v21.7c0,0.7,0.1,1.1,0.2,1.3c0.1,0.2,0.5,0.3,1.1,0.4
			l4.5,0.6v5.2h-20.8v-5.2l4.3-0.6c0.9-0.1,1.3-0.7,1.3-1.6v-19.3c0-2.8-0.3-4.9-1-6.4c-0.7-1.5-2.1-2.2-4.1-2.2
			c-3.3,0-6.7,1.1-10,3.3c0.2,1.3,0.3,2.8,0.3,4.6v19.9c0,0.7,0.1,1.1,0.2,1.3c0.1,0.2,0.5,0.3,1.1,0.4l3.8,0.6v5.2H331v-5.2
			l4.3-0.6c0.5-0.1,0.9-0.2,1.1-0.5c0.2-0.3,0.3-0.6,0.3-1.2V324c0-1.5,0-2.6-0.1-3.5c-0.1-0.9-0.3-1.8-0.6-2.8
			c-0.3-1-0.8-1.7-1.6-2.1c-0.7-0.5-1.7-0.7-2.8-0.7c-3.2,0-6.6,1.4-10.2,4.2v23.7c0,0.7,0.1,1.1,0.2,1.3c0.1,0.2,0.5,0.3,1.1,0.4
			l4,0.6v5.2h-20v-5.2l3.9-0.6c0.5-0.1,0.9-0.2,1.1-0.4c0.2-0.2,0.3-0.6,0.3-1.2v-26.4c0-0.9-0.4-1.5-1.1-1.7
			C310.9,314.6,306.4,313.1,306.4,313.1z"/>
		<path class="st0" d="M379.5,328.8c0-7.1,1.8-12.5,5.4-16.2c3.6-3.7,8.2-5.6,13.9-5.6c11.6,0,17.4,6.6,17.4,19.7
			c0,1.6-0.1,3.2-0.2,4.8h-26.5c0.2,4,1.2,7,2.9,9.1c1.7,2,4.5,3.1,8.3,3.1c3.4,0,7.5-1,12.1-2.9l2.6,6.6c-5,2.6-10.3,3.9-15.7,3.9
			C386.2,351.2,379.5,343.7,379.5,328.8L379.5,328.8z M389.5,324.7h17.2c0-7-2.7-10.6-8.1-10.6c-2.5,0-4.6,0.9-6.3,2.6
			C390.7,318.5,389.8,321.2,389.5,324.7z"/>
	</g>
	<g>
		<path class="st0" d="M448.8,305.9v-15.1h50.6v15.1h-6.8l-1.3-7.1c-0.1-0.6-0.5-0.9-1.3-0.9h-11.1v44.8c0,0.6,0.1,1,0.2,1.2
			c0.1,0.2,0.5,0.3,1.1,0.3l9,0.7v5.3h-29.7v-5.3l8.4-0.6c0.5-0.1,0.9-0.2,1.1-0.4c0.2-0.2,0.3-0.6,0.3-1.3v-44.8h-11
			c-0.8,0-1.2,0.3-1.3,0.9l-1.3,7.1H448.8L448.8,305.9z"/>
		<path class="st0" d="M498.1,328.8c0-7.1,1.8-12.5,5.4-16.2c3.6-3.7,8.2-5.6,13.9-5.6c11.6,0,17.4,6.6,17.4,19.7
			c0,1.6-0.1,3.2-0.2,4.8h-26.5c0.2,4,1.2,7,2.9,9.1c1.7,2,4.5,3.1,8.3,3.1c3.4,0,7.5-1,12.1-2.9l2.6,6.6c-5,2.6-10.3,3.9-15.7,3.9
			C504.9,351.2,498.1,343.7,498.1,328.8L498.1,328.8z M508.2,324.7h17.2c0-7-2.7-10.6-8.1-10.6c-2.5,0-4.6,0.9-6.3,2.6
			C509.4,318.5,508.4,321.2,508.2,324.7z"/>
		<path class="st0" d="M540,350.2v-5.2l3.8-0.7c0.9-0.2,1.7-0.7,2.4-1.5l11.2-13.5l-11.2-13.9c-0.6-0.7-1.3-1.2-2-1.4l-3.4-0.9
			l0.8-5.3h18.9v5.3l-4.6,0.7l7.6,9.7l8.3-9.7l-5-0.7l0.8-5.3h16.8v5.3l-3.6,0.8c-0.8,0.3-1.5,0.8-2.2,1.6L568.1,328l11.8,14.8
			c0.8,0.9,1.5,1.4,2.2,1.4l4.1,0.8v5.2h-21V345l4.6-0.8l-8-10.4l-8.4,10.4l5,0.8v5.2C558.4,350.2,540,350.2,540,350.2z"/>
		<path class="st0" d="M589.5,313.5v-5.8c3.1-0.4,5.4-1.6,6.9-3.6c1.5-2,2.6-3.9,3.1-7.7h6V307c0,0.5,0.2,0.8,0.7,0.8H618v6.7h-12.6
			v22.3c0,2.6,0.4,4.4,1.3,5.4c0.9,1,2.4,1.6,4.6,1.6c2.1,0,4.5-0.5,7.1-1.4l1.9,5.9c-4.2,1.9-8.2,2.9-12.1,2.9
			c-4.3,0-7.4-1-9.3-2.9c-1.9-1.9-2.9-4.9-2.9-9v-23.9c0-0.5-0.3-0.7-0.7-0.9C594,313.6,589.5,313.5,589.5,313.5z"/>
	</g>
	<g>
		
			<linearGradient id="SVGID_1_" gradientUnits="userSpaceOnUse" x1="165.9366" y1="500.2668" x2="168.1529" y2="500.2668" gradientTransform="matrix(1.842 -6.1592 -5.2134 -2.1309 2345.2524 2430.6201)">
			<stop  offset="0" style="stop-color:#FF9700"/>
			<stop  offset="0.53" style="stop-color:#F48E00"/>
			<stop  offset="1" style="stop-color:#D06F00"/>
		</linearGradient>
		<path class="st1" d="M68,323c0-0.7-0.5-1.1-1.2-0.9l-45.3,14.4c-0.7,0.2-1.2,1-1.2,1.7v14.7c0,0.7,0.5,1.1,1.2,0.9l45.3-14.4
			c0.7-0.2,1.2-1,1.2-1.7V323z"/>
		<path class="st2" d="M20.4,322.5c0,0.7,0.5,1.5,1.2,1.7l45.3,14.4c0.7,0.2,1.2-0.2,1.2-0.9V323c0-0.7-0.5-1.5-1.2-1.7l-45.3-14.4
			c-0.7-0.2-1.2,0.2-1.2,0.9C20.4,307.9,20.4,322.5,20.4,322.5z"/>
		<path class="st2" d="M68,292.8c0-0.7-0.5-1.1-1.2-0.9l-45.3,14.4c-0.7,0.2-1.2,1-1.2,1.7v14.7c0,0.7,0.5,1.1,1.2,0.9l45.3-14.4
			c0.7-0.2,1.2-1,1.2-1.7C68,307.5,68,292.8,68,292.8z"/>
	</g>
</g>
</svg>
