<svg width="280" height="280" viewBox="0 0 280 280" fill="none" xmlns="http://www.w3.org/2000/svg">
<circle cx="140" cy="140" r="140" fill="#2E6450"/>
<mask id="mask0" mask-type="alpha" maskUnits="userSpaceOnUse" x="0" y="0" width="280" height="280">
<circle cx="140" cy="140" r="140" fill="#2E6450"/>
</mask>
<g mask="url(#mask0)">
<path d="M139.72 145.36C139.72 145.36 137.21 151.63 137.54 155.97C137.54 155.97 132.47 153.54 131.27 150.05C130.07 146.56 135.03 142.41 135.03 142.41L139.72 145.36Z" fill="#3B1C11"/>
<path d="M129.5 189.193C136 193.107 145.44 209.013 148.79 212.363C152.14 215.713 167.66 219.063 178.47 223.013C189.27 226.973 202.18 228.643 211.29 244.843C220.4 261.043 233.82 317.993 233.82 317.993H102.91H-28C-28 317.993 -14.59 261.043 -5.47 244.843C3.65 228.643 16.55 226.973 27.35 223.013C38.15 219.053 53.68 215.713 57.03 212.363C60.38 209.013 69.2044 193.955 79 188.193C88.3952 182.667 82.5 184.193 103.5 184.193C124.5 184.193 120.119 183.545 129.5 189.193Z" fill="#B8BDC7"/>
<path d="M77.9102 196.839C82.5402 188.279 80.7102 170.269 80.7102 170.269L125.11 168.059C125.11 168.059 124.28 188.149 128.92 196.709C133.56 205.269 102.41 247.249 102.41 247.249L77.9102 196.839Z" fill="#F0CCB7"/>
<path d="M81.8101 202.95C81.8101 202.95 99.2101 190.05 113.45 177.33L80.9201 173.34C80.9201 173.34 81.1101 190.09 77.1001 198.86L81.8101 202.95Z" fill="#865D48"/>
<path d="M62.8802 121.029C62.8802 121.029 60.3202 117.029 56.1202 118.829C51.9202 120.629 48.9102 141.379 65.3202 145.609" fill="#F0CCB7"/>
<path d="M67.9798 81.9794C67.9798 81.9794 62.1198 94.4294 62.9198 115.029C63.7198 135.629 62.8298 140.289 66.6298 151.689C70.4298 163.089 82.3998 180.319 98.4598 180.319C114.52 180.319 130.13 171.429 135.53 145.029C135.53 145.029 155.01 149.399 157.33 126.629C157.33 109.844 145 112 140.5 117.5L138.5 122C138.5 122 137.33 121.7 137.33 113.5C137.33 105.3 135.13 102.429 135.13 102.429C135.13 102.429 116.37 95.0094 118.17 73.6094C118.17 73.6094 105.73 72.6294 98.5298 73.8294C91.3198 75.0194 86.4398 74.5294 67.9798 81.9794Z" fill="#F1CCB7"/>
<path d="M108.03 109.02C108.03 109.02 114.391 106.83 121.03 108.12" stroke="#765245" stroke-width="5" stroke-miterlimit="10" stroke-linecap="round"/>
<path d="M75.2998 109.349C75.2998 109.349 81.1074 108.089 88.2998 109.719" stroke="#765245" stroke-width="5" stroke-miterlimit="10" stroke-linecap="round"/>
<path d="M115.09 127.391C116.78 127.391 118.15 125.524 118.15 123.221C118.15 120.918 116.78 119.051 115.09 119.051C113.4 119.051 112.03 120.918 112.03 123.221C112.03 125.524 113.4 127.391 115.09 127.391Z" fill="#311E17"/>
<path d="M82.3198 127.391C84.0098 127.391 85.3798 125.524 85.3798 123.221C85.3798 120.918 84.0098 119.051 82.3198 119.051C80.6298 119.051 79.2598 120.918 79.2598 123.221C79.2598 125.524 80.6298 127.391 82.3198 127.391Z" fill="#311E17"/>
<path d="M142.5 132.5C142.5 132.5 144.04 128.49 149.5 124.5" stroke="#33120B" stroke-miterlimit="10" stroke-linecap="round" stroke-linejoin="round"/>
<path d="M57 127C57 127 61.31 130.03 62.88 134.38" stroke="#33120B" stroke-miterlimit="10" stroke-linecap="round" stroke-linejoin="round"/>
<path d="M11.77 264.17C26.61 288.82 24.21 295.78 24.21 318.29" stroke="#7F8793" stroke-width="1.5" stroke-miterlimit="10" stroke-linecap="round" stroke-linejoin="round"/>
<path d="M191.14 268.52C179.72 311.88 182.01 301.72 178.44 318.29" stroke="#7F8793" stroke-width="1.5" stroke-miterlimit="10"/>
<path fill-rule="evenodd" clip-rule="evenodd" d="M77.5 197C82.27 199.491 93.672 203.973 103 203.973V341H50V244C50 236.5 53 227.5 60.07 220.416C67.14 213.332 75.2033 203.644 77.5 197ZM129 197C124.23 199.491 112.328 203.973 103 203.973V341H156V244C156 236.5 153 227.5 145.93 220.416C138.86 213.332 131.297 203.644 129 197Z" fill="#F5F5F5"/>
<path d="M98.0201 124.26C95.9601 126.64 90.6601 137.37 94.4301 139.17C97.8401 140.8 102.07 139.04 102.3 138.41" stroke="#33120B" stroke-miterlimit="10" stroke-linecap="round" stroke-linejoin="round"/>
<path d="M117.89 74.5997C117.89 74.5997 116.46 89.68 123.5 99.5C127.02 105.52 129.938 109 131.5 111.5C133.062 114 134.22 116 135.5 119.5C136.78 123 136.78 130.35 136.78 130.35C136.78 130.35 138.86 122.67 141.5 118.5C143.86 115.17 146 113.5 149.5 113.5C149.5 113.5 152 108.5 153.22 102.34C154.575 95.5 160.4 62.1597 127.18 62.6497C127.18 62.6497 130.82 33.5398 103 39.4998C75.18 45.4598 74.8001 61.4197 56.9001 65.6797C39.2301 69.8797 38.3301 64.0497 38.3301 64.0497C38.3301 64.0497 42.9301 76.2397 52.3301 77.2997C52.3301 77.2997 37.5101 84.2097 39.1501 98.2197C39.1501 98.2197 40.7901 91.1797 44.8201 89.4297C44.8201 89.4297 40.5201 100.47 48.4301 108C52.7101 112.07 55.3501 113.27 55.3501 113.27C55.3501 113.27 59.1801 115.14 61.2601 118.71C62.6401 121.08 62.1501 125.64 62.1501 125.64C64.3201 124.85 71.3101 117 65.8601 106.69C65.8601 106.69 61.2001 98.4197 66.8601 89.5697C66.8601 89.5697 71.3101 82.8497 77.9201 81.3997C77.9101 81.4297 92.2001 90.9797 117.89 74.5997Z" fill="#3C1C11"/>
<path d="M79.2798 62.8893C79.2798 62.8893 116.24 59.4493 118.16 73.6093" stroke="#23110B" stroke-miterlimit="10" stroke-linecap="round" stroke-linejoin="round"/>
<path d="M56.1499 76.3008C56.1499 76.3008 58.7099 80.0208 71.9699 78.4808" stroke="#23110B" stroke-miterlimit="10" stroke-linecap="round" stroke-linejoin="round"/>
<path d="M53.75 69.3203C53.75 69.3203 64.44 72.7003 82.11 70.3003C99.78 67.9003 108.19 74.5303 108.19 74.5303" stroke="#23110B" stroke-miterlimit="10" stroke-linecap="round" stroke-linejoin="round"/>
<path d="M50.75 104.39C50.75 104.39 52.31 94.5798 60.9 89.5898" stroke="#23110B" stroke-miterlimit="10" stroke-linecap="round" stroke-linejoin="round"/>
<path d="M129.99 88.8496C129.99 88.8496 133 97.4096 142.88 98.1796" stroke="#23110B" stroke-miterlimit="10" stroke-linecap="round" stroke-linejoin="round"/>
<path d="M140.1 84.9199C140.1 84.9199 141.9 91.1399 149.1 90.9699" stroke="#23110B" stroke-miterlimit="10" stroke-linecap="round" stroke-linejoin="round"/>
<path d="M96.3852 54.3509C96.3852 54.3509 82.8252 46.0209 70.9252 48.4409C53.1252 52.0609 60.5252 69.7709 60.5252 69.7709L96.3852 54.3509Z" fill="#3C1C11"/>
<path d="M195.77 318.29C195.77 318.29 211.57 236.35 210.85 222.24C210.13 208.13 197.83 212.47 193.13 200.54C188.43 188.6 189.51 180.65 181.56 171.24C173.6 161.84 188.97 161.84 193.86 169.97C198.74 178.11 200.37 185.16 203.44 186.25C206.51 187.34 208.68 175.94 210.13 170.34C211.58 164.74 209.76 157.14 210.94 147.74C212.12 138.34 211.94 125.14 217 125.14C222.06 125.14 220.62 141.05 220.62 146.66C220.62 152.27 221.52 163.84 222.07 164.56C222.61 165.28 223.88 164.56 223.88 164.56V140.87C223.88 140.87 223.16 122.24 226.95 120.44C230.74 118.64 233.46 119.17 233.46 124.96C233.46 130.75 233.1 144.67 233.46 149.37C233.82 154.07 233.46 165.65 234.36 166.01C235.26 166.37 236.17 166.37 236.17 166.37C236.17 166.37 237.07 154.25 238.16 145.57C239.25 136.89 240.15 128.93 244.31 129.29C248.47 129.65 247.75 140.5 246.66 149.18C245.58 157.86 244.67 169.07 245.03 172.87C245.39 176.67 246.66 173.59 246.66 173.59C246.66 173.59 250.1 154.78 252.81 150.26C255.52 145.74 258.6 146.1 257.87 153.52C257.15 160.93 254.07 173.95 253.71 183.54C253.35 193.13 251.54 206.69 243.04 216.63C243.04 216.63 240.65 220.83 241.77 235.26C243.78 260.93 244.62 318.29 244.62 318.29H195.77Z" fill="#F0CCB7"/>
<path d="M208.08 187.52C208.08 187.52 220.86 192.34 223.99 202.95" stroke="#33120B" stroke-width="1.5" stroke-miterlimit="10" stroke-linecap="round" stroke-linejoin="round"/>
<path d="M217.24 178.359C217.24 178.359 234.36 180.289 240.87 183.179" stroke="#33120B" stroke-width="1.5" stroke-miterlimit="10" stroke-linecap="round" stroke-linejoin="round"/>
<path d="M104.84 219.95C106.961 219.95 108.68 218.23 108.68 216.11C108.68 213.989 106.961 212.27 104.84 212.27C102.719 212.27 101 213.989 101 216.11C101 218.23 102.719 219.95 104.84 219.95Z" fill="#6178C3"/>
<path d="M104.84 234.7C106.961 234.7 108.68 232.98 108.68 230.86C108.68 228.739 106.961 227.02 104.84 227.02C102.719 227.02 101 228.739 101 230.86C101 232.98 102.719 234.7 104.84 234.7Z" fill="#6178C3"/>
<path d="M150.31 137.419C150.31 133.809 147.93 130.879 144.99 130.879C142.05 130.879 139.67 133.809 139.67 137.419C139.67 139.929 140.83 142.109 142.52 143.209C141.86 145.829 140.12 152.689 139.67 153.939C139.12 155.489 139.67 157.709 141 158.039C142.33 158.369 143.66 158.039 143.66 158.039L147.85 142.939C149.32 141.769 150.31 139.739 150.31 137.419Z" fill="#F5F3F1"/>
<path d="M52.4502 137.419C52.4502 133.809 54.8302 130.879 57.7702 130.879C60.7102 130.879 63.0902 133.809 63.0902 137.419C63.0902 139.929 61.9302 142.109 60.2402 143.209C60.9002 145.829 62.6402 152.689 63.0902 153.939C63.6402 155.489 63.0902 157.709 61.7602 158.039C60.4302 158.369 59.1002 158.039 59.1002 158.039L54.9102 142.939C53.4402 141.769 52.4502 139.739 52.4502 137.419Z" fill="#F5F3F1"/>
<path d="M112.753 147H100.253H85.2529C83.6529 147 83.9195 148.667 84.2529 149.5C85.7529 153 91.5376 157.856 93.2529 159C94.7529 160 97.2529 160.5 99.2529 160.5C102.053 160.5 105.003 159 106.753 157.5C108.753 155.786 110.253 154.5 111.753 152.5C112.601 151.369 113.753 150 114.253 149C115.253 147 113.42 147 112.753 147Z" fill="#3A1D1B"/>
<path d="M88 150C86.963 150 86.5 148.875 85 147H113C112 148.5 110.926 150 109.889 150H88Z" fill="white"/>
<mask id="mask1" mask-type="alpha" maskUnits="userSpaceOnUse" x="84" y="147" width="31" height="14">
<path d="M112.753 147H100.253H85.2529C83.6529 147 83.9195 148.667 84.2529 149.5C85.7529 153 91.5376 157.856 93.2529 159C94.7529 160 97.2529 160.5 99.2529 160.5C102.053 160.5 105.003 159 106.753 157.5C108.753 155.786 110.253 154.5 111.753 152.5C112.601 151.369 113.753 150 114.253 149C115.253 147 113.42 147 112.753 147Z" fill="#3A1D1B"/>
</mask>
<g mask="url(#mask1)">
<path d="M99.1818 153C94.6 153 90.4848 156.096 89 157.645C89.6364 159.635 93.4545 162.422 98.5455 162.953C103.636 163.483 108.727 159.414 110 157.645C108.303 156.096 103.764 153 99.1818 153Z" fill="#C06C61"/>
</g>
</g>
</svg>
