<svg width="280" height="280" viewBox="0 0 280 280" fill="none" xmlns="http://www.w3.org/2000/svg">
<circle cx="140" cy="140" r="140" fill="#FFC1C3"/>
<mask id="mask0" mask-type="alpha" maskUnits="userSpaceOnUse" x="0" y="0" width="280" height="280">
<circle cx="140" cy="140" r="140" fill="#FFC1C3"/>
</mask>
<g mask="url(#mask0)">
<g clip-path="url(#clip0)">
<path d="M166.045 200.249C166.045 200.249 175.684 208.895 180.316 210.934C188.247 214.435 200.458 218.086 211.997 222.302C223.525 226.529 237.305 228.311 247.029 245.603C256.753 262.895 271.078 323.684 271.078 323.684H131.344H-8.39062C-8.39062 323.684 5.92329 262.895 15.658 245.603C25.3928 228.311 39.1623 226.529 50.6903 222.302C62.2183 218.075 71.5766 214.644 83.4995 209.499C88.1427 207.492 94.4995 198.999 94.4995 198.999C94.4995 198.999 97.3786 192.938 128.163 192.938C158.947 192.938 166.045 200.249 166.045 200.249Z" fill="#3F3131"/>
<path d="M107.199 166.232C107.199 166.232 113.571 187.805 99.8125 201.777C99.8125 201.777 104.52 217.649 129.881 217.649C155.243 217.649 163.067 201.777 163.067 201.777C149.308 187.805 155.681 166.232 155.681 166.232H107.199Z" fill="#E4AC89"/>
<path d="M99.8232 201.777C99.8232 201.777 114.126 194.006 138.89 179.265L107.199 166.232C107.199 166.232 104.072 191.829 99.8232 201.777Z" fill="#291213"/>
<path d="M171.168 105.486C171.168 105.486 170.634 125.489 169.567 138.448C168.499 151.406 157.879 176.757 131.375 176.757C104.871 176.757 94.2505 151.406 93.1831 138.448C92.1157 125.489 91.582 105.486 91.582 105.486C91.7848 94.3423 93.941 54.7949 131.375 54.7949C168.809 54.7949 171.168 99.0282 171.168 105.486Z" fill="#E4AC89"/>
<path d="M137.5 104V101C137.667 100.333 138.5 99 140.5 99H154.5C156.167 99.1667 159.7 100.1 160.5 102.5L161.461 105.865C161.488 105.914 161.5 105.959 161.5 106L161.461 105.865C161.269 105.514 160.31 105 157.5 105H137.5V104Z" fill="#7D6B67"/>
<path d="M121 104V101C120.833 100.333 120 99 118 99H104C102.333 99.1667 98.8 100.1 98 102.5L97.0386 105.865C97.0119 105.914 97 105.959 97 106L97.0386 105.865C97.2307 105.514 98.19 105 101 105H121V104Z" fill="#7D6B67"/>
<path d="M92.0202 117.942C92.0202 117.942 89.5865 104.77 81.218 105.485C72.8602 106.2 74.0984 119.543 76.9484 125.766C79.7984 131.989 85.2208 138.842 93.1837 138.436L92.0202 117.942Z" fill="#E4AC89"/>
<path d="M170.699 117.942C170.699 117.942 173.132 104.77 181.501 105.485C189.859 106.2 188.62 119.543 185.77 125.766C182.92 131.989 177.498 138.842 169.535 138.436L170.699 117.942Z" fill="#E4AC89"/>
<path d="M159.363 68.8954C159.363 68.8954 158.189 81.9498 163.59 90.3076C168.863 98.4625 170.325 104.184 169.098 111.677C167.86 119.234 169.557 138.448 169.557 138.448C169.557 138.448 172.588 136.046 173.015 129.193C174.168 110.823 181.49 105.486 181.49 105.486C181.49 105.486 187.393 90.2222 187.905 83.1346C188.418 76.0897 184.607 50.9736 170.165 54.795C170.165 54.795 173.058 38.3356 150.194 34.1193C127.191 29.871 120.766 47.4512 120.766 47.4512C120.766 47.4512 109.152 39.8406 93.1732 50.045C75.9559 61.05 84.8901 81.5335 84.8901 81.5335C84.8901 81.5335 79.2115 83.316 77.9733 95.0255C77.2582 101.686 83.321 105.219 85.4238 109.137C89.3946 116.534 88.167 118.039 89.1491 125.137C89.6187 128.531 92.9277 137.007 93.1732 138.437C93.1732 138.437 90.6968 96.8508 100.058 90.521C100.058 90.521 112.162 94.844 122.356 85.8138C132.091 77.2105 148.806 61.3275 159.363 68.8954Z" fill="#776B67"/>
<path d="M131.45 186.641C158.445 186.641 169.343 167.801 170.175 160.735C172.182 143.667 172.577 138.191 172.577 138.191C172.577 138.191 173.047 128.702 173.079 128.264C173.079 128.264 171.937 131.136 169.567 138.437C166.386 148.225 161.188 163.329 155.541 164.77C145.209 167.417 140.79 162.859 132.944 162.325C125.099 161.792 118.406 169.829 108.394 166.083C101.253 163.414 95.1581 140.796 93.0873 136.996C93.1193 137.433 89.1699 124.998 89.1699 124.998C89.5649 132.737 90.28 150.808 93.194 161.087C95.553 169.466 104.551 186.641 131.45 186.641Z" fill="#776B67"/>
<path d="M146.588 147L116.183 147.263C116.183 147.263 113.241 160 130.947 160C151.001 160 146.588 147 146.588 147Z" fill="white"/>
<path d="M115.193 121.966C117.127 121.966 118.695 119.825 118.695 117.184C118.695 114.543 117.127 112.402 115.193 112.402C113.26 112.402 111.692 114.543 111.692 117.184C111.692 119.825 113.26 121.966 115.193 121.966Z" fill="#311E17"/>
<path d="M148.212 121.966C150.146 121.966 151.713 119.825 151.713 117.184C151.713 114.543 150.146 112.402 148.212 112.402C146.278 112.402 144.711 114.543 144.711 117.184C144.711 119.825 146.278 121.966 148.212 121.966Z" fill="#311E17"/>
<path d="M126.615 113.758C126.615 113.758 130.383 110.631 137.086 114.26" stroke="#2B1813" stroke-width="4" stroke-miterlimit="10" stroke-linecap="round" stroke-linejoin="round"/>
<path d="M81.3467 114.484C81.3467 114.484 86.1073 116.555 88.05 124.187" stroke="#311E17" stroke-miterlimit="10" stroke-linecap="round" stroke-linejoin="round"/>
<path d="M149.959 143.502C145.38 140.075 132.667 141.303 131.451 141.431C130.234 141.303 117.532 140.075 112.942 143.502C108.128 147.11 110.316 153.083 111.405 153.595C111.405 153.595 114.692 151.219 117.532 151.219C120.382 151.219 128.473 151.667 130.671 148.348C131.013 147.835 131.258 147.323 131.44 146.811C131.632 147.323 131.878 147.835 132.208 148.348C134.397 151.657 142.498 151.219 145.348 151.219C148.198 151.219 151.475 153.595 151.475 153.595C152.585 153.083 154.773 147.11 149.959 143.502Z" fill="#5B5050"/>
<path d="M182.825 115.135C182.825 115.135 177.381 115.989 174.531 125.852" stroke="#311E17" stroke-miterlimit="10" stroke-linecap="round" stroke-linejoin="round"/>
<path d="M139.275 138.457L131.45 141.777L124.918 138.457" stroke="#311E17" stroke-miterlimit="10" stroke-linecap="round" stroke-linejoin="round"/>
<path d="M26.9082 255.936C26.9082 255.936 49.7293 276.504 54.2765 323.107" stroke="#5B5050" stroke-miterlimit="10" stroke-linecap="round" stroke-linejoin="round"/>
<path d="M230.1 250.184C230.1 250.184 199.412 304.557 197.48 317.035" stroke="#5B5050" stroke-miterlimit="10" stroke-linecap="round" stroke-linejoin="round"/>
<path d="M195.238 278.523C195.238 278.523 205.731 274.274 210.63 273.816C215.53 273.357 229.363 274.616 229.363 274.616" stroke="#33120B" stroke-miterlimit="10" stroke-linecap="round" stroke-linejoin="round"/>
<path d="M131.376 121.123L131.451 134.957" stroke="#311E17" stroke-miterlimit="10" stroke-linecap="round" stroke-linejoin="round"/>
<path d="M159.363 68.8942C159.363 68.8942 161.359 59.4797 155.638 57.5797C149.916 55.6797 140.15 69.1824 140.15 69.1824L134.994 75.0958C134.994 75.0958 142.317 69.8656 145.327 68.7555C148.337 67.6454 153.428 64.9555 159.363 68.8942Z" fill="#4B3F3D"/>
<path d="M120.776 47.4499C120.776 47.4499 122.345 58.7537 115.193 64.6778C115.193 64.6778 117.787 50.0223 114.126 45.1016C114.126 45.1016 119.997 46.201 120.776 47.4499Z" fill="#4B3F3D"/>
<path d="M84.9111 81.543C84.9111 81.543 91.6251 91.0642 100.068 90.5305C100.068 90.5305 86.5976 99.2406 84.9111 81.543Z" fill="#4B3F3D"/>
<path d="M169.963 117.815H166.259L165.65 111.453H169.963V117.815Z" fill="#2B1813"/>
<path d="M97.5283 117.815H92.9385V111.453H98.5424L97.5283 117.815Z" fill="#2B1813"/>
<path d="M167.336 68.7129C167.336 68.7129 165.628 80.1875 169.845 87.1043" stroke="#6B5E5B" stroke-width="1.5" stroke-miterlimit="10" stroke-linecap="round" stroke-linejoin="round"/>
<path d="M258.315 330.45C258.315 330.45 247.546 242.029 242.196 227.929C236.846 213.83 225.77 222.265 217.09 211.683C208.406 201.091 206.901 192.66 195.744 185.702C184.58 178.758 200.195 173.726 207.825 180.386C215.447 187.058 219.411 193.687 222.887 193.79C226.363 193.892 224.836 181.6 224.476 175.436C224.113 169.262 219.779 162.146 217.901 152.21C216.023 142.273 211.519 128.921 216.66 127.265C221.801 125.609 225.546 142.244 227.382 147.944C229.218 153.643 233.92 165.104 234.715 165.655C235.499 166.21 236.553 165.063 236.553 165.063L228.799 140.994C228.799 140.994 221.969 122.302 225.231 119.233C228.499 116.15 231.429 115.812 233.324 121.694C235.219 127.577 239.41 141.837 241.314 146.494C243.219 151.151 246.643 163.034 247.676 163.105C248.708 163.177 249.632 162.879 249.632 162.879C249.632 162.879 246.579 150.271 244.846 141.095C243.102 131.923 241.421 123.538 245.765 122.542C250.109 121.546 252.929 132.805 254.663 141.98C256.397 151.156 259.152 162.84 260.761 166.582C262.371 170.325 262.653 166.78 262.653 166.78C262.653 166.78 259.991 146.544 261.265 141.065C262.539 135.585 265.786 134.943 267.473 142.72C269.167 150.484 270.299 164.721 273.073 174.582C275.843 184.433 278.446 198.812 273.064 211.693C273.064 211.693 272.01 216.742 277.872 231.036C288.316 256.459 307.946 314.46 307.946 314.46L258.315 330.45Z" fill="#E4AC89"/>
<path d="M228.02 193.572C228.02 193.572 242.581 194.286 249.234 204.041" stroke="#33120B" stroke-miterlimit="10" stroke-linecap="round" stroke-linejoin="round"/>
<path d="M234.324 181.256C234.324 181.256 252.349 177.613 259.909 178.418" stroke="#33120B" stroke-miterlimit="10" stroke-linecap="round" stroke-linejoin="round"/>
<path opacity="0.3" d="M111.085 131.124C118.725 131.124 124.918 124.931 124.918 117.291C124.918 109.651 118.725 103.457 111.085 103.457C103.444 103.457 97.251 109.651 97.251 117.291C97.251 124.931 103.444 131.124 111.085 131.124Z" fill="#2B1813" stroke="#2B1813" stroke-width="1.5" stroke-miterlimit="10"/>
<path opacity="0.3" d="M152.435 131.124C160.075 131.124 166.269 124.931 166.269 117.291C166.269 109.651 160.075 103.457 152.435 103.457C144.795 103.457 138.602 109.651 138.602 117.291C138.602 124.931 144.795 131.124 152.435 131.124Z" fill="#2B1813" stroke="#2B1813" stroke-width="1.5" stroke-miterlimit="10"/>
<path d="M111.085 131.124C118.725 131.124 124.918 124.931 124.918 117.291C124.918 109.651 118.725 103.457 111.085 103.457C103.444 103.457 97.251 109.651 97.251 117.291C97.251 124.931 103.444 131.124 111.085 131.124Z" stroke="#2B1813" stroke-width="1.5" stroke-miterlimit="10"/>
<path d="M152.435 131.124C160.075 131.124 166.269 124.931 166.269 117.291C166.269 109.651 160.075 103.457 152.435 103.457C144.795 103.457 138.602 109.651 138.602 117.291C138.602 124.931 144.795 131.124 152.435 131.124Z" stroke="#2B1813" stroke-width="1.5" stroke-miterlimit="10"/>
<path d="M102.491 189.693C102.491 189.693 112.695 209.195 129.891 217.649L109.499 227.5L93.29 200.25L102.491 189.693Z" fill="white"/>
<path d="M157.292 189.693C157.292 189.693 147.088 209.195 129.892 217.649L152.999 226L166.493 200.25L157.292 189.693Z" fill="white"/>
</g>
</g>
<defs>
<clipPath id="clip0">
<rect width="297.39" height="333.895" fill="white" transform="translate(-8.39062 33.457)"/>
</clipPath>
</defs>
</svg>
