<svg width="760" height="475" viewBox="0 0 760 475" fill="none" xmlns="http://www.w3.org/2000/svg">
<path d="M0 15H760V467.253C760 471.531 756.418 475 752 475H7.99999C3.58171 475 0 471.531 0 467.253V15Z" fill="#F5F5F5"/>
<path d="M0 8C0 3.58172 3.58172 0 8 0H752C756.418 0 760 3.58172 760 8V15H0V8Z" fill="#BB4045"/>
<path d="M8 23H128V467H8V23Z" fill="white"/>
<path d="M8 23H128V63H8V23Z" fill="#FBE9E9"/>
<path fill-rule="evenodd" clip-rule="evenodd" d="M33 37H31V42H26V44H31V49H33V44H38V42H33V37Z" fill="#BB4045"/>
<path d="M46.0918 47.9994H47.7718V44.4354C47.7718 43.4154 47.6398 42.2994 47.5558 41.3394H47.6158L48.5158 43.2474L51.0838 47.9994H52.8838V39.1074H51.2038V42.6594C51.2038 43.6674 51.3478 44.8434 51.4318 45.7674H51.3718L50.4838 43.8474L47.9038 39.1074H46.0918V47.9994Z" fill="#BB4045"/>
<path d="M57.8641 48.1674C58.6921 48.1674 59.5441 47.8794 60.2041 47.4234L59.6041 46.3434C59.1241 46.6434 58.6441 46.8114 58.0921 46.8114C57.0961 46.8114 56.3761 46.2354 56.2321 45.1314H60.3721C60.4201 44.9754 60.4561 44.6514 60.4561 44.3154C60.4561 42.4674 59.4961 41.1114 57.6481 41.1114C56.0521 41.1114 54.5161 42.4674 54.5161 44.6394C54.5161 46.8594 55.9801 48.1674 57.8641 48.1674ZM56.2081 43.9554C56.3401 42.9834 56.9641 42.4794 57.6721 42.4794C58.5361 42.4794 58.9441 43.0554 58.9441 43.9554H56.2081Z" fill="#BB4045"/>
<path d="M62.9779 47.9994H64.9939L65.6779 45.0714C65.8219 44.4474 65.9179 43.8234 66.0499 43.1154H66.1099C66.2419 43.8234 66.3499 44.4354 66.4939 45.0714L67.2019 47.9994H69.2779L70.9339 41.2794H69.3019L68.5699 44.5914C68.4499 45.2514 68.3539 45.8874 68.2339 46.5594H68.1739C68.0299 45.8874 67.9099 45.2514 67.7539 44.5914L66.9139 41.2794H65.3539L64.5379 44.5914C64.3699 45.2394 64.2499 45.8874 64.1179 46.5594H64.0699C63.9499 45.8874 63.8659 45.2514 63.7339 44.5914L63.0019 41.2794H61.2379L62.9779 47.9994Z" fill="#BB4045"/>
<path d="M77.868 48.1674C78.696 48.1674 79.548 47.8794 80.208 47.4234L79.608 46.3434C79.128 46.6434 78.648 46.8114 78.096 46.8114C77.1 46.8114 76.38 46.2354 76.236 45.1314H80.376C80.424 44.9754 80.46 44.6514 80.46 44.3154C80.46 42.4674 79.5 41.1114 77.652 41.1114C76.056 41.1114 74.52 42.4674 74.52 44.6394C74.52 46.8594 75.984 48.1674 77.868 48.1674ZM76.212 43.9554C76.344 42.9834 76.968 42.4794 77.676 42.4794C78.54 42.4794 78.948 43.0554 78.948 43.9554H76.212Z" fill="#BB4045"/>
<path d="M83.3778 47.9994H85.4178L87.6618 41.2794H85.9698L84.9858 44.6274C84.8058 45.2874 84.6258 45.9834 84.4458 46.6674H84.3858C84.2058 45.9834 84.0258 45.2874 83.8458 44.6274L82.8618 41.2794H81.0858L83.3778 47.9994Z" fill="#BB4045"/>
<path d="M91.6141 48.1674C92.4421 48.1674 93.2941 47.8794 93.9541 47.4234L93.3541 46.3434C92.8741 46.6434 92.3941 46.8114 91.8421 46.8114C90.8461 46.8114 90.1261 46.2354 89.9821 45.1314H94.1221C94.1701 44.9754 94.2061 44.6514 94.2061 44.3154C94.2061 42.4674 93.2461 41.1114 91.3981 41.1114C89.8021 41.1114 88.2661 42.4674 88.2661 44.6394C88.2661 46.8594 89.7301 48.1674 91.6141 48.1674ZM89.9581 43.9554C90.0901 42.9834 90.7141 42.4794 91.4221 42.4794C92.2861 42.4794 92.6941 43.0554 92.6941 43.9554H89.9581Z" fill="#BB4045"/>
<path d="M95.6587 47.9994H97.4227V43.3794C97.9147 42.8874 98.2627 42.6234 98.8147 42.6234C99.4747 42.6234 99.7627 42.9834 99.7627 44.0274V47.9994H101.527V43.8114C101.527 42.1194 100.903 41.1114 99.4507 41.1114C98.5387 41.1114 97.8547 41.5914 97.2667 42.1674H97.2307L97.0987 41.2794H95.6587V47.9994Z" fill="#BB4045"/>
<path d="M105.806 48.1674C106.394 48.1674 106.862 48.0354 107.222 47.9154L106.934 46.6314C106.754 46.7034 106.49 46.7754 106.274 46.7754C105.674 46.7754 105.362 46.4154 105.362 45.6474V42.6714H107.018V41.2794H105.362V39.4674H103.898L103.694 41.2794L102.65 41.3634V42.6714H103.598V45.6474C103.598 47.1474 104.21 48.1674 105.806 48.1674Z" fill="#BB4045"/>
<path d="M45.001 176.001H46.464V172.602C46.464 171.832 46.332 170.699 46.255 169.929H46.299L46.948 171.843L48.213 175.264H49.148L50.402 171.843L51.062 169.929H51.117C51.029 170.699 50.908 171.832 50.908 172.602V176.001H52.393V167.85H50.589L49.236 171.667C49.06 172.173 48.917 172.712 48.741 173.229H48.686C48.521 172.712 48.367 172.173 48.191 171.667L46.805 167.85H45.001V176.001Z" fill="#222222"/>
<path d="M54.7966 178.476C56.1716 178.476 56.8316 177.64 57.3706 176.188L59.5596 169.841H58.0086L57.1616 172.701C57.0186 173.273 56.8646 173.867 56.7216 174.439H56.6666C56.4906 173.845 56.3366 173.251 56.1496 172.701L55.1706 169.841H53.5426L55.9406 175.891L55.8306 176.254C55.6546 176.793 55.3026 177.189 54.6756 177.189C54.5326 177.189 54.3566 177.145 54.2466 177.112L53.9496 178.355C54.1916 178.432 54.4336 178.476 54.7966 178.476Z" fill="#222222"/>
<path d="M65.6842 176.155C66.3662 176.155 67.1142 175.924 67.7082 175.407L67.0592 174.34C66.7182 174.626 66.3002 174.835 65.8602 174.835C64.9802 174.835 64.3312 174.087 64.3312 172.921C64.3312 171.766 64.9692 171.007 65.9152 171.007C66.2562 171.007 66.5422 171.15 66.8502 171.414L67.6202 170.369C67.1692 169.984 66.5862 169.687 65.8272 169.687C64.1552 169.687 62.6812 170.875 62.6812 172.921C62.6812 174.967 63.9792 176.155 65.6842 176.155Z" fill="#222222"/>
<path d="M70.2561 176.155C70.9601 176.155 71.5761 175.803 72.1151 175.341H72.1591L72.2691 176.001H73.5891V172.404C73.5891 170.622 72.7861 169.687 71.2241 169.687C70.2561 169.687 69.3761 170.05 68.6501 170.501L69.2331 171.568C69.8051 171.238 70.3551 170.985 70.9271 170.985C71.6861 170.985 71.9501 171.447 71.9831 172.052C69.4971 172.316 68.4301 173.009 68.4301 174.329C68.4301 175.374 69.1561 176.155 70.2561 176.155ZM70.7841 174.89C70.3111 174.89 69.9701 174.681 69.9701 174.197C69.9701 173.647 70.4761 173.229 71.9831 173.042V174.285C71.5871 174.67 71.2461 174.89 70.7841 174.89Z" fill="#222222"/>
<path d="M76.7551 176.155C77.1401 176.155 77.4041 176.089 77.5911 176.012L77.3931 174.813C77.2831 174.835 77.2391 174.835 77.1731 174.835C77.0191 174.835 76.8541 174.714 76.8541 174.34V167.223H75.2371V174.274C75.2371 175.418 75.6331 176.155 76.7551 176.155Z" fill="#222222"/>
<path d="M81.3909 176.155C82.1499 176.155 82.9309 175.891 83.5359 175.473L82.9859 174.483C82.5459 174.758 82.1059 174.912 81.5999 174.912C80.6869 174.912 80.0269 174.384 79.8949 173.372H83.6899C83.7339 173.229 83.7669 172.932 83.7669 172.624C83.7669 170.93 82.8869 169.687 81.1929 169.687C79.7299 169.687 78.3219 170.93 78.3219 172.921C78.3219 174.956 79.6639 176.155 81.3909 176.155ZM79.8729 172.294C79.9939 171.403 80.5659 170.941 81.2149 170.941C82.0069 170.941 82.3809 171.469 82.3809 172.294H79.8729Z" fill="#222222"/>
<path d="M85.0985 176.001H86.7155V171.766C87.1665 171.315 87.4855 171.073 87.9915 171.073C88.5965 171.073 88.8605 171.403 88.8605 172.36V176.001H90.4775V172.162C90.4775 170.611 89.9055 169.687 88.5745 169.687C87.7385 169.687 87.1115 170.127 86.5725 170.655H86.5395L86.4185 169.841H85.0985V176.001Z" fill="#222222"/>
<path d="M94.3123 176.155C94.9503 176.155 95.5663 175.803 96.0173 175.363H96.0613L96.1823 176.001H97.4913V167.223H95.8853V169.39L95.9403 170.358C95.5003 169.951 95.0713 169.687 94.3783 169.687C93.0473 169.687 91.7933 170.919 91.7933 172.921C91.7933 174.945 92.7833 176.155 94.3123 176.155ZM94.7303 174.824C93.9163 174.824 93.4543 174.186 93.4543 172.91C93.4543 171.678 94.0373 171.018 94.7303 171.018C95.1153 171.018 95.5113 171.139 95.8853 171.48V174.186C95.5223 174.648 95.1593 174.824 94.7303 174.824Z" fill="#222222"/>
<path d="M100.742 176.155C101.446 176.155 102.062 175.803 102.601 175.341H102.645L102.755 176.001H104.075V172.404C104.075 170.622 103.272 169.687 101.71 169.687C100.742 169.687 99.8624 170.05 99.1364 170.501L99.7194 171.568C100.291 171.238 100.841 170.985 101.413 170.985C102.172 170.985 102.436 171.447 102.469 172.052C99.9834 172.316 98.9164 173.009 98.9164 174.329C98.9164 175.374 99.6424 176.155 100.742 176.155ZM101.27 174.89C100.797 174.89 100.456 174.681 100.456 174.197C100.456 173.647 100.962 173.229 102.469 173.042V174.285C102.073 174.67 101.732 174.89 101.27 174.89Z" fill="#222222"/>
<path d="M105.723 176.001H107.34V172.327C107.681 171.436 108.264 171.117 108.748 171.117C109.001 171.117 109.177 171.15 109.397 171.216L109.672 169.819C109.485 169.742 109.287 169.687 108.946 169.687C108.308 169.687 107.648 170.127 107.197 170.93H107.164L107.043 169.841H105.723V176.001Z" fill="#222222"/>
<path fill-rule="evenodd" clip-rule="evenodd" d="M110 93H26V97H110V93ZM110 109H26V113H110V109ZM26 125H110V129H26V125ZM110 141H26V145H110V141Z" fill="#EEEEEE"/>
<path d="M94 127C94 129.761 91.7614 132 89 132C86.2386 132 84 129.761 84 127C84 124.239 86.2386 122 89 122C91.7614 122 94 124.239 94 127Z" fill="#285BF6"/>
<path d="M26 165H40V179H26V165Z" fill="#285BF6"/>
<path fill-rule="evenodd" clip-rule="evenodd" d="M33.2998 174.099L33.2999 174.1L32.1 175.3L28.5 171.7L29.7 170.5L32.0998 172.899L36.3 168.699L37.5 169.899L33.2998 174.099Z" fill="white"/>
<path d="M30 197H40V207H30V197Z" fill="#BEDFA3"/>
<path fill-rule="evenodd" clip-rule="evenodd" d="M33.5 203.501L33.4999 203.502L34.357 204.359L38.2141 200.502L37.357 199.645L34.3572 202.644L32.6428 200.93L31.7856 201.787L33.5 203.501Z" fill="white"/>
<path d="M44 200H110V204H44V200Z" fill="#EEEEEE"/>
<path d="M30 223H40V233H30V223Z" fill="#ECC3A3"/>
<path fill-rule="evenodd" clip-rule="evenodd" d="M33.5 229.501L33.4999 229.502L34.357 230.359L38.2141 226.502L37.357 225.645L34.3572 228.644L32.6428 226.93L31.7856 227.787L33.5 229.501Z" fill="white"/>
<path d="M44 226H110V230H44V226Z" fill="#EEEEEE"/>
<path d="M30 249H40V259H30V249Z" fill="#C5E6DE"/>
<path fill-rule="evenodd" clip-rule="evenodd" d="M33.5 255.501L33.4999 255.502L34.357 256.359L38.2141 252.502L37.357 251.645L34.3572 254.644L32.6428 252.93L31.7856 253.787L33.5 255.501Z" fill="white"/>
<path d="M44 252H110V256H44V252Z" fill="#EEEEEE"/>
<path d="M136 23H752V467H136V23Z" fill="white"/>
<path d="M232 123C232 121.895 232.895 121 234 121H566C567.105 121 568 121.895 568 123V139C568 140.105 567.105 141 566 141H234C232.895 141 232 140.105 232 139V123Z" fill="#EBFADF"/>
<path d="M585 123C585 121.895 585.895 121 587 121H655C656.105 121 657 121.895 657 123V139C657 140.105 656.105 141 655 141H587C585.895 141 585 140.105 585 139V123Z" fill="#E7F2FD"/>
<path d="M585 214C585 212.895 585.895 212 587 212H655C656.105 212 657 212.895 657 214V230C657 231.105 656.105 232 655 232H587C585.895 232 585 231.105 585 230V214Z" fill="#FBEBF6"/>
<path d="M497 151C497 149.895 497.895 149 499 149H566C567.105 149 568 149.895 568 151V167C568 168.105 567.105 169 566 169H499C497.895 169 497 168.105 497 167V151Z" fill="#EFEDFD"/>
<path d="M321 151C321 149.895 321.895 149 323 149H478C479.105 149 480 149.895 480 151V167C480 168.105 479.105 169 478 169H323C321.895 169 321 168.105 321 167V151Z" fill="#FFF2E7"/>
<path d="M321 206C321 204.895 321.895 204 323 204H391C392.105 204 393 204.895 393 206V238C393 239.105 392.105 240 391 240H323C321.895 240 321 239.105 321 238V206Z" fill="#E7FAF5"/>
<path d="M497 188C497 186.895 497.895 186 499 186H566C567.105 186 568 186.895 568 188V256C568 257.105 567.105 258 566 258H499C497.895 258 497 257.105 497 256V188Z" fill="#E7FAF5"/>
<path d="M409 260C409 258.895 409.895 258 411 258H478C479.105 258 480 258.895 480 260V328C480 329.105 479.105 330 478 330H411C409.895 330 409 329.105 409 328V260Z" fill="#CD76B0"/>
<path d="M417.819 285.999H419.016V283.218C419.016 282.588 418.908 281.661 418.845 281.031H418.881L419.412 282.597L420.447 285.396H421.212L422.238 282.597L422.778 281.031H422.823C422.751 281.661 422.652 282.588 422.652 283.218V285.999H423.867V279.33H422.391L421.284 282.453C421.14 282.867 421.023 283.308 420.879 283.731H420.834C420.699 283.308 420.573 282.867 420.429 282.453L419.295 279.33H417.819V285.999Z" fill="white"/>
<path d="M427.589 286.125C428.21 286.125 428.849 285.909 429.344 285.567L428.894 284.757C428.534 284.982 428.174 285.108 427.76 285.108C427.013 285.108 426.473 284.676 426.365 283.848H429.47C429.506 283.731 429.533 283.488 429.533 283.236C429.533 281.85 428.813 280.833 427.427 280.833C426.23 280.833 425.078 281.85 425.078 283.479C425.078 285.144 426.176 286.125 427.589 286.125ZM426.347 282.966C426.446 282.237 426.914 281.859 427.445 281.859C428.093 281.859 428.399 282.291 428.399 282.966H426.347Z" fill="white"/>
<path d="M432.062 286.125C433.376 286.125 434.069 285.414 434.069 284.532C434.069 283.596 433.331 283.263 432.665 283.011C432.134 282.813 431.666 282.678 431.666 282.309C431.666 282.021 431.882 281.823 432.341 281.823C432.71 281.823 433.061 281.994 433.421 282.255L434.015 281.454C433.601 281.139 433.034 280.833 432.305 280.833C431.153 280.833 430.424 281.472 430.424 282.372C430.424 283.218 431.135 283.605 431.774 283.848C432.305 284.055 432.827 284.226 432.827 284.604C432.827 284.919 432.602 285.135 432.098 285.135C431.63 285.135 431.198 284.937 430.748 284.586L430.145 285.414C430.649 285.828 431.387 286.125 432.062 286.125Z" fill="white"/>
<path d="M436.518 286.125C437.832 286.125 438.525 285.414 438.525 284.532C438.525 283.596 437.787 283.263 437.121 283.011C436.59 282.813 436.122 282.678 436.122 282.309C436.122 282.021 436.338 281.823 436.797 281.823C437.166 281.823 437.517 281.994 437.877 282.255L438.471 281.454C438.057 281.139 437.49 280.833 436.761 280.833C435.609 280.833 434.88 281.472 434.88 282.372C434.88 283.218 435.591 283.605 436.23 283.848C436.761 284.055 437.283 284.226 437.283 284.604C437.283 284.919 437.058 285.135 436.554 285.135C436.086 285.135 435.654 284.937 435.204 284.586L434.601 285.414C435.105 285.828 435.843 286.125 436.518 286.125Z" fill="white"/>
<path d="M441.73 286.125C442.351 286.125 442.99 285.909 443.485 285.567L443.035 284.757C442.675 284.982 442.315 285.108 441.901 285.108C441.154 285.108 440.614 284.676 440.506 283.848H443.611C443.647 283.731 443.674 283.488 443.674 283.236C443.674 281.85 442.954 280.833 441.568 280.833C440.371 280.833 439.219 281.85 439.219 283.479C439.219 285.144 440.317 286.125 441.73 286.125ZM440.488 282.966C440.587 282.237 441.055 281.859 441.586 281.859C442.234 281.859 442.54 282.291 442.54 282.966H440.488Z" fill="white"/>
<path d="M444.764 285.999H446.087V282.534C446.456 282.165 446.717 281.967 447.131 281.967C447.626 281.967 447.842 282.237 447.842 283.02V285.999H449.165V282.858C449.165 281.589 448.697 280.833 447.608 280.833C446.924 280.833 446.411 281.193 445.97 281.625H445.943L445.844 280.959H444.764V285.999Z" fill="white"/>
<path d="M452.302 288.186C453.985 288.186 455.047 287.412 455.047 286.395C455.047 285.513 454.381 285.135 453.166 285.135H452.311C451.717 285.135 451.519 284.991 451.519 284.721C451.519 284.514 451.6 284.406 451.735 284.289C451.951 284.361 452.185 284.406 452.383 284.406C453.463 284.406 454.327 283.83 454.327 282.696C454.327 282.381 454.228 282.102 454.102 281.931H454.957V280.959H453.139C452.932 280.887 452.662 280.833 452.383 280.833C451.312 280.833 450.349 281.472 450.349 282.651C450.349 283.245 450.673 283.722 451.024 283.974V284.01C450.718 284.226 450.457 284.577 450.457 284.955C450.457 285.369 450.655 285.63 450.916 285.801V285.846C450.457 286.107 450.196 286.467 450.196 286.89C450.196 287.781 451.114 288.186 452.302 288.186ZM452.383 283.587C451.942 283.587 451.591 283.254 451.591 282.651C451.591 282.066 451.933 281.733 452.383 281.733C452.833 281.733 453.175 282.066 453.175 282.651C453.175 283.254 452.824 283.587 452.383 283.587ZM452.5 287.349C451.771 287.349 451.303 287.106 451.303 286.683C451.303 286.476 451.402 286.278 451.627 286.098C451.807 286.143 452.023 286.17 452.329 286.17H452.941C453.481 286.17 453.778 286.26 453.778 286.62C453.778 287.016 453.256 287.349 452.5 287.349Z" fill="white"/>
<path d="M457.928 286.125C458.549 286.125 459.188 285.909 459.683 285.567L459.233 284.757C458.873 284.982 458.513 285.108 458.099 285.108C457.352 285.108 456.812 284.676 456.704 283.848H459.809C459.845 283.731 459.872 283.488 459.872 283.236C459.872 281.85 459.152 280.833 457.766 280.833C456.569 280.833 455.417 281.85 455.417 283.479C455.417 285.144 456.515 286.125 457.928 286.125ZM456.686 282.966C456.785 282.237 457.253 281.859 457.784 281.859C458.432 281.859 458.738 282.291 458.738 282.966H456.686Z" fill="white"/>
<path d="M460.962 285.999H462.285V282.993C462.564 282.264 463.041 282.003 463.437 282.003C463.644 282.003 463.788 282.03 463.968 282.084L464.193 280.941C464.04 280.878 463.878 280.833 463.599 280.833C463.077 280.833 462.537 281.193 462.168 281.85H462.141L462.042 280.959H460.962V285.999Z" fill="white"/>
<path d="M418.476 297.371L419.511 295.733C419.7 295.373 419.88 295.04 420.042 294.689H420.078C420.06 295.076 420.033 295.688 420.033 296.075V297.371H418.476ZM420.033 299.999H421.266V298.388H422.049V297.371H421.266V293.51H419.673L417.189 297.479V298.388H420.033V299.999Z" fill="white"/>
<path d="M422.741 297.893H425.198V296.948H422.741V297.893Z" fill="white"/>
<path d="M428.097 300.125C429.366 300.125 430.437 299.432 430.437 298.244C430.437 297.389 429.861 296.84 429.114 296.642V296.597C429.807 296.318 430.221 295.832 430.221 295.13C430.221 294.014 429.348 293.384 428.061 293.384C427.278 293.384 426.639 293.708 426.063 294.212L426.738 295.022C427.134 294.653 427.521 294.428 427.998 294.428C428.565 294.428 428.889 294.725 428.889 295.229C428.889 295.787 428.493 296.192 427.269 296.192V297.146C428.718 297.146 429.105 297.533 429.105 298.163C429.105 298.721 428.646 299.045 427.971 299.045C427.368 299.045 426.882 298.748 426.486 298.361L425.865 299.198C426.333 299.729 427.044 300.125 428.097 300.125Z" fill="white"/>
<path d="M433.789 299.999H435.121V297.479H436.048L437.416 299.999H438.901L437.344 297.272C438.109 296.975 438.613 296.354 438.613 295.355C438.613 293.825 437.506 293.33 436.111 293.33H433.789V299.999ZM435.121 296.426V294.392H435.985C436.84 294.392 437.317 294.635 437.317 295.355C437.317 296.066 436.84 296.426 435.985 296.426H435.121Z" fill="white"/>
<path d="M441.816 300.125C443.076 300.125 444.237 299.153 444.237 297.479C444.237 295.805 443.076 294.833 441.816 294.833C440.556 294.833 439.395 295.805 439.395 297.479C439.395 299.153 440.556 300.125 441.816 300.125ZM441.816 299.045C441.132 299.045 440.745 298.433 440.745 297.479C440.745 296.534 441.132 295.913 441.816 295.913C442.5 295.913 442.887 296.534 442.887 297.479C442.887 298.433 442.5 299.045 441.816 299.045Z" fill="white"/>
<path d="M447.45 300.125C448.71 300.125 449.871 299.153 449.871 297.479C449.871 295.805 448.71 294.833 447.45 294.833C446.19 294.833 445.029 295.805 445.029 297.479C445.029 299.153 446.19 300.125 447.45 300.125ZM447.45 299.045C446.766 299.045 446.379 298.433 446.379 297.479C446.379 296.534 446.766 295.913 447.45 295.913C448.134 295.913 448.521 296.534 448.521 297.479C448.521 298.433 448.134 299.045 447.45 299.045Z" fill="white"/>
<path d="M450.978 299.999H452.301V296.534C452.652 296.156 452.976 295.967 453.264 295.967C453.741 295.967 453.975 296.237 453.975 297.02V299.999H455.289V296.534C455.649 296.156 455.973 295.967 456.261 295.967C456.738 295.967 456.963 296.237 456.963 297.02V299.999H458.286V296.858C458.286 295.589 457.791 294.833 456.72 294.833C456.063 294.833 455.577 295.229 455.118 295.715C454.875 295.157 454.452 294.833 453.732 294.833C453.075 294.833 452.607 295.193 452.184 295.634H452.157L452.058 294.959H450.978V299.999Z" fill="white"/>
<path d="M408 340C408 338.895 408.895 338 410 338H478C479.105 338 480 338.895 480 340V380C480 381.105 479.105 382 478 382H410C408.895 382 408 381.105 408 380V340Z" fill="#F9F4D7"/>
<path d="M585 294C585 292.895 585.895 292 587 292H655C656.105 292 657 292.895 657 294V334C657 335.105 656.105 336 655 336H587C585.895 336 585 335.105 585 334V294Z" fill="#EBFADF"/>
<path d="M232 242C232 240.895 232.895 240 234 240H302C303.105 240 304 240.895 304 242V346C304 347.105 303.105 348 302 348H234C232.895 348 232 347.105 232 346V242Z" fill="#EFEDFD"/>
<path d="M154.528 51H160.228V49.824H158.02C157.588 49.824 157.036 49.86 156.58 49.908C158.452 48.12 159.808 46.356 159.808 44.652C159.808 43.056 158.764 42 157.144 42C155.992 42 155.212 42.492 154.456 43.32L155.236 44.088C155.704 43.548 156.28 43.104 156.976 43.104C157.972 43.104 158.476 43.764 158.476 44.724C158.476 46.176 157.132 47.892 154.528 50.196V51Z" fill="#222222"/>
<path d="M164.264 51.156C165.992 51.156 167.12 49.62 167.12 46.548C167.12 43.5 165.992 42 164.264 42C162.536 42 161.408 43.488 161.408 46.548C161.408 49.62 162.536 51.156 164.264 51.156ZM164.264 50.064C163.364 50.064 162.728 49.104 162.728 46.548C162.728 44.016 163.364 43.092 164.264 43.092C165.164 43.092 165.8 44.016 165.8 46.548C165.8 49.104 165.164 50.064 164.264 50.064Z" fill="#222222"/>
<path d="M168.216 51H173.916V49.824H171.708C171.276 49.824 170.724 49.86 170.268 49.908C172.14 48.12 173.496 46.356 173.496 44.652C173.496 43.056 172.452 42 170.832 42C169.68 42 168.9 42.492 168.144 43.32L168.924 44.088C169.392 43.548 169.968 43.104 170.664 43.104C171.66 43.104 172.164 43.764 172.164 44.724C172.164 46.176 170.82 47.892 168.216 50.196V51Z" fill="#222222"/>
<path d="M175.563 51H180.603V49.86H178.875V42.156H177.831C177.327 42.48 176.739 42.684 175.911 42.84V43.716H177.495V49.86H175.563V51Z" fill="#222222"/>
<path d="M183.163 51.156C183.679 51.156 184.087 50.76 184.087 50.196C184.087 49.62 183.679 49.212 183.163 49.212C182.647 49.212 182.239 49.62 182.239 50.196C182.239 50.76 182.647 51.156 183.163 51.156Z" fill="#222222"/>
<path d="M191.065 51.156C192.793 51.156 193.921 49.62 193.921 46.548C193.921 43.5 192.793 42 191.065 42C189.337 42 188.209 43.488 188.209 46.548C188.209 49.62 189.337 51.156 191.065 51.156ZM191.065 50.064C190.165 50.064 189.529 49.104 189.529 46.548C189.529 44.016 190.165 43.092 191.065 43.092C191.965 43.092 192.601 44.016 192.601 46.548C192.601 49.104 191.965 50.064 191.065 50.064Z" fill="#222222"/>
<path d="M196.12 47.556L197.86 44.892C198.112 44.436 198.352 43.98 198.568 43.524H198.616C198.592 44.016 198.556 44.76 198.556 45.24V47.556H196.12ZM198.556 51H199.852V48.624H200.968V47.556H199.852V42.156H198.244L194.728 47.7V48.624H198.556V51Z" fill="#222222"/>
<path d="M203.12 51.156C203.636 51.156 204.044 50.76 204.044 50.196C204.044 49.62 203.636 49.212 203.12 49.212C202.604 49.212 202.196 49.62 202.196 50.196C202.196 50.76 202.604 51.156 203.12 51.156Z" fill="#222222"/>
<path d="M208.13 51H213.83V49.824H211.622C211.19 49.824 210.638 49.86 210.182 49.908C212.054 48.12 213.41 46.356 213.41 44.652C213.41 43.056 212.366 42 210.746 42C209.594 42 208.814 42.492 208.058 43.32L208.838 44.088C209.306 43.548 209.882 43.104 210.578 43.104C211.574 43.104 212.078 43.764 212.078 44.724C212.078 46.176 210.734 47.892 208.13 50.196V51Z" fill="#222222"/>
<path d="M218.033 46.488C218.981 46.488 219.497 47.124 219.497 48.252C219.497 49.404 218.885 50.1 218.117 50.1C217.169 50.1 216.533 49.272 216.389 47.52C216.917 46.764 217.529 46.488 218.033 46.488ZM218.129 51.156C219.569 51.156 220.769 50.004 220.769 48.252C220.769 46.392 219.773 45.48 218.285 45.48C217.649 45.48 216.881 45.864 216.365 46.5C216.425 43.98 217.361 43.128 218.489 43.128C219.005 43.128 219.545 43.404 219.869 43.788L220.625 42.948C220.121 42.42 219.401 42 218.417 42C216.677 42 215.081 43.356 215.081 46.752C215.081 49.752 216.449 51.156 218.129 51.156Z" fill="#222222"/>
<path d="M228.58 47.604C229.18 47.604 229.816 47.232 230.368 46.344L229.612 45.78C229.312 46.344 228.988 46.596 228.604 46.596C227.848 46.596 227.308 45.492 226.228 45.492C225.616 45.492 224.98 45.852 224.44 46.764L225.184 47.304C225.484 46.752 225.82 46.5 226.204 46.5C226.96 46.5 227.5 47.604 228.58 47.604Z" fill="#222222"/>
<path d="M236.943 51.156C238.671 51.156 239.799 49.62 239.799 46.548C239.799 43.5 238.671 42 236.943 42C235.215 42 234.087 43.488 234.087 46.548C234.087 49.62 235.215 51.156 236.943 51.156ZM236.943 50.064C236.043 50.064 235.407 49.104 235.407 46.548C235.407 44.016 236.043 43.092 236.943 43.092C237.843 43.092 238.479 44.016 238.479 46.548C238.479 49.104 237.843 50.064 236.943 50.064Z" fill="#222222"/>
<path d="M243.583 51.156C245.131 51.156 246.559 50.052 246.559 48.096C246.559 46.164 245.347 45.288 243.871 45.288C243.391 45.288 243.043 45.408 242.659 45.6L242.863 43.332H246.139V42.156H241.663L241.399 46.356L242.071 46.8C242.587 46.464 242.923 46.296 243.487 46.296C244.495 46.296 245.167 46.968 245.167 48.144C245.167 49.32 244.411 50.028 243.415 50.028C242.491 50.028 241.855 49.584 241.351 49.08L240.691 49.98C241.315 50.592 242.191 51.156 243.583 51.156Z" fill="#222222"/>
<path d="M248.999 51.156C249.515 51.156 249.923 50.76 249.923 50.196C249.923 49.62 249.515 49.212 248.999 49.212C248.483 49.212 248.075 49.62 248.075 50.196C248.075 50.76 248.483 51.156 248.999 51.156Z" fill="#222222"/>
<path d="M256.901 51.156C258.629 51.156 259.757 49.62 259.757 46.548C259.757 43.5 258.629 42 256.901 42C255.173 42 254.045 43.488 254.045 46.548C254.045 49.62 255.173 51.156 256.901 51.156ZM256.901 50.064C256.001 50.064 255.365 49.104 255.365 46.548C255.365 44.016 256.001 43.092 256.901 43.092C257.801 43.092 258.437 44.016 258.437 46.548C258.437 49.104 257.801 50.064 256.901 50.064Z" fill="#222222"/>
<path d="M261.356 51H266.396V49.86H264.668V42.156H263.624C263.12 42.48 262.532 42.684 261.704 42.84V43.716H263.288V49.86H261.356V51Z" fill="#222222"/>
<path d="M144.66 96.9999H151.575V95.8149H148.53C147.975 95.8149 147.3 95.8749 146.73 95.9199C149.31 93.4749 151.035 91.2399 151.035 89.0499C151.035 87.0849 149.805 85.7949 147.84 85.7949C146.445 85.7949 145.5 86.4399 144.6 87.4149L145.395 88.1949C145.995 87.4749 146.775 86.9199 147.675 86.9199C149.04 86.9199 149.7 87.8349 149.7 89.0949C149.7 90.9849 148.11 93.1749 144.66 96.1899V96.9999Z" fill="#EE0000"/>
<path d="M156.235 97.1949C158.095 97.1949 159.835 95.8299 159.835 93.4149C159.835 90.9999 158.35 89.9199 156.52 89.9199C155.86 89.9199 155.38 90.0849 154.885 90.3549L155.155 87.1749H159.31V85.9899H153.955L153.61 91.1499L154.345 91.5999C154.975 91.1799 155.44 90.9549 156.175 90.9549C157.555 90.9549 158.455 91.8849 158.455 93.4599C158.455 95.0649 157.405 96.0549 156.115 96.0549C154.84 96.0549 154.045 95.4699 153.415 94.8399L152.74 95.7399C153.475 96.4749 154.525 97.1949 156.235 97.1949Z" fill="#EE0000"/>
<path d="M233.66 96.9999H240.575V95.8149H237.53C236.975 95.8149 236.3 95.8749 235.73 95.9199C238.31 93.4749 240.035 91.2399 240.035 89.0499C240.035 87.0849 238.805 85.7949 236.84 85.7949C235.445 85.7949 234.5 86.4399 233.6 87.4149L234.395 88.1949C234.995 87.4749 235.775 86.9199 236.675 86.9199C238.04 86.9199 238.7 87.8349 238.7 89.0949C238.7 90.9849 237.11 93.1749 233.66 96.1899V96.9999Z" fill="#222222"/>
<path d="M245.715 91.1949C247.05 91.1949 247.71 92.1399 247.71 93.6249C247.71 95.1249 246.885 96.1299 245.835 96.1299C244.455 96.1299 243.63 94.8849 243.465 92.6049C244.14 91.5999 245.025 91.1949 245.715 91.1949ZM245.835 97.1949C247.545 97.1949 248.985 95.7549 248.985 93.6249C248.985 91.3299 247.8 90.1749 245.94 90.1749C245.07 90.1749 244.11 90.6849 243.435 91.5099C243.495 88.0899 244.77 86.9349 246.27 86.9349C246.945 86.9349 247.605 87.2499 248.04 87.7749L248.79 86.9199C248.19 86.2749 247.365 85.7949 246.225 85.7949C244.095 85.7949 242.16 87.4449 242.16 91.7499C242.16 95.3799 243.72 97.1949 245.835 97.1949Z" fill="#222222"/>
<path d="M321.66 96.9999H328.575V95.8149H325.53C324.975 95.8149 324.3 95.8749 323.73 95.9199C326.31 93.4749 328.035 91.2399 328.035 89.0499C328.035 87.0849 326.805 85.7949 324.84 85.7949C323.445 85.7949 322.5 86.4399 321.6 87.4149L322.395 88.1949C322.995 87.4749 323.775 86.9199 324.675 86.9199C326.04 86.9199 326.7 87.8349 326.7 89.0949C326.7 90.9849 325.11 93.1749 321.66 96.1899V96.9999Z" fill="#222222"/>
<path d="M332.29 96.9999H333.715C333.88 92.6949 334.36 90.1299 336.94 86.8299V85.9899H330.055V87.1749H335.38C333.235 90.1749 332.47 92.8299 332.29 96.9999Z" fill="#222222"/>
<path d="M409.66 96.9999H416.575V95.8149H413.53C412.975 95.8149 412.3 95.8749 411.73 95.9199C414.31 93.4749 416.035 91.2399 416.035 89.0499C416.035 87.0849 414.805 85.7949 412.84 85.7949C411.445 85.7949 410.5 86.4399 409.6 87.4149L410.395 88.1949C410.995 87.4749 411.775 86.9199 412.675 86.9199C414.04 86.9199 414.7 87.8349 414.7 89.0949C414.7 90.9849 413.11 93.1749 409.66 96.1899V96.9999Z" fill="#222222"/>
<path d="M421.505 97.1949C423.575 97.1949 424.955 95.9499 424.955 94.3449C424.955 92.8449 424.055 92.0199 423.095 91.4649V91.3899C423.755 90.8799 424.565 89.8899 424.565 88.7349C424.565 87.0399 423.425 85.8399 421.55 85.8399C419.84 85.8399 418.535 86.9499 418.535 88.6299C418.535 89.7849 419.21 90.6099 420.02 91.1649V91.2399C419.015 91.7799 417.995 92.7999 417.995 94.2699C417.995 95.9649 419.48 97.1949 421.505 97.1949ZM422.255 91.0299C420.965 90.5199 419.78 89.9499 419.78 88.6299C419.78 87.5649 420.515 86.8449 421.535 86.8449C422.72 86.8449 423.395 87.7299 423.395 88.8099C423.395 89.6199 423.005 90.3699 422.255 91.0299ZM421.535 96.1749C420.215 96.1749 419.24 95.3199 419.24 94.1499C419.24 93.0999 419.855 92.2299 420.74 91.6599C422.3 92.2899 423.65 92.8449 423.65 94.3149C423.65 95.4099 422.795 96.1749 421.535 96.1749Z" fill="#222222"/>
<path d="M497.66 96.9999H504.575V95.8149H501.53C500.975 95.8149 500.3 95.8749 499.73 95.9199C502.31 93.4749 504.035 91.2399 504.035 89.0499C504.035 87.0849 502.805 85.7949 500.84 85.7949C499.445 85.7949 498.5 86.4399 497.6 87.4149L498.395 88.1949C498.995 87.4749 499.775 86.9199 500.675 86.9199C502.04 86.9199 502.7 87.8349 502.7 89.0949C502.7 90.9849 501.11 93.1749 497.66 96.1899V96.9999Z" fill="#222222"/>
<path d="M507.27 89.3649C507.27 87.8649 508.08 86.8749 509.13 86.8749C510.54 86.8749 511.38 88.0749 511.53 90.3399C510.825 91.3749 509.985 91.8099 509.235 91.8099C507.93 91.8099 507.27 90.8499 507.27 89.3649ZM508.83 97.1949C510.9 97.1949 512.82 95.4849 512.82 91.0299C512.82 87.5349 511.245 85.7949 509.13 85.7949C507.42 85.7949 505.98 87.2349 505.98 89.3649C505.98 91.6449 507.18 92.8299 509.01 92.8299C509.925 92.8299 510.87 92.3049 511.545 91.4799C511.44 94.8849 510.21 96.0549 508.785 96.0549C508.08 96.0549 507.405 95.7399 506.955 95.2149L506.19 96.0699C506.805 96.7149 507.645 97.1949 508.83 97.1949Z" fill="#222222"/>
<path d="M588.96 97.1949C590.91 97.1949 592.485 96.0249 592.485 94.0599C592.485 92.5599 591.45 91.5699 590.16 91.2699V91.2099C591.315 90.7749 592.11 89.8899 592.11 88.5549C592.11 86.8149 590.76 85.7949 588.915 85.7949C587.64 85.7949 586.665 86.3499 585.84 87.1149L586.575 87.9849C587.19 87.3549 587.97 86.9199 588.855 86.9199C589.995 86.9199 590.715 87.6099 590.715 88.6599C590.715 89.8449 589.935 90.7599 587.67 90.7599V91.8099C590.205 91.8099 591.09 92.6949 591.09 93.9999C591.09 95.2749 590.16 96.0549 588.855 96.0549C587.61 96.0549 586.77 95.4699 586.125 94.7949L585.435 95.6949C586.155 96.4749 587.235 97.1949 588.96 97.1949Z" fill="#222222"/>
<path d="M597.49 97.1949C599.575 97.1949 600.91 95.2899 600.91 91.4649C600.91 87.6549 599.575 85.7949 597.49 85.7949C595.39 85.7949 594.055 87.6399 594.055 91.4649C594.055 95.2899 595.39 97.1949 597.49 97.1949ZM597.49 96.0999C596.23 96.0999 595.39 94.7049 595.39 91.4649C595.39 88.2549 596.23 86.8899 597.49 86.8899C598.735 86.8899 599.575 88.2549 599.575 91.4649C599.575 94.7049 598.735 96.0999 597.49 96.0999Z" fill="#222222"/>
<path d="M674.32 97.0002H680.35V95.8602H678.145V85.9902H677.095C676.495 86.3502 675.79 86.6052 674.815 86.7852V87.6552H676.765V95.8602H674.32V97.0002Z" fill="#285BF6"/>
<path d="M136 68H752V69H136V68Z" fill="#EEEEEE"/>
<path d="M136 112H752V113H136V112Z" fill="#EEEEEE"/>
<path d="M136 177H752V178H136V177Z" fill="#EEEEEE"/>
<path fill-rule="evenodd" clip-rule="evenodd" d="M225 68H224V468H225V68ZM489 68H488V468H489V68ZM312 68H313V468H312V68ZM401 68H400V468H401V68ZM576 68H577V468H576V68ZM665 68H664V468H665V68Z" fill="#EEEEEE"/>
<path d="M136 266H752V267H136V266Z" fill="#285BF6"/>
<path d="M404.5 266.5C404.5 268.709 402.709 270.5 400.5 270.5C398.291 270.5 396.5 268.709 396.5 266.5C396.5 264.291 398.291 262.5 400.5 262.5C402.709 262.5 404.5 264.291 404.5 266.5Z" fill="#285BF6"/>
</svg>
