<svg width="108" height="28" viewBox="0 0 108 28" fill="none" xmlns="http://www.w3.org/2000/svg">
<path d="M0 21.3975V0.394531H8.20918C11.3656 0.394531 13.838 1.33066 15.6263 3.23894C17.4145 5.1112 18.3266 7.66757 18.3266 10.944C18.3266 14.1605 17.4145 16.7169 15.5662 18.5891C13.742 20.4614 11.2456 21.3975 8.02916 21.3975H0ZM4.2006 17.365H8.23318C10.0574 17.365 11.4496 16.7409 12.4338 15.5167C13.4299 14.2925 13.946 12.7323 13.946 10.86C13.946 9.01176 13.4299 7.51155 12.4338 6.28737C11.4376 5.0632 10.0454 4.43911 8.23318 4.43911H4.2006V17.365Z" fill="#C4C4C4"/>
<path d="M22.3353 7.87467C23.8955 6.27844 25.8878 5.48633 28.3002 5.48633C30.7125 5.48633 32.7048 6.27844 34.265 7.87467C35.8252 9.43489 36.5934 11.3672 36.5934 13.6475C36.5934 15.9518 35.8252 17.8841 34.265 19.4443C32.7048 21.0045 30.7125 21.8087 28.3002 21.8087C25.8878 21.8087 23.8955 21.0165 22.3353 19.4443C20.7751 17.8841 20.007 15.9518 20.007 13.6475C19.995 11.3672 20.7631 9.43489 22.3353 7.87467ZM28.3002 18.0761C29.5243 18.0761 30.5205 17.6441 31.3366 16.7919C32.1647 15.9158 32.5848 14.8597 32.5848 13.6355C32.5848 12.4113 32.1527 11.3672 31.3366 10.503C30.5085 9.65092 29.5123 9.21886 28.3002 9.21886C27.076 9.21886 26.0558 9.65092 25.2277 10.503C24.3996 11.3552 24.0035 12.4113 24.0035 13.6355C24.0035 14.8597 24.3996 15.9038 25.2277 16.7919C26.0558 17.6561 27.076 18.0761 28.3002 18.0761Z" fill="#C4C4C4"/>
<path d="M40.3488 7.87467C41.9091 6.27844 43.9014 5.48633 46.3137 5.48633C48.7261 5.48633 50.7183 6.27844 52.2786 7.87467C53.8388 9.43489 54.6069 11.3672 54.6069 13.6475C54.6069 15.9518 53.8388 17.8841 52.2786 19.4443C50.7183 21.0045 48.7261 21.8087 46.3137 21.8087C43.9014 21.8087 41.9091 21.0165 40.3488 19.4443C38.7886 17.8841 38.0205 15.9518 38.0205 13.6475C38.0205 11.3672 38.7886 9.43489 40.3488 7.87467ZM46.3137 18.0761C47.5379 18.0761 48.534 17.6441 49.3501 16.7919C50.1783 15.9158 50.5983 14.8597 50.5983 13.6355C50.5983 12.4113 50.1663 11.3672 49.3501 10.503C48.522 9.65092 47.5259 9.21886 46.3137 9.21886C45.0895 9.21886 44.0694 9.65092 43.2413 10.503C42.4131 11.3552 42.0171 12.4113 42.0171 13.6355C42.0171 14.8597 42.4131 15.9038 43.2413 16.7919C44.0694 17.6561 45.0895 18.0761 46.3137 18.0761Z" fill="#C4C4C4"/>
<path d="M56.877 21.3984V5.91615H60.7175V7.99245C61.6536 6.31221 63.0818 5.49609 64.9781 5.49609C65.6022 5.49609 66.2263 5.60411 66.8504 5.83214L66.5143 9.67269C65.8662 9.46866 65.2301 9.36065 64.6661 9.36065C62.3977 9.36065 60.8855 10.8369 60.8855 14.0533V21.4104H56.877V21.3984Z" fill="#C4C4C4"/>
<path d="M79.9556 5.91754H83.7601V21.4118H79.9556V19.6235C78.6234 21.0757 76.9672 21.7838 75.0109 21.7838C72.7906 21.7838 70.9423 21.0157 69.5021 19.4555C68.0499 17.8953 67.3418 15.927 67.3418 13.5986C67.3418 11.2703 68.0859 9.33803 69.5261 7.82581C70.9783 6.28959 72.8266 5.52148 75.0109 5.52148C76.9432 5.52148 78.5874 6.26559 79.9556 7.76581V5.91754ZM78.7674 10.4902C77.9393 9.61407 76.9192 9.18201 75.671 9.18201C74.3868 9.18201 73.3667 9.61407 72.5385 10.4902C71.7464 11.3663 71.3504 12.4225 71.3504 13.6466C71.3504 14.8948 71.7464 15.951 72.5745 16.8271C73.4027 17.7032 74.4228 18.1353 75.671 18.1353C76.9192 18.1353 77.9393 17.7032 78.7674 16.8271C79.5955 15.951 80.0156 14.8948 80.0156 13.6466C80.0156 12.4225 79.5835 11.3663 78.7674 10.4902Z" fill="#C4C4C4"/>
<path d="M97.3582 5.91602H101.739L95.51 22.1783C93.9977 26.1269 92.0175 27.9992 88.945 27.9992C87.7809 27.9992 86.7847 27.7471 85.9566 27.2311L86.6407 23.8826C87.3488 24.2186 88.0329 24.3987 88.633 24.3987C89.8811 24.3987 90.8773 23.5705 91.6454 21.9503L91.9574 21.2422L85.1885 5.92802H89.8211L93.8297 16.0215L97.3582 5.91602Z" fill="#C4C4C4"/>
<path d="M103.25 19.4068C103.25 18.1226 104.27 17.1384 105.614 17.1384C106.899 17.1384 107.919 18.1346 107.919 19.4068C107.919 20.775 106.899 21.7351 105.614 21.7351C104.27 21.7471 103.25 20.775 103.25 19.4068ZM103.706 15.5782L103.478 0H107.715L107.427 15.5782H103.706Z" fill="#C4C4C4"/>
</svg>
