<svg width="170" height="302" viewBox="0 0 170 302" fill="none" xmlns="http://www.w3.org/2000/svg">
<rect width="170" height="302" rx="6" fill="#F0F0F0"/>
<rect width="170" height="302" rx="6" fill="#F5F5F5"/>
<rect x="7" y="17" width="156" height="280" fill="white"/>
<circle cx="71.75" cy="176.25" r="4.25" fill="white" stroke="#D1D1D1" stroke-width="0.63"/>
<circle cx="92.25" cy="176.25" r="4.25" fill="white" stroke="#D1D1D1" stroke-width="0.63"/>
<circle cx="114.75" cy="176.25" r="4.25" fill="white" stroke="#D1D1D1" stroke-width="0.63"/>
<circle cx="136.75" cy="176.25" r="4.25" fill="white" stroke="#D1D1D1" stroke-width="0.63"/>
<circle cx="136.75" cy="176.25" r="2.75" fill="#135DE6"/>
<path d="M30.32 144.99V138.872H29.697V144.99H30.32ZM28.521 143.471V139.39H27.905V140.923H26.183V139.397H25.567V143.471H28.521ZM27.905 142.974H26.183V141.427H27.905V142.974ZM36.1876 140.174C36.1876 139.474 35.4176 139.033 34.0806 139.033C32.7506 139.033 31.9736 139.474 31.9736 140.174C31.9736 140.58 32.2186 140.895 32.6876 141.091V141.938H31.3226V142.442H36.8456V141.938H35.4526V141.105C35.9286 140.909 36.1876 140.587 36.1876 140.174ZM36.2576 143.877C36.2576 143.177 35.4386 142.778 34.0806 142.778C32.7296 142.778 31.9176 143.177 31.9176 143.877C31.9176 144.577 32.7296 144.983 34.0806 144.983C35.4386 144.983 36.2576 144.577 36.2576 143.877ZM35.5576 140.174C35.5576 140.594 34.9766 140.825 34.0806 140.825C33.1776 140.825 32.6106 140.594 32.6106 140.174C32.6106 139.754 33.1776 139.523 34.0806 139.523C34.9906 139.523 35.5576 139.754 35.5576 140.174ZM34.0806 143.275C34.9906 143.275 35.6066 143.478 35.6066 143.884C35.6066 144.276 34.9976 144.479 34.0806 144.479C33.1776 144.479 32.5756 144.276 32.5756 143.884C32.5756 143.478 33.1776 143.275 34.0806 143.275ZM34.0806 141.322C34.3606 141.322 34.6126 141.301 34.8366 141.266V141.938H33.3036V141.259C33.5346 141.301 33.7936 141.322 34.0806 141.322ZM39.6333 144.787V142.365C40.3123 142.337 40.9913 142.274 41.4813 142.218C41.4533 142.05 41.4393 141.882 41.4113 141.721C41.1663 141.749 40.9073 141.777 40.6343 141.798C40.7463 141.126 40.8093 140.244 40.8093 139.355H37.7713V139.852H40.1793C40.1793 140.524 40.1303 141.245 40.0183 141.833C39.8363 141.847 39.6473 141.854 39.4443 141.861C38.7513 141.889 38.0373 141.903 37.3093 141.903C37.3443 142.078 37.3793 142.26 37.4073 142.442C37.9183 142.435 38.4573 142.428 39.0173 142.4V144.787H39.6333ZM42.4403 138.872H41.8243V144.99H42.4403V138.872ZM48.9589 142.386V141.889H46.5089V140.965H45.8859V141.889H43.4359V142.386H48.9589ZM48.7069 140.776C47.8179 140.706 46.5229 140.013 46.5229 139.131V138.942H45.8789V139.131C45.8789 140.006 44.7309 140.671 43.7089 140.776L43.9819 141.259C44.9759 141.091 45.9349 140.496 46.1939 139.873C46.4949 140.496 47.4889 141.098 48.4269 141.259L48.7069 140.776ZM44.0239 142.995V143.499H47.6569V145.018H48.2729V142.995H44.0239Z" fill="#222222"/>
<path d="M30.943 158.819V158.308H29.991V155.872H29.375V161.99H29.991V158.819H30.943ZM28.871 160.037C28.01 159.505 27.324 158.539 27.324 157.391V156.397H26.687V157.419C26.687 158.546 26.036 159.61 25.112 160.191L25.497 160.653C26.19 160.191 26.799 159.414 27.009 158.672C27.24 159.379 27.954 160.142 28.5 160.499L28.871 160.037ZM36.1876 157.174C36.1876 156.474 35.4176 156.033 34.0806 156.033C32.7506 156.033 31.9736 156.474 31.9736 157.174C31.9736 157.58 32.2186 157.895 32.6876 158.091V158.938H31.3226V159.442H36.8456V158.938H35.4526V158.105C35.9286 157.909 36.1876 157.587 36.1876 157.174ZM36.2576 160.877C36.2576 160.177 35.4386 159.778 34.0806 159.778C32.7296 159.778 31.9176 160.177 31.9176 160.877C31.9176 161.577 32.7296 161.983 34.0806 161.983C35.4386 161.983 36.2576 161.577 36.2576 160.877ZM35.5576 157.174C35.5576 157.594 34.9766 157.825 34.0806 157.825C33.1776 157.825 32.6106 157.594 32.6106 157.174C32.6106 156.754 33.1776 156.523 34.0806 156.523C34.9906 156.523 35.5576 156.754 35.5576 157.174ZM34.0806 160.275C34.9906 160.275 35.6066 160.478 35.6066 160.884C35.6066 161.276 34.9976 161.479 34.0806 161.479C33.1776 161.479 32.5756 161.276 32.5756 160.884C32.5756 160.478 33.1776 160.275 34.0806 160.275ZM34.0806 158.322C34.3606 158.322 34.6126 158.301 34.8366 158.266V158.938H33.3036V158.259C33.5346 158.301 33.7936 158.322 34.0806 158.322ZM42.2023 161.906V159.722H38.0793V161.906H42.2023ZM42.1743 156.236H38.1003V156.733H41.5443C41.5443 157.195 41.4743 158.028 41.3693 158.483H37.3793V158.987H42.9023V158.483H41.9783C42.1043 157.867 42.1743 157.034 42.1743 156.236ZM41.5793 161.416H38.7023V160.219H41.5793V161.416ZM46.3619 157.678C46.3619 156.852 45.8299 156.229 44.9409 156.229C44.0589 156.229 43.5129 156.859 43.5129 157.678C43.5129 158.483 44.0589 159.134 44.9409 159.134C45.8299 159.134 46.3619 158.49 46.3619 157.678ZM48.6019 159.47V155.872H48.0069V157.405H47.3559V155.984H46.7609V159.414H47.3559V157.916H48.0069V159.47H48.6019ZM48.6019 161.997V159.785H44.4369V160.282H47.9859V161.997H48.6019ZM45.7529 157.678C45.7529 158.203 45.4379 158.588 44.9409 158.588C44.4369 158.588 44.1289 158.203 44.1289 157.678C44.1289 157.146 44.4369 156.754 44.9409 156.754C45.4379 156.754 45.7529 157.146 45.7529 157.678Z" fill="#222222"/>
<path d="M30.943 175.319V174.808H29.991V172.372H29.375V178.49H29.991V175.319H30.943ZM28.871 176.537C28.01 176.005 27.324 175.039 27.324 173.891V172.897H26.687V173.919C26.687 175.046 26.036 176.11 25.112 176.691L25.497 177.153C26.19 176.691 26.799 175.914 27.009 175.172C27.24 175.879 27.954 176.642 28.5 176.999L28.871 176.537ZM36.1876 173.674C36.1876 172.974 35.4176 172.533 34.0806 172.533C32.7506 172.533 31.9736 172.974 31.9736 173.674C31.9736 174.08 32.2186 174.395 32.6876 174.591V175.438H31.3226V175.942H36.8456V175.438H35.4526V174.605C35.9286 174.409 36.1876 174.087 36.1876 173.674ZM36.2576 177.377C36.2576 176.677 35.4386 176.278 34.0806 176.278C32.7296 176.278 31.9176 176.677 31.9176 177.377C31.9176 178.077 32.7296 178.483 34.0806 178.483C35.4386 178.483 36.2576 178.077 36.2576 177.377ZM35.5576 173.674C35.5576 174.094 34.9766 174.325 34.0806 174.325C33.1776 174.325 32.6106 174.094 32.6106 173.674C32.6106 173.254 33.1776 173.023 34.0806 173.023C34.9906 173.023 35.5576 173.254 35.5576 173.674ZM34.0806 176.775C34.9906 176.775 35.6066 176.978 35.6066 177.384C35.6066 177.776 34.9976 177.979 34.0806 177.979C33.1776 177.979 32.5756 177.776 32.5756 177.384C32.5756 176.978 33.1776 176.775 34.0806 176.775ZM34.0806 174.822C34.3606 174.822 34.6126 174.801 34.8366 174.766V175.438H33.3036V174.759C33.5346 174.801 33.7936 174.822 34.0806 174.822ZM39.8131 176.425V176.929H43.4181V178.518H44.0411V176.425H42.2911V175.333H44.7411V174.836H43.8381C43.9641 174.248 44.0341 173.506 44.0341 172.708H39.8761V173.219H43.3971C43.3971 173.667 43.3341 174.388 43.2361 174.836H39.2181V175.333H41.6681V176.425H39.8131ZM49.9998 172.372H49.3838V178.49H49.9998V175.396H50.9798V174.878H49.9998V172.372ZM48.3898 173.023H45.5478V173.548H47.7248C47.6128 174.864 46.7238 176.145 45.2818 176.838L45.6598 177.307C47.3328 176.397 48.3548 174.969 48.3898 173.023Z" fill="#222222"/>
<path d="M30.32 194.99V188.872H29.697V194.99H30.32ZM28.521 193.471V189.39H27.905V190.923H26.183V189.397H25.567V193.471H28.521ZM27.905 192.974H26.183V191.427H27.905V192.974ZM36.1876 190.174C36.1876 189.474 35.4176 189.033 34.0806 189.033C32.7506 189.033 31.9736 189.474 31.9736 190.174C31.9736 190.58 32.2186 190.895 32.6876 191.091V191.938H31.3226V192.442H36.8456V191.938H35.4526V191.105C35.9286 190.909 36.1876 190.587 36.1876 190.174ZM36.2576 193.877C36.2576 193.177 35.4386 192.778 34.0806 192.778C32.7296 192.778 31.9176 193.177 31.9176 193.877C31.9176 194.577 32.7296 194.983 34.0806 194.983C35.4386 194.983 36.2576 194.577 36.2576 193.877ZM35.5576 190.174C35.5576 190.594 34.9766 190.825 34.0806 190.825C33.1776 190.825 32.6106 190.594 32.6106 190.174C32.6106 189.754 33.1776 189.523 34.0806 189.523C34.9906 189.523 35.5576 189.754 35.5576 190.174ZM34.0806 193.275C34.9906 193.275 35.6066 193.478 35.6066 193.884C35.6066 194.276 34.9976 194.479 34.0806 194.479C33.1776 194.479 32.5756 194.276 32.5756 193.884C32.5756 193.478 33.1776 193.275 34.0806 193.275ZM34.0806 191.322C34.3606 191.322 34.6126 191.301 34.8366 191.266V191.938H33.3036V191.259C33.5346 191.301 33.7936 191.322 34.0806 191.322ZM44.0411 189.32H39.8551V189.831H43.4111C43.4111 190.496 43.3621 191.378 43.2081 192.001H39.2181V192.498H41.6611V194.99H42.2841V192.498H44.7411V192.001H43.8171C43.9921 191.14 44.0411 190.216 44.0411 189.32ZM50.1048 191.434V189.061H49.4888V189.789H46.5838V189.068H45.9608V191.434H50.1048ZM48.3688 193.695V192.568H50.7978V192.064H45.2748V192.568H47.7528V193.695H48.3688ZM50.1538 194.808V194.304H46.5838V193.128H45.9608V194.808H50.1538ZM49.4888 190.93H46.5838V190.279H49.4888V190.93Z" fill="#222222"/>
<path d="M28.738 210.13C28.038 209.892 27.289 209.185 27.289 208.219V207.659H26.659V208.24C26.659 209.206 26.015 209.941 25.14 210.312L25.518 210.802C26.183 210.487 26.806 209.913 26.988 209.269C27.247 209.864 27.821 210.368 28.374 210.62L28.738 210.13ZM30.075 212.293C30.075 211.558 29.305 211.096 28.01 211.096C26.715 211.096 25.945 211.558 25.945 212.293C25.945 213.035 26.715 213.49 28.01 213.49C29.305 213.49 30.075 213.035 30.075 212.293ZM28.01 211.607C28.892 211.607 29.438 211.859 29.438 212.293C29.438 212.727 28.892 212.986 28.01 212.986C27.128 212.986 26.589 212.727 26.589 212.293C26.589 211.859 27.128 211.607 28.01 211.607ZM30.901 209.486V208.975H29.991V207.372H29.368V211.103H29.991V209.486H30.901ZM36.4886 213.49V207.372H35.8936V213.49H36.4886ZM35.2776 213.189V207.512H34.6896V209.542H33.7236V210.053H34.6896V213.189H35.2776ZM34.3676 211.53C33.6746 211.096 33.1076 210.172 33.1076 208.989V207.953H32.5126V208.996C32.5126 210.228 31.8896 211.229 31.1686 211.691L31.5536 212.125C32.1556 211.712 32.6666 210.984 32.8136 210.305C32.9956 210.97 33.5346 211.656 33.9896 211.964L34.3676 211.53ZM42.5453 213.49V207.372H41.9503V209.759H41.2013V207.505H40.6133V213.189H41.2013V210.27H41.9503V213.49H42.5453ZM40.2773 211.656C40.2493 211.488 40.2213 211.313 40.1863 211.145C39.7663 211.264 38.8353 211.327 38.2403 211.327V208.051H37.6173V211.852H38.2053C38.9543 211.838 39.8363 211.761 40.2773 211.656ZM48.3009 208.674C48.3009 207.974 47.5309 207.533 46.1939 207.533C44.8639 207.533 44.0869 207.974 44.0869 208.674C44.0869 209.08 44.3319 209.395 44.8009 209.591V210.438H43.4359V210.942H48.9589V210.438H47.5659V209.605C48.0419 209.409 48.3009 209.087 48.3009 208.674ZM48.3709 212.377C48.3709 211.677 47.5519 211.278 46.1939 211.278C44.8429 211.278 44.0309 211.677 44.0309 212.377C44.0309 213.077 44.8429 213.483 46.1939 213.483C47.5519 213.483 48.3709 213.077 48.3709 212.377ZM47.6709 208.674C47.6709 209.094 47.0899 209.325 46.1939 209.325C45.2909 209.325 44.7239 209.094 44.7239 208.674C44.7239 208.254 45.2909 208.023 46.1939 208.023C47.1039 208.023 47.6709 208.254 47.6709 208.674ZM46.1939 211.775C47.1039 211.775 47.7199 211.978 47.7199 212.384C47.7199 212.776 47.1109 212.979 46.1939 212.979C45.2909 212.979 44.6889 212.776 44.6889 212.384C44.6889 211.978 45.2909 211.775 46.1939 211.775ZM46.1939 209.822C46.4739 209.822 46.7259 209.801 46.9499 209.766V210.438H45.4169V209.759C45.6479 209.801 45.9069 209.822 46.1939 209.822Z" fill="#222222"/>
<path d="M30.194 225.989C30.194 225.205 29.361 224.659 28.024 224.659C26.687 224.659 25.861 225.205 25.861 225.989C25.861 226.78 26.687 227.333 28.024 227.333C29.361 227.333 30.194 226.78 30.194 225.989ZM27.268 230.49V228.362H28.766V230.49H29.382V228.362H30.789V227.851H25.266V228.362H26.652V230.49H27.268ZM28.024 225.184C28.962 225.184 29.55 225.52 29.55 225.989C29.55 226.472 28.962 226.801 28.024 226.801C27.086 226.801 26.498 226.472 26.498 225.989C26.498 225.52 27.086 225.184 28.024 225.184ZM36.3766 229.426C36.3766 228.761 35.6416 228.355 34.3186 228.355C32.9956 228.355 32.2816 228.754 32.2816 229.426C32.2816 230.098 32.9956 230.49 34.3186 230.49C35.6416 230.49 36.3766 230.098 36.3766 229.426ZM34.3186 228.838C35.2146 228.838 35.7326 229.062 35.7326 229.426C35.7326 229.797 35.2146 230.014 34.3186 230.014C33.4296 230.014 32.9186 229.79 32.9186 229.426C32.9186 229.069 33.4296 228.838 34.3186 228.838ZM34.7666 226.493H35.7186V227.137H34.7666V227.627H35.7186V228.299H36.3416V224.372H35.7186V225.996H34.7666V226.493ZM33.9616 224.96V224.456H32.1836V224.96H33.9616ZM34.6546 225.842V225.345H31.3296V225.842H34.6546ZM34.4656 227.109C34.4656 226.486 33.8566 226.094 33.0516 226.094C32.2326 226.094 31.6376 226.486 31.6376 227.109C31.6376 227.725 32.2396 228.117 33.0516 228.117C33.8566 228.117 34.4656 227.718 34.4656 227.109ZM33.8496 227.109C33.8496 227.431 33.4786 227.641 33.0516 227.641C32.6246 227.641 32.2466 227.431 32.2466 227.109C32.2466 226.78 32.6246 226.57 33.0516 226.57C33.4786 226.57 33.8496 226.78 33.8496 227.109Z" fill="#222222"/>
<circle r="1.5" transform="matrix(-1 0 0 1 18.5 142.5)" fill="#51CB15"/>
<rect x="67.815" y="136.815" width="84.87" height="11.37" rx="0.685" stroke="#D1D1D1" stroke-width="0.63"/>
<rect x="67.815" y="153.815" width="84.87" height="11.37" rx="0.685" stroke="#D1D1D1" stroke-width="0.63"/>
<path fill-rule="evenodd" clip-rule="evenodd" d="M124.5 223H134.396V232.896H124.5V223Z" fill="#135DE6"/>
<path d="M126.715 227.588L125.819 228.507L128.168 230.916L132.417 226.558L131.521 225.639L128.168 229.078L126.715 227.588Z" fill="white"/>
<rect x="67.815" y="186.815" width="84.87" height="11.37" rx="0.685" stroke="#D1D1D1" stroke-width="0.63"/>
<rect x="67.815" y="205.315" width="84.87" height="11.37" rx="0.685" stroke="#D1D1D1" stroke-width="0.63"/>
<rect x="67.815" y="222.315" width="51.37" height="11.37" rx="0.685" stroke="#D1D1D1" stroke-width="0.63"/>
<circle r="1.5" transform="matrix(-1 0 0 1 18.5 159.5)" fill="#51CB15"/>
<circle r="1.5" transform="matrix(-1 0 0 1 18.5 176)" fill="#51CB15"/>
<circle r="1.5" transform="matrix(-1 0 0 1 18.5 192.5)" fill="#51CB15"/>
<rect x="77.5" y="172.5" width="8.5" height="7" fill="#EEEEEE"/>
<rect x="98.5" y="172.5" width="8.5" height="7" fill="#EEEEEE"/>
<rect x="121" y="172.5" width="8.5" height="7" fill="#EEEEEE"/>
<rect x="144.5" y="172.5" width="8.5" height="7" fill="#EEEEEE"/>
<circle r="1.5" transform="matrix(-1 0 0 1 18.5 211)" fill="#51CB15"/>
<circle r="1.5" transform="matrix(-1 0 0 1 18.5 228)" fill="#51CB15"/>
<circle r="1.5" transform="matrix(-1 0 0 1 18.5 256.5)" fill="#51CB15"/>
<rect x="26" y="253" width="25.5" height="7" fill="#EEEEEE"/>
<rect x="68" y="253" width="85" height="7" fill="#DFECF7"/>
<rect x="17" y="270.5" width="136" height="20" rx="4" fill="#135DE6"/>
<path d="M82.272 279.22C81.472 278.948 80.616 278.14 80.616 277.036V276.396H79.896V277.06C79.896 278.164 79.16 279.004 78.16 279.428L78.592 279.988C79.352 279.628 80.064 278.972 80.272 278.236C80.568 278.916 81.224 279.492 81.856 279.78L82.272 279.22ZM83.8 281.692C83.8 280.852 82.92 280.324 81.44 280.324C79.96 280.324 79.08 280.852 79.08 281.692C79.08 282.54 79.96 283.06 81.44 283.06C82.92 283.06 83.8 282.54 83.8 281.692ZM81.44 280.908C82.448 280.908 83.072 281.196 83.072 281.692C83.072 282.188 82.448 282.484 81.44 282.484C80.432 282.484 79.816 282.188 79.816 281.692C79.816 281.196 80.432 280.908 81.44 280.908ZM84.744 278.484V277.9H83.704V276.068H82.992V280.332H83.704V278.484H84.744ZM90.9619 281.148V276.068H90.2499V281.148H90.9619ZM89.4579 279.508C88.6339 279.22 87.7059 278.348 87.7059 277.212V276.46H86.9859V277.244C86.9859 278.348 86.1779 279.34 85.2259 279.74L85.6579 280.292C86.3779 279.964 87.1379 279.156 87.3539 278.412C87.6499 279.124 88.4019 279.788 89.0499 280.06L89.4579 279.508ZM91.1139 282.86V282.284H87.1139V280.676H86.4019V282.86H91.1139Z" fill="white"/>
<rect x="7" y="65.5" width="156" height="1" fill="#EEEEEE"/>
<rect x="7" y="109.5" width="156" height="1" fill="#EEEEEE"/>
<rect x="7" y="243" width="156" height="1" fill="#EEEEEE"/>
<rect x="16" y="46" width="25.5" height="7" fill="#EEEEEE"/>
<rect x="16" y="76.5" width="25.5" height="7" fill="#EEEEEE"/>
<rect x="16" y="91.5" width="25.5" height="7" fill="#EEEEEE"/>
<rect x="44.5" y="46" width="25.5" height="7" fill="#EEEEEE"/>
<path d="M24.85 38.65V37.93H19.78V37.06H24.55V34.86H18.83V35.57H23.66V36.4H18.9V38.65H24.85ZM21.85 30.41H17.87V31.15H20.85C20.52 32.49 19.23 33.53 17.43 33.93L17.91 34.63C20 34.05 21.7 32.7 21.85 30.41ZM21.95 31.9H23.66V32.81H21.84V33.5H23.66V34.39H24.55V29.96H23.66V31.21H21.95V31.9ZM33.4123 38.7V29.96H32.5623V33.52H31.6023V30.15H30.7623V38.27H31.6023V34.23H32.5623V38.7H33.4123ZM30.3823 35.99C29.4323 35.4 28.6323 34.18 28.6323 32.46V31.76H30.2523V31.03H26.0923V31.76H27.7623V32.49C27.7623 34.2 26.9623 35.51 25.8723 36.21L26.4323 36.82C27.2323 36.29 28.0023 35.29 28.1923 34.37C28.4323 35.24 29.2423 36.21 29.8423 36.62L30.3823 35.99Z" fill="#222222"/>
<path d="M53.828 78.768V80.376H54.54V76.568H53.828V78.168H52.7V78.768H53.828ZM54.548 83.472V80.712H53.828V81.536H50.748V80.736H50.036V83.472H54.548ZM53.828 82.904H50.748V82.088H53.828V82.904ZM52.332 80.2V76.96H51.628V78H49.796V76.968H49.084V80.2H52.332ZM51.628 79.624H49.796V78.568H51.628V79.624ZM61.4619 81.648V76.568H60.7499V81.648H61.4619ZM61.6219 83.344V82.776H57.5739V81.168H56.8619V83.344H61.6219ZM57.7499 77.04C56.6779 77.04 55.8859 77.784 55.8859 78.792C55.8859 79.792 56.6779 80.488 57.7499 80.488C58.8299 80.488 59.6219 79.792 59.6219 78.784C59.6219 77.784 58.8299 77.04 57.7499 77.04ZM57.7499 77.648C58.4379 77.648 58.8699 78.12 58.8699 78.784C58.8699 79.424 58.4379 79.896 57.7499 79.896C57.0939 79.896 56.6299 79.416 56.6299 78.776C56.6299 78.128 57.0939 77.648 57.7499 77.648ZM66.2798 77.304H63.0318V77.904H65.5358C65.5198 78.28 65.4558 78.632 65.3518 78.96L62.7518 79.16L62.8798 79.784L65.1198 79.544C64.6238 80.528 63.7438 81.28 62.6398 81.784L63.0798 82.328C65.0478 81.336 66.2718 79.76 66.2798 77.304ZM68.0478 76.568H67.3438V83.56H68.0478V79.968H69.1598V79.384H68.0478V76.568ZM75.1296 80.568V80H71.0896V77.832H75.0656V77.256H70.3856V80.568H75.1296ZM75.8816 82.616V82.04H69.5696V82.616H75.8816ZM85.0811 79.936V79.352H83.9931V76.568H83.2891V83.56H83.9931V79.936H85.0811ZM82.7131 81.328C81.7291 80.72 80.9451 79.616 80.9451 78.304V77.168H80.2171V78.336C80.2171 79.624 79.4731 80.84 78.4171 81.504L78.8571 82.032C79.6491 81.504 80.3451 80.616 80.5851 79.768C80.8491 80.576 81.6651 81.448 82.2891 81.856L82.7131 81.328ZM91.0749 78.056C91.0749 77.256 90.1949 76.752 88.6669 76.752C87.1469 76.752 86.2589 77.256 86.2589 78.056C86.2589 78.52 86.5389 78.88 87.0749 79.104V80.072H85.5149V80.648H91.8269V80.072H90.2349V79.12C90.7789 78.896 91.0749 78.528 91.0749 78.056ZM91.1549 82.288C91.1549 81.488 90.2189 81.032 88.6669 81.032C87.1229 81.032 86.1949 81.488 86.1949 82.288C86.1949 83.088 87.1229 83.552 88.6669 83.552C90.2189 83.552 91.1549 83.088 91.1549 82.288ZM90.3549 78.056C90.3549 78.536 89.6909 78.8 88.6669 78.8C87.6349 78.8 86.9869 78.536 86.9869 78.056C86.9869 77.576 87.6349 77.312 88.6669 77.312C89.7069 77.312 90.3549 77.576 90.3549 78.056ZM88.6669 81.6C89.7069 81.6 90.4109 81.832 90.4109 82.296C90.4109 82.744 89.7149 82.976 88.6669 82.976C87.6349 82.976 86.9469 82.744 86.9469 82.296C86.9469 81.832 87.6349 81.6 88.6669 81.6ZM88.6669 79.368C88.9869 79.368 89.2749 79.344 89.5309 79.304V80.072H87.7789V79.296C88.0429 79.344 88.3389 79.368 88.6669 79.368ZM100.442 83.56V76.568H99.7624V79.296H98.9064V76.72H98.2344V83.216H98.9064V79.88H99.7624V83.56H100.442ZM97.8504 81.464C97.8184 81.272 97.7864 81.072 97.7464 80.88C97.2664 81.016 96.2024 81.088 95.5224 81.088V77.344H94.8104V81.688H95.4824C96.3384 81.672 97.3464 81.584 97.8504 81.464ZM103.308 76.944C102.332 76.944 101.54 77.64 101.54 78.616C101.54 79.608 102.34 80.248 103.308 80.248C104.292 80.248 105.084 79.6 105.084 78.616C105.084 77.632 104.284 76.944 103.308 76.944ZM103.308 77.536C103.972 77.536 104.38 78.008 104.38 78.616C104.38 79.232 103.956 79.68 103.308 79.68C102.684 79.68 102.236 79.232 102.236 78.608C102.236 78.008 102.676 77.536 103.308 77.536ZM105.3 78.072H106.484V79.12H105.3L105.292 79.712H106.484V80.64H107.196V76.568H106.484V77.488H105.292L105.3 78.072ZM102.444 81.008V81.576H106.484V83.568H107.196V81.008H102.444Z" fill="#222222"/>
<path d="M23.76 121.764V121.172H22.704V119.068H22V123.596H22.704V121.764H23.76ZM22.784 124.844C22.784 124.076 21.952 123.612 20.448 123.612C18.936 123.612 18.112 124.068 18.112 124.844C18.112 125.612 18.936 126.068 20.448 126.068C21.952 126.068 22.784 125.612 22.784 124.844ZM20.448 124.172C21.456 124.172 22.064 124.428 22.064 124.844C22.064 125.26 21.456 125.508 20.448 125.508C19.432 125.508 18.832 125.252 18.832 124.844C18.832 124.436 19.432 124.172 20.448 124.172ZM20.296 119.756V119.172H18.264V119.756H20.296ZM21.288 120.756V120.188H17.264V120.756H21.288ZM20.888 122.18C20.888 121.476 20.192 121.028 19.272 121.028C18.336 121.028 17.656 121.468 17.656 122.18C17.656 122.884 18.344 123.332 19.272 123.332C20.192 123.332 20.888 122.884 20.888 122.18ZM20.184 122.18C20.184 122.548 19.76 122.796 19.272 122.796C18.784 122.796 18.352 122.548 18.352 122.18C18.352 121.804 18.776 121.564 19.272 121.564C19.76 121.564 20.184 121.804 20.184 122.18ZM30.5379 123.14V122.556H27.7219V121.724H29.7379V119.324H25.0339V121.724H27.0099V122.556H24.2259V123.14H30.5379ZM29.0179 121.164H25.7379V119.892H29.0179V121.164ZM24.9219 123.82V124.396H29.0579V126.092H29.7619V123.82H24.9219Z" fill="#222222"/>
<path d="M54.532 95.488V91.568H53.828V95.488H54.532ZM54.532 98.464V95.888H50.028V98.464H54.532ZM53.828 97.904H50.732V96.448H53.828V97.904ZM49.228 92.032V92.632H51.66C51.46 93.832 50.196 94.848 48.908 95.104L49.268 95.672C51.068 95.192 52.356 93.912 52.436 92.032H49.228ZM60.2939 96.576V91.712H59.6219V93.48H58.9899C58.8619 92.664 58.2779 92.056 57.3819 92.056C56.3819 92.056 55.7659 92.848 55.7659 93.8C55.7659 94.768 56.3819 95.56 57.3899 95.56C58.3099 95.56 58.8939 94.912 58.9899 94.056H59.6219V96.576H60.2939ZM61.8139 98.352V97.784H57.7179V96.128H57.0059V98.352H61.8139ZM61.6299 96.76V91.568H60.9499V96.76H61.6299ZM58.3179 93.808C58.3179 94.44 57.9739 94.936 57.3819 94.936C56.8139 94.936 56.4619 94.44 56.4619 93.808C56.4619 93.184 56.8139 92.68 57.3819 92.68C57.9739 92.68 58.3179 93.184 58.3179 93.808ZM63.5758 96.336V94.704H65.8958V94.136H63.5758V92.784H66.2078V92.216H62.8798V96.92H63.5838C64.8718 96.912 66.0398 96.84 66.7758 96.688L66.6718 96.112C65.9598 96.272 64.8398 96.336 63.7518 96.336H63.5758ZM68.3758 98.56V91.568H67.6718V94.192H66.3118V94.792H67.6718V98.56H68.3758ZM71.1056 98.48H71.7056C70.9936 97.68 70.4016 96.432 70.4016 95.224V95.016C70.4016 93.768 70.9936 92.616 71.7056 91.824H71.1056C70.3456 92.568 69.6976 93.672 69.6976 95.08V95.216C69.6976 96.616 70.3456 97.736 71.1056 98.48ZM73.5965 97.664H74.2925V92.896H75.8845V92.288H72.0045V92.896H73.5965V97.664ZM78.7741 97.752C80.2701 97.752 81.1501 96.72 81.1501 95.056V94.904C81.1501 93.16 80.2701 92.2 78.8061 92.2C77.3181 92.2 76.4221 93.232 76.4221 94.896V95.048C76.4221 96.8 77.3181 97.752 78.7741 97.752ZM78.7981 97.176C77.6141 97.176 77.1821 96.288 77.1821 95.04V94.776C77.1821 93.64 77.6861 92.784 78.7741 92.784C79.9741 92.784 80.3981 93.664 80.3981 94.912V95.168C80.3981 96.304 79.8941 97.176 78.7981 97.176ZM82.8598 97.696H83.5638V92.2H83.1798L81.8838 92.8V93.208L82.8598 92.992V97.696ZM84.9253 97.664H88.2933V97.072H85.8933L86.6933 96.264C87.5733 95.376 88.1893 94.688 88.1893 93.744C88.1893 92.784 87.5973 92.184 86.4933 92.184C85.8853 92.184 85.3333 92.44 84.9973 92.664L85.1653 93.208C85.4773 93 85.9093 92.784 86.3573 92.784C87.1093 92.784 87.4453 93.12 87.4453 93.816C87.4453 94.568 86.9173 95.176 86.1573 95.968L84.9253 97.248V97.664ZM90.5829 97.744C91.7829 97.744 92.5429 97.096 92.5429 96.144C92.5429 95.312 92.0309 94.92 91.3349 94.792C91.9429 94.584 92.3509 94.184 92.3509 93.536C92.3509 92.68 91.6949 92.192 90.7189 92.192C90.2389 92.192 89.6149 92.384 89.2869 92.592L89.3909 93.152C89.7189 92.968 90.1349 92.784 90.5669 92.784C91.2069 92.784 91.6229 93.008 91.6229 93.648C91.6229 94.224 91.1589 94.56 90.4789 94.568H90.0069V95.152H90.5269C91.3189 95.152 91.8229 95.464 91.8229 96.128C91.8229 96.792 91.3429 97.168 90.4869 97.168C90.0869 97.168 89.5429 97.016 89.2469 96.816L89.1029 97.36C89.4069 97.568 89.9509 97.744 90.5829 97.744ZM95.76 97.784H96.424V96.624H97.32V96.064H96.424V92.2H95.888L93.184 96.136V96.624H95.76V97.784ZM93.92 96.064L95.768 93.376V96.064H93.92ZM99.2444 97.76C100.428 97.76 101.148 96.952 101.148 95.984C101.148 94.848 100.484 94.32 99.4044 94.32C99.1724 94.32 98.8604 94.376 98.6524 94.432L98.7564 92.864H100.94V92.28H98.1964L98.0044 95.128C98.2524 95.016 98.7564 94.864 99.1244 94.864C99.9404 94.864 100.42 95.176 100.42 95.968C100.42 96.712 99.9244 97.176 99.0924 97.176C98.6604 97.176 98.1564 96.992 97.8604 96.8L97.7244 97.36C98.0524 97.584 98.6204 97.76 99.2444 97.76ZM101.588 98.48H102.196C102.956 97.736 103.612 96.624 103.612 95.216V95.08C103.612 93.68 102.956 92.568 102.196 91.824H101.588C102.316 92.624 102.9 93.872 102.9 95.072V95.288C102.9 96.536 102.316 97.688 101.588 98.48Z" fill="#222222"/>
<path d="M0 6C0 2.68629 2.68629 0 6 0H164C167.314 0 170 2.68629 170 6V12H0V6Z" fill="#464646"/>
</svg>
