<svg width="500" height="313" viewBox="0 0 500 313" fill="none" xmlns="http://www.w3.org/2000/svg">
<rect width="500" height="313" rx="8" fill="#464646"/>
<mask id="mask0" mask-type="alpha" maskUnits="userSpaceOnUse" x="0" y="0" width="500" height="313">
<rect width="500" height="313" rx="8" fill="#F5F5F5"/>
</mask>
<g mask="url(#mask0)">
<rect width="500" height="313" fill="#F5F5F5"/>
<rect width="500" height="10" fill="#464646"/>
<path fill-rule="evenodd" clip-rule="evenodd" d="M8.33337 20.0006C8.33337 19.0802 9.07957 18.334 10 18.334L490 18.334C490.921 18.334 491.667 19.0802 491.667 20.0007V304.167C491.667 305.088 490.921 305.834 490 305.834H10C9.07955 305.834 8.33337 305.088 8.33337 304.167V20.0006Z" fill="white"/>
<rect x="360.417" y="190" width="60.4167" height="11.6667" rx="1.66667" fill="#FFEAF7"/>
<rect x="360.417" y="232.5" width="60.4167" height="11.6667" rx="1.66667" fill="#DFECF7"/>
<rect x="290.833" y="232.5" width="60.4167" height="11.6667" rx="1.66667" fill="#DFECF7"/>
<rect x="221.25" y="232.5" width="60.4167" height="11.6667" rx="1.66667" fill="#DFECF7"/>
<rect x="151.667" y="232.5" width="60.4167" height="11.6667" rx="1.66667" fill="#DFECF7"/>
<rect x="82.0834" y="232.5" width="60.4167" height="11.6667" rx="1.66667" fill="#DFECF7"/>
<rect x="77.5" y="227.5" width="69.1667" height="42.5" rx="1.66667" fill="#DFECF7" fill-opacity="0.5"/>
<rect x="360.417" y="275" width="60.4167" height="11.6667" rx="1.66667" fill="#DFECF7"/>
<rect x="290.833" y="275" width="60.4167" height="11.6667" rx="1.66667" fill="#DFECF7"/>
<rect x="221.25" y="275" width="60.4167" height="11.6667" rx="1.66667" fill="#DFECF7"/>
<rect x="151.667" y="275" width="60.4167" height="11.6667" rx="1.66667" fill="#DFECF7"/>
<rect x="290.833" y="290.834" width="60.4167" height="11.6667" rx="1.66667" fill="#EAE8F9"/>
<rect x="151.667" y="290.834" width="60.4167" height="11.6667" rx="1.66667" fill="#E1F3D8"/>
<rect x="82.0834" y="275" width="60.4167" height="11.6667" rx="1.66667" fill="#DFECF7"/>
<rect x="360.417" y="248.334" width="60.4167" height="11.6667" rx="1.66667" fill="#E1F3D8"/>
<rect x="221.25" y="248.334" width="60.4167" height="11.6667" rx="1.66667" fill="#EAE8F9"/>
<path d="M46.0633 169.828V165.04H45.24V169.828H46.0633ZM46.41 174.378V173.707H40.755V172.623H46.0633V170.327H39.8991V170.998H45.24V171.984H39.9316V174.378H46.41ZM41.0475 165.332C39.6825 165.332 38.5775 166.199 38.5775 167.477C38.5775 168.767 39.6933 169.59 41.0475 169.59C42.4016 169.59 43.4958 168.756 43.4958 167.477C43.4958 166.188 42.4016 165.332 41.0475 165.332ZM41.0475 166.047C42.0333 166.047 42.6941 166.632 42.6941 167.477C42.6941 168.312 42.0333 168.875 41.0475 168.875C40.105 168.875 39.3791 168.312 39.3791 167.467C39.3791 166.622 40.1158 166.047 41.0475 166.047Z" fill="#FF4152"/>
<path d="M183.399 171.952C182.771 172.049 181.763 172.136 180.713 172.201V171.302C181.828 171.193 182.554 170.608 182.554 169.742C182.554 168.745 181.655 168.138 180.312 168.138C178.979 168.138 178.069 168.756 178.069 169.742C178.069 170.597 178.784 171.182 179.878 171.302V172.244C178.968 172.277 178.004 172.277 177.333 172.255L177.484 172.97C178.275 172.97 179.272 172.97 180.323 172.905C181.46 172.829 182.717 172.71 183.453 172.623L183.399 171.952ZM186.313 169.947V169.243H184.797V165.04H183.963V174.508H184.797V169.947H186.313ZM181.753 169.742C181.753 170.272 181.178 170.652 180.312 170.652C179.456 170.652 178.86 170.272 178.86 169.742C178.86 169.189 179.456 168.821 180.312 168.821C181.178 168.821 181.753 169.189 181.753 169.742ZM183.161 167.651V166.968H177.528V167.651H183.161ZM181.655 166.199V165.506H178.936V166.199H181.655Z" fill="#222222"/>
<path d="M116.048 174.498V173.848H110.133V173.046H115.69V171.107H109.288V171.735H114.867V172.461H109.298V174.498H116.048ZM113.144 166.827C113.144 165.852 112.148 165.257 110.826 165.257C109.493 165.257 108.518 165.896 108.518 166.817C108.518 167.781 109.493 168.387 110.826 168.387C112.158 168.387 113.144 167.77 113.144 166.827ZM115.69 170.63V165.04H114.867V169.677H112.787V170.283H114.867V170.63H115.69ZM111.205 170.641V169.449C112.278 169.395 113.437 169.287 114.076 169.222L114 168.593C113.079 168.702 112.158 168.756 110.988 168.799C109.959 168.842 108.963 168.875 107.858 168.875L107.988 169.568C108.778 169.557 109.558 169.536 110.382 169.503V170.641H111.205ZM112.321 166.827C112.321 167.402 111.693 167.705 110.826 167.705C109.959 167.705 109.342 167.402 109.342 166.827C109.342 166.242 109.959 165.917 110.826 165.917C111.725 165.917 112.321 166.242 112.321 166.827Z" fill="#222222"/>
<path d="M251.748 174.519V171.085H255.626V170.392H247.078V171.085H250.924V174.519H251.748ZM255.279 168.68C253.611 168.474 251.791 167.261 251.791 165.972V165.365H250.924V165.972C250.924 167.261 249.256 168.463 247.436 168.702L247.837 169.406C249.278 169.124 250.892 168.203 251.347 167.098C251.921 168.203 253.47 169.092 254.889 169.384L255.279 168.68Z" fill="#222222"/>
<path d="M325.209 170.5V169.807H321.331V168.702H324.115V165.473H317.756V168.702H320.508V169.807H316.662V170.5H325.209ZM323.292 168.019H318.579V166.145H323.292V168.019ZM317.583 171.442V172.125H323.324V174.573H324.148V171.442H317.583Z" fill="#222222"/>
<path d="M393.763 174.313V171.02H387.274V174.313H393.763ZM393.677 165.603H387.339V166.286H392.832C392.832 167.077 392.713 168.442 392.539 169.157H386.245V169.85H394.793V169.157H393.352C393.568 168.203 393.677 166.871 393.677 165.603ZM392.94 173.631H388.098V171.702H392.94V173.631Z" fill="#222222"/>
<path d="M460.127 168.626V167.932H454.743V166.535H460.408V165.842H453.919V170.76H456.758V172.612H452.912V173.306H461.459V172.612H457.581V170.76H460.517V170.077H454.743V168.626H460.127Z" fill="#135DE6"/>
<rect x="77.0833" y="155.418" width="0.833333" height="150.417" fill="#EEEEEE"/>
<rect x="146.667" y="155.418" width="0.833333" height="150.417" fill="#EEEEEE"/>
<rect x="216.25" y="155.418" width="0.833333" height="150.417" fill="#EEEEEE"/>
<rect x="285.833" y="155.418" width="0.833333" height="150.417" fill="#EEEEEE"/>
<rect x="355.417" y="155.418" width="0.833333" height="150.417" fill="#EEEEEE"/>
<rect x="425" y="155.418" width="0.833333" height="150.417" fill="#EEEEEE"/>
<rect x="8.33337" y="154.582" width="483.333" height="0.833333" fill="#EEEEEE"/>
<rect x="8.33337" y="185" width="483.333" height="0.833333" fill="#EEEEEE"/>
<rect x="8.33337" y="227.5" width="483.333" height="0.833333" fill="#EEEEEE"/>
<rect x="8.33337" y="270" width="483.333" height="0.833333" fill="#EEEEEE"/>
<rect x="101.667" y="50.418" width="29.1667" height="5.83333" fill="#EEEEEE"/>
<rect x="25.0001" y="97.918" width="60.4167" height="15.8333" fill="#C9C9C9"/>
<rect x="89.5834" y="97.918" width="60.4167" height="15.8333" fill="#EEEEEE"/>
<rect x="154.167" y="97.918" width="60.4167" height="15.8333" fill="#EEEEEE"/>
<rect x="218.75" y="97.918" width="60.4167" height="15.8333" fill="#EEEEEE"/>
<rect x="283.333" y="97.918" width="60.4167" height="15.8333" fill="#C9C9C9"/>
<rect x="347.917" y="97.918" width="60.4167" height="15.8333" fill="#EEEEEE"/>
<rect x="412.5" y="97.918" width="60.4167" height="15.8333" fill="#EEEEEE"/>
<rect x="143.333" y="50.418" width="29.1667" height="5.83333" fill="#EEEEEE"/>
<rect x="375" y="33.75" width="47.5" height="22.5" rx="3.33333" fill="#DCE4F3"/>
<path d="M389.883 47.8198V47.1873H384.97V46.6282H389.617V44.8957H387.271V44.309H390.497V43.6765H383.265V44.309H386.455V44.8957H384.127V45.5282H388.811V46.0415H384.154V47.8198H389.883ZM390.14 42.7323C389.04 42.6957 387.784 42.274 387.399 41.7057H389.737V41.0732H384.017V41.7057H386.372C386.006 42.2832 384.777 42.7048 383.613 42.7323L383.971 43.3923C385.291 43.264 386.492 42.7598 386.877 42.1182C387.298 42.7415 388.499 43.2457 389.801 43.3923L390.14 42.7323ZM388.169 40.6057V39.964H385.575V40.6057H388.169ZM398.429 44.2998V43.649H397.228C397.384 42.7965 397.457 41.7882 397.457 40.5232H392.113V41.1832H396.641C396.641 42.0998 396.586 42.9707 396.421 43.649H391.196V44.2998H398.429ZM397.677 47.6915V47.0315H392.965V45.1523H392.159V47.6915H397.677ZM406.589 43.979V43.3007H405.315V39.964H404.499V47.9757H405.315V43.979H406.589ZM402.666 41.1465V40.4865H400.273V41.1465H402.666ZM403.83 42.5215V41.8707H399.082V42.5215H403.83ZM403.381 44.6665C403.381 43.704 402.629 42.9707 401.493 42.9707C400.356 42.9707 399.595 43.7223 399.595 44.6665C399.595 45.629 400.356 46.344 401.493 46.344C402.629 46.344 403.381 45.6107 403.381 44.6665ZM402.583 44.6665C402.583 45.2532 402.153 45.6657 401.493 45.6657C400.86 45.6657 400.411 45.2532 400.411 44.6665C400.411 44.0707 400.869 43.649 401.493 43.649C402.116 43.649 402.583 44.0707 402.583 44.6665ZM413.631 47.9757V39.964H412.816V47.9757H413.631ZM411.285 40.8165H407.426V41.504H410.405C410.258 43.2273 408.956 44.9048 407.068 45.8123L407.563 46.4265C409.754 45.2348 411.239 43.3648 411.285 40.8165Z" fill="#222222"/>
<rect x="427.5" y="33.75" width="47.5" height="22.5" rx="3.33333" fill="#135DE6"/>
<rect x="438.333" y="130.416" width="16.6667" height="15.8333" rx="3.33333" fill="#135DE6"/>
<path d="M450.177 137.274C448.976 137.146 447.445 136.385 447.317 135.367H449.847V134.698H443.934V135.367H446.455C446.336 136.385 444.86 137.173 443.595 137.311L443.98 137.952C445.254 137.751 446.528 136.99 446.877 136.238C447.271 136.962 448.591 137.732 449.81 137.925L450.177 137.274ZM447.271 142.142V139.337H450.498V138.677H443.265V139.337H446.455V142.142H447.271Z" fill="white"/>
<rect x="458.333" y="130.416" width="16.6667" height="15.8333" rx="3.33333" fill="#DCE4F3"/>
<path d="M469.778 142.133V141.518H464.828V140.959H469.476V139.254H464.013V139.859H468.669V140.4H464.013V142.133H469.778ZM467.349 135.642C467.349 134.799 466.488 134.313 465.36 134.313C464.233 134.313 463.362 134.817 463.362 135.633C463.362 136.477 464.233 136.962 465.36 136.962C466.488 136.962 467.349 136.477 467.349 135.642ZM469.476 138.933V134.13H468.678V138.035H466.964V138.612H468.678V138.933H469.476ZM465.727 138.942V137.916C466.588 137.861 467.523 137.787 468.083 137.714L468.009 137.109C467.248 137.201 466.46 137.247 465.433 137.292C464.553 137.329 463.701 137.338 462.775 137.338L462.894 138.007C463.554 137.998 464.196 137.98 464.92 137.962V138.942H465.727ZM466.533 135.642C466.533 136.092 466.029 136.321 465.36 136.321C464.691 136.321 464.196 136.092 464.196 135.642C464.196 135.193 464.682 134.946 465.36 134.946C466.057 134.946 466.533 135.193 466.533 135.642Z" fill="#222222"/>
<path d="M440.376 42.9157V42.2557H437.213V41.3573H440.614V40.6882H436.398V44.4282H438.038V45.684C437.232 45.7207 436.443 45.739 435.774 45.739L435.912 46.4265C436.581 46.4265 437.553 46.3898 438.433 46.3348C439.413 46.2798 440.44 46.1973 441.109 46.1057L441.045 45.464C440.504 45.5373 439.67 45.5923 438.836 45.6473V44.4282H440.651V43.7682H437.213V42.9157H440.376ZM442.393 47.9757V39.964H441.586V47.9757H442.393ZM450.929 44.2998V43.649H449.728C449.884 42.7965 449.957 41.7882 449.957 40.5232H444.613V41.1832H449.141C449.141 42.0998 449.086 42.9707 448.921 43.649H443.696V44.2998H450.929ZM450.177 47.6915V47.0315H445.466V45.1523H444.659V47.6915H450.177ZM459.089 43.979V43.3007H457.815V39.964H456.999V47.9757H457.815V43.979H459.089ZM455.166 41.1465V40.4865H452.773V41.1465H455.166ZM456.33 42.5215V41.8707H451.582V42.5215H456.33ZM455.881 44.6665C455.881 43.704 455.129 42.9707 453.993 42.9707C452.856 42.9707 452.095 43.7223 452.095 44.6665C452.095 45.629 452.856 46.344 453.993 46.344C455.129 46.344 455.881 45.6107 455.881 44.6665ZM455.083 44.6665C455.083 45.2532 454.653 45.6657 453.993 45.6657C453.36 45.6657 452.911 45.2532 452.911 44.6665C452.911 44.0707 453.369 43.649 453.993 43.649C454.616 43.649 455.083 44.0707 455.083 44.6665ZM466.131 47.9757V39.964H465.316V47.9757H466.131ZM463.785 40.8165H459.926V41.504H462.905C462.758 43.2273 461.456 44.9048 459.568 45.8123L460.063 46.4265C462.254 45.2348 463.739 43.3648 463.785 40.8165Z" fill="white"/>
<path d="M29.8217 42.916H25.4217V42.1643L27.1084 40.4502C27.4384 40.1141 27.7134 39.8238 27.9334 39.5793C28.1534 39.3288 28.3184 39.0905 28.4284 38.8643C28.5384 38.6321 28.5934 38.3816 28.5934 38.1127C28.5934 37.7827 28.4956 37.5321 28.3001 37.361C28.1106 37.1899 27.857 37.1043 27.5392 37.1043C27.2398 37.1043 26.9709 37.1593 26.7326 37.2693C26.4942 37.3793 26.2467 37.5382 25.9901 37.746L25.4676 37.0952C25.7303 36.8752 26.0298 36.6857 26.3659 36.5268C26.702 36.3618 27.1023 36.2793 27.5667 36.2793C28.184 36.2793 28.6728 36.4382 29.0334 36.756C29.394 37.0738 29.5742 37.4985 29.5742 38.0302C29.5742 38.3785 29.504 38.7024 29.3634 39.0018C29.2228 39.3013 29.0242 39.5977 28.7676 39.891C28.5109 40.1843 28.2084 40.496 27.8601 40.826L26.6409 42.0085V42.0543H29.8217V42.916ZM35.0767 39.6343C35.0767 40.3432 35.0033 40.9482 34.8567 41.4493C34.71 41.9505 34.4717 42.3355 34.1417 42.6043C33.8178 42.8732 33.39 43.0077 32.8583 43.0077C32.1067 43.0077 31.5506 42.7113 31.19 42.1185C30.8356 41.5196 30.6583 40.6916 30.6583 39.6343C30.6583 38.9255 30.7286 38.3205 30.8692 37.8193C31.0158 37.3182 31.2511 36.9363 31.575 36.6735C31.8989 36.4046 32.3267 36.2702 32.8583 36.2702C33.6039 36.2702 34.16 36.5666 34.5267 37.1593C34.8933 37.746 35.0767 38.571 35.0767 39.6343ZM31.63 39.6343C31.63 40.4899 31.7217 41.1316 31.905 41.5593C32.0883 41.981 32.4061 42.1918 32.8583 42.1918C33.3044 42.1918 33.6222 41.981 33.8117 41.5593C34.0011 41.1377 34.0958 40.496 34.0958 39.6343C34.0958 38.7849 34.0011 38.1493 33.8117 37.7277C33.6222 37.2999 33.3044 37.086 32.8583 37.086C32.4061 37.086 32.0883 37.2999 31.905 37.7277C31.7217 38.1493 31.63 38.7849 31.63 39.6343ZM40.3133 42.916H35.9133V42.1643L37.5999 40.4502C37.9299 40.1141 38.2049 39.8238 38.4249 39.5793C38.6449 39.3288 38.8099 39.0905 38.9199 38.8643C39.0299 38.6321 39.0849 38.3816 39.0849 38.1127C39.0849 37.7827 38.9872 37.5321 38.7916 37.361C38.6022 37.1899 38.3485 37.1043 38.0308 37.1043C37.7313 37.1043 37.4624 37.1593 37.2241 37.2693C36.9858 37.3793 36.7383 37.5382 36.4816 37.746L35.9591 37.0952C36.2219 36.8752 36.5213 36.6857 36.8574 36.5268C37.1935 36.3618 37.5938 36.2793 38.0583 36.2793C38.6755 36.2793 39.1644 36.4382 39.5249 36.756C39.8855 37.0738 40.0658 37.4985 40.0658 38.0302C40.0658 38.3785 39.9955 38.7024 39.8549 39.0018C39.7144 39.3013 39.5158 39.5977 39.2591 39.891C39.0024 40.1843 38.6999 40.496 38.3516 40.826L37.1324 42.0085V42.0543H40.3133V42.916ZM44.1474 42.916H43.1849V38.571C43.1849 38.3388 43.1879 38.131 43.194 37.9477C43.2001 37.7582 43.2093 37.5749 43.2215 37.3977C43.1421 37.4832 43.0596 37.5627 42.974 37.636C42.8885 37.7093 42.7907 37.7918 42.6807 37.8835L41.9657 38.461L41.4707 37.8377L43.3407 36.371H44.1474V42.916ZM46.3223 40.8718V40.0468H48.5956V40.8718H46.3223ZM53.7681 39.6343C53.7681 40.3432 53.6947 40.9482 53.5481 41.4493C53.4014 41.9505 53.1631 42.3355 52.8331 42.6043C52.5092 42.8732 52.0814 43.0077 51.5497 43.0077C50.7981 43.0077 50.242 42.7113 49.8814 42.1185C49.527 41.5196 49.3497 40.6916 49.3497 39.6343C49.3497 38.9255 49.42 38.3205 49.5606 37.8193C49.7072 37.3182 49.9425 36.9363 50.2664 36.6735C50.5903 36.4046 51.0181 36.2702 51.5497 36.2702C52.2953 36.2702 52.8514 36.5666 53.2181 37.1593C53.5847 37.746 53.7681 38.571 53.7681 39.6343ZM50.3214 39.6343C50.3214 40.4899 50.4131 41.1316 50.5964 41.5593C50.7797 41.981 51.0975 42.1918 51.5497 42.1918C51.9958 42.1918 52.3136 41.981 52.5031 41.5593C52.6925 41.1377 52.7872 40.496 52.7872 39.6343C52.7872 38.7849 52.6925 38.1493 52.5031 37.7277C52.3136 37.2999 51.9958 37.086 51.5497 37.086C51.0975 37.086 50.7797 37.2999 50.5964 37.7277C50.4131 38.1493 50.3214 38.7849 50.3214 39.6343ZM58.748 37.8835C58.748 38.3296 58.6227 38.6841 58.3722 38.9468C58.1216 39.2096 57.7916 39.3838 57.3822 39.4693V39.506C57.9016 39.5671 58.2927 39.7321 58.5555 40.001C58.8183 40.2699 58.9497 40.6182 58.9497 41.046C58.9497 41.4249 58.858 41.7641 58.6747 42.0635C58.4975 42.3568 58.2194 42.5891 57.8405 42.7602C57.4677 42.9252 56.988 43.0077 56.4013 43.0077C56.053 43.0077 55.7291 42.9802 55.4297 42.9252C55.1302 42.8702 54.8461 42.7785 54.5772 42.6502V41.7702C54.8522 41.9107 55.1486 42.0177 55.4663 42.091C55.7841 42.1643 56.0836 42.201 56.3647 42.201C56.9269 42.201 57.3272 42.0971 57.5655 41.8893C57.81 41.6755 57.9322 41.3791 57.9322 41.0002C57.9322 40.6335 57.7855 40.3646 57.4922 40.1935C57.1988 40.0224 56.7588 39.9368 56.1722 39.9368H55.5763V39.1393H56.1813C56.7375 39.1393 57.1408 39.0355 57.3913 38.8277C57.6419 38.6199 57.7672 38.348 57.7672 38.0118C57.7672 37.7185 57.6694 37.4924 57.4738 37.3335C57.2844 37.1685 57.0094 37.086 56.6488 37.086C56.3127 37.086 56.0194 37.141 55.7688 37.251C55.5244 37.3549 55.2952 37.4771 55.0813 37.6177L54.6047 36.9485C54.8491 36.7652 55.1425 36.6093 55.4847 36.481C55.8269 36.3466 56.2241 36.2793 56.6763 36.2793C57.3547 36.2793 57.868 36.4291 58.2163 36.7285C58.5708 37.0218 58.748 37.4068 58.748 37.8835ZM59.7679 40.8718V40.0468H62.0413V40.8718H59.7679ZM67.2045 42.916H62.8045V42.1643L64.4912 40.4502C64.8212 40.1141 65.0962 39.8238 65.3162 39.5793C65.5362 39.3288 65.7012 39.0905 65.8112 38.8643C65.9212 38.6321 65.9762 38.3816 65.9762 38.1127C65.9762 37.7827 65.8784 37.5321 65.6829 37.361C65.4934 37.1899 65.2398 37.1043 64.922 37.1043C64.6226 37.1043 64.3537 37.1593 64.1154 37.2693C63.877 37.3793 63.6295 37.5382 63.3729 37.746L62.8504 37.0952C63.1132 36.8752 63.4126 36.6857 63.7487 36.5268C64.0848 36.3618 64.4851 36.2793 64.9495 36.2793C65.5668 36.2793 66.0557 36.4382 66.4162 36.756C66.7768 37.0738 66.957 37.4985 66.957 38.0302C66.957 38.3785 66.8868 38.7024 66.7462 39.0018C66.6057 39.3013 66.407 39.5977 66.1504 39.891C65.8937 40.1843 65.5912 40.496 65.2429 40.826L64.0237 42.0085V42.0543H67.2045V42.916ZM72.6978 41.4677H71.7903V42.916H70.8461V41.4677H67.812V40.6977L70.8278 36.3435H71.7903V40.6427H72.6978V41.4677ZM70.8461 40.6427V38.8643C70.8461 38.5771 70.8492 38.3082 70.8553 38.0577C70.8675 37.801 70.8798 37.5871 70.892 37.416H70.8553C70.8064 37.5382 70.7453 37.6635 70.672 37.7918C70.5986 37.9202 70.5284 38.0332 70.4611 38.131L68.7286 40.6427H70.8461ZM28.4101 56.916H27.4476V52.571C27.4476 52.3388 27.4506 52.131 27.4567 51.9477C27.4628 51.7582 27.472 51.5749 27.4842 51.3977C27.4048 51.4832 27.3223 51.5627 27.2367 51.636C27.1512 51.7093 27.0534 51.7918 26.9434 51.8835L26.2284 52.461L25.7334 51.8377L27.6034 50.371H28.4101V56.916ZM35.315 55.4677H34.4075V56.916H33.4633V55.4677H30.4292V54.6977L33.445 50.3435H34.4075V54.6427H35.315V55.4677ZM33.4633 54.6427V52.8643C33.4633 52.5771 33.4664 52.3082 33.4725 52.0577C33.4847 51.801 33.4969 51.5871 33.5092 51.416H33.4725C33.4236 51.5382 33.3625 51.6635 33.2892 51.7918C33.2158 51.9202 33.1456 52.0332 33.0783 52.131L31.3458 54.6427H33.4633ZM36.1149 52.5252C36.1149 52.2746 36.176 52.1005 36.2983 52.0027C36.4205 51.9049 36.5672 51.856 36.7383 51.856C36.9094 51.856 37.056 51.9049 37.1783 52.0027C37.3066 52.1005 37.3708 52.2746 37.3708 52.5252C37.3708 52.7574 37.3066 52.9255 37.1783 53.0293C37.056 53.1332 36.9094 53.1852 36.7383 53.1852C36.5672 53.1852 36.4205 53.1332 36.2983 53.0293C36.176 52.9255 36.1149 52.7574 36.1149 52.5252ZM36.1149 56.3752C36.1149 56.1368 36.176 55.9688 36.2983 55.871C36.4205 55.7732 36.5672 55.7243 36.7383 55.7243C36.9094 55.7243 37.056 55.7732 37.1783 55.871C37.3066 55.9688 37.3708 56.1368 37.3708 56.3752C37.3708 56.6135 37.3066 56.7846 37.1783 56.8885C37.056 56.9924 36.9094 57.0443 36.7383 57.0443C36.5672 57.0443 36.4205 56.9924 36.2983 56.8885C36.176 56.7846 36.1149 56.6135 36.1149 56.3752ZM42.5631 51.8835C42.5631 52.3296 42.4378 52.6841 42.1873 52.9468C41.9367 53.2096 41.6067 53.3838 41.1973 53.4693V53.506C41.7167 53.5671 42.1078 53.7321 42.3706 54.001C42.6334 54.2699 42.7648 54.6182 42.7648 55.046C42.7648 55.4249 42.6731 55.7641 42.4898 56.0635C42.3126 56.3568 42.0345 56.5891 41.6556 56.7602C41.2828 56.9252 40.8031 57.0077 40.2164 57.0077C39.8681 57.0077 39.5442 56.9802 39.2448 56.9252C38.9453 56.8702 38.6612 56.7785 38.3923 56.6502V55.7702C38.6673 55.9107 38.9637 56.0177 39.2814 56.091C39.5992 56.1643 39.8987 56.201 40.1798 56.201C40.742 56.201 41.1423 56.0971 41.3806 55.8893C41.6251 55.6755 41.7473 55.3791 41.7473 55.0002C41.7473 54.6335 41.6006 54.3646 41.3073 54.1935C41.0139 54.0224 40.5739 53.9368 39.9873 53.9368H39.3914V53.1393H39.9964C40.5526 53.1393 40.9559 53.0355 41.2064 52.8277C41.457 52.6199 41.5823 52.348 41.5823 52.0118C41.5823 51.7185 41.4845 51.4924 41.2889 51.3335C41.0995 51.1685 40.8245 51.086 40.4639 51.086C40.1278 51.086 39.8345 51.141 39.5839 51.251C39.3395 51.3549 39.1103 51.4771 38.8964 51.6177L38.4198 50.9485C38.6642 50.7652 38.9576 50.6093 39.2998 50.481C39.642 50.3466 40.0392 50.2793 40.4914 50.2793C41.1698 50.2793 41.6831 50.4291 42.0314 50.7285C42.3859 51.0218 42.5631 51.4068 42.5631 51.8835ZM48.0655 56.916H43.6655V56.1643L45.3522 54.4502C45.6822 54.1141 45.9572 53.8238 46.1772 53.5793C46.3972 53.3288 46.5622 53.0905 46.6722 52.8643C46.7822 52.6321 46.8372 52.3816 46.8372 52.1127C46.8372 51.7827 46.7394 51.5321 46.5439 51.361C46.3544 51.1899 46.1008 51.1043 45.783 51.1043C45.4836 51.1043 45.2147 51.1593 44.9764 51.2693C44.738 51.3793 44.4905 51.5382 44.2339 51.746L43.7114 51.0952C43.9742 50.8752 44.2736 50.6857 44.6097 50.5268C44.9458 50.3618 45.3461 50.2793 45.8105 50.2793C46.4278 50.2793 46.9167 50.4382 47.2772 50.756C47.6378 51.0738 47.818 51.4985 47.818 52.0302C47.818 52.3785 47.7478 52.7024 47.6072 53.0018C47.4667 53.3013 47.268 53.5977 47.0114 53.891C46.7547 54.1843 46.4522 54.496 46.1039 54.826L44.8847 56.0085V56.0543H48.0655V56.916ZM49.113 52.5252C49.113 52.2746 49.1741 52.1005 49.2963 52.0027C49.4185 51.9049 49.5652 51.856 49.7363 51.856C49.9074 51.856 50.0541 51.9049 50.1763 52.0027C50.3046 52.1005 50.3688 52.2746 50.3688 52.5252C50.3688 52.7574 50.3046 52.9255 50.1763 53.0293C50.0541 53.1332 49.9074 53.1852 49.7363 53.1852C49.5652 53.1852 49.4185 53.1332 49.2963 53.0293C49.1741 52.9255 49.113 52.7574 49.113 52.5252ZM49.113 56.3752C49.113 56.1368 49.1741 55.9688 49.2963 55.871C49.4185 55.7732 49.5652 55.7243 49.7363 55.7243C49.9074 55.7243 50.0541 55.7732 50.1763 55.871C50.3046 55.9688 50.3688 56.1368 50.3688 56.3752C50.3688 56.6135 50.3046 56.7846 50.1763 56.8885C50.0541 56.9924 49.9074 57.0443 49.7363 57.0443C49.5652 57.0443 49.4185 56.9924 49.2963 56.8885C49.1741 56.7846 49.113 56.6135 49.113 56.3752ZM56.0653 55.4677H55.1578V56.916H54.2137V55.4677H51.1795V54.6977L54.1953 50.3435H55.1578V54.6427H56.0653V55.4677ZM54.2137 54.6427V52.8643C54.2137 52.5771 54.2167 52.3082 54.2228 52.0577C54.235 51.801 54.2473 51.5871 54.2595 51.416H54.2228C54.1739 51.5382 54.1128 51.6635 54.0395 51.7918C53.9662 51.9202 53.8959 52.0332 53.8287 52.131L52.0962 54.6427H54.2137ZM61.0728 53.6343C61.0728 54.3432 60.9994 54.9482 60.8528 55.4493C60.7061 55.9505 60.4678 56.3355 60.1378 56.6043C59.8139 56.8732 59.3861 57.0077 58.8544 57.0077C58.1028 57.0077 57.5466 56.7113 57.1861 56.1185C56.8316 55.5196 56.6544 54.6916 56.6544 53.6343C56.6544 52.9255 56.7247 52.3205 56.8653 51.8193C57.0119 51.3182 57.2472 50.9363 57.5711 50.6735C57.895 50.4046 58.3228 50.2702 58.8544 50.2702C59.6 50.2702 60.1561 50.5666 60.5228 51.1593C60.8894 51.746 61.0728 52.571 61.0728 53.6343ZM57.6261 53.6343C57.6261 54.4899 57.7178 55.1316 57.9011 55.5593C58.0844 55.981 58.4022 56.1918 58.8544 56.1918C59.3005 56.1918 59.6183 55.981 59.8078 55.5593C59.9972 55.1377 60.0919 54.496 60.0919 53.6343C60.0919 52.7849 59.9972 52.1493 59.8078 51.7277C59.6183 51.2999 59.3005 51.086 58.8544 51.086C58.4022 51.086 58.0844 51.2999 57.9011 51.7277C57.7178 52.1493 57.6261 52.7849 57.6261 53.6343Z" fill="#222222"/>
<path d="M29.8217 138.75H25.4217V137.998L27.1084 136.284C27.4384 135.948 27.7134 135.658 27.9334 135.413C28.1534 135.163 28.3184 134.924 28.4284 134.698C28.5384 134.466 28.5934 134.216 28.5934 133.947C28.5934 133.617 28.4956 133.366 28.3001 133.195C28.1106 133.024 27.857 132.938 27.5392 132.938C27.2398 132.938 26.9709 132.993 26.7326 133.103C26.4942 133.213 26.2467 133.372 25.9901 133.58L25.4676 132.929C25.7303 132.709 26.0298 132.52 26.3659 132.361C26.702 132.196 27.1023 132.113 27.5667 132.113C28.184 132.113 28.6728 132.272 29.0334 132.59C29.394 132.908 29.5742 133.332 29.5742 133.864C29.5742 134.212 29.504 134.536 29.3634 134.836C29.2228 135.135 29.0242 135.432 28.7676 135.725C28.5109 136.018 28.2084 136.33 27.8601 136.66L26.6409 137.842V137.888H29.8217V138.75ZM35.0767 135.468C35.0767 136.177 35.0033 136.782 34.8567 137.283C34.71 137.784 34.4717 138.169 34.1417 138.438C33.8178 138.707 33.39 138.842 32.8583 138.842C32.1067 138.842 31.5506 138.545 31.19 137.952C30.8356 137.354 30.6583 136.526 30.6583 135.468C30.6583 134.759 30.7286 134.154 30.8692 133.653C31.0158 133.152 31.2511 132.77 31.575 132.507C31.8989 132.239 32.3267 132.104 32.8583 132.104C33.6039 132.104 34.16 132.401 34.5267 132.993C34.8933 133.58 35.0767 134.405 35.0767 135.468ZM31.63 135.468C31.63 136.324 31.7217 136.966 31.905 137.393C32.0883 137.815 32.4061 138.026 32.8583 138.026C33.3044 138.026 33.6222 137.815 33.8117 137.393C34.0011 136.972 34.0958 136.33 34.0958 135.468C34.0958 134.619 34.0011 133.983 33.8117 133.562C33.6222 133.134 33.3044 132.92 32.8583 132.92C32.4061 132.92 32.0883 133.134 31.905 133.562C31.7217 133.983 31.63 134.619 31.63 135.468ZM40.3133 138.75H35.9133V137.998L37.5999 136.284C37.9299 135.948 38.2049 135.658 38.4249 135.413C38.6449 135.163 38.8099 134.924 38.9199 134.698C39.0299 134.466 39.0849 134.216 39.0849 133.947C39.0849 133.617 38.9872 133.366 38.7916 133.195C38.6022 133.024 38.3485 132.938 38.0308 132.938C37.7313 132.938 37.4624 132.993 37.2241 133.103C36.9858 133.213 36.7383 133.372 36.4816 133.58L35.9591 132.929C36.2219 132.709 36.5213 132.52 36.8574 132.361C37.1935 132.196 37.5938 132.113 38.0583 132.113C38.6755 132.113 39.1644 132.272 39.5249 132.59C39.8855 132.908 40.0658 133.332 40.0658 133.864C40.0658 134.212 39.9955 134.536 39.8549 134.836C39.7144 135.135 39.5158 135.432 39.2591 135.725C39.0024 136.018 38.6999 136.33 38.3516 136.66L37.1324 137.842V137.888H40.3133V138.75ZM45.5682 135.468C45.5682 136.177 45.4949 136.782 45.3482 137.283C45.2015 137.784 44.9632 138.169 44.6332 138.438C44.3093 138.707 43.8815 138.842 43.3499 138.842C42.5982 138.842 42.0421 138.545 41.6815 137.952C41.3271 137.354 41.1499 136.526 41.1499 135.468C41.1499 134.759 41.2201 134.154 41.3607 133.653C41.5074 133.152 41.7426 132.77 42.0665 132.507C42.3904 132.239 42.8182 132.104 43.3499 132.104C44.0954 132.104 44.6515 132.401 45.0182 132.993C45.3849 133.58 45.5682 134.405 45.5682 135.468ZM42.1215 135.468C42.1215 136.324 42.2132 136.966 42.3965 137.393C42.5799 137.815 42.8976 138.026 43.3499 138.026C43.796 138.026 44.1138 137.815 44.3032 137.393C44.4926 136.972 44.5874 136.33 44.5874 135.468C44.5874 134.619 44.4926 133.983 44.3032 133.562C44.1138 133.134 43.796 132.92 43.3499 132.92C42.8976 132.92 42.5799 133.134 42.3965 133.562C42.2132 133.983 42.1215 134.619 42.1215 135.468ZM53.1148 139.163V138.512H48.5223V136.752H47.7156V139.163H53.1148ZM50.8048 135.798C50.7773 135.578 50.7315 135.367 50.6856 135.157C49.769 135.349 48.6323 135.422 47.5598 135.422V131.939H46.7623V136.11C47.074 136.11 47.404 136.11 47.7431 136.101C48.7331 136.082 49.989 135.972 50.8048 135.798ZM52.0881 133.167V133.965H49.6315V134.616H52.0881V137.192H52.904V131.38H52.0881V132.526H49.6315V133.167H52.0881ZM61.1265 135.468C61.1265 136.177 61.0531 136.782 60.9065 137.283C60.7598 137.784 60.5215 138.169 60.1915 138.438C59.8676 138.707 59.4398 138.842 58.9081 138.842C58.1565 138.842 57.6004 138.545 57.2398 137.952C56.8854 137.354 56.7081 136.526 56.7081 135.468C56.7081 134.759 56.7784 134.154 56.919 133.653C57.0656 133.152 57.3009 132.77 57.6248 132.507C57.9487 132.239 58.3765 132.104 58.9081 132.104C59.6537 132.104 60.2098 132.401 60.5765 132.993C60.9431 133.58 61.1265 134.405 61.1265 135.468ZM57.6798 135.468C57.6798 136.324 57.7715 136.966 57.9548 137.393C58.1381 137.815 58.4559 138.026 58.9081 138.026C59.3542 138.026 59.672 137.815 59.8615 137.393C60.0509 136.972 60.1456 136.33 60.1456 135.468C60.1456 134.619 60.0509 133.983 59.8615 133.562C59.672 133.134 59.3542 132.92 58.9081 132.92C58.4559 132.92 58.1381 133.134 57.9548 133.562C57.7715 133.983 57.6798 134.619 57.6798 135.468ZM66.1064 133.717C66.1064 134.164 65.9811 134.518 65.7306 134.781C65.48 135.044 65.15 135.218 64.7406 135.303V135.34C65.26 135.401 65.6511 135.566 65.9139 135.835C66.1767 136.104 66.3081 136.452 66.3081 136.88C66.3081 137.259 66.2164 137.598 66.0331 137.897C65.8558 138.191 65.5778 138.423 65.1989 138.594C64.8261 138.759 64.3464 138.842 63.7597 138.842C63.4114 138.842 63.0875 138.814 62.7881 138.759C62.4886 138.704 62.2045 138.612 61.9356 138.484V137.604C62.2106 137.745 62.507 137.852 62.8247 137.925C63.1425 137.998 63.442 138.035 63.7231 138.035C64.2853 138.035 64.6856 137.931 64.9239 137.723C65.1683 137.509 65.2906 137.213 65.2906 136.834C65.2906 136.467 65.1439 136.199 64.8506 136.027C64.5572 135.856 64.1172 135.771 63.5306 135.771H62.9347V134.973H63.5397C64.0958 134.973 64.4992 134.869 64.7497 134.662C65.0003 134.454 65.1256 134.182 65.1256 133.846C65.1256 133.552 65.0278 133.326 64.8322 133.167C64.6428 133.002 64.3678 132.92 64.0072 132.92C63.6711 132.92 63.3778 132.975 63.1272 133.085C62.8828 133.189 62.6536 133.311 62.4397 133.452L61.9631 132.782C62.2075 132.599 62.5008 132.443 62.8431 132.315C63.1853 132.181 63.5825 132.113 64.0347 132.113C64.7131 132.113 65.2264 132.263 65.5747 132.562C65.9292 132.856 66.1064 133.241 66.1064 133.717ZM74.0655 139.383V138.768H69.1155V138.209H73.763V136.504H68.2997V137.109H72.9563V137.65H68.2997V139.383H74.0655ZM71.6363 132.892C71.6363 132.049 70.7747 131.563 69.6472 131.563C68.5197 131.563 67.6488 132.067 67.6488 132.883C67.6488 133.727 68.5197 134.212 69.6472 134.212C70.7747 134.212 71.6363 133.727 71.6363 132.892ZM73.763 136.183V131.38H72.9655V135.285H71.2513V135.862H72.9655V136.183H73.763ZM70.0138 136.192V135.166C70.8755 135.111 71.8105 135.037 72.3697 134.964L72.2963 134.359C71.5355 134.451 70.7472 134.497 69.7205 134.542C68.8405 134.579 67.988 134.588 67.0622 134.588L67.1813 135.257C67.8413 135.248 68.483 135.23 69.2072 135.212V136.192H70.0138ZM70.8205 132.892C70.8205 133.342 70.3163 133.571 69.6472 133.571C68.978 133.571 68.483 133.342 68.483 132.892C68.483 132.443 68.9688 132.196 69.6472 132.196C70.3438 132.196 70.8205 132.443 70.8205 132.892Z" fill="#222222"/>
<path d="M31.9759 89.2257V81.214H31.1692V89.2257H31.9759ZM30.2159 86.6957C29.1067 86.054 28.2084 84.7523 28.2084 83.249V81.9198H27.3651V83.2857C27.3651 84.7615 26.5126 86.1548 25.3117 86.9157L25.8159 87.5115C26.7234 86.9157 27.5117 85.8982 27.7959 84.9173C28.0892 85.8523 29.0151 86.8057 29.7301 87.3007L30.2159 86.6957ZM37.9547 87.0257C36.9372 86.5673 35.9839 85.504 35.9839 83.964V83.7715H37.753V83.1115H33.3622V83.7715H35.1497V83.9732C35.1497 85.5132 34.1872 86.6773 33.078 87.2457L33.6005 87.8323C34.4897 87.3648 35.3514 86.3565 35.5714 85.5132C35.8189 86.3382 36.6805 87.2365 37.478 87.6398L37.9547 87.0257ZM40.723 85.1557V84.4773H39.4672V81.214H38.6605V89.2257H39.4672V85.1557H40.723ZM36.7355 82.3873V81.7182H34.3705V82.3873H36.7355ZM47.8294 89.0698V88.4373H42.916V87.8782H47.5635V86.1457H45.2169V85.559H48.4435V84.9265H41.211V85.559H44.401V86.1457H42.0727V86.7782H46.7569V87.2915H42.1002V89.0698H47.8294ZM48.086 83.9823C46.986 83.9457 45.7302 83.524 45.3452 82.9557H47.6827V82.3232H41.9627V82.9557H44.3185C43.9519 83.5332 42.7235 83.9548 41.5594 83.9823L41.9169 84.6423C43.2369 84.514 44.4377 84.0098 44.8227 83.3682C45.2444 83.9915 46.4452 84.4957 47.7469 84.6423L48.086 83.9823ZM46.1152 81.8557V81.214H43.521V81.8557H46.1152ZM53.7532 84.1657V83.5057H50.5907V82.6073H53.9915V81.9382H49.7748V85.6782H51.4157V86.934C50.609 86.9707 49.8207 86.989 49.1515 86.989L49.289 87.6765C49.9582 87.6765 50.9298 87.6398 51.8098 87.5848C52.7907 87.5298 53.8173 87.4473 54.4865 87.3557L54.4223 86.714C53.8815 86.7873 53.0473 86.8423 52.2132 86.8973V85.6782H54.0282V85.0182H50.5907V84.1657H53.7532ZM55.7698 89.2257V81.214H54.9632V89.2257H55.7698ZM64.3062 85.5498V84.899H63.1053C63.2612 84.0465 63.3345 83.0382 63.3345 81.7732H57.9903V82.4332H62.5187C62.5187 83.3498 62.4637 84.2207 62.2987 84.899H57.0737V85.5498H64.3062ZM63.5545 88.9415V88.2815H58.8428V86.4023H58.0362V88.9415H63.5545ZM69.0933 86.8057C68.2225 86.274 67.3883 85.1832 67.3883 83.5423V82.8182H68.8641V82.1673H65.0325V82.8182H66.5908V83.5698C66.5908 85.1373 65.8575 86.3473 64.8583 86.989L65.3716 87.5482C66.105 87.0532 66.8108 86.1457 66.985 85.3023C67.205 86.0998 68.0483 87.0165 68.6075 87.3832L69.0933 86.8057ZM70.1841 88.8315V81.3973H69.4141V84.0923H68.2225V84.7615H69.4141V88.8315H70.1841ZM71.77 89.2257V81.214H70.9908V89.2257H71.77ZM74.6963 89.134H75.3838C74.568 88.2173 73.8896 86.7873 73.8896 85.4032V85.1648C73.8896 83.7348 74.568 82.4148 75.3838 81.5073H74.6963C73.8255 82.3598 73.083 83.6248 73.083 85.2382V85.394C73.083 86.9982 73.8255 88.2815 74.6963 89.134ZM76.2579 88.199H78.3204C79.7321 88.199 80.4287 87.4657 80.4287 86.4482C80.4287 85.559 79.9337 85.1098 79.1637 84.9632V84.9265C79.9062 84.6882 80.1721 84.2115 80.1721 83.5973C80.1721 82.6257 79.6037 82.039 78.1646 82.039H76.2579V88.199ZM77.0646 87.5207V85.339H78.2196C79.0904 85.339 79.5854 85.6323 79.5854 86.4115C79.5854 87.154 79.1362 87.5207 78.2746 87.5207H77.0646ZM77.0646 84.6882V82.7357H78.1004C78.8979 82.7357 79.3287 82.9465 79.3287 83.7073C79.3287 84.4682 78.7696 84.6882 78.0271 84.6882H77.0646ZM87.7903 87.8323C87.7903 86.9615 86.8278 86.4298 85.0953 86.4298C83.3628 86.4298 82.4278 86.9523 82.4278 87.8323C82.4278 88.7123 83.3628 89.2257 85.0953 89.2257C86.8278 89.2257 87.7903 88.7123 87.7903 87.8323ZM85.0953 87.0623C86.2686 87.0623 86.947 87.3557 86.947 87.8323C86.947 88.3182 86.2686 88.6023 85.0953 88.6023C83.9311 88.6023 83.262 88.309 83.262 87.8323C83.262 87.3648 83.9311 87.0623 85.0953 87.0623ZM85.682 83.9915H86.9286V84.8348H85.682V85.4765H86.9286V86.3565H87.7445V81.214H86.9286V83.3407H85.682V83.9915ZM84.6278 81.984V81.324H82.2995V81.984H84.6278ZM85.5353 83.139V82.4882H81.1811V83.139H85.5353ZM85.2878 84.7982C85.2878 83.9823 84.4903 83.469 83.4361 83.469C82.3636 83.469 81.5845 83.9823 81.5845 84.7982C81.5845 85.6048 82.3728 86.1182 83.4361 86.1182C84.4903 86.1182 85.2878 85.5957 85.2878 84.7982ZM84.4811 84.7982C84.4811 85.2198 83.9953 85.4948 83.4361 85.4948C82.877 85.4948 82.382 85.2198 82.382 84.7982C82.382 84.3673 82.877 84.0923 83.4361 84.0923C83.9953 84.0923 84.4811 84.3673 84.4811 84.7982ZM88.8558 89.134H89.5524C90.4233 88.2815 91.1749 87.0073 91.1749 85.394V85.2382C91.1749 83.634 90.4233 82.3598 89.5524 81.5073H88.8558C89.6899 82.424 90.3591 83.854 90.3591 85.229V85.4765C90.3591 86.9065 89.6899 88.2265 88.8558 89.134Z" fill="#222222"/>
<path d="M108.217 43.2358V42.6033H103.303V42.0442H107.951V40.3117H105.604V39.725H108.831V39.0925H101.598V39.725H104.788V40.3117H102.46V40.9442H107.144V41.4575H102.488V43.2358H108.217ZM108.473 38.1483C107.373 38.1117 106.118 37.69 105.733 37.1217H108.07V36.4892H102.35V37.1217H104.706C104.339 37.6992 103.111 38.1208 101.947 38.1483L102.304 38.8083C103.624 38.68 104.825 38.1758 105.21 37.5342C105.632 38.1575 106.833 38.6617 108.134 38.8083L108.473 38.1483ZM106.503 36.0217V35.38H103.908V36.0217H106.503ZM116.762 39.7158V39.065H115.561C115.717 38.2125 115.79 37.2042 115.79 35.9392H110.446V36.5992H114.975C114.975 37.5158 114.92 38.3867 114.755 39.065H109.53V39.7158H116.762ZM116.01 43.1075V42.4475H111.299V40.5683H110.492V43.1075H116.01Z" fill="#222222"/>
<path d="M147.876 38.3317V37.6717H144.713V36.7733H148.114V36.1042H143.898V39.8442H145.538V41.1C144.732 41.1367 143.943 41.155 143.274 41.155L143.412 41.8425C144.081 41.8425 145.053 41.8058 145.933 41.7508C146.913 41.6958 147.94 41.6133 148.609 41.5217L148.545 40.88C148.004 40.9533 147.17 41.0083 146.336 41.0633V39.8442H148.151V39.1842H144.713V38.3317H147.876ZM149.893 43.3917V35.38H149.086V43.3917H149.893ZM158.429 39.7158V39.065H157.228C157.384 38.2125 157.457 37.2042 157.457 35.9392H152.113V36.5992H156.641C156.641 37.5158 156.586 38.3867 156.421 39.065H151.196V39.7158H158.429ZM157.677 43.1075V42.4475H152.966V40.5683H152.159V43.1075H157.677Z" fill="#222222"/>
<rect width="500" height="313" fill="black" fill-opacity="0.2"/>
<g clip-path="url(#clip0)">
<g filter="url(#filter0_d)">
<rect x="125" y="90.834" width="250" height="136.667" fill="white"/>
</g>
<rect x="146.25" y="135" width="11.25" height="8.33333" fill="#EEEEEE" stroke="#C5C5C5" stroke-width="0.833333"/>
<rect x="157.083" y="135" width="10.8333" height="8.33333" fill="#135DE6" stroke="#0D4CC1" stroke-width="0.833333"/>
<rect x="178.75" y="135" width="11.25" height="8.33333" fill="#135DE6" stroke="#0D4CC1" stroke-width="0.833333"/>
<rect x="167.917" y="135" width="11.25" height="8.33333" fill="#135DE6" stroke="#0D4CC1" stroke-width="0.833333"/>
<rect x="200.833" y="135" width="10.8333" height="8.33333" fill="#135DE6" stroke="#0D4CC1" stroke-width="0.833333"/>
<rect x="190" y="135" width="10.8333" height="8.33333" fill="#135DE6" stroke="#0D4CC1" stroke-width="0.833333"/>
<rect x="222.5" y="135" width="11.25" height="8.33333" fill="#135DE6" stroke="#0D4CC1" stroke-width="0.833333"/>
<rect x="211.667" y="135" width="10.8333" height="8.33333" fill="#135DE6" stroke="#0D4CC1" stroke-width="0.833333"/>
<rect x="244.583" y="135" width="10.8333" height="8.33333" fill="#135DE6" stroke="#0D4CC1" stroke-width="0.833333"/>
<rect x="233.75" y="135" width="10.8333" height="8.33333" fill="#135DE6" stroke="#0D4CC1" stroke-width="0.833333"/>
<rect x="266.25" y="135" width="11.25" height="8.33333" fill="#135DE6" stroke="#0D4CC1" stroke-width="0.833333"/>
<rect x="255.417" y="135" width="10.8333" height="8.33333" fill="#135DE6" stroke="#0D4CC1" stroke-width="0.833333"/>
<rect x="287.917" y="135" width="11.25" height="8.33333" fill="#C9C9C9" stroke="#B5B2B2" stroke-width="0.833333"/>
<rect x="277.5" y="135" width="10.8333" height="8.33333" fill="#C9C9C9" stroke="#B5B2B2" stroke-width="0.833333"/>
<rect x="309.583" y="135" width="11.25" height="8.33333" fill="#C9C9C9" stroke="#B5B2B2" stroke-width="0.833333"/>
<rect x="299.167" y="135" width="10.8333" height="8.33333" fill="#C9C9C9" stroke="#B5B2B2" stroke-width="0.833333"/>
<rect x="331.667" y="135" width="10.8333" height="8.33333" fill="#C9C9C9" stroke="#B5B2B2" stroke-width="0.833333"/>
<rect x="320.833" y="135" width="11.25" height="8.33333" fill="#C9C9C9" stroke="#B5B2B2" stroke-width="0.833333"/>
<rect x="342.5" y="135" width="11.25" height="8.33333" fill="#C9C9C9" stroke="#B5B2B2" stroke-width="0.833333"/>
<rect x="145.833" y="192.5" width="37.5" height="22.5" rx="3.33333" fill="#EEEEEE"/>
<path d="M163.331 206.616V205.965H158.94V204.351H163.221V203.691H158.133V206.616H163.331ZM158.087 202.234V199.942H160.966V199.282H157.29V202.894H158.097C159.508 202.885 160.874 202.793 161.717 202.619L161.607 201.977C160.847 202.142 159.609 202.234 158.527 202.234H158.087ZM164.394 201.317V200.648H163.202V198.714H162.387V203.27H163.202V201.317H164.394ZM171.519 206.726V198.714H170.703V206.726H171.519ZM169.172 199.566H165.313V200.254H168.292C168.145 201.977 166.844 203.655 164.955 204.562L165.45 205.176C167.641 203.985 169.126 202.115 169.172 199.566Z" fill="#222222"/>
<g clip-path="url(#clip1)">
<path d="M152.8 161.154V160.521H147.887V159.962H152.534V158.23H150.187V157.643H153.414V157.01H146.182V157.643H149.372V158.23H147.043V158.862H151.727V159.375H147.071V161.154H152.8ZM153.057 156.066C151.957 156.03 150.701 155.608 150.316 155.04H152.653V154.407H146.933V155.04H149.289C148.922 155.617 147.694 156.039 146.53 156.066L146.887 156.726C148.207 156.598 149.408 156.094 149.793 155.452C150.215 156.075 151.416 156.58 152.717 156.726L153.057 156.066ZM151.086 153.94V153.298H148.492V153.94H151.086ZM161.345 157.634V156.983H160.145C160.3 156.13 160.374 155.122 160.374 153.857H155.03V154.517H159.558C159.558 155.434 159.503 156.305 159.338 156.983H154.113V157.634H161.345ZM160.594 161.025V160.365H155.882V158.486H155.075V161.025H160.594ZM168.672 161.31V153.298H167.865V161.31H168.672ZM166.912 158.78C165.803 158.138 164.904 156.836 164.904 155.333V154.004H164.061V155.37C164.061 156.845 163.208 158.239 162.008 159L162.512 159.595C163.419 159 164.208 157.982 164.492 157.001C164.785 157.936 165.711 158.89 166.426 159.385L166.912 158.78ZM177.364 156.415V155.736H176.163V153.298H175.347V159.201H176.163V156.415H177.364ZM176.401 161.099V160.439H171.91V158.587H171.103V161.099H176.401ZM170.287 153.949V154.618H173.028C172.808 156.02 171.534 157.258 169.875 157.661L170.287 158.321C172.386 157.707 173.853 156.13 173.917 153.949H170.287Z" fill="#222222"/>
<rect x="186.25" y="155.418" width="50" height="5.83333" fill="#EEEEEE"/>
<rect x="304.167" y="155.418" width="50" height="5.83333" fill="#EEEEEE"/>
<path d="M268.709 156.25V155.59H265.547V154.691H268.947V154.022H264.731V157.762H266.372V159.018C265.565 159.055 264.777 159.073 264.107 159.073L264.245 159.76C264.914 159.76 265.886 159.724 266.766 159.669C267.747 159.614 268.773 159.531 269.442 159.44L269.378 158.798C268.837 158.871 268.003 158.926 267.169 158.981V157.762H268.984V157.102H265.547V156.25H268.709ZM270.726 161.31V153.298H269.919V161.31H270.726ZM279.262 157.634V156.983H278.061C278.217 156.13 278.29 155.122 278.29 153.857H272.946V154.517H277.475C277.475 155.434 277.42 156.305 277.255 156.983H272.03V157.634H279.262ZM278.51 161.025V160.365H273.799V158.486H272.992V161.025H278.51ZM286.588 161.31V153.298H285.782V161.31H286.588ZM284.828 158.78C283.719 158.138 282.821 156.836 282.821 155.333V154.004H281.978V155.37C281.978 156.845 281.125 158.239 279.924 159L280.428 159.595C281.336 159 282.124 157.982 282.408 157.001C282.702 157.936 283.628 158.89 284.343 159.385L284.828 158.78ZM295.28 156.415V155.736H294.08V153.298H293.264V159.201H294.08V156.415H295.28ZM294.318 161.099V160.439H289.826V158.587H289.02V161.099H294.318ZM288.204 153.949V154.618H290.945C290.725 156.02 289.45 157.258 287.791 157.661L288.204 158.321C290.303 157.707 291.77 156.13 291.834 153.949H288.204Z" fill="#222222"/>
<path d="M153.414 174.716V174.065H152.213C152.369 173.212 152.442 172.204 152.442 170.939H147.098V171.599H151.627C151.627 172.516 151.572 173.387 151.407 174.065H146.182V174.716H153.414ZM152.662 178.108V177.447H147.951V175.568H147.144V178.108H152.662ZM160.447 174.074V170.829H154.993V174.074H160.447ZM159.64 173.423H155.809V171.489H159.64V173.423ZM158.119 178.401V175.706H161.345V175.046H154.113V175.706H157.303V178.401H158.119ZM168.672 178.392V170.38H167.865V178.392H168.672ZM166.912 175.862C165.802 175.22 164.904 173.918 164.904 172.415V171.086H164.061V172.452C164.061 173.927 163.208 175.321 162.007 176.082L162.512 176.677C163.419 176.082 164.207 175.064 164.492 174.083C164.785 175.018 165.711 175.972 166.426 176.467L166.912 175.862ZM177.364 173.497V172.818H176.163V170.38H175.347V176.283H176.163V173.497H177.364ZM176.401 178.181V177.521H171.91V175.669H171.103V178.181H176.401ZM170.287 171.031V171.7H173.028C172.808 173.102 171.534 174.34 169.875 174.743L170.287 175.403C172.386 174.789 173.853 173.212 173.917 171.031H170.287Z" fill="#222222"/>
<rect x="186.25" y="172.5" width="50" height="5.83333" fill="#EEEEEE"/>
<rect x="320.833" y="172.5" width="33.3333" height="5.83333" fill="#EEEEEE"/>
<path d="M266.225 170.884C265.024 170.884 264.144 171.755 264.144 172.937C264.144 174.111 265.024 174.936 266.225 174.936C267.426 174.936 268.297 174.111 268.297 172.928C268.297 171.755 267.426 170.884 266.225 170.884ZM266.225 171.59C266.986 171.59 267.472 172.149 267.472 172.928C267.472 173.689 266.986 174.23 266.225 174.23C265.482 174.23 264.969 173.68 264.969 172.928C264.969 172.158 265.482 171.59 266.225 171.59ZM269.855 172.158V173.487H268.517L268.498 174.157H269.855V176.201H270.671V170.38H269.855V171.48H268.498L268.517 172.158H269.855ZM270.836 178.144V177.493H266.28V175.678H265.473V178.144H270.836ZM278.327 176.833C278.327 175.862 277.319 175.266 275.623 175.266C273.927 175.266 272.919 175.862 272.919 176.833C272.919 177.796 273.927 178.383 275.623 178.383C277.319 178.383 278.327 177.796 278.327 176.833ZM272.048 171.599H273.845V171.837C273.845 172.956 272.882 173.982 271.837 174.358L272.323 174.991C273.148 174.652 274.01 173.836 274.266 173.066C274.605 173.799 275.375 174.487 276.09 174.771L276.54 174.12C275.632 173.845 274.67 172.956 274.67 171.819V171.599H276.42V170.93H272.048V171.599ZM277.493 176.833C277.493 177.392 276.778 177.722 275.623 177.722C274.468 177.722 273.762 177.392 273.762 176.833C273.762 176.256 274.468 175.935 275.623 175.935C276.778 175.935 277.493 176.256 277.493 176.833ZM279.427 173.167V172.488H278.217V170.38H277.41V175.312H278.217V173.167H279.427ZM287.193 174.716V174.065H285.993C286.148 173.212 286.222 172.204 286.222 170.939H280.878V171.599H285.406C285.406 172.516 285.351 173.387 285.186 174.065H279.961V174.716H287.193ZM286.442 178.108V177.447H281.73V175.568H280.923V178.108H286.442ZM294.226 174.074V170.829H288.772V174.074H294.226ZM293.42 173.423H289.588V171.489H293.42V173.423ZM291.898 178.401V175.706H295.125V175.046H287.892V175.706H291.082V178.401H291.898ZM302.451 178.392V170.38H301.644V178.392H302.451ZM300.691 175.862C299.582 175.22 298.683 173.918 298.683 172.415V171.086H297.84V172.452C297.84 173.927 296.988 175.321 295.787 176.082L296.291 176.677C297.198 176.082 297.987 175.064 298.271 174.083C298.564 175.018 299.49 175.972 300.205 176.467L300.691 175.862ZM311.143 173.497V172.818H309.942V170.38H309.126V176.283H309.942V173.497H311.143ZM310.181 178.181V177.521H305.689V175.669H304.882V178.181H310.181ZM304.066 171.031V171.7H306.807C306.587 173.102 305.313 174.34 303.654 174.743L304.066 175.403C306.166 174.789 307.632 173.212 307.696 171.031H304.066Z" fill="#222222"/>
</g>
<path d="M152.754 119.043V114.964H151.938V119.043H152.754ZM153.038 122.921V122.251H148.354V121.463H152.754V119.456H147.52V120.116H151.938V120.858H147.547V122.921H153.038ZM148.455 115.23C147.3 115.23 146.402 115.991 146.402 117.063C146.402 118.154 147.327 118.832 148.455 118.832C149.601 118.832 150.499 118.126 150.499 117.054C150.499 115.972 149.601 115.23 148.455 115.23ZM148.455 115.926C149.216 115.926 149.702 116.394 149.702 117.054C149.702 117.677 149.207 118.154 148.455 118.154C147.74 118.154 147.199 117.705 147.199 117.054C147.199 116.394 147.758 115.926 148.455 115.926ZM158.834 120.51C157.697 119.877 156.826 118.667 156.826 117.118V116.467H158.595V115.798H154.186V116.467H155.992V117.127C155.992 118.649 155.121 120.006 153.884 120.711L154.406 121.307C155.369 120.711 156.166 119.685 156.414 118.777C156.67 119.666 157.578 120.666 158.357 121.106L158.834 120.51ZM161.556 118.841V118.163H160.3V114.964H159.494V122.976H160.3V118.841H161.556Z" fill="#222222"/>
<path d="M183.883 121.949H187.742V121.271H184.992L185.909 120.345C186.917 119.327 187.623 118.539 187.623 117.457C187.623 116.357 186.945 115.67 185.68 115.67C184.983 115.67 184.351 115.963 183.966 116.22L184.158 116.843C184.516 116.605 185.011 116.357 185.524 116.357C186.386 116.357 186.771 116.742 186.771 117.54C186.771 118.401 186.166 119.098 185.295 120.006L183.883 121.472V121.949ZM191.082 122.059C192.338 122.059 193.328 121.216 193.328 119.107V118.576C193.328 116.431 192.31 115.679 191.091 115.679C189.863 115.679 188.79 116.431 188.79 118.612V119.098C188.79 121.197 189.79 122.059 191.082 122.059ZM191.082 121.399C190.138 121.399 189.652 120.675 189.652 119.162V118.511C189.652 116.999 190.156 116.339 191.091 116.339C192.008 116.339 192.494 117.036 192.494 118.576V119.208C192.494 120.776 191.999 121.399 191.082 121.399ZM194.393 121.949H198.252V121.271H195.502L196.419 120.345C197.427 119.327 198.133 118.539 198.133 117.457C198.133 116.357 197.454 115.67 196.189 115.67C195.493 115.67 194.86 115.963 194.475 116.22L194.668 116.843C195.025 116.605 195.52 116.357 196.034 116.357C196.895 116.357 197.28 116.742 197.28 117.54C197.28 118.401 196.675 119.098 195.804 120.006L194.393 121.472V121.949ZM200.28 121.986H201.086V115.688H200.646L199.161 116.376V116.843L200.28 116.596V121.986ZM202.582 119.309H205.598V118.64H202.582V119.309ZM209.022 122.059C210.277 122.059 211.267 121.216 211.267 119.107V118.576C211.267 116.431 210.25 115.679 209.031 115.679C207.802 115.679 206.73 116.431 206.73 118.612V119.098C206.73 121.197 207.729 122.059 209.022 122.059ZM209.022 121.399C208.077 121.399 207.592 120.675 207.592 119.162V118.511C207.592 116.999 208.096 116.339 209.031 116.339C209.947 116.339 210.433 117.036 210.433 118.576V119.208C210.433 120.776 209.938 121.399 209.022 121.399ZM213.865 122.041C215.24 122.041 216.11 121.298 216.11 120.207C216.11 119.254 215.524 118.805 214.726 118.658C215.423 118.42 215.89 117.961 215.89 117.219C215.89 116.238 215.139 115.679 214.02 115.679C213.47 115.679 212.755 115.899 212.38 116.137L212.499 116.779C212.875 116.568 213.351 116.357 213.846 116.357C214.58 116.357 215.056 116.614 215.056 117.347C215.056 118.007 214.525 118.392 213.745 118.401H213.205V119.071H213.8C214.708 119.071 215.285 119.428 215.285 120.189C215.285 120.95 214.735 121.381 213.755 121.381C213.296 121.381 212.673 121.206 212.334 120.977L212.169 121.601C212.517 121.839 213.14 122.041 213.865 122.041ZM217.12 119.309H220.136V118.64H217.12V119.309ZM220.917 121.949H224.776V121.271H222.026L222.943 120.345C223.951 119.327 224.657 118.539 224.657 117.457C224.657 116.357 223.979 115.67 222.714 115.67C222.017 115.67 221.385 115.963 221 116.22L221.192 116.843C221.55 116.605 222.045 116.357 222.558 116.357C223.42 116.357 223.805 116.742 223.805 117.54C223.805 118.401 223.2 119.098 222.329 120.006L220.917 121.472V121.949ZM228.283 122.086H229.044V120.757H230.07V120.116H229.044V115.688H228.43L225.331 120.198V120.757H228.283V122.086ZM226.175 120.116L228.292 117.036V120.116H226.175Z" fill="#222222"/>
<rect x="125" y="90.834" width="250" height="10" fill="#464646"/>
</g>
</g>
<defs>
<filter id="filter0_d" x="114.167" y="90.834" width="266.667" height="157.5" filterUnits="userSpaceOnUse" color-interpolation-filters="sRGB">
<feFlood flood-opacity="0" result="BackgroundImageFix"/>
<feColorMatrix in="SourceAlpha" type="matrix" values="0 0 0 0 0 0 0 0 0 0 0 0 0 0 0 0 0 0 127 0"/>
<feOffset dx="-2.5" dy="12.5"/>
<feGaussianBlur stdDeviation="4.16667"/>
<feColorMatrix type="matrix" values="0 0 0 0 0 0 0 0 0 0 0 0 0 0 0 0 0 0 0.1 0"/>
<feBlend mode="normal" in2="BackgroundImageFix" result="effect1_dropShadow"/>
<feBlend mode="normal" in="SourceGraphic" in2="effect1_dropShadow" result="shape"/>
</filter>
<clipPath id="clip0">
<rect width="250" height="136.667" fill="white" transform="translate(125 90.834)"/>
</clipPath>
<clipPath id="clip1">
<rect width="208.333" height="30.4167" fill="white" transform="translate(145.833 151.668)"/>
</clipPath>
</defs>
</svg>
