<svg width="56" height="56" viewBox="0 0 56 56" fill="none" xmlns="http://www.w3.org/2000/svg">
<rect x="5" y="14" width="38" height="29" fill="#66338C"/>
<mask id="mask0_149_951" style="mask-type:alpha" maskUnits="userSpaceOnUse" x="5" y="13" width="50" height="30">
<rect x="5" y="13" width="50" height="30" fill="#C4C4C4"/>
</mask>
<g mask="url(#mask0_149_951)">
<path fill-rule="evenodd" clip-rule="evenodd" d="M48.7028 40.2051C48.7263 40.1818 48.7499 40.1585 48.7733 40.135C55.0574 33.8509 55.0574 23.6624 48.7733 17.3783C48.7596 17.3646 48.7458 17.3509 48.732 17.3372L48.7734 17.3785L37.3956 28.7563L48.7736 40.1343L48.7028 40.2051ZM26.1201 40.2374L26.0172 40.1346L26.0168 40.1351C26.0511 40.1694 26.0855 40.2035 26.1201 40.2374ZM26.0602 17.335C26.0458 17.3493 26.0315 17.3636 26.0172 17.3779L26.0172 17.3779L26.0602 17.335Z" fill="#F8DB6B"/>
<path fill-rule="evenodd" clip-rule="evenodd" d="M26.6485 36.7472C26.6892 36.7892 26.7304 36.8309 26.7719 36.8724C26.8175 36.9181 26.8635 36.9633 26.9097 37.0081L26.7725 36.8708L26.7723 36.871L26.6485 36.7472ZM42.9014 36.9958L43.0268 36.8704L34.8999 28.7434L43.0261 20.6172C43.0263 20.6174 43.0264 20.6175 43.0266 20.6177C47.5152 25.1063 47.5152 32.3838 43.0266 36.8724C42.9851 36.9139 42.9433 36.955 42.9014 36.9958Z" fill="#F8A438"/>
</g>
</svg>
