<svg width="60" height="60" viewBox="0 0 60 60" fill="none" xmlns="http://www.w3.org/2000/svg">
<rect width="60" height="60" rx="8" fill="#F5F5F5"/>
<path d="M27 26C27 22.134 30.134 19 34 19C37.866 19 41 22.134 41 26C41 29.866 37.866 33 34 33C30.134 33 27 29.866 27 26Z" fill="#009ED0"/>
<path d="M15 31C15 25.4772 19.4772 21 25 21C30.5228 21 35 25.4772 35 31V41H25C19.4772 41 15 36.5228 15 31Z" fill="#25D3FC"/>
<path d="M31 34C31 30.134 34.134 27 38 27C41.866 27 45 30.134 45 34C45 37.866 41.866 41 38 41H31V34Z" fill="#25D3FC"/>
</svg>
