<svg width="60" height="60" viewBox="0 0 60 60" fill="none" xmlns="http://www.w3.org/2000/svg">
<rect width="60" height="60" rx="8" fill="#F5F5F5"/>
<rect x="14" y="20" width="27" height="20" fill="#66338C"/>
<path fill-rule="evenodd" clip-rule="evenodd" d="M29.8643 38.5485C29.8716 38.5559 29.879 38.5633 29.8863 38.5706C29.9003 38.5846 29.9143 38.5985 29.9283 38.6124L29.8864 38.5705L29.8863 38.5706L29.8643 38.5485ZM45.9623 38.5705L37.9244 30.5326L45.9622 22.4947C45.9622 22.4947 45.9622 22.4947 45.9622 22.4947C50.4014 26.9339 50.4015 34.1313 45.9623 38.5705Z" fill="#F8DB6B"/>
<path fill-rule="evenodd" clip-rule="evenodd" d="M30.4609 36.397L30.4195 36.3557L30.4194 36.3558C30.4332 36.3696 30.447 36.3834 30.4609 36.397ZM41.9023 36.3557L36.1609 30.6143L41.9022 24.873C45.073 28.0439 45.0731 33.1848 41.9023 36.3557Z" fill="#F8A438"/>
</svg>
