<svg width="60" height="60" viewBox="0 0 60 60" fill="none" xmlns="http://www.w3.org/2000/svg">
<rect width="60" height="60" rx="8" fill="#F5F5F5"/>
<path fill-rule="evenodd" clip-rule="evenodd" d="M38.5 42C34.9101 42 32 39.0899 32 35.5C32 31.9101 34.9101 29 38.5 29C42.0899 29 45 31.9101 45 35.5C45 37.1547 44.3817 38.6649 43.3636 39.8124C43.2206 39.9735 43.2197 40.2197 43.372 40.372L44.6671 41.6671C44.79 41.79 44.703 42 44.5292 42H38.695C38.6759 42 38.6568 41.9982 38.6376 41.9986C38.5919 41.9995 38.546 42 38.5 42Z" fill="#324FB9"/>
<path fill-rule="evenodd" clip-rule="evenodd" d="M27 42C33.6274 42 39 36.6274 39 30C39 23.3726 33.6274 18 27 18C20.3726 18 15 23.3726 15 30C15 33.0548 16.1414 35.8429 18.0211 37.9613C18.285 38.2587 18.2868 38.7132 18.0056 38.9944L15.6146 41.3854C15.3878 41.6122 15.5484 42 15.8691 42H26.64C26.6753 42 26.7106 41.9966 26.7459 41.9974C26.8304 41.9991 26.9151 42 27 42Z" fill="#4899F8"/>
</svg>
