<svg width="299" height="592" viewBox="0 0 299 592" fill="none" xmlns="http://www.w3.org/2000/svg">
<path d="M106.474 556.034C100.599 579.216 106.474 591.084 106.474 591.084H186.381C188.519 591.084 190.169 589.117 189.773 586.991C189.008 582.846 187.146 578.965 185.628 576.298C184.321 574.015 182.117 572.404 179.543 571.902C176.163 571.242 170.566 570.318 162.975 569.566C149.761 568.272 143.899 556.034 143.899 556.034C143.899 556.034 136.163 553.936 132.916 561.777C132.916 561.777 125.761 562.926 119.213 560.417C113.998 558.424 106.474 556.034 106.474 556.034Z" fill="#B85028"/>
<path d="M62.1636 554.436C62.1636 554.436 55.0481 568.891 42.2429 570.158C34.8898 570.884 29.4641 571.782 26.177 572.416C23.682 572.904 21.5434 574.449 20.2761 576.68C18.7975 579.267 17.0021 583.029 16.2629 587.043C15.88 589.102 17.4642 591.016 19.55 591.016H97.028C97.028 591.016 102.718 579.505 97.028 557.036L62.1636 554.436Z" fill="#B85028"/>
<path d="M208.185 177.59L242.851 286.557C242.851 286.557 274.917 291.191 281.438 293.329C287.96 295.468 298.706 299.032 298.706 299.032C298.706 299.032 300.118 303.125 296.765 303.481C296.765 303.481 296.237 305.791 292.184 305.976C288.131 306.148 269.108 302.597 269.108 302.597C269.108 302.597 266.825 305.448 262.772 305.263C258.719 305.079 247.802 304.735 242.864 304.907C237.927 305.079 228.766 303.31 225.954 297.963C223.142 292.617 190.72 235.64 188.607 224.247L170.094 192.826L208.185 177.59Z" fill="#FF9B8E"/>
<path d="M269.056 301.923C269.056 301.923 269.716 299.97 267.775 299.296C265.835 298.623 254.6 296.801 252.581 295.996" stroke="#311E17" stroke-width="0.7" stroke-miterlimit="10" stroke-linecap="round" stroke-linejoin="round"/>
<path d="M262.93 292.617C262.93 292.617 271.273 294.043 277.32 295.997C283.366 297.95 295.814 301.224 295.814 301.224L296.29 302.703" stroke="#311E17" stroke-width="0.7" stroke-miterlimit="10" stroke-linecap="round" stroke-linejoin="round"/>
<path d="M191.424 376.679L151.81 256.819L44.647 225.33C39.7713 229.393 37.8752 254.279 37.5366 263.929L57.8518 559.516C67.6032 567.642 91.2027 560.362 100.006 556.976L106.101 305.575C108.945 303.137 128.955 371.261 138.605 405.628L102.545 553.929C127.939 570.181 143.514 567.303 149.27 563.071C166.708 509.235 198.636 409.284 199.043 405.628C199.449 401.971 194.133 384.805 191.424 376.679Z" fill="#B7AD7B"/>
<path d="M112.703 539.199C112.703 539.199 122.353 548.341 147.747 548.341" stroke="#867C4A" stroke-width="0.75" stroke-miterlimit="10" stroke-linecap="round" stroke-linejoin="round"/>
<path d="M58.8677 542.942C58.8677 542.942 69.7176 547.482 97.4666 540.723" stroke="#867C4A" stroke-width="0.75" stroke-miterlimit="10" stroke-linecap="round" stroke-linejoin="round"/>
<path d="M156.381 402.375C156.381 402.375 147.528 401.002 141.145 404.104" stroke="#867C4A" stroke-width="0.7" stroke-miterlimit="10" stroke-linecap="round" stroke-linejoin="round"/>
<path d="M119.382 281.562L107.897 285.589L105.112 302.75" stroke="#867C4A" stroke-width="0.7" stroke-miterlimit="10" stroke-linecap="round" stroke-linejoin="round"/>
<path d="M77.6591 84.6474L115.242 78.0449H154.857C163.322 79.0607 181.775 81.8032 187.869 84.6474C193.964 87.4915 197.519 95.6514 198.535 99.3759L220.881 168.448C215.6 175.355 185.161 187.916 170.601 193.334L160.444 222.283V259.358C146.223 275.103 116.163 272.545 90.864 263.421C59.8833 252.248 49.2178 237.012 41.5996 224.822L59.0005 183.501C57.3076 182.824 49.2311 178.282 39.5005 172.501C29.4014 166.501 21.5005 162.501 16.5005 158.501C26.9967 141.741 48.4052 105.064 51.2493 99.3759C54.0935 93.6876 70.0409 87.1868 77.6591 84.6474Z" fill="#FFFCFC"/>
<path d="M21.5006 161.999C21.5006 161.999 12.1613 182.729 7.08701 195.982C3.3717 205.699 8.76854 216.485 18.7539 219.4C35.1969 224.203 64.7509 231.219 113.652 238.126C113.652 238.126 121.263 248.904 139.713 239.746L141.408 242.191C141.408 242.191 136.401 241.45 134.565 243.202C132.729 244.955 134.46 248.182 134.46 248.182L146.255 247.534C146.255 247.534 151.339 247.356 150.971 240.618C150.971 240.618 157.355 241.196 155.769 232.81C155.769 232.81 160.394 229.524 156.833 223.485L168.434 220.263C168.434 220.263 178.382 224.278 180.78 222.536C183.178 220.793 183.433 218.274 183.433 218.274L170.312 213.287L151.928 212.146L123.568 220.887L50.8218 192.763L55.0008 181.499" fill="#FF9B8E"/>
<path d="M148.064 218.508L156.833 223.484" stroke="#311E17" stroke-width="0.7" stroke-miterlimit="10" stroke-linecap="round" stroke-linejoin="round"/>
<path d="M145.851 225.656L154.661 231.547" stroke="#311E17" stroke-width="0.7" stroke-miterlimit="10" stroke-linecap="round" stroke-linejoin="round"/>
<path d="M142.801 232.832L149.915 239.254" stroke="#311E17" stroke-width="0.7" stroke-miterlimit="10" stroke-linecap="round" stroke-linejoin="round"/>
<path d="M175 147H143.5L139 170.328L151.938 180L167.688 171.466L175 147Z" fill="#F7C17F"/>
<path d="M73.6561 141.577L59.9464 183.16" stroke="#311E17" stroke-width="0.7" stroke-miterlimit="10" stroke-linecap="round" stroke-linejoin="round"/>
<path d="M184.311 150.734L170.094 192.825" stroke="#311E17" stroke-width="0.7" stroke-miterlimit="10" stroke-linecap="round" stroke-linejoin="round"/>
<path d="M107.116 79.5682L113.719 66.3633L146.223 86.1706C145.885 95.1432 140.941 112.58 123.876 110.549C106.812 108.517 105.593 89.0486 107.116 79.5682Z" fill="#F99285"/>
<circle cx="158" cy="154" r="2.65" stroke="#311E17" stroke-width="0.7"/>
<path d="M100.5 87.5C100.501 93.5 101.138 99.687 106.5 107C112 114.5 120.544 117.495 129 116.5C137.5 115.5 146.5 110 150 97.5" stroke="#311E17" stroke-width="0.7" stroke-linecap="round"/>
<path d="M157.396 67.8818L157.396 30.8065L157.396 26.2356L152.317 20.9155L125.331 20.9172L109.732 27.1916L108.714 45.9556C107.116 45.0279 104.748 44.4762 102.545 45.0279C100.514 45.5366 97.8444 46.7231 97.4663 52.6469C97.0256 59.552 105.388 63.6384 108.714 64.8361C108.246 73.4574 114.913 91.0512 135.199 92.1519C151.427 93.0325 156.511 74.4975 157.396 67.8818Z" fill="#F99285"/>
<path d="M139.113 63.8184L134.13 65.8499L129.971 63.8184" stroke="#311E17" stroke-width="0.7" stroke-miterlimit="10" stroke-linecap="round" stroke-linejoin="round"/>
<path d="M134.034 52.6445V61.7864" stroke="#311E17" stroke-width="0.7" stroke-miterlimit="10" stroke-linecap="round" stroke-linejoin="round"/>
<path d="M126.601 53.6248C126.521 51.945 125.564 50.6259 124.465 50.6787C123.366 50.7314 122.54 52.1359 122.621 53.8158C122.701 55.4956 123.658 56.8147 124.757 56.762C125.856 56.7092 126.682 55.3047 126.601 53.6248Z" fill="#311E17"/>
<path d="M146.917 53.6248C146.836 51.945 145.88 50.6259 144.78 50.6787C143.681 50.7314 142.856 52.1359 142.936 53.8158C143.017 55.4956 143.973 56.8147 145.072 56.762C146.171 56.7092 146.997 55.3047 146.917 53.6248Z" fill="#311E17"/>
<path d="M138.097 45.3905V43.6492C138.188 43.2622 138.647 42.4883 139.747 42.4883H147.45C148.367 42.585 150.311 43.1268 150.751 44.5198L151.28 46.473C151.295 46.5013 151.302 46.5277 151.302 46.5513L151.28 46.473C151.175 46.2693 150.647 45.9709 149.101 45.9709H138.097V45.3905Z" fill="#582F28"/>
<path d="M129.971 45.3905V43.6492C129.886 43.2622 129.463 42.4883 128.447 42.4883H121.337C120.49 42.585 118.696 43.1268 118.289 44.5198L117.801 46.473C117.788 46.5013 117.782 46.5277 117.782 46.5513L117.801 46.473C117.899 46.2693 118.386 45.9709 119.813 45.9709H129.971V45.3905Z" fill="#582F28"/>
<path d="M109.791 63.828L110.263 36.3877C110.671 32.3297 114.957 26.743 119.305 25.2193C120.984 24.6313 126.416 23.8398 132.002 24.7115C137.589 25.5832 142.668 24.7115 142.668 24.7115C147.267 23.9954 149.101 24.7115 151.81 26.743C154.518 28.7745 156.601 35.7909 157.396 40.9636C157.904 36.9006 158.412 33.7092 158.412 29.2824C158.412 26.0067 158.068 14.6197 158.375 12.0931L155.197 14.4122L156.459 9.90262C152.94 7.27024 146.596 7.33314 143.864 7.69364L145.633 3.2116C140.063 0.874864 128.892 5.52453 124.003 8.14146L125.21 4.64655C124.177 4.92961 120.631 6.53436 114.709 10.6889C108.787 14.8435 104.696 22.1726 104.535 29.4647L104.696 45.2409L108.109 47.9692L108.227 73.9157C108.598 82.0738 112.985 89.322 120.984 91.9012C129.971 94.799 137.965 95.7727 145.916 91.7282C153.866 87.6837 157.259 80.0667 157.396 77.531L157.396 61.7867C157.396 67.7553 148.864 76.5153 148.762 75.1658C148.207 67.7553 145.207 67.7553 143.176 67.7553L126.416 67.7553C124.384 67.7553 121.892 68.3892 121.892 75.1658C121.341 76.5056 117.332 73.5115 115.007 71.7751L114.957 71.7377C112.792 70.1211 110.677 66.2497 109.791 63.828Z" fill="#582F28"/>
<path d="M141.957 70.9297L127.014 71.0737C127.014 71.0737 127.939 78.04 134.27 78.04C141.957 78.04 141.957 70.9297 141.957 70.9297Z" fill="white"/>
</svg>
