<svg width="244" height="664" viewBox="0 0 244 664" fill="none" xmlns="http://www.w3.org/2000/svg">
<path d="M89.0386 626.603C82.8638 647.89 82.5886 658.882 82.5886 658.882L162.621 660.999C164.612 661.068 165.528 659.908 165.223 657.929C164.648 654.062 163.61 651.711 162.621 649.052C161.513 646.093 158.917 643.379 156.809 642.573C153.824 641.441 144.937 638.742 138.893 637.132C127.011 633.957 123.71 627.809 123.71 627.809C123.71 627.809 116.606 625.622 113.362 632.78C113.362 632.78 106.695 633.605 100.721 631.084C95.9278 629.053 89.0386 626.603 89.0386 626.603Z" fill="#301410"/>
<path d="M80.3756 602.787C80.3756 602.787 80.829 625.884 77.9243 633.272C77.9243 633.272 90.0242 648.82 106.4 639.553L117.111 628.535C117.111 628.535 114.47 608.797 116.211 599.336L80.3756 602.787Z" fill="#F1B6A0"/>
<path d="M116.211 599.336L112.196 599.725L110.483 607.257C110.483 607.257 108.534 620.159 109.802 626.302C110.662 630.5 111.535 632.782 112.002 633.801L117.124 628.535C117.111 628.535 114.483 608.797 116.211 599.336Z" fill="#301410"/>
<path d="M64.1509 260.323C64.1509 260.323 47.0203 284.844 49.3097 308.803C51.599 332.762 61.6369 345.089 65.6349 368.662C80.8326 458.272 66.1358 553.602 65.181 603.16C65.1492 604.813 66.4782 606.133 68.1317 606.15L108.578 606.585C110.057 606.601 111.327 605.537 111.57 604.079L111.642 603.645L120.186 602.48C121.559 602.293 122.622 601.22 122.762 599.842C124.327 584.514 133.238 497.337 136.975 463.27C141.068 425.854 123.515 259.333 123.515 259.333L64.1509 260.323Z" fill="#DCA355"/>
<path d="M139.84 451.768C139.84 388.446 129.616 311.602 124.999 274.17C124.999 281.096 133.409 411.202 133.409 439.4C133.409 487.202 122.526 567.528 111.642 603.641L120.406 602.446C121.674 602.273 122.689 601.332 122.93 600.075C125.535 586.497 139.84 509.324 139.84 451.768Z" fill="#C47B22"/>
<path d="M198.129 172.388C198.129 172.388 200.68 158.851 203.647 153.742C204.222 152.745 205.261 152.086 206.412 151.92L209.089 151.51C209.089 151.51 220.067 130.118 222.912 126.331C225.77 122.543 229.217 123.691 227.896 128.445C226.574 133.199 222.425 147.955 222.425 147.955C222.425 147.955 225.238 147.357 227.428 148.758C229.606 150.158 229.348 153.906 229.348 153.906C229.348 153.906 232.339 153.751 233.814 156.131C235.289 158.51 234.402 161.465 234.402 161.465C234.402 161.465 236.866 161.292 238.043 164.832C239.221 168.373 236.275 170.986 231.693 172.514C231.693 172.514 226.198 185.281 219.051 185.82C211.905 186.346 208.933 185.987 208.933 185.987L208.02 187.075L198.129 172.388Z" fill="#F1B6A0"/>
<path d="M147.755 60.9535C149.338 57.3917 143.468 43.4741 142.808 41.6602L90.864 57.4906L89.3799 86.1833L79.4858 107.456L111.147 132.191V96.5721C112.301 97.5615 115.698 100.035 120.051 102.014C125.493 104.487 128.956 100.53 130.935 98.5509C132.914 96.5721 137.366 90.6356 138.85 89.1515C140.334 87.6674 143.302 87.6674 144.786 86.1833C146.271 84.6992 143.302 82.2257 142.313 77.7734C141.324 73.3211 145.776 65.4059 147.755 60.9535Z" fill="#F1B6A0"/>
<path d="M133.088 68.7101C137.574 71.1271 138.032 74.8911 138.14 75.2282C136.904 76.1078 133.685 76.9793 130.011 74.7761C126.336 72.5728 124.905 69.7374 124.734 68.4266C126.024 67.7155 129.5 66.7765 133.088 68.7101Z" fill="white"/>
<mask id="mask0" mask-type="alpha" maskUnits="userSpaceOnUse" x="124" y="67" width="15" height="10">
<path d="M133.085 68.714C137.57 71.131 138.029 74.895 138.137 75.2321C136.901 76.1117 133.682 76.9833 130.007 74.78C126.333 72.5767 124.902 69.7413 124.731 68.4305C126.021 67.7194 129.497 66.7805 133.085 68.714Z" fill="white"/>
</mask>
<g mask="url(#mask0)">
<circle cx="135.184" cy="73.2068" r="4.37903" transform="rotate(26.9017 135.184 73.2068)" fill="#311E17"/>
</g>
<path d="M138.313 75.3028C137.941 74.1456 137.312 70.7841 133.412 68.781C129.867 66.9603 125.47 68.1289 124.275 68.7814" stroke="#311E17" stroke-width="0.5" stroke-linecap="round"/>
<path d="M128.131 61.8916C128.131 61.8916 135.37 60.8068 138.609 66.4638" stroke="#311E17" stroke-width="0.7" stroke-miterlimit="10" stroke-linecap="round" stroke-linejoin="round"/>
<path d="M129.773 85.0685L132.361 86.0945C133.602 86.5863 134.217 87.8226 133.523 88.9625C132.129 91.2514 129.427 94.2748 127.149 92.5807C125.387 91.2694 125.606 88.6809 126.277 86.5351C126.729 85.0877 128.363 84.5096 129.773 85.0685Z" fill="white"/>
<path d="M61.6772 249.934L122.526 249.439L124.01 260.818H61.6772V249.934Z" fill="#391F18"/>
<path d="M61.6764 17.9138C55.9459 22.1233 44.5036 34.6355 55.4882 49.3777C65.0164 62.1651 80.6484 51.5736 89.3798 43.1443" stroke="#200F0C"/>
<path d="M63.6554 15.9353C57.9249 20.1447 46.4826 32.657 57.4672 47.3991C66.9954 60.1866 82.6274 49.5951 91.3588 41.1658" stroke="#200F0C"/>
<path d="M147.26 61.9423C147.26 61.9423 147.26 47.5959 142.808 46.6065C142.313 51.5535 139.345 54.5217 134.892 56.5006C130.44 58.4794 122.173 59.7386 116.589 62.437C111.004 65.1354 109.579 71.6123 108.179 71.3416C108.072 67.9091 101.253 55.717 94.8214 59.4685C88.3903 63.22 90.3691 71.3414 94.8214 75.7937L86.4114 92.6136C86.9061 85.193 79.8778 76.7677 78.0015 69.3626C75.8707 60.9526 72.0058 44.8329 78.9909 35.2284C86.9061 24.3451 90.3691 18.5376 102.737 16.9244C115.104 15.3112 122.03 23.3551 124.998 23.3551C127.966 23.3551 135.387 23.8502 141.324 27.8073C147.767 32.1022 150.529 40.1752 151.217 44.1328C151.764 47.2785 151.295 51.4828 150.228 55.0165C149.062 58.8802 147.26 61.9423 147.26 61.9423Z" fill="#200F0C"/>
<path d="M61.4201 17.0136C42.1012 33.4186 60.1924 54.0272 75.5282 53.0375C78.9648 53.4285 85.1614 51.5648 91.5022 41.411C99.4282 28.7188 79.5584 1.61112 61.4201 17.0136Z" fill="#200F0C"/>
<path d="M96.3057 63.7227C96.3057 63.7227 100.733 65.496 103.059 70.5872" stroke="#311E17" stroke-width="0.7" stroke-miterlimit="10" stroke-linecap="round" stroke-linejoin="round"/>
<path d="M82.1005 102.109L115.209 118.842L116.196 135.409C116.196 135.409 141.551 178.161 149.573 196.681C149.573 196.681 189.621 175.131 198.13 172.388C198.13 172.388 206.608 184.375 210.354 191.053C210.354 191.053 170.944 226.597 155.363 235.93C152.867 237.426 149.8 237.565 147.167 236.317C141.052 233.43 131.925 226.683 122.526 221.736C122.526 221.736 122.526 245.344 122.526 250.429L61.6772 250.429L59.5284 236.317L55.2461 242.564L85.4959 298.115L69.2322 315.337C69.2322 315.337 30.2471 277.198 16.7975 256.007C14.2469 251.983 13.7099 247.023 15.3687 242.564C22.88 222.443 46.2033 160.085 52.3746 145.629C59.7502 128.333 73.2234 117.423 73.2234 117.423L82.1005 102.109Z" fill="#BEC8D6"/>
<mask id="mask1" mask-type="alpha" maskUnits="userSpaceOnUse" x="14" y="102" width="197" height="214">
<path d="M82.1 102.109L115.208 118.842L116.195 135.409C116.195 135.409 141.551 178.161 149.572 196.681C149.572 196.681 189.62 175.131 198.129 172.388C198.129 172.388 206.607 184.375 210.353 191.053C210.353 191.053 170.943 226.597 155.363 235.93C152.867 237.426 149.8 237.565 147.167 236.317C141.052 233.43 131.924 226.683 122.525 221.736C122.525 221.736 122.525 245.344 122.525 250.429L61.6767 250.429L59.5279 236.317L55.2456 242.564L85.4954 298.115L69.2317 315.337C69.2317 315.337 30.2466 277.198 16.797 256.007C14.2464 251.983 13.7094 247.023 15.3682 242.564C22.8796 222.443 46.2028 160.085 52.3741 145.629C59.7497 128.333 73.223 117.423 73.223 117.423L82.1 102.109Z" fill="#BEC8D6"/>
</mask>
<g mask="url(#mask1)">
<path fill-rule="evenodd" clip-rule="evenodd" d="M12.7015 111.908C14.614 111.908 16.1644 110.358 16.1644 108.445C16.1644 106.533 14.614 104.982 12.7015 104.982C10.7889 104.982 9.23854 106.533 9.23854 108.445C9.23854 110.358 10.7889 111.908 12.7015 111.908ZM12.7013 128.728C14.6139 128.728 16.1643 127.177 16.1643 125.265C16.1643 123.352 14.6139 121.802 12.7013 121.802C10.7888 121.802 9.23843 123.352 9.23843 125.265C9.23843 127.177 10.7888 128.728 12.7013 128.728ZM16.1643 142.085C16.1643 143.997 14.6139 145.548 12.7013 145.548C10.7888 145.548 9.23843 143.997 9.23843 142.085C9.23843 140.172 10.7888 138.622 12.7013 138.622C14.6139 138.622 16.1643 140.172 16.1643 142.085ZM12.7013 162.368C14.6139 162.368 16.1643 160.817 16.1643 158.905C16.1643 156.992 14.6139 155.442 12.7013 155.442C10.7888 155.442 9.23843 156.992 9.23843 158.905C9.23843 160.817 10.7888 162.368 12.7013 162.368ZM16.1643 175.725C16.1643 177.637 14.6139 179.187 12.7013 179.187C10.7888 179.187 9.23843 177.637 9.23843 175.725C9.23843 173.812 10.7888 172.262 12.7013 172.262C14.6139 172.262 16.1643 173.812 16.1643 175.725ZM12.7013 196.007C14.6139 196.007 16.1643 194.457 16.1643 192.544C16.1643 190.632 14.6139 189.082 12.7013 189.082C10.7888 189.082 9.23843 190.632 9.23843 192.544C9.23843 194.457 10.7888 196.007 12.7013 196.007ZM12.7013 212.827C14.6139 212.827 16.1643 211.277 16.1643 209.364C16.1643 207.452 14.6139 205.901 12.7013 205.901C10.7888 205.901 9.23843 207.452 9.23843 209.364C9.23843 211.277 10.7888 212.827 12.7013 212.827ZM12.7012 229.647C14.6138 229.647 16.1642 228.097 16.1642 226.184C16.1642 224.272 14.6138 222.721 12.7012 222.721C10.7887 222.721 9.23832 224.272 9.23832 226.184C9.23832 228.097 10.7887 229.647 12.7012 229.647ZM16.1642 243.004C16.1642 244.917 14.6138 246.467 12.7012 246.467C10.7887 246.467 9.23832 244.917 9.23832 243.004C9.23832 241.091 10.7887 239.541 12.7012 239.541C14.6138 239.541 16.1642 241.091 16.1642 243.004ZM12.7012 263.287C14.6138 263.287 16.1642 261.736 16.1642 259.824C16.1642 257.911 14.6138 256.361 12.7012 256.361C10.7887 256.361 9.23832 257.911 9.23832 259.824C9.23832 261.736 10.7887 263.287 12.7012 263.287ZM16.1642 276.644C16.1642 278.556 14.6138 280.107 12.7012 280.107C10.7887 280.107 9.23832 278.556 9.23832 276.644C9.23832 274.731 10.7887 273.181 12.7012 273.181C14.6138 273.181 16.1642 274.731 16.1642 276.644ZM12.7012 296.927C14.6138 296.927 16.1642 295.376 16.1642 293.464C16.1642 291.551 14.6138 290.001 12.7012 290.001C10.7887 290.001 9.23832 291.551 9.23832 293.464C9.23832 295.376 10.7887 296.927 12.7012 296.927ZM-4.11863 179.188C-2.20612 179.188 -0.655716 177.637 -0.655716 175.725C-0.655716 173.812 -2.20612 172.262 -4.11863 172.262C-6.03114 172.262 -7.58154 173.812 -7.58154 175.725C-7.58154 177.637 -6.03114 179.188 -4.11863 179.188ZM-4.11848 111.908C-2.20596 111.908 -0.655563 110.358 -0.655563 108.446C-0.655563 106.533 -2.20596 104.983 -4.11848 104.983C-6.03099 104.983 -7.58139 106.533 -7.58139 108.446C-7.58139 110.358 -6.03099 111.908 -4.11848 111.908ZM-4.11853 128.728C-2.20601 128.728 -0.655614 127.178 -0.655614 125.265C-0.655614 123.353 -2.20601 121.802 -4.11853 121.802C-6.03104 121.802 -7.58144 123.353 -7.58144 125.265C-7.58144 127.178 -6.03104 128.728 -4.11853 128.728ZM-0.655614 142.085C-0.655614 143.998 -2.20601 145.548 -4.11853 145.548C-6.03104 145.548 -7.58144 143.998 -7.58144 142.085C-7.58144 140.173 -6.03104 138.622 -4.11853 138.622C-2.20601 138.622 -0.655614 140.173 -0.655614 142.085ZM-4.11853 162.368C-2.20601 162.368 -0.655614 160.817 -0.655614 158.905C-0.655614 156.992 -2.20601 155.442 -4.11853 155.442C-6.03104 155.442 -7.58144 156.992 -7.58144 158.905C-7.58144 160.817 -6.03104 162.368 -4.11853 162.368ZM-0.655614 192.545C-0.655614 194.457 -2.20601 196.008 -4.11853 196.008C-6.03104 196.008 -7.58144 194.457 -7.58144 192.545C-7.58144 190.632 -6.03104 189.082 -4.11853 189.082C-2.20601 189.082 -0.655614 190.632 -0.655614 192.545ZM-0.655614 209.365C-0.655614 211.277 -2.20601 212.827 -4.11853 212.827C-6.03104 212.827 -7.58144 211.277 -7.58144 209.365C-7.58144 207.452 -6.03104 205.902 -4.11853 205.902C-2.20601 205.902 -0.655614 207.452 -0.655614 209.365ZM-0.655665 226.184C-0.655665 228.097 -2.20606 229.647 -4.11858 229.647C-6.03109 229.647 -7.58149 228.097 -7.58149 226.184C-7.58149 224.272 -6.03109 222.721 -4.11858 222.721C-2.20606 222.721 -0.655665 224.272 -0.655665 226.184ZM-4.11858 246.467C-2.20606 246.467 -0.655665 244.917 -0.655665 243.004C-0.655665 241.092 -2.20606 239.541 -4.11858 239.541C-6.03109 239.541 -7.58149 241.092 -7.58149 243.004C-7.58149 244.917 -6.03109 246.467 -4.11858 246.467ZM-0.655665 259.824C-0.655665 261.737 -2.20606 263.287 -4.11858 263.287C-6.03109 263.287 -7.58149 261.737 -7.58149 259.824C-7.58149 257.912 -6.03109 256.361 -4.11858 256.361C-2.20606 256.361 -0.655665 257.912 -0.655665 259.824ZM-4.11858 280.107C-2.20606 280.107 -0.655665 278.557 -0.655665 276.644C-0.655665 274.731 -2.20606 273.181 -4.11858 273.181C-6.03109 273.181 -7.58149 274.731 -7.58149 276.644C-7.58149 278.557 -6.03109 280.107 -4.11858 280.107ZM-0.655665 293.464C-0.655665 295.376 -2.20606 296.927 -4.11858 296.927C-6.03109 296.927 -7.58149 295.376 -7.58149 293.464C-7.58149 291.551 -6.03109 290.001 -4.11858 290.001C-2.20606 290.001 -0.655665 291.551 -0.655665 293.464ZM29.5212 111.908C31.4337 111.908 32.9841 110.358 32.9841 108.445C32.9841 106.533 31.4337 104.982 29.5212 104.982C27.6087 104.982 26.0583 106.533 26.0583 108.445C26.0583 110.358 27.6087 111.908 29.5212 111.908ZM29.5212 128.728C31.4337 128.728 32.9841 127.177 32.9841 125.265C32.9841 123.352 31.4337 121.802 29.5212 121.802C27.6087 121.802 26.0583 123.352 26.0583 125.265C26.0583 127.177 27.6087 128.728 29.5212 128.728ZM32.9841 142.085C32.9841 143.997 31.4337 145.548 29.5212 145.548C27.6087 145.548 26.0583 143.997 26.0583 142.085C26.0583 140.172 27.6087 138.622 29.5212 138.622C31.4337 138.622 32.9841 140.172 32.9841 142.085ZM29.5212 162.368C31.4337 162.368 32.9841 160.817 32.9841 158.905C32.9841 156.992 31.4337 155.442 29.5212 155.442C27.6087 155.442 26.0583 156.992 26.0583 158.905C26.0583 160.817 27.6087 162.368 29.5212 162.368ZM32.9841 192.544C32.9841 194.457 31.4337 196.007 29.5212 196.007C27.6087 196.007 26.0583 194.457 26.0583 192.544C26.0583 190.632 27.6087 189.082 29.5212 189.082C31.4337 189.082 32.9841 190.632 32.9841 192.544ZM32.9841 209.365C32.9841 211.277 31.4337 212.827 29.5212 212.827C27.6087 212.827 26.0583 211.277 26.0583 209.365C26.0583 207.452 27.6087 205.902 29.5212 205.902C31.4337 205.902 32.9841 207.452 32.9841 209.365ZM32.9841 226.184C32.9841 228.097 31.4337 229.647 29.5212 229.647C27.6087 229.647 26.0583 228.097 26.0583 226.184C26.0583 224.272 27.6087 222.721 29.5212 222.721C31.4337 222.721 32.9841 224.272 32.9841 226.184ZM29.5212 246.467C31.4337 246.467 32.9841 244.917 32.9841 243.004C32.9841 241.092 31.4337 239.541 29.5212 239.541C27.6087 239.541 26.0583 241.092 26.0583 243.004C26.0583 244.917 27.6087 246.467 29.5212 246.467ZM32.9841 259.824C32.9841 261.737 31.4337 263.287 29.5212 263.287C27.6087 263.287 26.0583 261.737 26.0583 259.824C26.0583 257.912 27.6087 256.361 29.5212 256.361C31.4337 256.361 32.9841 257.912 32.9841 259.824ZM29.5212 280.107C31.4337 280.107 32.9841 278.557 32.9841 276.644C32.9841 274.731 31.4337 273.181 29.5212 273.181C27.6087 273.181 26.0583 274.731 26.0583 276.644C26.0583 278.557 27.6087 280.107 29.5212 280.107ZM32.9841 293.464C32.9841 295.376 31.4337 296.927 29.5212 296.927C27.6087 296.927 26.0583 295.376 26.0583 293.464C26.0583 291.551 27.6087 290.001 29.5212 290.001C31.4337 290.001 32.9841 291.551 32.9841 293.464ZM46.3411 111.909C48.2536 111.909 49.804 110.358 49.804 108.446C49.804 106.533 48.2536 104.983 46.3411 104.983C44.4286 104.983 42.8782 106.533 42.8782 108.446C42.8782 110.358 44.4286 111.909 46.3411 111.909ZM46.3411 128.728C48.2536 128.728 49.804 127.178 49.804 125.265C49.804 123.353 48.2536 121.802 46.3411 121.802C44.4286 121.802 42.8782 123.353 42.8782 125.265C42.8782 127.178 44.4286 128.728 46.3411 128.728ZM49.804 142.085C49.804 143.998 48.2536 145.548 46.3411 145.548C44.4286 145.548 42.8782 143.998 42.8782 142.085C42.8782 140.173 44.4286 138.622 46.3411 138.622C48.2536 138.622 49.804 140.173 49.804 142.085ZM46.3411 162.368C48.2536 162.368 49.804 160.818 49.804 158.905C49.804 156.993 48.2536 155.442 46.3411 155.442C44.4286 155.442 42.8782 156.993 42.8782 158.905C42.8782 160.818 44.4286 162.368 46.3411 162.368ZM49.804 175.725C49.804 177.637 48.2536 179.188 46.3411 179.188C44.4286 179.188 42.8782 177.637 42.8782 175.725C42.8782 173.812 44.4286 172.262 46.3411 172.262C48.2536 172.262 49.804 173.812 49.804 175.725ZM46.3411 196.008C48.2536 196.008 49.804 194.457 49.804 192.545C49.804 190.632 48.2536 189.082 46.3411 189.082C44.4286 189.082 42.8782 190.632 42.8782 192.545C42.8782 194.457 44.4286 196.008 46.3411 196.008ZM46.3411 212.828C48.2536 212.828 49.804 211.277 49.804 209.365C49.804 207.452 48.2536 205.902 46.3411 205.902C44.4286 205.902 42.8782 207.452 42.8782 209.365C42.8782 211.277 44.4286 212.828 46.3411 212.828ZM46.341 229.647C48.2536 229.647 49.804 228.097 49.804 226.185C49.804 224.272 48.2536 222.722 46.341 222.722C44.4285 222.722 42.8781 224.272 42.8781 226.185C42.8781 228.097 44.4285 229.647 46.341 229.647ZM49.804 243.004C49.804 244.917 48.2536 246.467 46.341 246.467C44.4285 246.467 42.8781 244.917 42.8781 243.004C42.8781 241.092 44.4285 239.542 46.341 239.542C48.2536 239.542 49.804 241.092 49.804 243.004ZM46.341 263.287C48.2536 263.287 49.804 261.737 49.804 259.824C49.804 257.912 48.2536 256.361 46.341 256.361C44.4285 256.361 42.8781 257.912 42.8781 259.824C42.8781 261.737 44.4285 263.287 46.341 263.287ZM49.804 276.644C49.804 278.557 48.2536 280.107 46.341 280.107C44.4285 280.107 42.8781 278.557 42.8781 276.644C42.8781 274.732 44.4285 273.181 46.341 273.181C48.2536 273.181 49.804 274.732 49.804 276.644ZM46.341 296.927C48.2536 296.927 49.804 295.377 49.804 293.464C49.804 291.551 48.2536 290.001 46.341 290.001C44.4285 290.001 42.8781 291.551 42.8781 293.464C42.8781 295.377 44.4285 296.927 46.341 296.927ZM29.5212 179.188C31.4337 179.188 32.9841 177.638 32.9841 175.725C32.9841 173.813 31.4337 172.262 29.5212 172.262C27.6087 172.262 26.0583 173.813 26.0583 175.725C26.0583 177.638 27.6087 179.188 29.5212 179.188ZM79.9812 111.908C81.8937 111.908 83.4441 110.358 83.4441 108.445C83.4441 106.533 81.8937 104.982 79.9812 104.982C78.0687 104.982 76.5183 106.533 76.5183 108.445C76.5183 110.358 78.0687 111.908 79.9812 111.908ZM79.9811 128.728C81.8936 128.728 83.444 127.177 83.444 125.265C83.444 123.352 81.8936 121.802 79.9811 121.802C78.0686 121.802 76.5182 123.352 76.5182 125.265C76.5182 127.177 78.0686 128.728 79.9811 128.728ZM83.444 142.085C83.444 143.997 81.8936 145.548 79.9811 145.548C78.0686 145.548 76.5182 143.997 76.5182 142.085C76.5182 140.172 78.0686 138.622 79.9811 138.622C81.8936 138.622 83.444 140.172 83.444 142.085ZM79.9811 162.368C81.8936 162.368 83.444 160.817 83.444 158.905C83.444 156.992 81.8936 155.442 79.9811 155.442C78.0686 155.442 76.5182 156.992 76.5182 158.905C76.5182 160.817 78.0686 162.368 79.9811 162.368ZM83.444 175.725C83.444 177.637 81.8936 179.187 79.9811 179.187C78.0686 179.187 76.5182 177.637 76.5182 175.725C76.5182 173.812 78.0686 172.262 79.9811 172.262C81.8936 172.262 83.444 173.812 83.444 175.725ZM79.9811 196.007C81.8936 196.007 83.444 194.457 83.444 192.544C83.444 190.632 81.8936 189.082 79.9811 189.082C78.0686 189.082 76.5182 190.632 76.5182 192.544C76.5182 194.457 78.0686 196.007 79.9811 196.007ZM79.9811 212.827C81.8936 212.827 83.444 211.277 83.444 209.364C83.444 207.452 81.8936 205.901 79.9811 205.901C78.0686 205.901 76.5182 207.452 76.5182 209.364C76.5182 211.277 78.0686 212.827 79.9811 212.827ZM79.981 229.647C81.8935 229.647 83.4439 228.097 83.4439 226.184C83.4439 224.272 81.8935 222.721 79.981 222.721C78.0685 222.721 76.5181 224.272 76.5181 226.184C76.5181 228.097 78.0685 229.647 79.981 229.647ZM83.4439 243.004C83.4439 244.917 81.8935 246.467 79.981 246.467C78.0685 246.467 76.5181 244.917 76.5181 243.004C76.5181 241.091 78.0685 239.541 79.981 239.541C81.8935 239.541 83.4439 241.091 83.4439 243.004ZM79.981 263.287C81.8935 263.287 83.4439 261.736 83.4439 259.824C83.4439 257.911 81.8935 256.361 79.981 256.361C78.0685 256.361 76.5181 257.911 76.5181 259.824C76.5181 261.736 78.0685 263.287 79.981 263.287ZM83.4439 276.644C83.4439 278.556 81.8935 280.107 79.981 280.107C78.0685 280.107 76.5181 278.556 76.5181 276.644C76.5181 274.731 78.0685 273.181 79.981 273.181C81.8935 273.181 83.4439 274.731 83.4439 276.644ZM79.981 296.927C81.8935 296.927 83.4439 295.376 83.4439 293.464C83.4439 291.551 81.8935 290.001 79.981 290.001C78.0685 290.001 76.5181 291.551 76.5181 293.464C76.5181 295.376 78.0685 296.927 79.981 296.927ZM63.1612 179.188C65.0737 179.188 66.6241 177.637 66.6241 175.725C66.6241 173.812 65.0737 172.262 63.1612 172.262C61.2486 172.262 59.6982 173.812 59.6982 175.725C59.6982 177.637 61.2486 179.188 63.1612 179.188ZM63.1613 111.908C65.0738 111.908 66.6242 110.358 66.6242 108.446C66.6242 106.533 65.0738 104.983 63.1613 104.983C61.2488 104.983 59.6984 106.533 59.6984 108.446C59.6984 110.358 61.2488 111.908 63.1613 111.908ZM63.1613 128.728C65.0738 128.728 66.6242 127.178 66.6242 125.265C66.6242 123.353 65.0738 121.802 63.1613 121.802C61.2488 121.802 59.6984 123.353 59.6984 125.265C59.6984 127.178 61.2488 128.728 63.1613 128.728ZM66.6242 142.085C66.6242 143.998 65.0738 145.548 63.1613 145.548C61.2488 145.548 59.6984 143.998 59.6984 142.085C59.6984 140.173 61.2488 138.622 63.1613 138.622C65.0738 138.622 66.6242 140.173 66.6242 142.085ZM63.1613 162.368C65.0738 162.368 66.6242 160.817 66.6242 158.905C66.6242 156.992 65.0738 155.442 63.1613 155.442C61.2488 155.442 59.6984 156.992 59.6984 158.905C59.6984 160.817 61.2488 162.368 63.1613 162.368ZM66.6242 192.545C66.6242 194.457 65.0738 196.008 63.1613 196.008C61.2488 196.008 59.6984 194.457 59.6984 192.545C59.6984 190.632 61.2488 189.082 63.1613 189.082C65.0738 189.082 66.6242 190.632 66.6242 192.545ZM66.6242 209.365C66.6242 211.277 65.0738 212.827 63.1613 212.827C61.2488 212.827 59.6984 211.277 59.6984 209.365C59.6984 207.452 61.2488 205.902 63.1613 205.902C65.0738 205.902 66.6242 207.452 66.6242 209.365ZM66.6242 226.184C66.6242 228.097 65.0738 229.647 63.1613 229.647C61.2488 229.647 59.6984 228.097 59.6984 226.184C59.6984 224.272 61.2488 222.721 63.1613 222.721C65.0738 222.721 66.6242 224.272 66.6242 226.184ZM63.1613 246.467C65.0738 246.467 66.6242 244.917 66.6242 243.004C66.6242 241.092 65.0738 239.541 63.1613 239.541C61.2488 239.541 59.6984 241.092 59.6984 243.004C59.6984 244.917 61.2488 246.467 63.1613 246.467ZM66.6242 259.824C66.6242 261.737 65.0738 263.287 63.1613 263.287C61.2488 263.287 59.6984 261.737 59.6984 259.824C59.6984 257.912 61.2488 256.361 63.1613 256.361C65.0738 256.361 66.6242 257.912 66.6242 259.824ZM63.1613 280.107C65.0738 280.107 66.6242 278.557 66.6242 276.644C66.6242 274.731 65.0738 273.181 63.1613 273.181C61.2488 273.181 59.6984 274.731 59.6984 276.644C59.6984 278.557 61.2488 280.107 63.1613 280.107ZM66.6242 293.464C66.6242 295.376 65.0738 296.927 63.1613 296.927C61.2488 296.927 59.6984 295.376 59.6984 293.464C59.6984 291.551 61.2488 290.001 63.1613 290.001C65.0738 290.001 66.6242 291.551 66.6242 293.464ZM96.8008 111.908C98.7133 111.908 100.264 110.358 100.264 108.445C100.264 106.533 98.7133 104.982 96.8008 104.982C94.8883 104.982 93.3379 106.533 93.3379 108.445C93.3379 110.358 94.8883 111.908 96.8008 111.908ZM96.8007 128.728C98.7132 128.728 100.264 127.177 100.264 125.265C100.264 123.352 98.7132 121.802 96.8007 121.802C94.8882 121.802 93.3378 123.352 93.3378 125.265C93.3378 127.177 94.8882 128.728 96.8007 128.728ZM100.264 142.085C100.264 143.997 98.7132 145.548 96.8007 145.548C94.8882 145.548 93.3378 143.997 93.3378 142.085C93.3378 140.172 94.8882 138.622 96.8007 138.622C98.7132 138.622 100.264 140.172 100.264 142.085ZM96.8007 162.368C98.7132 162.368 100.264 160.817 100.264 158.905C100.264 156.992 98.7132 155.442 96.8007 155.442C94.8882 155.442 93.3378 156.992 93.3378 158.905C93.3378 160.817 94.8882 162.368 96.8007 162.368ZM100.264 192.544C100.264 194.457 98.7132 196.007 96.8007 196.007C94.8882 196.007 93.3378 194.457 93.3378 192.544C93.3378 190.632 94.8882 189.082 96.8007 189.082C98.7132 189.082 100.264 190.632 100.264 192.544ZM100.264 209.365C100.264 211.277 98.7133 212.827 96.8008 212.827C94.8883 212.827 93.3379 211.277 93.3379 209.365C93.3379 207.452 94.8883 205.902 96.8008 205.902C98.7133 205.902 100.264 207.452 100.264 209.365ZM100.264 226.184C100.264 228.097 98.7132 229.647 96.8007 229.647C94.8882 229.647 93.3378 228.097 93.3378 226.184C93.3378 224.272 94.8882 222.721 96.8007 222.721C98.7132 222.721 100.264 224.272 100.264 226.184ZM96.8007 246.467C98.7132 246.467 100.264 244.917 100.264 243.004C100.264 241.092 98.7132 239.541 96.8007 239.541C94.8882 239.541 93.3378 241.092 93.3378 243.004C93.3378 244.917 94.8882 246.467 96.8007 246.467ZM100.264 259.824C100.264 261.737 98.7132 263.287 96.8007 263.287C94.8882 263.287 93.3378 261.737 93.3378 259.824C93.3378 257.912 94.8882 256.361 96.8007 256.361C98.7132 256.361 100.264 257.912 100.264 259.824ZM96.8007 280.107C98.7132 280.107 100.264 278.557 100.264 276.644C100.264 274.731 98.7132 273.181 96.8007 273.181C94.8882 273.181 93.3378 274.731 93.3378 276.644C93.3378 278.557 94.8882 280.107 96.8007 280.107ZM100.264 293.464C100.264 295.376 98.7132 296.927 96.8007 296.927C94.8882 296.927 93.3378 295.376 93.3378 293.464C93.3378 291.551 94.8882 290.001 96.8007 290.001C98.7132 290.001 100.264 291.551 100.264 293.464ZM113.621 111.909C115.533 111.909 117.083 110.358 117.083 108.446C117.083 106.533 115.533 104.983 113.621 104.983C111.708 104.983 110.158 106.533 110.158 108.446C110.158 110.358 111.708 111.909 113.621 111.909ZM113.621 128.728C115.533 128.728 117.083 127.178 117.083 125.265C117.083 123.353 115.533 121.802 113.621 121.802C111.708 121.802 110.158 123.353 110.158 125.265C110.158 127.178 111.708 128.728 113.621 128.728ZM117.083 142.085C117.083 143.998 115.533 145.548 113.621 145.548C111.708 145.548 110.158 143.998 110.158 142.085C110.158 140.173 111.708 138.622 113.621 138.622C115.533 138.622 117.083 140.173 117.083 142.085ZM113.621 162.368C115.533 162.368 117.083 160.818 117.083 158.905C117.083 156.993 115.533 155.442 113.621 155.442C111.708 155.442 110.158 156.993 110.158 158.905C110.158 160.818 111.708 162.368 113.621 162.368ZM117.083 175.725C117.083 177.637 115.533 179.188 113.621 179.188C111.708 179.188 110.158 177.637 110.158 175.725C110.158 173.812 111.708 172.262 113.621 172.262C115.533 172.262 117.083 173.812 117.083 175.725ZM113.621 196.008C115.533 196.008 117.083 194.457 117.083 192.545C117.083 190.632 115.533 189.082 113.621 189.082C111.708 189.082 110.158 190.632 110.158 192.545C110.158 194.457 111.708 196.008 113.621 196.008ZM113.621 212.828C115.533 212.828 117.083 211.277 117.083 209.365C117.083 207.452 115.533 205.902 113.621 205.902C111.708 205.902 110.158 207.452 110.158 209.365C110.158 211.277 111.708 212.828 113.621 212.828ZM113.621 229.647C115.533 229.647 117.083 228.097 117.083 226.185C117.083 224.272 115.533 222.722 113.621 222.722C111.708 222.722 110.158 224.272 110.158 226.185C110.158 228.097 111.708 229.647 113.621 229.647ZM117.083 243.004C117.083 244.917 115.533 246.467 113.621 246.467C111.708 246.467 110.158 244.917 110.158 243.004C110.158 241.092 111.708 239.542 113.621 239.542C115.533 239.542 117.083 241.092 117.083 243.004ZM113.621 263.287C115.533 263.287 117.083 261.737 117.083 259.824C117.083 257.912 115.533 256.361 113.621 256.361C111.708 256.361 110.158 257.912 110.158 259.824C110.158 261.737 111.708 263.287 113.621 263.287ZM117.083 276.644C117.083 278.557 115.533 280.107 113.621 280.107C111.708 280.107 110.158 278.557 110.158 276.644C110.158 274.732 111.708 273.181 113.621 273.181C115.533 273.181 117.083 274.732 117.083 276.644ZM113.621 296.927C115.533 296.927 117.083 295.377 117.083 293.464C117.083 291.551 115.533 290.001 113.621 290.001C111.708 290.001 110.158 291.551 110.158 293.464C110.158 295.377 111.708 296.927 113.621 296.927ZM96.8007 179.188C98.7132 179.188 100.264 177.638 100.264 175.725C100.264 173.813 98.7132 172.262 96.8007 172.262C94.8882 172.262 93.3378 173.813 93.3378 175.725C93.3378 177.638 94.8882 179.188 96.8007 179.188ZM130.44 111.908C132.353 111.908 133.903 110.358 133.903 108.445C133.903 106.533 132.353 104.982 130.44 104.982C128.528 104.982 126.978 106.533 126.978 108.445C126.978 110.358 128.528 111.908 130.44 111.908ZM130.44 128.728C132.353 128.728 133.903 127.177 133.903 125.265C133.903 123.352 132.353 121.802 130.44 121.802C128.528 121.802 126.978 123.352 126.978 125.265C126.978 127.177 128.528 128.728 130.44 128.728ZM133.903 142.085C133.903 143.997 132.353 145.548 130.44 145.548C128.528 145.548 126.978 143.997 126.978 142.085C126.978 140.172 128.528 138.622 130.44 138.622C132.353 138.622 133.903 140.172 133.903 142.085ZM130.44 162.368C132.353 162.368 133.903 160.817 133.903 158.905C133.903 156.992 132.353 155.442 130.44 155.442C128.528 155.442 126.978 156.992 126.978 158.905C126.978 160.817 128.528 162.368 130.44 162.368ZM133.903 192.544C133.903 194.457 132.353 196.007 130.44 196.007C128.528 196.007 126.978 194.457 126.978 192.544C126.978 190.632 128.528 189.082 130.44 189.082C132.353 189.082 133.903 190.632 133.903 192.544ZM133.903 209.365C133.903 211.277 132.353 212.827 130.44 212.827C128.528 212.827 126.978 211.277 126.978 209.365C126.978 207.452 128.528 205.902 130.44 205.902C132.353 205.902 133.903 207.452 133.903 209.365ZM133.903 226.184C133.903 228.097 132.353 229.647 130.44 229.647C128.528 229.647 126.978 228.097 126.978 226.184C126.978 224.272 128.528 222.721 130.44 222.721C132.353 222.721 133.903 224.272 133.903 226.184ZM130.44 246.467C132.353 246.467 133.903 244.917 133.903 243.004C133.903 241.092 132.353 239.541 130.44 239.541C128.528 239.541 126.978 241.092 126.978 243.004C126.978 244.917 128.528 246.467 130.44 246.467ZM133.903 259.824C133.903 261.737 132.353 263.287 130.44 263.287C128.528 263.287 126.978 261.737 126.978 259.824C126.978 257.912 128.528 256.361 130.44 256.361C132.353 256.361 133.903 257.912 133.903 259.824ZM130.44 280.107C132.353 280.107 133.903 278.557 133.903 276.644C133.903 274.731 132.353 273.181 130.44 273.181C128.528 273.181 126.978 274.731 126.978 276.644C126.978 278.557 128.528 280.107 130.44 280.107ZM133.903 293.464C133.903 295.376 132.353 296.927 130.44 296.927C128.528 296.927 126.978 295.376 126.978 293.464C126.978 291.551 128.528 290.001 130.44 290.001C132.353 290.001 133.903 291.551 133.903 293.464ZM147.26 111.909C149.173 111.909 150.723 110.358 150.723 108.446C150.723 106.533 149.173 104.983 147.26 104.983C145.348 104.983 143.797 106.533 143.797 108.446C143.797 110.358 145.348 111.909 147.26 111.909ZM147.26 128.728C149.173 128.728 150.723 127.178 150.723 125.265C150.723 123.353 149.173 121.802 147.26 121.802C145.348 121.802 143.798 123.353 143.798 125.265C143.798 127.178 145.348 128.728 147.26 128.728ZM150.723 142.085C150.723 143.998 149.173 145.548 147.26 145.548C145.348 145.548 143.798 143.998 143.798 142.085C143.798 140.173 145.348 138.622 147.26 138.622C149.173 138.622 150.723 140.173 150.723 142.085ZM147.26 162.368C149.173 162.368 150.723 160.818 150.723 158.905C150.723 156.993 149.173 155.442 147.26 155.442C145.348 155.442 143.798 156.993 143.798 158.905C143.798 160.818 145.348 162.368 147.26 162.368ZM150.723 175.725C150.723 177.637 149.173 179.188 147.26 179.188C145.348 179.188 143.798 177.637 143.798 175.725C143.798 173.812 145.348 172.262 147.26 172.262C149.173 172.262 150.723 173.812 150.723 175.725ZM147.26 196.008C149.173 196.008 150.723 194.457 150.723 192.545C150.723 190.632 149.173 189.082 147.26 189.082C145.348 189.082 143.798 190.632 143.798 192.545C143.798 194.457 145.348 196.008 147.26 196.008ZM147.26 212.828C149.173 212.828 150.723 211.277 150.723 209.365C150.723 207.452 149.173 205.902 147.26 205.902C145.348 205.902 143.798 207.452 143.798 209.365C143.798 211.277 145.348 212.828 147.26 212.828ZM147.261 229.647C149.173 229.647 150.723 228.097 150.723 226.185C150.723 224.272 149.173 222.722 147.261 222.722C145.348 222.722 143.798 224.272 143.798 226.185C143.798 228.097 145.348 229.647 147.261 229.647ZM150.723 243.004C150.723 244.917 149.173 246.467 147.261 246.467C145.348 246.467 143.798 244.917 143.798 243.004C143.798 241.092 145.348 239.542 147.261 239.542C149.173 239.542 150.723 241.092 150.723 243.004ZM147.261 263.287C149.173 263.287 150.723 261.737 150.723 259.824C150.723 257.912 149.173 256.361 147.261 256.361C145.348 256.361 143.798 257.912 143.798 259.824C143.798 261.737 145.348 263.287 147.261 263.287ZM150.723 276.644C150.723 278.557 149.173 280.107 147.261 280.107C145.348 280.107 143.798 278.557 143.798 276.644C143.798 274.732 145.348 273.181 147.261 273.181C149.173 273.181 150.723 274.732 150.723 276.644ZM147.261 296.927C149.173 296.927 150.723 295.377 150.723 293.464C150.723 291.551 149.173 290.001 147.261 290.001C145.348 290.001 143.798 291.551 143.798 293.464C143.798 295.377 145.348 296.927 147.261 296.927ZM130.441 179.188C132.353 179.188 133.903 177.638 133.903 175.725C133.903 173.813 132.353 172.262 130.441 172.262C128.528 172.262 126.978 173.813 126.978 175.725C126.978 177.638 128.528 179.188 130.441 179.188ZM164.08 111.908C165.993 111.908 167.543 110.358 167.543 108.445C167.543 106.533 165.993 104.982 164.08 104.982C162.168 104.982 160.617 106.533 160.617 108.445C160.617 110.358 162.168 111.908 164.08 111.908ZM164.08 128.728C165.993 128.728 167.543 127.177 167.543 125.265C167.543 123.352 165.993 121.802 164.08 121.802C162.168 121.802 160.617 123.352 160.617 125.265C160.617 127.177 162.168 128.728 164.08 128.728ZM167.543 142.085C167.543 143.997 165.993 145.548 164.08 145.548C162.168 145.548 160.617 143.997 160.617 142.085C160.617 140.172 162.168 138.622 164.08 138.622C165.993 138.622 167.543 140.172 167.543 142.085ZM164.08 162.368C165.993 162.368 167.543 160.817 167.543 158.905C167.543 156.992 165.993 155.442 164.08 155.442C162.168 155.442 160.617 156.992 160.617 158.905C160.617 160.817 162.168 162.368 164.08 162.368ZM167.543 192.544C167.543 194.457 165.993 196.007 164.08 196.007C162.168 196.007 160.617 194.457 160.617 192.544C160.617 190.632 162.168 189.082 164.08 189.082C165.993 189.082 167.543 190.632 167.543 192.544ZM167.543 209.365C167.543 211.277 165.993 212.827 164.08 212.827C162.168 212.827 160.617 211.277 160.617 209.365C160.617 207.452 162.168 205.902 164.08 205.902C165.993 205.902 167.543 207.452 167.543 209.365ZM167.543 226.184C167.543 228.097 165.993 229.647 164.08 229.647C162.168 229.647 160.617 228.097 160.617 226.184C160.617 224.272 162.168 222.721 164.08 222.721C165.993 222.721 167.543 224.272 167.543 226.184ZM164.08 246.467C165.993 246.467 167.543 244.917 167.543 243.004C167.543 241.092 165.993 239.541 164.08 239.541C162.168 239.541 160.617 241.092 160.617 243.004C160.617 244.917 162.168 246.467 164.08 246.467ZM167.543 259.824C167.543 261.737 165.993 263.287 164.08 263.287C162.168 263.287 160.617 261.737 160.617 259.824C160.617 257.912 162.168 256.361 164.08 256.361C165.993 256.361 167.543 257.912 167.543 259.824ZM164.08 280.107C165.993 280.107 167.543 278.557 167.543 276.644C167.543 274.731 165.993 273.181 164.08 273.181C162.168 273.181 160.617 274.731 160.617 276.644C160.617 278.557 162.168 280.107 164.08 280.107ZM167.543 293.464C167.543 295.376 165.993 296.927 164.08 296.927C162.168 296.927 160.617 295.376 160.617 293.464C160.617 291.551 162.168 290.001 164.08 290.001C165.993 290.001 167.543 291.551 167.543 293.464ZM180.9 111.909C182.813 111.909 184.363 110.358 184.363 108.446C184.363 106.533 182.813 104.983 180.9 104.983C178.988 104.983 177.437 106.533 177.437 108.446C177.437 110.358 178.988 111.909 180.9 111.909ZM180.9 128.728C182.813 128.728 184.363 127.178 184.363 125.265C184.363 123.353 182.813 121.802 180.9 121.802C178.988 121.802 177.437 123.353 177.437 125.265C177.437 127.178 178.988 128.728 180.9 128.728ZM184.363 142.085C184.363 143.998 182.813 145.548 180.9 145.548C178.988 145.548 177.437 143.998 177.437 142.085C177.437 140.173 178.988 138.622 180.9 138.622C182.813 138.622 184.363 140.173 184.363 142.085ZM180.9 162.368C182.813 162.368 184.363 160.818 184.363 158.905C184.363 156.993 182.813 155.442 180.9 155.442C178.988 155.442 177.437 156.993 177.437 158.905C177.437 160.818 178.988 162.368 180.9 162.368ZM184.363 175.725C184.363 177.637 182.813 179.188 180.9 179.188C178.988 179.188 177.437 177.637 177.437 175.725C177.437 173.812 178.988 172.262 180.9 172.262C182.813 172.262 184.363 173.812 184.363 175.725ZM180.9 196.008C182.813 196.008 184.363 194.457 184.363 192.545C184.363 190.632 182.813 189.082 180.9 189.082C178.988 189.082 177.437 190.632 177.437 192.545C177.437 194.457 178.988 196.008 180.9 196.008ZM180.9 212.828C182.813 212.828 184.363 211.277 184.363 209.365C184.363 207.452 182.813 205.902 180.9 205.902C178.988 205.902 177.437 207.452 177.437 209.365C177.437 211.277 178.988 212.828 180.9 212.828ZM180.9 229.647C182.813 229.647 184.363 228.097 184.363 226.185C184.363 224.272 182.813 222.722 180.9 222.722C178.988 222.722 177.437 224.272 177.437 226.185C177.437 228.097 178.988 229.647 180.9 229.647ZM184.363 243.004C184.363 244.917 182.813 246.467 180.9 246.467C178.988 246.467 177.437 244.917 177.437 243.004C177.437 241.092 178.988 239.542 180.9 239.542C182.813 239.542 184.363 241.092 184.363 243.004ZM180.9 263.287C182.813 263.287 184.363 261.737 184.363 259.824C184.363 257.912 182.813 256.361 180.9 256.361C178.988 256.361 177.437 257.912 177.437 259.824C177.437 261.737 178.988 263.287 180.9 263.287ZM184.363 276.644C184.363 278.557 182.813 280.107 180.9 280.107C178.988 280.107 177.437 278.557 177.437 276.644C177.437 274.732 178.988 273.181 180.9 273.181C182.813 273.181 184.363 274.732 184.363 276.644ZM180.9 296.927C182.813 296.927 184.363 295.377 184.363 293.464C184.363 291.551 182.813 290.001 180.9 290.001C178.988 290.001 177.437 291.551 177.437 293.464C177.437 295.377 178.988 296.927 180.9 296.927ZM164.08 179.188C165.993 179.188 167.543 177.638 167.543 175.725C167.543 173.813 165.993 172.262 164.08 172.262C162.168 172.262 160.617 173.813 160.617 175.725C160.617 177.638 162.168 179.188 164.08 179.188ZM214.54 111.908C216.452 111.908 218.003 110.358 218.003 108.446C218.003 106.533 216.452 104.983 214.54 104.983C212.627 104.983 211.077 106.533 211.077 108.446C211.077 110.358 212.627 111.908 214.54 111.908ZM214.54 128.728C216.452 128.728 218.003 127.178 218.003 125.265C218.003 123.353 216.452 121.802 214.54 121.802C212.627 121.802 211.077 123.353 211.077 125.265C211.077 127.178 212.627 128.728 214.54 128.728ZM218.003 142.085C218.003 143.998 216.452 145.548 214.54 145.548C212.627 145.548 211.077 143.998 211.077 142.085C211.077 140.172 212.627 138.622 214.54 138.622C216.452 138.622 218.003 140.172 218.003 142.085ZM214.54 162.368C216.452 162.368 218.003 160.817 218.003 158.905C218.003 156.992 216.452 155.442 214.54 155.442C212.627 155.442 211.077 156.992 211.077 158.905C211.077 160.817 212.627 162.368 214.54 162.368ZM218.003 175.725C218.003 177.637 216.452 179.188 214.54 179.188C212.627 179.188 211.077 177.637 211.077 175.725C211.077 173.812 212.627 172.262 214.54 172.262C216.452 172.262 218.003 173.812 218.003 175.725ZM214.54 196.008C216.452 196.008 218.003 194.457 218.003 192.545C218.003 190.632 216.452 189.082 214.54 189.082C212.627 189.082 211.077 190.632 211.077 192.545C211.077 194.457 212.627 196.008 214.54 196.008ZM214.54 212.827C216.452 212.827 218.003 211.277 218.003 209.364C218.003 207.452 216.452 205.902 214.54 205.902C212.627 205.902 211.077 207.452 211.077 209.364C211.077 211.277 212.627 212.827 214.54 212.827ZM214.54 229.647C216.452 229.647 218.003 228.097 218.003 226.184C218.003 224.272 216.452 222.721 214.54 222.721C212.627 222.721 211.077 224.272 211.077 226.184C211.077 228.097 212.627 229.647 214.54 229.647ZM218.003 243.004C218.003 244.917 216.452 246.467 214.54 246.467C212.627 246.467 211.077 244.917 211.077 243.004C211.077 241.092 212.627 239.541 214.54 239.541C216.452 239.541 218.003 241.092 218.003 243.004ZM214.54 263.287C216.452 263.287 218.003 261.737 218.003 259.824C218.003 257.912 216.452 256.361 214.54 256.361C212.627 256.361 211.077 257.912 211.077 259.824C211.077 261.737 212.627 263.287 214.54 263.287ZM218.003 276.644C218.003 278.556 216.452 280.107 214.54 280.107C212.627 280.107 211.077 278.556 211.077 276.644C211.077 274.731 212.627 273.181 214.54 273.181C216.452 273.181 218.003 274.731 218.003 276.644ZM214.54 296.927C216.452 296.927 218.003 295.376 218.003 293.464C218.003 291.551 216.452 290.001 214.54 290.001C212.627 290.001 211.077 291.551 211.077 293.464C211.077 295.376 212.627 296.927 214.54 296.927ZM197.72 179.188C199.632 179.188 201.183 177.637 201.183 175.725C201.183 173.812 199.632 172.262 197.72 172.262C195.807 172.262 194.257 173.812 194.257 175.725C194.257 177.637 195.807 179.188 197.72 179.188ZM197.72 111.909C199.632 111.909 201.183 110.358 201.183 108.446C201.183 106.533 199.632 104.983 197.72 104.983C195.807 104.983 194.257 106.533 194.257 108.446C194.257 110.358 195.807 111.909 197.72 111.909ZM197.72 128.728C199.632 128.728 201.183 127.178 201.183 125.265C201.183 123.353 199.632 121.802 197.72 121.802C195.807 121.802 194.257 123.353 194.257 125.265C194.257 127.178 195.807 128.728 197.72 128.728ZM201.183 142.085C201.183 143.998 199.632 145.548 197.72 145.548C195.807 145.548 194.257 143.998 194.257 142.085C194.257 140.173 195.807 138.622 197.72 138.622C199.632 138.622 201.183 140.173 201.183 142.085ZM197.72 162.368C199.632 162.368 201.183 160.818 201.183 158.905C201.183 156.993 199.632 155.442 197.72 155.442C195.807 155.442 194.257 156.993 194.257 158.905C194.257 160.818 195.807 162.368 197.72 162.368ZM201.183 192.545C201.183 194.457 199.632 196.008 197.72 196.008C195.807 196.008 194.257 194.457 194.257 192.545C194.257 190.632 195.807 189.082 197.72 189.082C199.632 189.082 201.183 190.632 201.183 192.545ZM201.183 209.365C201.183 211.277 199.632 212.828 197.72 212.828C195.807 212.828 194.257 211.277 194.257 209.365C194.257 207.452 195.807 205.902 197.72 205.902C199.632 205.902 201.183 207.452 201.183 209.365ZM201.183 226.185C201.183 228.097 199.632 229.647 197.72 229.647C195.807 229.647 194.257 228.097 194.257 226.185C194.257 224.272 195.807 222.722 197.72 222.722C199.632 222.722 201.183 224.272 201.183 226.185ZM197.72 246.467C199.632 246.467 201.183 244.917 201.183 243.004C201.183 241.092 199.632 239.542 197.72 239.542C195.807 239.542 194.257 241.092 194.257 243.004C194.257 244.917 195.807 246.467 197.72 246.467ZM201.183 259.824C201.183 261.737 199.632 263.287 197.72 263.287C195.807 263.287 194.257 261.737 194.257 259.824C194.257 257.912 195.807 256.361 197.72 256.361C199.632 256.361 201.183 257.912 201.183 259.824ZM197.72 280.107C199.632 280.107 201.183 278.557 201.183 276.644C201.183 274.732 199.632 273.181 197.72 273.181C195.807 273.181 194.257 274.732 194.257 276.644C194.257 278.557 195.807 280.107 197.72 280.107ZM201.183 293.464C201.183 295.377 199.632 296.927 197.72 296.927C195.807 296.927 194.257 295.377 194.257 293.464C194.257 291.552 195.807 290.001 197.72 290.001C199.632 290.001 201.183 291.552 201.183 293.464ZM231.36 111.908C233.272 111.908 234.823 110.358 234.823 108.446C234.823 106.533 233.272 104.983 231.36 104.983C229.447 104.983 227.897 106.533 227.897 108.446C227.897 110.358 229.447 111.908 231.36 111.908ZM231.36 128.728C233.272 128.728 234.823 127.178 234.823 125.265C234.823 123.353 233.272 121.802 231.36 121.802C229.447 121.802 227.897 123.353 227.897 125.265C227.897 127.178 229.447 128.728 231.36 128.728ZM234.823 142.085C234.823 143.998 233.272 145.548 231.36 145.548C229.447 145.548 227.897 143.998 227.897 142.085C227.897 140.172 229.447 138.622 231.36 138.622C233.272 138.622 234.823 140.172 234.823 142.085ZM231.36 162.368C233.272 162.368 234.823 160.817 234.823 158.905C234.823 156.992 233.272 155.442 231.36 155.442C229.447 155.442 227.897 156.992 227.897 158.905C227.897 160.817 229.447 162.368 231.36 162.368ZM234.823 192.545C234.823 194.457 233.272 196.008 231.36 196.008C229.447 196.008 227.897 194.457 227.897 192.545C227.897 190.632 229.447 189.082 231.36 189.082C233.272 189.082 234.823 190.632 234.823 192.545ZM234.823 209.365C234.823 211.277 233.272 212.828 231.36 212.828C229.447 212.828 227.897 211.277 227.897 209.365C227.897 207.452 229.447 205.902 231.36 205.902C233.272 205.902 234.823 207.452 234.823 209.365ZM234.823 226.185C234.823 228.097 233.272 229.647 231.36 229.647C229.447 229.647 227.897 228.097 227.897 226.185C227.897 224.272 229.447 222.722 231.36 222.722C233.272 222.722 234.823 224.272 234.823 226.185ZM231.36 246.467C233.272 246.467 234.823 244.917 234.823 243.004C234.823 241.092 233.272 239.542 231.36 239.542C229.447 239.542 227.897 241.092 227.897 243.004C227.897 244.917 229.447 246.467 231.36 246.467ZM234.823 259.824C234.823 261.737 233.272 263.287 231.36 263.287C229.447 263.287 227.897 261.737 227.897 259.824C227.897 257.912 229.447 256.361 231.36 256.361C233.272 256.361 234.823 257.912 234.823 259.824ZM231.36 280.107C233.272 280.107 234.823 278.557 234.823 276.644C234.823 274.732 233.272 273.181 231.36 273.181C229.447 273.181 227.897 274.732 227.897 276.644C227.897 278.557 229.447 280.107 231.36 280.107ZM234.823 293.464C234.823 295.377 233.272 296.927 231.36 296.927C229.447 296.927 227.897 295.377 227.897 293.464C227.897 291.552 229.447 290.001 231.36 290.001C233.272 290.001 234.823 291.552 234.823 293.464ZM248.179 111.909C250.092 111.909 251.642 110.358 251.642 108.446C251.642 106.533 250.092 104.983 248.179 104.983C246.267 104.983 244.717 106.533 244.717 108.446C244.717 110.358 246.267 111.909 248.179 111.909ZM248.18 128.728C250.092 128.728 251.642 127.178 251.642 125.266C251.642 123.353 250.092 121.803 248.18 121.803C246.267 121.803 244.717 123.353 244.717 125.266C244.717 127.178 246.267 128.728 248.18 128.728ZM251.642 142.085C251.642 143.998 250.092 145.548 248.18 145.548C246.267 145.548 244.717 143.998 244.717 142.085C244.717 140.173 246.267 138.623 248.18 138.623C250.092 138.623 251.642 140.173 251.642 142.085ZM248.18 162.368C250.092 162.368 251.642 160.818 251.642 158.905C251.642 156.993 250.092 155.442 248.18 155.442C246.267 155.442 244.717 156.993 244.717 158.905C244.717 160.818 246.267 162.368 248.18 162.368ZM251.642 175.725C251.642 177.638 250.092 179.188 248.18 179.188C246.267 179.188 244.717 177.638 244.717 175.725C244.717 173.813 246.267 172.262 248.18 172.262C250.092 172.262 251.642 173.813 251.642 175.725ZM248.18 196.008C250.092 196.008 251.642 194.458 251.642 192.545C251.642 190.632 250.092 189.082 248.18 189.082C246.267 189.082 244.717 190.632 244.717 192.545C244.717 194.458 246.267 196.008 248.18 196.008ZM248.18 212.828C250.092 212.828 251.642 211.277 251.642 209.365C251.642 207.452 250.092 205.902 248.18 205.902C246.267 205.902 244.717 207.452 244.717 209.365C244.717 211.277 246.267 212.828 248.18 212.828ZM248.18 229.648C250.092 229.648 251.643 228.097 251.643 226.185C251.643 224.272 250.092 222.722 248.18 222.722C246.267 222.722 244.717 224.272 244.717 226.185C244.717 228.097 246.267 229.648 248.18 229.648ZM251.643 243.005C251.643 244.917 250.092 246.468 248.18 246.468C246.267 246.468 244.717 244.917 244.717 243.005C244.717 241.092 246.267 239.542 248.18 239.542C250.092 239.542 251.643 241.092 251.643 243.005ZM248.18 263.287C250.092 263.287 251.643 261.737 251.643 259.824C251.643 257.912 250.092 256.362 248.18 256.362C246.267 256.362 244.717 257.912 244.717 259.824C244.717 261.737 246.267 263.287 248.18 263.287ZM251.643 276.644C251.643 278.557 250.092 280.107 248.18 280.107C246.267 280.107 244.717 278.557 244.717 276.644C244.717 274.732 246.267 273.181 248.18 273.181C250.092 273.181 251.643 274.732 251.643 276.644ZM248.18 296.927C250.092 296.927 251.643 295.377 251.643 293.464C251.643 291.552 250.092 290.001 248.18 290.001C246.267 290.001 244.717 291.552 244.717 293.464C244.717 295.377 246.267 296.927 248.18 296.927ZM231.36 179.188C233.272 179.188 234.823 177.638 234.823 175.725C234.823 173.813 233.272 172.262 231.36 172.262C229.447 172.262 227.897 173.813 227.897 175.725C227.897 177.638 229.447 179.188 231.36 179.188Z" fill="white" fill-opacity="0.2"/>
</g>
<path d="M75.1191 118.402C75.1191 118.402 96.1429 134.102 106.017 136.938L113.713 121.917" stroke="white" stroke-width="0.7" stroke-miterlimit="10" stroke-linecap="round" stroke-linejoin="round"/>
<path d="M58.6143 141.148C58.6143 141.148 88.4848 149.896 89.8732 184.335" stroke="white" stroke-width="0.7" stroke-miterlimit="10" stroke-linecap="round" stroke-linejoin="round"/>
<path d="M88.6747 192.244L55.1335 242.323" stroke="white" stroke-width="0.7" stroke-miterlimit="10" stroke-linecap="round" stroke-linejoin="round"/>
<path d="M33.6177 242.047L52.3528 241.997" stroke="white" stroke-width="0.7" stroke-miterlimit="10" stroke-linecap="round" stroke-linejoin="round"/>
<path d="M149.237 199.707C149.205 200.645 144.846 218.508 144.846 218.508" stroke="white" stroke-width="0.7" stroke-miterlimit="10" stroke-linecap="round" stroke-linejoin="round"/>
<path d="M188.806 178.244L199.162 196.986" stroke="white" stroke-width="0.7" stroke-miterlimit="10" stroke-linecap="round" stroke-linejoin="round"/>
<path d="M60.3329 302.126L77.4374 287.764" stroke="white" stroke-width="0.7" stroke-miterlimit="10" stroke-linecap="round" stroke-linejoin="round"/>
<path d="M210.582 151.979L224.322 153.423C225.475 153.566 226.326 154.637 226.132 155.776C225.826 157.567 224.706 159.831 220.975 159.819C214.826 159.8 211.649 159.755 211.649 159.755C211.649 159.755 216.189 167.296 213.791 174.535" stroke="#311E17" stroke-width="0.7" stroke-miterlimit="10" stroke-linecap="round" stroke-linejoin="round"/>
<path d="M221.182 150.434L220.13 152.598" stroke="#311E17" stroke-width="0.7" stroke-miterlimit="10" stroke-linecap="round" stroke-linejoin="round"/>
<path d="M217.425 159.813L216.943 161.096C216.461 162.392 216.861 163.847 217.938 164.707C219.215 165.729 221.058 165.638 222.218 164.468C224.165 162.49 226.972 159.408 228.219 156.839" stroke="#311E17" stroke-width="0.7" stroke-miterlimit="10" stroke-linecap="round" stroke-linejoin="round"/>
<path d="M111.147 96.5726C111.147 96.5726 105.705 91.6256 102.737 84.2051C102.737 84.2051 106.2 103.993 111.147 106.961L111.147 96.5726Z" fill="#200F0C"/>
<path d="M223.994 162.573L222.171 165.084C221.482 166.038 221.501 167.338 222.216 168.263C222.93 169.189 224.165 169.553 225.261 169.127C227.438 168.289 231.053 166.444 233.838 162.912" stroke="#311E17" stroke-width="0.7" stroke-miterlimit="10" stroke-linecap="round" stroke-linejoin="round"/>
<path d="M227.64 168.039L226 169.346C225.232 169.963 224.99 171.036 225.436 171.913C225.809 172.659 226.578 173.097 227.416 173.062C228.46 173.008 229.931 172.878 231.219 172.485" stroke="#311E17" stroke-width="0.7" stroke-miterlimit="10" stroke-linecap="round" stroke-linejoin="round"/>
<path d="M69.8183 314.642L73.3467 322.033C73.3467 322.033 82.3538 314.16 88.7766 301.747L84.5058 299.104L69.8183 314.642Z" fill="#F1B6A0"/>
<path d="M80.6608 626.968C79.5799 626.573 78.3965 627.181 78.085 628.289C74.4882 641.08 73.0918 649.899 72.5528 654.582C72.3018 656.762 73.9851 658.587 76.1784 658.662L151.586 661.257C153.578 661.325 155.157 659.553 154.852 657.574C154.278 653.707 153.239 651.355 152.25 648.696C151.142 645.738 148.547 643.024 146.439 642.218C143.454 641.086 134.566 638.387 128.523 636.776C116.641 633.601 113.34 627.454 113.34 627.454C113.34 627.454 106.236 625.266 102.991 632.424C102.991 632.424 96.3241 633.25 90.3508 630.728C87.1752 629.38 83.0637 627.846 80.6608 626.968Z" fill="#DCA355"/>
<path d="M63.3481 329.551C63.3481 329.551 85.085 318.912 92.7451 291.101" stroke="#C47A24" stroke-width="0.7" stroke-miterlimit="10" stroke-linecap="round" stroke-linejoin="round"/>
<path d="M76.033 473.587L99.1303 467.91" stroke="#C47A24" stroke-width="0.7" stroke-miterlimit="10" stroke-linecap="round" stroke-linejoin="round"/>
<path d="M75.8317 468.622L95.3741 455.065" stroke="#C47A24" stroke-width="0.7" stroke-miterlimit="10" stroke-linecap="round" stroke-linejoin="round"/>
<path d="M75.6851 643.014C75.6851 643.014 85.5737 648.037 89.3106 658.343" stroke="#C47A24" stroke-width="0.7" stroke-miterlimit="10" stroke-linecap="round" stroke-linejoin="round"/>
<path d="M119.429 632.591C119.429 632.591 115.116 632.288 112.278 636.63" stroke="#C47A24" stroke-width="2" stroke-miterlimit="10" stroke-linecap="round" stroke-linejoin="round"/>
<path d="M125.287 635.468C125.287 635.468 120.974 635.165 118.136 639.507" stroke="#C47A24" stroke-width="2" stroke-miterlimit="10" stroke-linecap="round" stroke-linejoin="round"/>
<path d="M132.217 637.857C132.217 637.857 127.905 637.554 125.066 641.895" stroke="#C47A24" stroke-width="2" stroke-miterlimit="10" stroke-linecap="round" stroke-linejoin="round"/>
<path d="M116.298 137.279C116.298 137.279 126.446 168.816 126.193 180.657C125.94 192.499 121.536 207.169 122.267 217.719" stroke="white" stroke-width="0.7" stroke-miterlimit="10" stroke-linecap="round" stroke-linejoin="round"/>
</svg>
