<svg width="108" height="43" viewBox="0 0 108 43" fill="none" xmlns="http://www.w3.org/2000/svg">
<g clip-path="url(#clip0)">
<path d="M0 37.4578V16.625H8.14948C11.2773 16.625 13.7307 17.5576 15.5098 19.4371C17.289 21.3023 18.1929 23.8419 18.1929 27.0701C18.1929 30.2553 17.289 32.7948 15.4525 34.66C13.6446 36.5252 11.1625 37.4578 7.97731 37.4578H0ZM4.17518 33.4548H8.17818C9.98599 33.4548 11.3634 32.8379 12.3534 31.6183C13.3433 30.3988 13.8455 28.8492 13.8455 26.9984C13.8455 25.1619 13.3433 23.6697 12.3534 22.4645C11.3634 21.2593 9.98599 20.628 8.17818 20.628H4.17518V33.4548Z" fill="#777777"/>
<path d="M22.1527 24.0412C23.7023 22.4629 25.6823 21.6738 28.0783 21.6738C30.4744 21.6738 32.4544 22.4629 34.0039 24.0412C35.5535 25.5907 36.3139 27.5133 36.3139 29.7659C36.3139 32.0472 35.5535 33.9698 34.0039 35.5193C32.4544 37.0689 30.4744 37.858 28.0783 37.858C25.6823 37.858 23.7023 37.0689 22.1527 35.5193C20.6032 33.9698 19.8428 32.0472 19.8428 29.7659C19.8428 27.499 20.6032 25.5907 22.1527 24.0412ZM28.0783 34.1563C29.2835 34.1563 30.2735 33.7402 31.0914 32.8937C31.9092 32.0185 32.3253 30.9711 32.3253 29.7659C32.3253 28.5607 31.9092 27.5133 31.0914 26.6668C30.2735 25.8203 29.2835 25.3899 28.0783 25.3899C26.8731 25.3899 25.8545 25.806 25.0366 26.6525C24.2188 27.499 23.8314 28.5464 23.8314 29.7516C23.8314 30.9568 24.2332 32.0042 25.0366 32.8794C25.8401 33.7402 26.8588 34.1563 28.0783 34.1563Z" fill="#777777"/>
<path d="M40.016 24.0412C41.5656 22.4629 43.5456 21.6738 45.9416 21.6738C48.3377 21.6738 50.3177 22.4629 51.8672 24.0412C53.4168 25.5907 54.1772 27.5133 54.1772 29.7659C54.1772 32.0472 53.4168 33.9698 51.8672 35.5193C50.3177 37.0689 48.3377 37.858 45.9416 37.858C43.5456 37.858 41.5656 37.0689 40.016 35.5193C38.4665 33.9698 37.7061 32.0472 37.7061 29.7659C37.7061 27.499 38.4665 25.5907 40.016 24.0412ZM45.9416 34.1563C47.1468 34.1563 48.1368 33.7402 48.9546 32.8937C49.7724 32.0185 50.1885 30.9711 50.1885 29.7659C50.1885 28.5607 49.7724 27.5133 48.9546 26.6668C48.1368 25.8203 47.1468 25.3899 45.9416 25.3899C44.7364 25.3899 43.7177 25.806 42.8999 26.6525C42.0821 27.499 41.6947 28.5464 41.6947 29.7516C41.6947 30.9568 42.0964 32.0042 42.8999 32.8794C43.7177 33.7402 44.7221 34.1563 45.9416 34.1563Z" fill="#777777"/>
<path d="M56.415 37.457V22.0906H60.2172V24.1423C61.1498 22.478 62.5558 21.6602 64.4497 21.6602C65.0667 21.6602 65.6836 21.7749 66.3149 22.0045L65.9706 25.8066C65.3249 25.6058 64.708 25.491 64.1341 25.491C61.8815 25.491 60.3893 26.9545 60.3893 30.1396V37.4426H56.415V37.457Z" fill="#777777"/>
<path d="M79.3139 22.0912H83.0874V37.4576H79.3139V35.6784C77.9939 37.1132 76.3583 37.8163 74.407 37.8163C72.2118 37.8163 70.3753 37.0558 68.9405 35.5063C67.5058 33.9567 66.8027 32.0054 66.8027 29.6955C66.8027 27.3855 67.5345 25.4629 68.9692 23.9707C70.404 22.4499 72.2405 21.6895 74.407 21.6895C76.3296 21.6895 77.9652 22.4212 79.3139 23.9133V22.0912ZM78.1231 26.6394C77.3052 25.7642 76.2866 25.3481 75.0527 25.3481C73.7901 25.3481 72.7714 25.7642 71.9536 26.6394C71.1644 27.5146 70.7627 28.562 70.7627 29.7672C70.7627 31.0011 71.1644 32.0485 71.9679 32.9237C72.7857 33.7989 73.8044 34.215 75.0383 34.215C76.2722 34.215 77.2909 33.7989 78.1087 32.9237C78.9265 32.0485 79.3426 31.0011 79.3426 29.7672C79.3713 28.5476 78.9409 27.5003 78.1231 26.6394Z" fill="#777777"/>
<path d="M96.5742 22.0918H100.922L94.7521 38.2186C93.2599 42.1355 91.2799 44.0007 88.2382 44.0007C87.076 44.0007 86.1004 43.7425 85.2826 43.2403L85.9569 39.9116C86.66 40.256 87.3343 40.4138 87.9369 40.4138C89.1708 40.4138 90.1608 39.596 90.9212 37.989L91.2369 37.286L84.5078 22.0918H89.0991L93.0734 32.1065L96.5742 22.0918Z" fill="#777777"/>
<path d="M102.414 35.4773C102.414 34.2147 103.433 33.2247 104.753 33.2247C106.015 33.2247 107.034 34.2147 107.034 35.4773C107.034 36.8259 106.015 37.7872 104.753 37.7872C103.418 37.8016 102.414 36.8403 102.414 35.4773ZM102.859 31.6751L102.629 16.2227H106.833L106.546 31.6751H102.859Z" fill="#777777"/>
<path d="M18.6663 5.14648C18.2789 5.14648 18.1211 5.20387 17.8771 5.41909C17.6189 5.64865 17.088 6.20821 16.9589 6.38038C16.9015 6.46647 16.9302 6.53821 16.9732 6.6243C17.2602 7.11212 17.7911 7.25559 18.5228 7.25559H24.1901C24.5775 7.25559 24.7353 7.1982 24.9793 6.98299C25.2375 6.75342 25.7684 6.19386 25.8975 6.02169C25.9549 5.93561 25.9262 5.86387 25.8832 5.77778C25.5962 5.28996 25.0653 5.14648 24.3193 5.14648H18.6663Z" fill="#777777"/>
<path d="M33.2726 3.99919C32.9283 3.82702 32.7705 3.81267 32.4405 3.88441C32.1105 3.9705 31.3788 4.22876 31.1922 4.32919C31.1061 4.37223 31.0918 4.45832 31.0918 4.55875C31.1205 5.13266 31.5222 5.49135 32.1822 5.8357L37.2326 8.40393C37.577 8.5761 37.7491 8.6048 38.0648 8.51871C38.3948 8.43262 39.1265 8.17437 39.313 8.07393C39.3991 8.03089 39.4135 7.9448 39.4135 7.84437C39.3848 7.27046 38.983 6.91177 38.3087 6.56743L33.2726 3.99919Z" fill="#777777"/>
<path d="M29.0392 1.04258C28.9674 0.999537 28.8957 0.970842 28.8096 1.02823C28.6374 1.14301 28.1209 1.64518 27.9057 1.88909C27.6905 2.11866 27.6475 2.26213 27.6475 2.63517V9.8951C27.6475 10.5981 27.7909 11.086 28.2501 11.3586C28.3218 11.4016 28.4079 11.4303 28.4796 11.3729C28.6518 11.2581 29.1683 10.756 29.3835 10.5121C29.5987 10.2825 29.6418 10.139 29.6418 9.76597V2.52039C29.6418 1.81736 29.5127 1.31519 29.0392 1.04258Z" fill="#777777"/>
<path d="M42.2687 1.04258C42.1826 0.999537 42.1109 0.970842 42.0391 1.02823C41.8669 1.14301 41.3504 1.64518 41.1352 1.88909C40.92 2.11866 40.877 2.26213 40.877 2.63517V9.8951C40.877 10.5981 41.0204 11.086 41.4796 11.3586C41.5513 11.4016 41.6374 11.4303 41.7091 11.3729C41.8813 11.2581 42.3978 10.756 42.613 10.5121C42.8282 10.2825 42.8713 10.139 42.8713 9.76597V2.52039C42.8713 1.81736 42.7278 1.31519 42.2687 1.04258Z" fill="#777777"/>
<path d="M5.62421 3.99763C5.27986 3.82546 5.12204 3.81111 4.79204 3.8972C4.46204 3.98328 3.73031 4.22719 3.54379 4.34198C3.45771 4.38502 3.44336 4.4711 3.44336 4.55719C3.47205 5.1311 3.87379 5.48979 4.53378 5.83413L9.58417 8.40237C9.94286 8.58889 10.1007 8.60324 10.4307 8.51715C10.7607 8.43107 11.4924 8.18715 11.6789 8.07237C11.765 8.02933 11.7794 7.94324 11.7794 7.85716C11.7507 7.28325 11.3489 6.92456 10.6746 6.58021L5.62421 3.99763Z" fill="#777777"/>
<path d="M1.40607 1.04258C1.31999 0.999537 1.24825 0.970842 1.17651 1.02823C1.00434 1.14301 0.487821 1.64518 0.258258 1.88909C0.0573907 2.133 0 2.26213 0 2.63517V9.8951C0 10.5981 0.143477 11.086 0.602603 11.3586C0.674341 11.4016 0.760427 11.4303 0.832165 11.3729C1.00434 11.2581 1.52085 10.756 1.73607 10.512C1.95128 10.2825 2.00868 10.1534 2.00868 9.78032V2.52039C2.00868 1.81735 1.8652 1.31519 1.40607 1.04258Z" fill="#777777"/>
<path d="M14.6199 1.04258C14.5482 0.999537 14.4765 0.970842 14.3904 1.02823C14.2182 1.14301 13.7017 1.64518 13.4865 1.88909C13.2713 2.133 13.2139 2.26213 13.2139 2.63517V9.8951C13.2139 10.5981 13.3573 11.086 13.8165 11.3586C13.8882 11.4016 13.9743 11.4303 14.046 11.3729C14.2182 11.2581 14.7347 10.756 14.9499 10.5121C15.1652 10.2825 15.2082 10.139 15.2082 9.76597V2.52039C15.2225 1.81736 15.0791 1.31519 14.6199 1.04258Z" fill="#777777"/>
</g>
<defs>
<clipPath id="clip0">
<rect width="107.034" height="43" fill="white"/>
</clipPath>
</defs>
</svg>
