<svg width="880" height="528" viewBox="0 0 880 528" fill="none" xmlns="http://www.w3.org/2000/svg">
<g filter="url(#filter0_d)">
<rect x="84" y="20" width="720" height="450" rx="8" fill="#464646"/>
</g>
<mask id="mask0" mask-type="alpha" maskUnits="userSpaceOnUse" x="84" y="20" width="720" height="450">
<rect x="84" y="20" width="720" height="450" rx="8" fill="#F5F5F5"/>
</mask>
<g mask="url(#mask0)">
<rect x="84" y="20" width="720" height="450" fill="#F5F5F5"/>
<rect x="84" y="20" width="720" height="14.4" fill="#464646"/>
<path fill-rule="evenodd" clip-rule="evenodd" d="M96 48.8004C96 47.4749 97.0745 46.4004 98.4 46.4004L789.6 46.4004C790.925 46.4004 792 47.4749 792 48.8004V458C792 459.326 790.926 460.4 789.6 460.4H98.4C97.0745 460.4 96 459.326 96 458V48.8004Z" fill="white"/>
<rect x="603" y="293.6" width="87" height="16.8" rx="2.4" fill="#FFEAF7"/>
<rect x="603" y="354.801" width="87" height="16.8" rx="2.4" fill="#DFECF7"/>
<rect x="502.8" y="354.801" width="87" height="16.8" rx="2.4" fill="#DFECF7"/>
<rect x="402.6" y="354.801" width="87" height="16.8" rx="2.4" fill="#DFECF7"/>
<rect x="302.4" y="354.801" width="87" height="16.8" rx="2.4" fill="#DFECF7"/>
<rect x="202.2" y="354.801" width="87" height="16.8" rx="2.4" fill="#DFECF7"/>
<rect x="603" y="416" width="87" height="16.8" rx="2.4" fill="#DFECF7"/>
<rect x="502.8" y="416" width="87" height="16.8" rx="2.4" fill="#DFECF7"/>
<rect x="402.6" y="416" width="87" height="16.8" rx="2.4" fill="#DFECF7"/>
<rect x="302.4" y="416" width="87" height="16.8" rx="2.4" fill="#DFECF7"/>
<rect x="502.8" y="438.801" width="87" height="16.8" rx="2.4" fill="#EAE8F9"/>
<rect x="302.4" y="438.801" width="87" height="16.8" rx="2.4" fill="#E1F3D8"/>
<rect x="202.2" y="416" width="87" height="16.8" rx="2.4" fill="#DFECF7"/>
<rect x="603" y="377.6" width="87" height="16.8" rx="2.4" fill="#E1F3D8"/>
<rect x="402.6" y="377.6" width="87" height="16.8" rx="2.4" fill="#EAE8F9"/>
<path d="M150.331 264.154V257.258H149.146V264.154H150.331ZM150.83 270.706V269.738H142.687V268.178H150.331V264.871H141.455V265.838H149.146V267.258H141.502V270.706H150.83ZM143.108 257.68C141.143 257.68 139.552 258.928 139.552 260.768C139.552 262.625 141.158 263.81 143.108 263.81C145.058 263.81 146.634 262.609 146.634 260.768C146.634 258.912 145.058 257.68 143.108 257.68ZM143.108 258.709C144.528 258.709 145.48 259.552 145.48 260.768C145.48 261.97 144.528 262.781 143.108 262.781C141.751 262.781 140.706 261.97 140.706 260.753C140.706 259.536 141.767 258.709 143.108 258.709Z" fill="#FF4152"/>
<path d="M348.095 267.211C347.19 267.352 345.739 267.476 344.226 267.57V266.275C345.833 266.119 346.878 265.277 346.878 264.029C346.878 262.594 345.583 261.72 343.649 261.72C341.73 261.72 340.42 262.609 340.42 264.029C340.42 265.261 341.449 266.104 343.025 266.275V267.632C341.714 267.679 340.326 267.679 339.359 267.648L339.577 268.678C340.716 268.678 342.151 268.678 343.664 268.584C345.302 268.475 347.112 268.303 348.173 268.178L348.095 267.211ZM352.291 264.325V263.311H350.107V257.258H348.906V270.893H350.107V264.325H352.291ZM345.724 264.029C345.724 264.793 344.897 265.339 343.649 265.339C342.416 265.339 341.558 264.793 341.558 264.029C341.558 263.233 342.416 262.703 343.649 262.703C344.897 262.703 345.724 263.233 345.724 264.029ZM347.752 261.018V260.035H339.64V261.018H347.752ZM345.583 258.928V257.929H341.668V258.928H345.583Z" fill="#222222"/>
<path d="M251.108 270.877V269.941H242.591V268.787H250.594V265.994H241.374V266.899H249.408V267.944H241.39V270.877H251.108ZM246.928 259.832C246.928 258.428 245.492 257.57 243.589 257.57C241.67 257.57 240.266 258.491 240.266 259.817C240.266 261.205 241.67 262.079 243.589 262.079C245.508 262.079 246.928 261.19 246.928 259.832ZM250.594 265.308V257.258H249.408V263.935H246.413V264.809H249.408V265.308H250.594ZM244.135 265.324V263.608C245.68 263.53 247.349 263.374 248.269 263.28L248.16 262.375C246.834 262.531 245.508 262.609 243.823 262.672C242.341 262.734 240.906 262.781 239.315 262.781L239.502 263.779C240.641 263.764 241.764 263.732 242.95 263.686V265.324H244.135ZM245.742 259.832C245.742 260.659 244.837 261.096 243.589 261.096C242.341 261.096 241.452 260.659 241.452 259.832C241.452 258.99 242.341 258.522 243.589 258.522C244.884 258.522 245.742 258.99 245.742 259.832Z" fill="#222222"/>
<path d="M446.516 270.908V265.963H452.101V264.965H439.793V265.963H445.331V270.908H446.516ZM451.602 262.5C449.2 262.204 446.579 260.456 446.579 258.6V257.726H445.331V258.6C445.331 260.456 442.928 262.188 440.308 262.531L440.885 263.545C442.96 263.14 445.284 261.814 445.939 260.222C446.766 261.814 448.997 263.093 451.04 263.514L451.602 262.5Z" fill="#222222"/>
<path d="M552.301 265.121V264.122H546.716V262.531H550.726V257.882H541.568V262.531H545.531V264.122H539.993V265.121H552.301ZM549.54 261.548H542.754V258.85H549.54V261.548ZM541.319 266.478V267.461H549.587V270.986H550.772V266.478H541.319Z" fill="#222222"/>
<path d="M651.019 270.612V265.87H641.675V270.612H651.019ZM650.894 258.07H641.768V259.052H649.678C649.678 260.191 649.506 262.157 649.256 263.186H640.193V264.185H652.501V263.186H650.426C650.738 261.814 650.894 259.895 650.894 258.07ZM649.834 269.629H642.86V266.852H649.834V269.629Z" fill="#222222"/>
<path d="M746.582 262.422V261.424H738.829V259.411H746.988V258.413H737.644V265.495H741.731V268.163H736.193V269.161H748.501V268.163H742.916V265.495H747.144V264.512H738.829V262.422H746.582Z" fill="#135DE6"/>
<rect x="195" y="243.801" width="1.2" height="216.6" fill="#EEEEEE"/>
<rect x="295.2" y="243.801" width="1.2" height="216.6" fill="#EEEEEE"/>
<rect x="395.4" y="243.801" width="1.2" height="216.6" fill="#EEEEEE"/>
<rect x="495.6" y="243.801" width="1.2" height="216.6" fill="#EEEEEE"/>
<rect x="595.8" y="243.801" width="1.2" height="216.6" fill="#EEEEEE"/>
<rect x="696" y="243.801" width="1.2" height="216.6" fill="#EEEEEE"/>
<rect x="96" y="242.6" width="696" height="1.2" fill="#EEEEEE"/>
<rect x="96" y="286.4" width="696" height="1.2" fill="#EEEEEE"/>
<rect x="96" y="347.6" width="696" height="1.2" fill="#EEEEEE"/>
<rect x="96" y="408.801" width="696" height="1.2" fill="#EEEEEE"/>
<rect x="230.4" y="92.5996" width="42" height="8.4" fill="#EEEEEE"/>
<rect x="120" y="161" width="87" height="22.8" fill="#C9C9C9"/>
<rect x="213" y="161" width="87" height="22.8" fill="#EEEEEE"/>
<rect x="306" y="161" width="87" height="22.8" fill="#EEEEEE"/>
<rect x="399" y="161" width="87" height="22.8" fill="#EEEEEE"/>
<rect x="492" y="161" width="87" height="22.8" fill="#C9C9C9"/>
<rect x="585" y="161" width="87" height="22.8" fill="#EEEEEE"/>
<rect x="678" y="161" width="87" height="22.8" fill="#EEEEEE"/>
<rect x="290.4" y="92.5996" width="42" height="8.4" fill="#EEEEEE"/>
<rect x="624" y="68.5996" width="68.4" height="32.4" rx="4.8" fill="#DCE4F3"/>
<path d="M645.432 89.8988V88.988H638.357V88.1828H645.049V85.688H641.67V84.8432H646.316V83.9324H635.902V84.8432H640.495V85.688H637.142V86.5988H643.888V87.338H637.182V89.8988H645.432ZM645.802 82.5728C644.218 82.52 642.409 81.9128 641.855 81.0944H645.221V80.1836H636.984V81.0944H640.376C639.848 81.926 638.08 82.5332 636.403 82.5728L636.918 83.5232C638.819 83.3384 640.548 82.6124 641.102 81.6884C641.71 82.586 643.439 83.312 645.313 83.5232L645.802 82.5728ZM642.964 79.5104V78.5864H639.228V79.5104H642.964ZM657.738 84.83V83.8928H656.008C656.233 82.6652 656.338 81.2132 656.338 79.3916H648.643V80.342H655.164C655.164 81.662 655.084 82.916 654.847 83.8928H647.323V84.83H657.738ZM656.655 89.714V88.7636H649.87V86.0576H648.709V89.714H656.655ZM669.489 84.368V83.3912H667.654V78.5864H666.479V90.1232H667.654V84.368H669.489ZM663.839 80.2892V79.3388H660.394V80.2892H663.839ZM665.515 82.2692V81.332H658.678V82.2692H665.515ZM664.869 85.358C664.869 83.972 663.786 82.916 662.149 82.916C660.513 82.916 659.417 83.9984 659.417 85.358C659.417 86.744 660.513 87.7736 662.149 87.7736C663.786 87.7736 664.869 86.7176 664.869 85.358ZM663.72 85.358C663.72 86.2028 663.1 86.7968 662.149 86.7968C661.239 86.7968 660.592 86.2028 660.592 85.358C660.592 84.5 661.252 83.8928 662.149 83.8928C663.047 83.8928 663.72 84.5 663.72 85.358ZM679.629 90.1232V78.5864H678.455V90.1232H679.629ZM676.25 79.814H670.693V80.804H674.983C674.772 83.2856 672.897 85.7012 670.178 87.008L670.891 87.8924C674.046 86.1764 676.184 83.4836 676.25 79.814Z" fill="#222222"/>
<rect x="699.6" y="68.5996" width="68.4" height="32.4" rx="4.8" fill="#135DE6"/>
<rect x="715.2" y="207.801" width="24" height="22.8" rx="4.8" fill="#135DE6"/>
<path d="M732.254 218.716C730.525 218.531 728.321 217.435 728.136 215.97H731.779V215.006H723.265V215.97H726.895C726.724 217.435 724.598 218.57 722.777 218.768L723.331 219.692C725.166 219.402 727.001 218.306 727.502 217.224C728.07 218.267 729.971 219.376 731.726 219.653L732.254 218.716ZM728.07 225.725V221.686H732.716V220.735H722.302V221.686H726.895V225.725H728.07Z" fill="white"/>
<rect x="744" y="207.801" width="24" height="22.8" rx="4.8" fill="#DCE4F3"/>
<path d="M760.481 225.712V224.827H753.353V224.022H760.045V221.567H752.178V222.438H758.884V223.217H752.178V225.712H760.481ZM756.983 216.366C756.983 215.152 755.742 214.452 754.118 214.452C752.495 214.452 751.241 215.178 751.241 216.353C751.241 217.567 752.495 218.267 754.118 218.267C755.742 218.267 756.983 217.567 756.983 216.366ZM760.045 221.105V214.188H758.897V219.811H756.428V220.643H758.897V221.105H760.045ZM754.646 221.118V219.64C755.887 219.56 757.234 219.455 758.039 219.349L757.933 218.478C756.838 218.61 755.702 218.676 754.224 218.742C752.957 218.795 751.729 218.808 750.396 218.808L750.568 219.772C751.518 219.758 752.442 219.732 753.485 219.706V221.118H754.646ZM755.808 216.366C755.808 217.013 755.082 217.343 754.118 217.343C753.155 217.343 752.442 217.013 752.442 216.366C752.442 215.719 753.142 215.363 754.118 215.363C755.122 215.363 755.808 215.719 755.808 216.366Z" fill="#222222"/>
<path d="M718.141 82.8368V81.8864H713.587V80.5928H718.484V79.6292H712.412V85.0148H714.775V86.8232C713.614 86.876 712.478 86.9024 711.515 86.9024L711.713 87.8924C712.676 87.8924 714.076 87.8396 715.343 87.7604C716.755 87.6812 718.234 87.5624 719.197 87.4304L719.105 86.5064C718.326 86.612 717.125 86.6912 715.924 86.7704V85.0148H718.537V84.0644H713.587V82.8368H718.141ZM721.045 90.1232V78.5864H719.884V90.1232H721.045ZM733.337 84.83V83.8928H731.608C731.833 82.6652 731.938 81.2132 731.938 79.3916H724.243V80.342H730.763C730.763 81.662 730.684 82.916 730.447 83.8928H722.923V84.83H733.337ZM732.255 89.714V88.7636H725.47V86.0576H724.309V89.714H732.255ZM745.089 84.368V83.3912H743.254V78.5864H742.079V90.1232H743.254V84.368H745.089ZM739.439 80.2892V79.3388H735.994V80.2892H739.439ZM741.115 82.2692V81.332H734.278V82.2692H741.115ZM740.469 85.358C740.469 83.972 739.386 82.916 737.749 82.916C736.113 82.916 735.017 83.9984 735.017 85.358C735.017 86.744 736.113 87.7736 737.749 87.7736C739.386 87.7736 740.469 86.7176 740.469 85.358ZM739.32 85.358C739.32 86.2028 738.7 86.7968 737.749 86.7968C736.839 86.7968 736.192 86.2028 736.192 85.358C736.192 84.5 736.852 83.8928 737.749 83.8928C738.647 83.8928 739.32 84.5 739.32 85.358ZM755.229 90.1232V78.5864H754.054V90.1232H755.229ZM751.85 79.814H746.293V80.804H750.583C750.372 83.2856 748.497 85.7012 745.778 87.008L746.491 87.8924C749.646 86.1764 751.784 83.4836 751.85 79.814Z" fill="white"/>
<path d="M126.943 82.4004H120.607V81.318L123.036 78.8496C123.511 78.3656 123.907 77.9476 124.224 77.5956C124.541 77.2348 124.778 76.8916 124.937 76.566C125.095 76.2316 125.174 75.8708 125.174 75.4836C125.174 75.0084 125.034 74.6476 124.752 74.4012C124.479 74.1548 124.114 74.0316 123.656 74.0316C123.225 74.0316 122.838 74.1108 122.495 74.2692C122.152 74.4276 121.795 74.6564 121.426 74.9556L120.673 74.0184C121.052 73.7016 121.483 73.4288 121.967 73.2C122.451 72.9624 123.027 72.8436 123.696 72.8436C124.585 72.8436 125.289 73.0724 125.808 73.53C126.327 73.9876 126.587 74.5992 126.587 75.3648C126.587 75.8664 126.486 76.3328 126.283 76.764C126.081 77.1952 125.795 77.622 125.425 78.0444C125.056 78.4668 124.62 78.9156 124.118 79.3908L122.363 81.0936V81.1596H126.943V82.4004ZM134.51 77.6748C134.51 78.6956 134.405 79.5668 134.194 80.2884C133.982 81.01 133.639 81.5644 133.164 81.9516C132.698 82.3388 132.082 82.5324 131.316 82.5324C130.234 82.5324 129.433 82.1056 128.914 81.252C128.403 80.3896 128.148 79.1972 128.148 77.6748C128.148 76.654 128.249 75.7828 128.452 75.0612C128.663 74.3396 129.002 73.7896 129.468 73.4112C129.934 73.024 130.55 72.8304 131.316 72.8304C132.39 72.8304 133.19 73.2572 133.718 74.1108C134.246 74.9556 134.51 76.1436 134.51 77.6748ZM129.547 77.6748C129.547 78.9068 129.679 79.8308 129.943 80.4468C130.207 81.054 130.665 81.3576 131.316 81.3576C131.958 81.3576 132.416 81.054 132.689 80.4468C132.962 79.8396 133.098 78.9156 133.098 77.6748C133.098 76.4516 132.962 75.5364 132.689 74.9292C132.416 74.3132 131.958 74.0052 131.316 74.0052C130.665 74.0052 130.207 74.3132 129.943 74.9292C129.679 75.5364 129.547 76.4516 129.547 77.6748ZM142.051 82.4004H135.715V81.318L138.144 78.8496C138.619 78.3656 139.015 77.9476 139.332 77.5956C139.649 77.2348 139.886 76.8916 140.045 76.566C140.203 76.2316 140.282 75.8708 140.282 75.4836C140.282 75.0084 140.141 74.6476 139.86 74.4012C139.587 74.1548 139.222 74.0316 138.764 74.0316C138.333 74.0316 137.946 74.1108 137.603 74.2692C137.259 74.4276 136.903 74.6564 136.533 74.9556L135.781 74.0184C136.159 73.7016 136.591 73.4288 137.075 73.2C137.559 72.9624 138.135 72.8436 138.804 72.8436C139.693 72.8436 140.397 73.0724 140.916 73.53C141.435 73.9876 141.695 74.5992 141.695 75.3648C141.695 75.8664 141.593 76.3328 141.391 76.764C141.189 77.1952 140.903 77.622 140.533 78.0444C140.163 78.4668 139.728 78.9156 139.226 79.3908L137.471 81.0936V81.1596H142.051V82.4004ZM147.572 82.4004H146.186V76.1436C146.186 75.8092 146.191 75.51 146.199 75.246C146.208 74.9732 146.221 74.7092 146.239 74.454C146.125 74.5772 146.006 74.6916 145.883 74.7972C145.759 74.9028 145.619 75.0216 145.46 75.1536L144.431 75.9852L143.718 75.0876L146.411 72.9756H147.572V82.4004ZM150.704 79.4568V78.2688H153.978V79.4568H150.704ZM161.426 77.6748C161.426 78.6956 161.32 79.5668 161.109 80.2884C160.898 81.01 160.555 81.5644 160.08 81.9516C159.613 82.3388 158.997 82.5324 158.232 82.5324C157.149 82.5324 156.348 82.1056 155.829 81.252C155.319 80.3896 155.064 79.1972 155.064 77.6748C155.064 76.654 155.165 75.7828 155.367 75.0612C155.578 74.3396 155.917 73.7896 156.384 73.4112C156.85 73.024 157.466 72.8304 158.232 72.8304C159.305 72.8304 160.106 73.2572 160.634 74.1108C161.162 74.9556 161.426 76.1436 161.426 77.6748ZM156.463 77.6748C156.463 78.9068 156.595 79.8308 156.859 80.4468C157.123 81.054 157.58 81.3576 158.232 81.3576C158.874 81.3576 159.332 81.054 159.604 80.4468C159.877 79.8396 160.014 78.9156 160.014 77.6748C160.014 76.4516 159.877 75.5364 159.604 74.9292C159.332 74.3132 158.874 74.0052 158.232 74.0052C157.58 74.0052 157.123 74.3132 156.859 74.9292C156.595 75.5364 156.463 76.4516 156.463 77.6748ZM168.597 75.1536C168.597 75.796 168.417 76.3064 168.056 76.6848C167.695 77.0632 167.22 77.314 166.63 77.4372V77.49C167.378 77.578 167.941 77.8156 168.32 78.2028C168.698 78.59 168.887 79.0916 168.887 79.7076C168.887 80.2532 168.755 80.7416 168.491 81.1728C168.236 81.5952 167.836 81.9296 167.29 82.176C166.753 82.4136 166.063 82.5324 165.218 82.5324C164.716 82.5324 164.25 82.4928 163.819 82.4136C163.387 82.3344 162.978 82.2024 162.591 82.0176V80.7504C162.987 80.9528 163.414 81.1068 163.871 81.2124C164.329 81.318 164.76 81.3708 165.165 81.3708C165.975 81.3708 166.551 81.2212 166.894 80.922C167.246 80.614 167.422 80.1872 167.422 79.6416C167.422 79.1136 167.211 78.7264 166.789 78.48C166.366 78.2336 165.733 78.1104 164.888 78.1104H164.03V76.962H164.901C165.702 76.962 166.283 76.8124 166.643 76.5132C167.004 76.214 167.185 75.8224 167.185 75.3384C167.185 74.916 167.044 74.5904 166.762 74.3616C166.489 74.124 166.093 74.0052 165.574 74.0052C165.09 74.0052 164.668 74.0844 164.307 74.2428C163.955 74.3924 163.625 74.5684 163.317 74.7708L162.631 73.8072C162.983 73.5432 163.405 73.3188 163.898 73.134C164.391 72.9404 164.963 72.8436 165.614 72.8436C166.591 72.8436 167.33 73.0592 167.831 73.4904C168.342 73.9128 168.597 74.4672 168.597 75.1536ZM170.066 79.4568V78.2688H173.339V79.4568H170.066ZM180.774 82.4004H174.438V81.318L176.867 78.8496C177.342 78.3656 177.738 77.9476 178.055 77.5956C178.372 77.2348 178.61 76.8916 178.768 76.566C178.926 76.2316 179.006 75.8708 179.006 75.4836C179.006 75.0084 178.865 74.6476 178.583 74.4012C178.31 74.1548 177.945 74.0316 177.488 74.0316C177.056 74.0316 176.669 74.1108 176.326 74.2692C175.983 74.4276 175.626 74.6564 175.257 74.9556L174.504 74.0184C174.883 73.7016 175.314 73.4288 175.798 73.2C176.282 72.9624 176.858 72.8436 177.527 72.8436C178.416 72.8436 179.12 73.0724 179.639 73.53C180.158 73.9876 180.418 74.5992 180.418 75.3648C180.418 75.8664 180.317 76.3328 180.114 76.764C179.912 77.1952 179.626 77.622 179.256 78.0444C178.887 78.4668 178.451 78.9156 177.95 79.3908L176.194 81.0936V81.1596H180.774V82.4004ZM188.685 80.3148H187.378V82.4004H186.018V80.3148H181.649V79.206L185.992 72.936H187.378V79.1268H188.685V80.3148ZM186.018 79.1268V76.566C186.018 76.1524 186.023 75.7652 186.032 75.4044C186.049 75.0348 186.067 74.7268 186.084 74.4804H186.032C185.961 74.6564 185.873 74.8368 185.768 75.0216C185.662 75.2064 185.561 75.3692 185.464 75.51L182.969 79.1268H186.018ZM124.91 101.4H123.524V95.1436C123.524 94.8092 123.529 94.51 123.538 94.246C123.546 93.9732 123.56 93.7092 123.577 93.454C123.463 93.5772 123.344 93.6916 123.221 93.7972C123.098 93.9028 122.957 94.0216 122.798 94.1536L121.769 94.9852L121.056 94.0876L123.749 91.9756H124.91V101.4ZM134.854 99.3148H133.547V101.4H132.187V99.3148H127.818V98.206L132.161 91.936H133.547V98.1268H134.854V99.3148ZM132.187 98.1268V95.566C132.187 95.1524 132.192 94.7652 132.2 94.4044C132.218 94.0348 132.236 93.7268 132.253 93.4804H132.2C132.13 93.6564 132.042 93.8368 131.936 94.0216C131.831 94.2064 131.73 94.3692 131.633 94.51L129.138 98.1268H132.187ZM136.005 95.0776C136.005 94.7168 136.093 94.466 136.269 94.3252C136.445 94.1844 136.657 94.114 136.903 94.114C137.149 94.114 137.361 94.1844 137.537 94.3252C137.721 94.466 137.814 94.7168 137.814 95.0776C137.814 95.412 137.721 95.654 137.537 95.8036C137.361 95.9532 137.149 96.028 136.903 96.028C136.657 96.028 136.445 95.9532 136.269 95.8036C136.093 95.654 136.005 95.412 136.005 95.0776ZM136.005 100.622C136.005 100.278 136.093 100.036 136.269 99.8956C136.445 99.7548 136.657 99.6844 136.903 99.6844C137.149 99.6844 137.361 99.7548 137.537 99.8956C137.721 100.036 137.814 100.278 137.814 100.622C137.814 100.965 137.721 101.211 137.537 101.361C137.361 101.51 137.149 101.585 136.903 101.585C136.657 101.585 136.445 101.51 136.269 101.361C136.093 101.211 136.005 100.965 136.005 100.622ZM145.291 94.1536C145.291 94.796 145.11 95.3064 144.75 95.6848C144.389 96.0632 143.914 96.314 143.324 96.4372V96.49C144.072 96.578 144.635 96.8156 145.014 97.2028C145.392 97.59 145.581 98.0916 145.581 98.7076C145.581 99.2532 145.449 99.7416 145.185 100.173C144.93 100.595 144.53 100.93 143.984 101.176C143.447 101.414 142.756 101.532 141.912 101.532C141.41 101.532 140.944 101.493 140.512 101.414C140.081 101.334 139.672 101.202 139.285 101.018V99.7504C139.681 99.9528 140.108 100.107 140.565 100.212C141.023 100.318 141.454 100.371 141.859 100.371C142.668 100.371 143.245 100.221 143.588 99.922C143.94 99.614 144.116 99.1872 144.116 98.6416C144.116 98.1136 143.905 97.7264 143.482 97.48C143.06 97.2336 142.426 97.1104 141.582 97.1104H140.724V95.962H141.595C142.396 95.962 142.976 95.8124 143.337 95.5132C143.698 95.214 143.878 94.8224 143.878 94.3384C143.878 93.916 143.738 93.5904 143.456 93.3616C143.183 93.124 142.787 93.0052 142.268 93.0052C141.784 93.0052 141.362 93.0844 141.001 93.2428C140.649 93.3924 140.319 93.5684 140.011 93.7708L139.324 92.8072C139.676 92.5432 140.099 92.3188 140.592 92.134C141.084 91.9404 141.656 91.8436 142.308 91.8436C143.284 91.8436 144.024 92.0592 144.525 92.4904C145.036 92.9128 145.291 93.4672 145.291 94.1536ZM153.214 101.4H146.878V100.318L149.307 97.8496C149.782 97.3656 150.178 96.9476 150.495 96.5956C150.812 96.2348 151.049 95.8916 151.208 95.566C151.366 95.2316 151.445 94.8708 151.445 94.4836C151.445 94.0084 151.305 93.6476 151.023 93.4012C150.75 93.1548 150.385 93.0316 149.927 93.0316C149.496 93.0316 149.109 93.1108 148.766 93.2692C148.423 93.4276 148.066 93.6564 147.697 93.9556L146.944 93.0184C147.323 92.7016 147.754 92.4288 148.238 92.2C148.722 91.9624 149.298 91.8436 149.967 91.8436C150.856 91.8436 151.56 92.0724 152.079 92.53C152.598 92.9876 152.858 93.5992 152.858 94.3648C152.858 94.8664 152.757 95.3328 152.554 95.764C152.352 96.1952 152.066 96.622 151.696 97.0444C151.327 97.4668 150.891 97.9156 150.389 98.3908L148.634 100.094V100.16H153.214V101.4ZM154.723 95.0776C154.723 94.7168 154.811 94.466 154.987 94.3252C155.163 94.1844 155.374 94.114 155.62 94.114C155.867 94.114 156.078 94.1844 156.254 94.3252C156.439 94.466 156.531 94.7168 156.531 95.0776C156.531 95.412 156.439 95.654 156.254 95.8036C156.078 95.9532 155.867 96.028 155.62 96.028C155.374 96.028 155.163 95.9532 154.987 95.8036C154.811 95.654 154.723 95.412 154.723 95.0776ZM154.723 100.622C154.723 100.278 154.811 100.036 154.987 99.8956C155.163 99.7548 155.374 99.6844 155.62 99.6844C155.867 99.6844 156.078 99.7548 156.254 99.8956C156.439 100.036 156.531 100.278 156.531 100.622C156.531 100.965 156.439 101.211 156.254 101.361C156.078 101.51 155.867 101.585 155.62 101.585C155.374 101.585 155.163 101.51 154.987 101.361C154.811 101.211 154.723 100.965 154.723 100.622ZM164.734 99.3148H163.427V101.4H162.068V99.3148H157.698V98.206L162.041 91.936H163.427V98.1268H164.734V99.3148ZM162.068 98.1268V95.566C162.068 95.1524 162.072 94.7652 162.081 94.4044C162.098 94.0348 162.116 93.7268 162.134 93.4804H162.081C162.01 93.6564 161.922 93.8368 161.817 94.0216C161.711 94.2064 161.61 94.3692 161.513 94.51L159.018 98.1268H162.068ZM171.945 96.6748C171.945 97.6956 171.839 98.5668 171.628 99.2884C171.417 100.01 171.073 100.564 170.598 100.952C170.132 101.339 169.516 101.532 168.75 101.532C167.668 101.532 166.867 101.106 166.348 100.252C165.837 99.3896 165.582 98.1972 165.582 96.6748C165.582 95.654 165.683 94.7828 165.886 94.0612C166.097 93.3396 166.436 92.7896 166.902 92.4112C167.369 92.024 167.985 91.8304 168.75 91.8304C169.824 91.8304 170.625 92.2572 171.153 93.1108C171.681 93.9556 171.945 95.1436 171.945 96.6748ZM166.981 96.6748C166.981 97.9068 167.113 98.8308 167.377 99.4468C167.641 100.054 168.099 100.358 168.75 100.358C169.393 100.358 169.85 100.054 170.123 99.4468C170.396 98.8396 170.532 97.9156 170.532 96.6748C170.532 95.4516 170.396 94.5364 170.123 93.9292C169.85 93.3132 169.393 93.0052 168.75 93.0052C168.099 93.0052 167.641 93.3132 167.377 93.9292C167.113 94.5364 166.981 95.4516 166.981 96.6748Z" fill="#222222"/>
<path d="M126.943 220.4H120.607V219.318L123.036 216.85C123.511 216.366 123.907 215.948 124.224 215.596C124.541 215.235 124.778 214.892 124.937 214.566C125.095 214.232 125.174 213.871 125.174 213.484C125.174 213.008 125.034 212.648 124.752 212.401C124.479 212.155 124.114 212.032 123.656 212.032C123.225 212.032 122.838 212.111 122.495 212.269C122.152 212.428 121.795 212.656 121.426 212.956L120.673 212.018C121.052 211.702 121.483 211.429 121.967 211.2C122.451 210.962 123.027 210.844 123.696 210.844C124.585 210.844 125.289 211.072 125.808 211.53C126.327 211.988 126.587 212.599 126.587 213.365C126.587 213.866 126.486 214.333 126.283 214.764C126.081 215.195 125.795 215.622 125.425 216.044C125.056 216.467 124.62 216.916 124.118 217.391L122.363 219.094V219.16H126.943V220.4ZM134.51 215.675C134.51 216.696 134.405 217.567 134.194 218.288C133.982 219.01 133.639 219.564 133.164 219.952C132.698 220.339 132.082 220.532 131.316 220.532C130.234 220.532 129.433 220.106 128.914 219.252C128.403 218.39 128.148 217.197 128.148 215.675C128.148 214.654 128.249 213.783 128.452 213.061C128.663 212.34 129.002 211.79 129.468 211.411C129.934 211.024 130.55 210.83 131.316 210.83C132.39 210.83 133.19 211.257 133.718 212.111C134.246 212.956 134.51 214.144 134.51 215.675ZM129.547 215.675C129.547 216.907 129.679 217.831 129.943 218.447C130.207 219.054 130.665 219.358 131.316 219.358C131.958 219.358 132.416 219.054 132.689 218.447C132.962 217.84 133.098 216.916 133.098 215.675C133.098 214.452 132.962 213.536 132.689 212.929C132.416 212.313 131.958 212.005 131.316 212.005C130.665 212.005 130.207 212.313 129.943 212.929C129.679 213.536 129.547 214.452 129.547 215.675ZM142.051 220.4H135.715V219.318L138.144 216.85C138.619 216.366 139.015 215.948 139.332 215.596C139.649 215.235 139.886 214.892 140.045 214.566C140.203 214.232 140.282 213.871 140.282 213.484C140.282 213.008 140.141 212.648 139.86 212.401C139.587 212.155 139.222 212.032 138.764 212.032C138.333 212.032 137.946 212.111 137.603 212.269C137.259 212.428 136.903 212.656 136.533 212.956L135.781 212.018C136.159 211.702 136.591 211.429 137.075 211.2C137.559 210.962 138.135 210.844 138.804 210.844C139.693 210.844 140.397 211.072 140.916 211.53C141.435 211.988 141.695 212.599 141.695 213.365C141.695 213.866 141.593 214.333 141.391 214.764C141.189 215.195 140.903 215.622 140.533 216.044C140.163 216.467 139.728 216.916 139.226 217.391L137.471 219.094V219.16H142.051V220.4ZM149.618 215.675C149.618 216.696 149.513 217.567 149.301 218.288C149.09 219.01 148.747 219.564 148.272 219.952C147.805 220.339 147.189 220.532 146.424 220.532C145.341 220.532 144.541 220.106 144.021 219.252C143.511 218.39 143.256 217.197 143.256 215.675C143.256 214.654 143.357 213.783 143.559 213.061C143.771 212.34 144.109 211.79 144.576 211.411C145.042 211.024 145.658 210.83 146.424 210.83C147.497 210.83 148.298 211.257 148.826 212.111C149.354 212.956 149.618 214.144 149.618 215.675ZM144.655 215.675C144.655 216.907 144.787 217.831 145.051 218.447C145.315 219.054 145.773 219.358 146.424 219.358C147.066 219.358 147.524 219.054 147.797 218.447C148.069 217.84 148.206 216.916 148.206 215.675C148.206 214.452 148.069 213.536 147.797 212.929C147.524 212.313 147.066 212.005 146.424 212.005C145.773 212.005 145.315 212.313 145.051 212.929C144.787 213.536 144.655 214.452 144.655 215.675ZM160.485 220.994V220.057H153.872V217.523H152.71V220.994H160.485ZM157.159 216.15C157.119 215.833 157.053 215.53 156.987 215.226C155.667 215.503 154.03 215.609 152.486 215.609V210.593H151.338V216.599C151.786 216.599 152.262 216.599 152.75 216.586C154.176 216.559 155.984 216.401 157.159 216.15ZM159.007 212.362V213.51H155.469V214.447H159.007V218.156H160.182V209.788H159.007V211.438H155.469V212.362H159.007ZM172.022 215.675C172.022 216.696 171.916 217.567 171.705 218.288C171.494 219.01 171.151 219.564 170.676 219.952C170.209 220.339 169.593 220.532 168.828 220.532C167.745 220.532 166.944 220.106 166.425 219.252C165.915 218.39 165.66 217.197 165.66 215.675C165.66 214.654 165.761 213.783 165.963 213.061C166.174 212.34 166.513 211.79 166.98 211.411C167.446 211.024 168.062 210.83 168.828 210.83C169.901 210.83 170.702 211.257 171.23 212.111C171.758 212.956 172.022 214.144 172.022 215.675ZM167.059 215.675C167.059 216.907 167.191 217.831 167.455 218.447C167.719 219.054 168.176 219.358 168.828 219.358C169.47 219.358 169.928 219.054 170.2 218.447C170.473 217.84 170.61 216.916 170.61 215.675C170.61 214.452 170.473 213.536 170.2 212.929C169.928 212.313 169.47 212.005 168.828 212.005C168.176 212.005 167.719 212.313 167.455 212.929C167.191 213.536 167.059 214.452 167.059 215.675ZM179.193 213.154C179.193 213.796 179.013 214.306 178.652 214.685C178.291 215.063 177.816 215.314 177.226 215.437V215.49C177.974 215.578 178.538 215.816 178.916 216.203C179.294 216.59 179.484 217.092 179.484 217.708C179.484 218.253 179.352 218.742 179.088 219.173C178.832 219.595 178.432 219.93 177.886 220.176C177.35 220.414 176.659 220.532 175.814 220.532C175.312 220.532 174.846 220.493 174.415 220.414C173.984 220.334 173.574 220.202 173.187 220.018V218.75C173.583 218.953 174.01 219.107 174.468 219.212C174.925 219.318 175.356 219.371 175.761 219.371C176.571 219.371 177.147 219.221 177.49 218.922C177.842 218.614 178.018 218.187 178.018 217.642C178.018 217.114 177.807 216.726 177.385 216.48C176.962 216.234 176.329 216.11 175.484 216.11H174.626V214.962H175.497C176.298 214.962 176.879 214.812 177.24 214.513C177.6 214.214 177.781 213.822 177.781 213.338C177.781 212.916 177.64 212.59 177.358 212.362C177.086 212.124 176.69 212.005 176.17 212.005C175.686 212.005 175.264 212.084 174.903 212.243C174.551 212.392 174.221 212.568 173.913 212.771L173.227 211.807C173.579 211.543 174.001 211.319 174.494 211.134C174.987 210.94 175.559 210.844 176.21 210.844C177.187 210.844 177.926 211.059 178.428 211.49C178.938 211.913 179.193 212.467 179.193 213.154ZM190.654 221.311V220.427H183.526V219.622H190.219V217.166H182.351V218.038H189.057V218.816H182.351V221.311H190.654ZM187.156 211.966C187.156 210.751 185.915 210.052 184.292 210.052C182.668 210.052 181.414 210.778 181.414 211.952C181.414 213.167 182.668 213.866 184.292 213.866C185.915 213.866 187.156 213.167 187.156 211.966ZM190.219 216.704V209.788H189.07V215.411H186.602V216.242H189.07V216.704H190.219ZM184.82 216.718V215.239C186.061 215.16 187.407 215.054 188.212 214.949L188.107 214.078C187.011 214.21 185.876 214.276 184.397 214.342C183.13 214.394 181.903 214.408 180.569 214.408L180.741 215.371C181.691 215.358 182.615 215.332 183.658 215.305V216.718H184.82ZM185.981 211.966C185.981 212.612 185.255 212.942 184.292 212.942C183.328 212.942 182.615 212.612 182.615 211.966C182.615 211.319 183.315 210.962 184.292 210.962C185.295 210.962 185.981 211.319 185.981 211.966Z" fill="#222222"/>
<path d="M130.045 149.524V137.987H128.884V149.524H130.045ZM127.511 145.88C125.914 144.956 124.62 143.082 124.62 140.917V139.003H123.406V140.97C123.406 143.095 122.178 145.102 120.449 146.197L121.175 147.055C122.482 146.197 123.617 144.732 124.026 143.32C124.448 144.666 125.782 146.039 126.811 146.752L127.511 145.88ZM138.655 146.356C137.189 145.696 135.817 144.164 135.817 141.947V141.67H138.364V140.719H132.041V141.67H134.615V141.96C134.615 144.178 133.229 145.854 131.632 146.672L132.385 147.517C133.665 146.844 134.906 145.392 135.223 144.178C135.579 145.366 136.82 146.659 137.968 147.24L138.655 146.356ZM142.641 143.663V142.686H140.833V137.987H139.671V149.524H140.833V143.663H142.641ZM136.899 139.676V138.713H133.493V139.676H136.899ZM152.874 149.299V148.388H145.799V147.583H152.491V145.088H149.112V144.244H153.759V143.333H143.344V144.244H147.937V145.088H144.585V145.999H151.33V146.738H144.624V149.299H152.874ZM153.244 141.973C151.66 141.92 149.851 141.313 149.297 140.495H152.663V139.584H144.426V140.495H147.819C147.291 141.326 145.522 141.934 143.845 141.973L144.36 142.924C146.261 142.739 147.99 142.013 148.545 141.089C149.152 141.986 150.881 142.712 152.755 142.924L153.244 141.973ZM150.406 138.911V137.987H146.67V138.911H150.406ZM161.404 142.237V141.287H156.85V139.993H161.748V139.03H155.676V144.415H158.038V146.224C156.877 146.276 155.742 146.303 154.778 146.303L154.976 147.293C155.94 147.293 157.339 147.24 158.606 147.161C160.018 147.082 161.497 146.963 162.46 146.831L162.368 145.907C161.589 146.012 160.388 146.092 159.187 146.171V144.415H161.8V143.465H156.85V142.237H161.404ZM164.308 149.524V137.987H163.147V149.524H164.308ZM176.601 144.23V143.293H174.872C175.096 142.066 175.202 140.614 175.202 138.792H167.506V139.742H174.027C174.027 141.062 173.948 142.316 173.71 143.293H166.186V144.23H176.601ZM175.518 149.114V148.164H168.734V145.458H167.572V149.114H175.518ZM183.494 146.039C182.24 145.273 181.039 143.702 181.039 141.34V140.297H183.164V139.36H177.647V140.297H179.891V141.379C179.891 143.636 178.835 145.379 177.396 146.303L178.135 147.108C179.191 146.395 180.207 145.088 180.458 143.874C180.775 145.022 181.989 146.342 182.795 146.87L183.494 146.039ZM185.065 148.956V138.251H183.956V142.132H182.24V143.095H183.956V148.956H185.065ZM187.349 149.524V137.987H186.227V149.524H187.349ZM191.563 149.392H192.553C191.378 148.072 190.401 146.012 190.401 144.019V143.676C190.401 141.617 191.378 139.716 192.553 138.409H191.563C190.309 139.637 189.239 141.458 189.239 143.782V144.006C189.239 146.316 190.309 148.164 191.563 149.392ZM193.811 148.045H196.781C198.814 148.045 199.817 146.989 199.817 145.524C199.817 144.244 199.105 143.597 197.996 143.386V143.333C199.065 142.99 199.448 142.303 199.448 141.419C199.448 140.02 198.629 139.175 196.557 139.175H193.811V148.045ZM194.973 147.068V143.927H196.636C197.89 143.927 198.603 144.349 198.603 145.471C198.603 146.54 197.956 147.068 196.715 147.068H194.973ZM194.973 142.99V140.178H196.465C197.613 140.178 198.233 140.482 198.233 141.577C198.233 142.673 197.428 142.99 196.359 142.99H194.973ZM210.418 147.517C210.418 146.263 209.032 145.498 206.537 145.498C204.042 145.498 202.696 146.25 202.696 147.517C202.696 148.784 204.042 149.524 206.537 149.524C209.032 149.524 210.418 148.784 210.418 147.517ZM206.537 146.408C208.227 146.408 209.204 146.831 209.204 147.517C209.204 148.217 208.227 148.626 206.537 148.626C204.861 148.626 203.897 148.204 203.897 147.517C203.897 146.844 204.861 146.408 206.537 146.408ZM207.382 141.986H209.177V143.201H207.382V144.125H209.177V145.392H210.352V137.987H209.177V141.049H207.382V141.986ZM205.864 139.096V138.145H202.511V139.096H205.864ZM207.171 140.759V139.822H200.901V140.759H207.171ZM206.814 143.148C206.814 141.973 205.666 141.234 204.148 141.234C202.604 141.234 201.482 141.973 201.482 143.148C201.482 144.31 202.617 145.049 204.148 145.049C205.666 145.049 206.814 144.296 206.814 143.148ZM205.653 143.148C205.653 143.755 204.953 144.151 204.148 144.151C203.343 144.151 202.63 143.755 202.63 143.148C202.63 142.528 203.343 142.132 204.148 142.132C204.953 142.132 205.653 142.528 205.653 143.148ZM211.952 149.392H212.955C214.209 148.164 215.292 146.329 215.292 144.006V143.782C215.292 141.472 214.209 139.637 212.955 138.409H211.952C213.153 139.729 214.117 141.788 214.117 143.768V144.125C214.117 146.184 213.153 148.085 211.952 149.392Z" fill="#222222"/>
<path d="M239.832 83.2992V82.3884H232.757V81.5832H239.449V79.0884H236.07V78.2436H240.716V77.3328H230.302V78.2436H234.895V79.0884H231.542V79.9992H238.288V80.7384H231.582V83.2992H239.832ZM240.202 75.9732C238.618 75.9204 236.809 75.3132 236.255 74.4948H239.621V73.584H231.384V74.4948H234.776C234.248 75.3264 232.48 75.9336 230.803 75.9732L231.318 76.9236C233.219 76.7388 234.948 76.0128 235.502 75.0888C236.11 75.9864 237.839 76.7124 239.713 76.9236L240.202 75.9732ZM237.364 72.9108V71.9868H233.628V72.9108H237.364ZM252.138 78.2304V77.2932H250.408C250.633 76.0656 250.738 74.6136 250.738 72.792H243.043V73.7424H249.564C249.564 75.0624 249.484 76.3164 249.247 77.2932H241.723V78.2304H252.138ZM251.055 83.1144V82.164H244.27V79.458H243.109V83.1144H251.055Z" fill="#222222"/>
<path d="M296.941 76.2372V75.2868H292.387V73.9932H297.284V73.0296H291.212V78.4152H293.575V80.2236C292.414 80.2764 291.278 80.3028 290.315 80.3028L290.513 81.2928C291.476 81.2928 292.876 81.24 294.143 81.1608C295.555 81.0816 297.034 80.9628 297.997 80.8308L297.905 79.9068C297.126 80.0124 295.925 80.0916 294.724 80.1708V78.4152H297.337V77.4648H292.387V76.2372H296.941ZM299.845 83.5236V71.9868H298.684V83.5236H299.845ZM312.138 78.2304V77.2932H310.408C310.633 76.0656 310.738 74.6136 310.738 72.792H303.043V73.7424H309.564C309.564 75.0624 309.484 76.3164 309.247 77.2932H301.723V78.2304H312.138ZM311.055 83.1144V82.164H304.27V79.458H303.109V83.1144H311.055Z" fill="#222222"/>
</g>
<g filter="url(#filter1_d)">
<rect x="34" y="460" width="820" height="28" rx="6" fill="#DDDDDD"/>
</g>
<defs>
<filter id="filter0_d" x="50" y="0" width="780" height="510" filterUnits="userSpaceOnUse" color-interpolation-filters="sRGB">
<feFlood flood-opacity="0" result="BackgroundImageFix"/>
<feColorMatrix in="SourceAlpha" type="matrix" values="0 0 0 0 0 0 0 0 0 0 0 0 0 0 0 0 0 0 127 0"/>
<feOffset dx="-4" dy="10"/>
<feGaussianBlur stdDeviation="15"/>
<feColorMatrix type="matrix" values="0 0 0 0 0 0 0 0 0 0 0 0 0 0 0 0 0 0 0.16 0"/>
<feBlend mode="normal" in2="BackgroundImageFix" result="effect1_dropShadow"/>
<feBlend mode="normal" in="SourceGraphic" in2="effect1_dropShadow" result="shape"/>
</filter>
<filter id="filter1_d" x="0" y="440" width="880" height="88" filterUnits="userSpaceOnUse" color-interpolation-filters="sRGB">
<feFlood flood-opacity="0" result="BackgroundImageFix"/>
<feColorMatrix in="SourceAlpha" type="matrix" values="0 0 0 0 0 0 0 0 0 0 0 0 0 0 0 0 0 0 127 0"/>
<feOffset dx="-4" dy="10"/>
<feGaussianBlur stdDeviation="15"/>
<feColorMatrix type="matrix" values="0 0 0 0 0 0 0 0 0 0 0 0 0 0 0 0 0 0 0.16 0"/>
<feBlend mode="normal" in2="BackgroundImageFix" result="effect1_dropShadow"/>
<feBlend mode="normal" in="SourceGraphic" in2="effect1_dropShadow" result="shape"/>
</filter>
</defs>
</svg>
