<svg width="134" height="135" viewBox="0 0 134 135" fill="none" xmlns="http://www.w3.org/2000/svg">
<rect y="0.523438" width="134" height="134" rx="8" fill="white"/>
<rect x="26" y="33.5234" width="82" height="74" rx="10" fill="#BBBBBB"/>
<rect x="26" y="32.5234" width="82" height="74" rx="10" fill="#D9D9D9"/>
<rect x="26" y="30.5234" width="82" height="74" rx="10" fill="white"/>
<rect x="26.5" y="31.0234" width="81" height="73" rx="9.5" stroke="black" stroke-opacity="0.08"/>
<path d="M26 40.5234C26 35.0006 30.4772 30.5234 36 30.5234H98C103.523 30.5234 108 35.0006 108 40.5234V46.5234H26V40.5234Z" fill="#4672E4"/>
<path d="M51.707 71.8047H54.7148C56.1471 71.8047 57.2083 71.4466 57.8984 70.7305C58.5885 70.0143 58.9336 69.0638 58.9336 67.8789C58.9336 66.7331 58.5885 65.8411 57.8984 65.2031C57.2214 64.5651 56.2839 64.2461 55.0859 64.2461C54.0052 64.2461 53.1003 64.5456 52.3711 65.1445C51.6419 65.7305 51.2773 66.4987 51.2773 67.4492H45.6328C45.6328 65.9648 46.0299 64.6367 46.8242 63.4648C47.6315 62.2799 48.7513 61.3555 50.1836 60.6914C51.6289 60.0273 53.2174 59.6953 54.9492 59.6953C57.957 59.6953 60.3138 60.418 62.0195 61.8633C63.7253 63.2956 64.5781 65.2747 64.5781 67.8008C64.5781 69.1029 64.181 70.3008 63.3867 71.3945C62.5924 72.4883 61.5508 73.3281 60.2617 73.9141C61.8633 74.487 63.0547 75.3464 63.8359 76.4922C64.6302 77.638 65.0273 78.9922 65.0273 80.5547C65.0273 83.0807 64.1029 85.1055 62.2539 86.6289C60.418 88.1523 57.9831 88.9141 54.9492 88.9141C52.1107 88.9141 49.7865 88.1654 47.9766 86.668C46.1797 85.1706 45.2812 83.1914 45.2812 80.7305H50.9258C50.9258 81.7982 51.3229 82.6706 52.1172 83.3477C52.9245 84.0247 53.9141 84.3633 55.0859 84.3633C56.4271 84.3633 57.4753 84.0117 58.2305 83.3086C58.9987 82.5924 59.3828 81.6484 59.3828 80.4766C59.3828 77.638 57.8203 76.2188 54.6953 76.2188H51.707V71.8047ZM88.0742 76.7656C88.0742 80.6979 87.2604 83.7057 85.6328 85.7891C84.0052 87.8724 81.6224 88.9141 78.4844 88.9141C75.3854 88.9141 73.0156 87.8919 71.375 85.8477C69.7344 83.8034 68.8945 80.8737 68.8555 77.0586V71.8242C68.8555 67.8529 69.6758 64.8385 71.3164 62.7812C72.9701 60.724 75.3464 59.6953 78.4453 59.6953C81.5443 59.6953 83.9141 60.7174 85.5547 62.7617C87.1953 64.793 88.0352 67.7161 88.0742 71.5312V76.7656ZM82.4297 71.0234C82.4297 68.6667 82.1042 66.9544 81.4531 65.8867C80.8151 64.806 79.8125 64.2656 78.4453 64.2656C77.1172 64.2656 76.1341 64.7799 75.4961 65.8086C74.8711 66.8242 74.5391 68.4193 74.5 70.5938V77.5078C74.5 79.8255 74.8125 81.5508 75.4375 82.6836C76.0755 83.8034 77.0911 84.3633 78.4844 84.3633C79.8646 84.3633 80.8607 83.8229 81.4727 82.7422C82.0846 81.6615 82.4036 80.0078 82.4297 77.7812V71.0234Z" fill="#4672E4"/>
<rect x="48" y="27.5234" width="5" height="12" rx="2.5" fill="#E7E7E7"/>
<rect x="80" y="27.5234" width="5" height="12" rx="2.5" fill="#E7E7E7"/>
</svg>
