<svg width="134" height="135" viewBox="0 0 134 135" fill="none" xmlns="http://www.w3.org/2000/svg">
<rect y="0.523438" width="134" height="134" rx="8" fill="white"/>
<path d="M110.225 57.6907C106.102 38.7447 83.3825 27.6035 59.4724 32.7995C35.5622 37.9955 19.5268 57.5721 23.6448 76.5127C27.7628 95.4532 50.4872 106.605 74.392 101.404C98.2968 96.2024 114.343 76.6528 110.225 57.6907ZM66.9376 84.5654C63.4836 84.5654 60.1071 83.5411 57.2352 81.6222C54.3633 79.7033 52.125 76.9758 50.8032 73.7847C49.4814 70.5937 49.1356 67.0823 49.8094 63.6947C50.4833 60.307 52.1465 57.1953 54.5889 54.753C57.0312 52.3106 60.1429 50.6474 63.5306 49.9735C66.9182 49.2997 70.4296 49.6455 73.6206 50.9673C76.8117 52.2891 79.5392 54.5275 81.4581 57.3994C83.377 60.2712 84.4013 63.6477 84.4013 67.1017C84.4013 69.395 83.9495 71.6659 83.0719 73.7847C82.1943 75.9035 80.9079 77.8287 79.2863 79.4504C77.6646 81.072 75.7394 82.3584 73.6206 83.236C71.5018 84.1137 69.2309 84.5654 66.9376 84.5654Z" fill="#008C99"/>
<path d="M70.7968 42.6523C65.8378 42.6534 60.9905 44.1249 56.8677 46.8808C52.7449 49.6366 49.5319 53.5531 47.6349 58.1349C45.7379 62.7168 45.2421 67.7582 46.2102 72.6218C47.1784 77.4855 49.5669 81.9528 53.0738 85.459C56.5808 88.9651 61.0486 91.3527 65.9124 92.3198C70.7762 93.2869 75.8176 92.79 80.399 90.892C84.9805 88.994 88.8962 85.7802 91.6512 81.6568C94.4062 77.5335 95.8766 72.6858 95.8766 67.7268C95.8766 64.4335 95.2279 61.1725 93.9674 58.13C92.707 55.0874 90.8596 52.323 88.5306 49.9946C86.2017 47.6661 83.4368 45.8193 80.394 44.5595C77.3513 43.2997 74.0901 42.6516 70.7968 42.6523ZM66.9322 82.3553C63.9153 82.3553 60.9661 81.4607 58.4576 79.7846C55.9492 78.1085 53.994 75.7262 52.8395 72.9389C51.685 70.1516 51.3829 67.0846 51.9715 64.1257C52.5601 61.1667 54.0128 58.4487 56.1461 56.3155C58.2794 54.1822 60.9974 52.7294 63.9563 52.1408C66.9153 51.5523 69.9823 51.8543 72.7695 53.0089C75.5568 54.1634 77.9391 56.1185 79.6152 58.627C81.2913 61.1354 82.186 64.0846 82.186 67.1015C82.186 71.1461 80.5796 75.0252 77.7201 77.8857C74.8607 80.7462 70.9822 82.3539 66.9376 82.3553H66.9322Z" fill="#70CCD3"/>
</svg>
