<svg width="134" height="135" viewBox="0 0 134 135" fill="none" xmlns="http://www.w3.org/2000/svg">
<rect y="0.523438" width="134" height="134" rx="8" fill="white"/>
<g clip-path="url(#clip0)">
<path d="M68.5243 105.014L83.7963 57.7207H53.252L68.524 105.014H68.5243Z" fill="#E24329"/>
<path d="M68.5243 105.014L53.252 57.7207H31.849L68.5243 105.014Z" fill="#FC6D26"/>
<path d="M31.849 57.7207L27.2081 72.0929C27.0018 72.7319 27.0018 73.4201 27.208 74.0591C27.4143 74.698 27.8164 75.2549 28.3565 75.6498L68.5243 105.014L31.8487 57.721L31.849 57.7207Z" fill="#FCA326"/>
<path d="M31.849 57.7214H53.252L44.0542 29.2369C43.5809 27.7711 41.5201 27.7715 41.0471 29.2369L31.849 57.7214Z" fill="#E24329"/>
<path d="M68.5244 105.014L83.7964 57.7207H105.2L68.524 105.014H68.5244Z" fill="#FC6D26"/>
<path d="M105.2 57.7207L109.84 72.0929C110.047 72.7319 110.047 73.4202 109.84 74.0591C109.634 74.6981 109.232 75.2549 108.692 75.6498L68.5243 105.014L105.2 57.721V57.7207Z" fill="#FCA326"/>
<path d="M105.2 57.7214H83.7964L92.9945 29.2369C93.4678 27.7711 95.5286 27.7715 96.0016 29.2369L105.2 57.7214Z" fill="#E24329"/>
</g>
<defs>
<clipPath id="clip0">
<rect width="83" height="77" fill="white" transform="translate(27 28)"/>
</clipPath>
</defs>
</svg>
