<svg width="720" height="450" viewBox="0 0 720 450" fill="none" xmlns="http://www.w3.org/2000/svg">
<path fill-rule="evenodd" clip-rule="evenodd" d="M0 7.99903C0 3.58076 3.58172 -0.000976562 8 -0.000976562H712C716.418 -0.000976562 720 3.58075 720 7.99902V441.999C720 446.417 716.418 449.999 712 449.999H8.00002C3.58174 449.999 0 446.417 0 441.999V7.99903ZM47 99.999C47 95.5807 50.5817 91.999 55 91.999H173C177.418 91.999 181 95.5807 181 99.999V217.999C181 222.417 177.418 225.999 173 225.999H55C50.5817 225.999 47 222.417 47 217.999V99.999ZM383 255.999C378.582 255.999 375 259.581 375 263.999V381.999C375 386.417 378.582 389.999 383 389.999H501C505.418 389.999 509 386.417 509 381.999V263.999C509 259.581 505.418 255.999 501 255.999H383ZM375 99.999C375 95.5807 378.582 91.999 383 91.999H501C505.418 91.999 509 95.5807 509 99.999V217.999C509 222.417 505.418 225.999 501 225.999H383C378.582 225.999 375 222.417 375 217.999V99.999ZM547 91.999C542.582 91.999 539 95.5807 539 99.999V217.999C539 222.417 542.582 225.999 547 225.999H665C669.418 225.999 673 222.417 673 217.999V99.999C673 95.5807 669.418 91.999 665 91.999H547ZM211 263.999C211 259.581 214.582 255.999 219 255.999H337C341.418 255.999 345 259.581 345 263.999V381.999C345 386.417 341.418 389.999 337 389.999H219C214.582 389.999 211 386.417 211 381.999V263.999ZM55 255.999C50.5817 255.999 47 259.581 47 263.999V381.999C47 386.417 50.5817 389.999 55 389.999H173C177.418 389.999 181 386.417 181 381.999V263.999C181 259.581 177.418 255.999 173 255.999H55ZM539 263.999C539 259.581 542.582 255.999 547 255.999H665C669.418 255.999 673 259.581 673 263.999V381.999C673 386.417 669.418 389.999 665 389.999H547C542.582 389.999 539 386.417 539 381.999V263.999ZM219 91.999C214.582 91.999 211 95.5807 211 99.999V217.999C211 222.417 214.582 225.999 219 225.999H337C341.418 225.999 345 222.417 345 217.999V99.999C345 95.5807 341.418 91.999 337 91.999H219Z" fill="white"/>
</svg>
