<svg width="45" height="47" viewBox="0 0 45 47" fill="none" xmlns="http://www.w3.org/2000/svg">
<path d="M9.375 22.5312C14.75 22.5312 17.9688 18.3125 17.9688 11.5625V11.5312C17.9688 4.78125 14.75 0.5625 9.375 0.5625C4.03125 0.5625 0.78125 4.78125 0.78125 11.5312V11.5625C0.78125 18.3125 4.03125 22.5312 9.375 22.5312ZM10.3125 46L39.1875 0.90625H35.3125L6.40625 46H10.3125ZM9.375 19.625C6.0625 19.625 4.125 16.5938 4.125 11.5625V11.5312C4.125 6.5 6.0625 3.46875 9.375 3.46875C12.6875 3.46875 14.625 6.46875 14.625 11.5312V11.5625C14.625 16.5938 12.6875 19.625 9.375 19.625ZM36.1875 46.3438C41.5625 46.3438 44.7812 42.125 44.7812 35.3438V35.3125C44.7812 28.5625 41.5625 24.3438 36.1875 24.3438C30.8438 24.3438 27.5938 28.5625 27.5938 35.3125V35.3438C27.5938 42.125 30.8438 46.3438 36.1875 46.3438ZM36.1875 43.4375C32.875 43.4375 30.9375 40.4062 30.9375 35.375V35.3125C30.9375 30.2812 32.875 27.2812 36.1875 27.2812C39.5 27.2812 41.4375 30.2812 41.4375 35.3125V35.375C41.4375 40.4062 39.5 43.4375 36.1875 43.4375Z" fill="white"/>
</svg>
