<svg width="567" height="504" viewBox="0 0 567 504" fill="none" xmlns="http://www.w3.org/2000/svg">
<path d="M384.903 207.996H280.841V214.091H384.903V207.996Z" fill="#EEEEEE"/>
<path d="M319.743 465.869L298.039 476.578L283.249 450.832L308.306 438.473L319.743 465.869Z" fill="white"/>
<path d="M292.593 472.55C292.684 487.899 298.845 498.569 302.328 503.365L310.58 503.3L380.046 469.015C382.073 468.015 382.697 465.402 381.333 463.57C378.681 460.009 375.12 457.215 372.443 455.408C370.143 453.861 367.31 453.368 364.658 454.095C361.162 455.057 355.457 456.773 347.945 459.606C334.871 464.532 323.642 455.72 323.642 455.72C323.642 455.72 315.363 457.345 315.961 466.26C315.961 466.26 309.736 470.666 302.406 471.355C296.544 471.913 292.593 472.55 292.593 472.55Z" fill="#30110C"/>
<path d="M276.855 310.535L314.649 447.712L282.431 460.111L231.186 327.093L276.855 310.535Z" fill="#30110C"/>
<path d="M68.7959 331.785L45.6753 268.207" stroke="#4C2820" stroke-miterlimit="10" stroke-linecap="round" stroke-linejoin="round"/>
<path d="M49.6195 260C51.158 264.23 48.0255 268.703 43.5245 268.703C40.7977 268.703 38.3621 266.997 37.4298 264.435L4.13755 172.935C2.59718 168.701 5.73229 164.225 10.2373 164.225C12.9667 164.225 15.4044 165.932 16.3374 168.497L49.6195 260Z" fill="#4C2820"/>
<path d="M522.134 214.09H225.448C222.329 214.09 219.801 216.618 219.801 219.737C219.801 222.855 222.329 225.384 225.448 225.384H522.134C525.253 225.384 527.781 222.855 527.781 219.737C527.781 216.618 525.253 214.09 522.134 214.09Z" fill="#4C2820"/>
<path d="M40.1909 503.299L71.6292 341.857" stroke="#4C2820" stroke-miterlimit="10" stroke-linecap="round" stroke-linejoin="round"/>
<path d="M231.186 503.299L199.748 341.857" stroke="#4C2820" stroke-miterlimit="10" stroke-linecap="round" stroke-linejoin="round"/>
<path d="M565.617 503.298L510.408 225.383" stroke="#4C2820" stroke-miterlimit="10" stroke-linecap="round" stroke-linejoin="round"/>
<path d="M201.749 330.266H69.6279C66.4267 330.266 63.8315 332.861 63.8315 336.062C63.8315 339.263 66.4267 341.858 69.6279 341.858H201.749C204.951 341.858 207.546 339.263 207.546 336.062C207.546 332.861 204.951 330.266 201.749 330.266Z" fill="#4C2820"/>
<path d="M192.968 32.5C192.968 28.9 190.968 25.3333 189.968 24L162.468 22L144.968 37.5L137.968 63.5L128.968 77.5L158.468 99.5L166.968 84.5C170.801 86 179.968 88.3 185.968 85.5C193.468 82 193.968 72.5 193.968 70.5C193.968 68.5 193.968 66 195.968 64C197.968 62 199.968 60.5 199.968 58.5C199.968 56.5 194.468 50.5 192.968 48.5C191.468 46.5 192.968 37 192.968 32.5Z" fill="#884226"/>
<path d="M143.967 47C141.467 51.5 145.515 59.2776 147.908 62.2035C144.467 67.0005 134.967 68 134.967 68C134.967 68 133.467 64.5 133.467 58C133.467 53 130.478 49.1235 128.427 47.7461C124.736 45.2667 124.155 41.2062 124.326 39.4858C121.865 35.3551 123.301 31.9123 124.326 30.7072C123.096 25.7497 127.467 19.5003 130.478 19.3487C131.467 12.5003 136.971 11.7759 139.193 11.6036C141.243 4.58141 147.908 2.82538 150.984 2.82514C155.967 -1.00001 164.467 -0.499687 167.389 2.82514C176.467 -1.16825e-05 180.376 4.71838 181.23 6.95584C185.967 6.49999 188.407 12 188.407 14.1846C195.967 16.5 194.467 25 192.967 28.5005C191.769 31.2961 181.743 30.7072 175.078 30.7072C168.414 30.7072 164.313 31.9352 162.775 34.0005C160.731 36.7448 163.143 42.9053 162.775 46.5005C162.467 49.5 158.967 53.0005 158.967 53.0005C158.967 53.0005 157.467 47 154.967 44.5C152.467 42 146.467 42.5 143.967 47Z" fill="#331A16"/>
<path d="M189.787 50.6298C189.787 50.6298 184.667 54.2862 179.801 52.8766C174.935 51.467 172.182 45.5287 172.182 45.5287C172.182 45.5287 177.303 41.8723 182.169 43.2819C187.019 44.6952 189.787 50.6298 189.787 50.6298Z" fill="white"/>
<mask id="mask0" mask-type="alpha" maskUnits="userSpaceOnUse" x="172" y="42" width="18" height="12">
<path d="M189.787 50.6298C189.787 50.6298 184.667 54.2862 179.801 52.8766C174.935 51.467 172.182 45.5287 172.182 45.5287C172.182 45.5287 177.303 41.8723 182.169 43.2819C187.019 44.6952 189.787 50.6298 189.787 50.6298Z" fill="white"/>
</mask>
<g mask="url(#mask0)">
<path d="M190.32 50.7765C191.588 46.7043 190.041 42.601 186.865 41.6114C183.688 40.6219 180.084 43.1208 178.816 47.193C177.547 51.2652 179.094 55.3686 182.271 56.3581C185.448 57.3477 189.051 54.8487 190.32 50.7765Z" fill="#200F0C"/>
</g>
<path d="M178.663 64.709C178.663 64.709 181.668 69.2194 187.416 68.1842" stroke="#311E17" stroke-width="0.7" stroke-miterlimit="10" stroke-linecap="round" stroke-linejoin="round"/>
<path d="M149.967 47C149.967 47 154.451 48.9884 155.14 54.33" stroke="#311E17" stroke-width="0.7" stroke-miterlimit="10" stroke-linecap="round" stroke-linejoin="round"/>
<path d="M174.967 38.1323C174.967 38.1323 181.587 36.2218 186.201 38.1323" stroke="#311E17" stroke-width="3.4" stroke-miterlimit="10" stroke-linecap="round" stroke-linejoin="round"/>
<path d="M118.78 87.831L128.566 76.5371L163.032 97.7212L161.668 116.306L118.78 87.831Z" fill="white"/>
<path d="M118.78 87.8301C118.78 87.8301 87.6411 118.541 78.4007 141.96C71.5516 159.336 61.5184 205.499 56.1379 235.872C54.2274 246.646 58.1653 257.602 66.457 264.737H155.534L157.445 261.891C161.214 256.302 163.046 249.635 162.669 242.903L163.033 205.369L187.609 218.821C192.717 221.615 198.552 222.772 204.336 222.135L276.856 214.116V190.71L207.546 186.772C207.546 186.772 182.138 155.58 168.388 127.638C154.625 99.6958 140.913 99.9427 140.913 99.9427L118.78 87.8301Z" fill="white"/>
<path fill-rule="evenodd" clip-rule="evenodd" d="M128.566 76.5371L118.78 87.831L118.78 87.8312C118.707 87.9038 87.6302 118.569 78.4007 141.961C71.5516 159.337 61.5184 205.5 56.1379 235.873C54.2274 246.647 58.1653 257.603 66.457 264.738H155.534L157.445 261.892C161.214 256.303 163.046 249.636 162.669 242.904L163.033 205.37L187.609 218.822C192.717 221.616 198.552 222.773 204.336 222.136L276.856 214.117V190.71L207.546 186.773C207.546 186.773 182.138 155.581 168.388 127.639C166.133 123.061 163.879 119.239 161.687 116.05L163.033 97.7212L128.566 76.5371Z" fill="white"/>
<mask id="mask1" mask-type="alpha" maskUnits="userSpaceOnUse" x="55" y="76" width="222" height="189">
<path fill-rule="evenodd" clip-rule="evenodd" d="M128.566 76.5371L118.78 87.831L118.78 87.8312C118.707 87.9038 87.6302 118.569 78.4007 141.961C71.5516 159.337 61.5184 205.5 56.1379 235.873C54.2274 246.647 58.1653 257.603 66.457 264.738H155.534L157.445 261.892C161.214 256.303 163.046 249.636 162.669 242.904L163.033 205.37L187.609 218.822C192.717 221.616 198.552 222.773 204.336 222.136L276.856 214.117V190.71L207.546 186.773C207.546 186.773 182.138 155.581 168.388 127.639C166.133 123.061 163.879 119.239 161.687 116.05L163.033 97.7212L128.566 76.5371Z" fill="white"/>
</mask>
<g mask="url(#mask1)">
<path fill-rule="evenodd" clip-rule="evenodd" d="M31.7179 108.996C31.7179 108.858 31.8298 108.746 31.9679 108.746H151.968C152.106 108.746 152.218 108.858 152.218 108.996C152.218 109.134 152.106 109.246 151.968 109.246H31.9679C31.8298 109.246 31.7179 109.134 31.7179 108.996ZM35.4679 128.999C35.4679 128.723 35.6917 128.499 35.9679 128.499H278.968C279.244 128.499 279.468 128.723 279.468 128.999C279.468 129.275 279.244 129.499 278.968 129.499H35.9679C35.6917 129.499 35.4679 129.275 35.4679 128.999ZM35.9679 148.749C35.8298 148.749 35.7179 148.861 35.7179 148.999C35.7179 149.137 35.8298 149.249 35.9679 149.249H278.968C279.106 149.249 279.218 149.137 279.218 148.999C279.218 148.861 279.106 148.749 278.968 148.749H35.9679ZM35.4679 168.999C35.4679 168.723 35.6917 168.499 35.9679 168.499H278.968C279.244 168.499 279.468 168.723 279.468 168.999C279.468 169.275 279.244 169.499 278.968 169.499H35.9679C35.6917 169.499 35.4679 169.275 35.4679 168.999ZM35.9679 188.749C35.8298 188.749 35.7179 188.861 35.7179 188.999C35.7179 189.137 35.8298 189.249 35.9679 189.249H278.968C279.106 189.249 279.218 189.137 279.218 188.999C279.218 188.861 279.106 188.749 278.968 188.749H35.9679ZM17.4688 208.998C17.4688 208.722 17.6926 208.498 17.9688 208.498H260.969C261.245 208.498 261.469 208.722 261.469 208.998C261.469 209.275 261.245 209.498 260.969 209.498H17.9688C17.6926 209.498 17.4688 209.275 17.4688 208.998ZM35.9679 228.749C35.8298 228.749 35.7179 228.861 35.7179 228.999C35.7179 229.137 35.8298 229.249 35.9679 229.249H278.968C279.106 229.249 279.218 229.137 279.218 228.999C279.218 228.861 279.106 228.749 278.968 228.749H35.9679ZM35.4679 248.999C35.4679 248.723 35.6917 248.499 35.9679 248.499H278.968C279.244 248.499 279.468 248.723 279.468 248.999C279.468 249.275 279.244 249.499 278.968 249.499H35.9679C35.6917 249.499 35.4679 249.275 35.4679 248.999ZM35.9679 268.649C35.7746 268.649 35.6179 268.806 35.6179 268.999C35.6179 269.192 35.7746 269.349 35.9679 269.349H278.968C279.161 269.349 279.318 269.192 279.318 268.999C279.318 268.806 279.161 268.649 278.968 268.649H35.9679Z" fill="#5B76C7" fill-opacity="0.3"/>
<path fill-rule="evenodd" clip-rule="evenodd" d="M247.968 57.5C247.968 57.2239 247.744 57 247.468 57C247.192 57 246.968 57.2239 246.968 57.5L246.968 300.5C246.968 300.776 247.192 301 247.468 301C247.744 301 247.968 300.776 247.968 300.5L247.968 57.5ZM227.718 57.5C227.718 57.3619 227.606 57.25 227.468 57.25C227.33 57.25 227.218 57.3619 227.218 57.5L227.218 300.5C227.218 300.638 227.33 300.75 227.468 300.75C227.606 300.75 227.718 300.638 227.718 300.5L227.718 57.5ZM207.468 57C207.744 57 207.968 57.2239 207.968 57.5L207.968 300.5C207.968 300.776 207.744 301 207.468 301C207.192 301 206.968 300.776 206.968 300.5L206.968 57.5C206.968 57.2239 207.192 57 207.468 57ZM187.718 57.5C187.718 57.3619 187.606 57.25 187.468 57.25C187.33 57.25 187.218 57.3619 187.218 57.5L187.218 300.5C187.218 300.638 187.33 300.75 187.468 300.75C187.606 300.75 187.718 300.638 187.718 300.5L187.718 57.5ZM167.468 57C167.744 57 167.968 57.2239 167.968 57.5L167.968 300.5C167.968 300.776 167.744 301 167.468 301C167.192 301 166.968 300.776 166.968 300.5L166.968 57.5C166.968 57.2239 167.192 57 167.468 57ZM148.216 106.001C148.216 105.863 148.105 105.751 147.966 105.751C147.828 105.751 147.716 105.863 147.716 106.001L147.716 300.001C147.716 300.139 147.828 300.251 147.966 300.251C148.105 300.251 148.216 300.139 148.216 300.001L148.216 106.001ZM127.966 93.5006C128.243 93.5006 128.466 93.7244 128.466 94.0006L128.466 288.001C128.466 288.277 128.243 288.501 127.966 288.501C127.69 288.501 127.466 288.277 127.466 288.001L127.466 94.0006C127.466 93.7244 127.69 93.5006 127.966 93.5006ZM107.718 57.5C107.718 57.3619 107.606 57.25 107.468 57.25C107.33 57.25 107.218 57.3619 107.218 57.5L107.218 300.5C107.218 300.638 107.33 300.75 107.468 300.75C107.606 300.75 107.718 300.638 107.718 300.5L107.718 57.5ZM87.4678 57C87.7439 57 87.9678 57.2239 87.9678 57.5L87.9678 300.5C87.9678 300.776 87.7439 301 87.4678 301C87.1916 301 86.9678 300.776 86.9678 300.5L86.9678 57.5C86.9678 57.2239 87.1916 57 87.4678 57ZM67.7178 57.5C67.7178 57.3619 67.6059 57.25 67.4678 57.25C67.3297 57.25 67.2178 57.3619 67.2178 57.5L67.2178 300.5C67.2178 300.638 67.3297 300.75 67.4678 300.75C67.6058 300.75 67.7178 300.638 67.7178 300.5L67.7178 57.5Z" fill="#5B76C7" fill-opacity="0.3"/>
</g>
<path d="M266.172 474.511H240.712L238.75 443.346H268.134L266.172 474.511Z" fill="white"/>
<path d="M66.4569 264.725C66.4569 264.725 56.7616 291.263 60.8685 305.806C64.9883 320.349 66.9508 330.265 106.642 330.265C146.333 330.265 225.507 331.773 225.507 331.773C225.507 331.773 227.872 362.691 236.944 458.917H274.802L276.855 310.537C276.959 302.778 271.891 295.89 264.457 293.681L155.534 264.725H66.4569Z" fill="#5B76C7"/>
<path d="M239.763 468.079C230.484 487.158 235.682 503.364 235.682 503.364H319.171C321.407 503.364 323.122 501.311 322.706 499.089C321.9 494.748 319.964 490.706 318.378 487.912C317.014 485.52 314.7 483.844 312.023 483.324C308.488 482.635 302.653 481.673 294.712 480.894C280.91 479.542 274.776 466.754 274.776 466.754C274.776 466.754 266.692 464.557 263.3 472.758C263.3 472.758 255.827 473.954 248.991 471.341C243.545 469.249 239.763 468.079 239.763 468.079Z" fill="#5C5856"/>
<path d="M278.968 482.697L285.395 478" stroke="#200F0C" stroke-width="2" stroke-miterlimit="10" stroke-linecap="round" stroke-linejoin="round"/>
<path d="M283.968 485L289.895 480" stroke="#200F0C" stroke-width="2" stroke-miterlimit="10" stroke-linecap="round" stroke-linejoin="round"/>
<path d="M276.855 193.893H281.287L304.758 186.719L326.033 187.291L341.876 200.248C341.876 200.248 341.993 202.912 338.64 203.029C338.64 203.029 337.6 206.265 333.207 204.654C328.815 203.029 323.72 198.636 323.72 198.636L312.036 199.208L322.901 201.171L330.296 207.877C330.296 207.877 329.023 209.787 325.553 209.41C322.083 209.034 317.807 204.758 317.807 204.758L307.28 204.407C307.28 204.407 299.846 210.398 292.087 211.308C284.328 212.218 276.829 210.788 276.829 210.788V193.893H276.855Z" fill="#884226"/>
<path d="M181.969 503.3L237.177 225.385" stroke="#4C2820" stroke-miterlimit="10" stroke-linecap="round" stroke-linejoin="round"/>
<path d="M111.407 277C111.407 277 111.407 295.663 77.9678 295.663" stroke="#200F0C" stroke-width="0.7" stroke-miterlimit="10" stroke-linecap="round" stroke-linejoin="round"/>
<path d="M121.613 89.377L160.057 113.758" stroke="#311E17" stroke-width="0.7" stroke-miterlimit="10" stroke-linecap="round" stroke-linejoin="round"/>
<path d="M126.981 118.424C118.78 125.572 111.541 139.569 118.78 160.441C126.032 181.339 158.796 201.315 158.796 201.315" stroke="#311E17" stroke-width="0.7" stroke-miterlimit="10" stroke-linecap="round" stroke-linejoin="round"/>
<path d="M261.078 191.074V214.468" stroke="#311E17" stroke-width="0.7" stroke-miterlimit="10" stroke-linecap="round" stroke-linejoin="round"/>
<path d="M201.359 196.413L207.545 186.744" stroke="#311E17" stroke-width="0.7" stroke-miterlimit="10" stroke-linecap="round" stroke-linejoin="round"/>
<path d="M314.116 193.219L325.358 194.129L338.146 201.627" stroke="#311E17" stroke-width="0.7" stroke-miterlimit="10" stroke-linecap="round" stroke-linejoin="round"/>
<path d="M318.404 188.5L327.749 189.735" stroke="#311E17" stroke-width="0.7" stroke-miterlimit="10" stroke-linecap="round" stroke-linejoin="round"/>
<path d="M225.506 331.786L241.895 318.803" stroke="#200F0C" stroke-width="0.7" stroke-miterlimit="10" stroke-linecap="round" stroke-linejoin="round"/>
<path d="M424.184 105.332C424.495 104.587 425.223 104.102 426.03 104.102H427.753C429.18 104.102 430.148 105.554 429.599 106.871L385.415 212.86C385.104 213.605 384.376 214.09 383.569 214.09H381.846C380.419 214.09 379.451 212.638 380 211.32L424.184 105.332Z" fill="#EEEEEE"/>
<path d="M166.967 84.5C162.094 82.1866 152.967 74 150.467 68C150.467 68 152.467 79.5 162.967 91.5L166.967 84.5Z" fill="#331A14"/>
</svg>
