<svg width="760" height="475" viewBox="0 0 760 475" fill="none" xmlns="http://www.w3.org/2000/svg">
<path d="M0 15H760V467.253C760 471.531 756.418 475 752 475H7.99999C3.58171 475 0 471.531 0 467.253V15Z" fill="#F5F5F5"/>
<path d="M0 8C0 3.58172 3.58172 0 8 0H752C756.418 0 760 3.58172 760 8V15H0V8Z" fill="#006585"/>
<path d="M8 23H128V467H8V23Z" fill="white"/>
<path d="M8 23H128V63H8V23Z" fill="#E0F9FF"/>
<path fill-rule="evenodd" clip-rule="evenodd" d="M33 37H31V42H26V44H31V49H33V44H38V42H33V37Z" fill="#006E91"/>
<path d="M49.4999 48.1679C51.6719 48.1679 52.9319 46.9559 52.9319 44.0039V39.1079H51.2279V44.1599C51.2279 46.0079 50.5559 46.6319 49.4999 46.6319C48.4679 46.6319 47.8199 46.0079 47.8199 44.1599V39.1079H46.0439V44.0039C46.0439 46.9559 47.3399 48.1679 49.4999 48.1679Z" fill="#006E91"/>
<path d="M54.9245 50.5799H56.6885V48.5399L56.6285 47.4359C57.1445 47.9039 57.7085 48.1679 58.2965 48.1679C59.7725 48.1679 61.1525 46.8359 61.1525 44.5319C61.1525 42.4679 60.1685 41.1119 58.5125 41.1119C57.7925 41.1119 57.0965 41.4959 56.5325 41.9759H56.4965L56.3645 41.2799H54.9245V50.5799ZM57.9005 46.7159C57.5405 46.7159 57.1085 46.5839 56.6885 46.2119V43.2599C57.1445 42.7919 57.5525 42.5639 58.0085 42.5639C58.9325 42.5639 59.3405 43.2719 59.3405 44.5559C59.3405 46.0199 58.7165 46.7159 57.9005 46.7159Z" fill="#006E91"/>
<path d="M64.3032 48.1679C64.7232 48.1679 65.0112 48.0959 65.2152 48.0119L64.9992 46.7039C64.8792 46.7279 64.8312 46.7279 64.7592 46.7279C64.5912 46.7279 64.4112 46.5959 64.4112 46.1879V38.4239H62.6472V46.1159C62.6472 47.3639 63.0792 48.1679 64.3032 48.1679Z" fill="#006E91"/>
<path d="M69.2403 48.1679C70.9203 48.1679 72.4683 46.8719 72.4683 44.6399C72.4683 42.4079 70.9203 41.1119 69.2403 41.1119C67.5603 41.1119 66.0123 42.4079 66.0123 44.6399C66.0123 46.8719 67.5603 48.1679 69.2403 48.1679ZM69.2403 46.7279C68.3283 46.7279 67.8123 45.9119 67.8123 44.6399C67.8123 43.3799 68.3283 42.5519 69.2403 42.5519C70.1523 42.5519 70.6683 43.3799 70.6683 44.6399C70.6683 45.9119 70.1523 46.7279 69.2403 46.7279Z" fill="#006E91"/>
<path d="M75.436 48.1679C76.204 48.1679 76.876 47.7839 77.464 47.2799H77.512L77.632 47.9999H79.072V44.0759C79.072 42.1319 78.196 41.1119 76.492 41.1119C75.436 41.1119 74.476 41.5079 73.684 41.9999L74.32 43.1639C74.944 42.8039 75.544 42.5279 76.168 42.5279C76.996 42.5279 77.284 43.0319 77.32 43.6919C74.608 43.9799 73.444 44.7359 73.444 46.1759C73.444 47.3159 74.236 48.1679 75.436 48.1679ZM76.012 46.7879C75.496 46.7879 75.124 46.5599 75.124 46.0319C75.124 45.4319 75.676 44.9759 77.32 44.7719V46.1279C76.888 46.5479 76.516 46.7879 76.012 46.7879Z" fill="#006E91"/>
<path d="M83.2338 48.1679C83.9298 48.1679 84.6018 47.7839 85.0938 47.3039H85.1418L85.2738 47.9999H86.7018V38.4239H84.9498V40.7879L85.0098 41.8439C84.5298 41.3999 84.0618 41.1119 83.3058 41.1119C81.8538 41.1119 80.4858 42.4559 80.4858 44.6399C80.4858 46.8479 81.5658 48.1679 83.2338 48.1679ZM83.6898 46.7159C82.8018 46.7159 82.2978 46.0199 82.2978 44.6279C82.2978 43.2839 82.9338 42.5639 83.6898 42.5639C84.1098 42.5639 84.5418 42.6959 84.9498 43.0679V46.0199C84.5538 46.5239 84.1578 46.7159 83.6898 46.7159Z" fill="#006E91"/>
<path d="M91.6112 47.9999H93.3752V42.6719H94.6352V41.2799H93.3752V40.7039C93.3752 39.9599 93.6632 39.6479 94.1912 39.6479C94.4072 39.6479 94.6712 39.6959 94.8992 39.7919L95.2232 38.4839C94.9232 38.3759 94.4672 38.2559 93.9512 38.2559C92.2592 38.2559 91.6112 39.3359 91.6112 40.7399V41.2919L90.7112 41.3639V42.6719H91.6112V47.9999ZM95.7752 47.9999H97.5272V41.2799H95.7752V47.9999ZM96.6512 40.1999C97.2632 40.1999 97.6832 39.8159 97.6832 39.2279C97.6832 38.6519 97.2632 38.2679 96.6512 38.2679C96.0392 38.2679 95.6312 38.6519 95.6312 39.2279C95.6312 39.8159 96.0392 40.1999 96.6512 40.1999Z" fill="#006E91"/>
<path d="M101.077 48.1679C101.497 48.1679 101.785 48.0959 101.989 48.0119L101.773 46.7039C101.653 46.7279 101.605 46.7279 101.533 46.7279C101.365 46.7279 101.185 46.5959 101.185 46.1879V38.4239H99.4206V46.1159C99.4206 47.3639 99.8526 48.1679 101.077 48.1679Z" fill="#006E91"/>
<path d="M106.134 48.1679C106.962 48.1679 107.814 47.8799 108.474 47.4239L107.874 46.3439C107.394 46.6439 106.914 46.8119 106.362 46.8119C105.366 46.8119 104.646 46.2359 104.502 45.1319H108.642C108.69 44.9759 108.726 44.6519 108.726 44.3159C108.726 42.4679 107.766 41.1119 105.918 41.1119C104.322 41.1119 102.786 42.4679 102.786 44.6399C102.786 46.8599 104.25 48.1679 106.134 48.1679ZM104.478 43.9559C104.61 42.9839 105.234 42.4799 105.942 42.4799C106.806 42.4799 107.214 43.0559 107.214 43.9559H104.478Z" fill="#006E91"/>
<path d="M8 157H128V189H8V157Z" fill="#EAF3F7"/>
<path fill-rule="evenodd" clip-rule="evenodd" d="M27.0607 170.889L26 171.949L29.8891 175.838L30.9497 176.899L32.0104 175.838L35.8995 171.949L34.8388 170.889L30.9497 174.778L27.0607 170.889Z" fill="#777777"/>
<path d="M43.001 176.999H44.464V173.6C44.464 172.83 44.332 171.697 44.255 170.927H44.299L44.948 172.841L46.213 176.262H47.148L48.402 172.841L49.062 170.927H49.117C49.029 171.697 48.908 172.83 48.908 173.6V176.999H50.393V168.848H48.589L47.236 172.665C47.06 173.171 46.917 173.71 46.741 174.227H46.686C46.521 173.71 46.367 173.171 46.191 172.665L44.805 168.848H43.001V176.999Z" fill="#222222"/>
<path d="M52.7966 179.474C54.1716 179.474 54.8316 178.638 55.3706 177.186L57.5596 170.839H56.0086L55.1616 173.699C55.0186 174.271 54.8646 174.865 54.7216 175.437H54.6666C54.4906 174.843 54.3366 174.249 54.1496 173.699L53.1706 170.839H51.5426L53.9406 176.889L53.8306 177.252C53.6546 177.791 53.3026 178.187 52.6756 178.187C52.5326 178.187 52.3566 178.143 52.2466 178.11L51.9496 179.353C52.1916 179.43 52.4336 179.474 52.7966 179.474Z" fill="#222222"/>
<path d="M63.2332 177.153C63.8712 177.153 64.4872 176.801 64.9382 176.361H64.9822L65.1032 176.999H66.4122V168.221H64.8062V170.388L64.8612 171.356C64.4212 170.949 63.9922 170.685 63.2992 170.685C61.9682 170.685 60.7142 171.917 60.7142 173.919C60.7142 175.943 61.7042 177.153 63.2332 177.153ZM63.6512 175.822C62.8372 175.822 62.3752 175.184 62.3752 173.908C62.3752 172.676 62.9582 172.016 63.6512 172.016C64.0362 172.016 64.4322 172.137 64.8062 172.478V175.184C64.4432 175.646 64.0802 175.822 63.6512 175.822Z" fill="#222222"/>
<path d="M68.1453 176.999H69.7623V173.325C70.1033 172.434 70.6863 172.115 71.1703 172.115C71.4233 172.115 71.5993 172.148 71.8193 172.214L72.0943 170.817C71.9073 170.74 71.7093 170.685 71.3683 170.685C70.7303 170.685 70.0703 171.125 69.6193 171.928H69.5863L69.4653 170.839H68.1453V176.999Z" fill="#222222"/>
<path d="M72.9364 176.999H74.5534V170.839H72.9364V176.999ZM73.7504 169.849C74.3004 169.849 74.6854 169.497 74.6854 168.958C74.6854 168.43 74.3004 168.078 73.7504 168.078C73.1894 168.078 72.8044 168.43 72.8044 168.958C72.8044 169.497 73.1894 169.849 73.7504 169.849Z" fill="#222222"/>
<path d="M77.6632 176.999H79.5332L81.5902 170.839H80.0392L79.1372 173.908C78.9722 174.513 78.8072 175.151 78.6422 175.778H78.5872C78.4222 175.151 78.2572 174.513 78.0922 173.908L77.1902 170.839H75.5622L77.6632 176.999Z" fill="#222222"/>
<path d="M85.2131 177.153C85.9721 177.153 86.7531 176.889 87.3581 176.471L86.8081 175.481C86.3681 175.756 85.9281 175.91 85.4221 175.91C84.5091 175.91 83.8491 175.382 83.7171 174.37H87.5121C87.5561 174.227 87.5891 173.93 87.5891 173.622C87.5891 171.928 86.7091 170.685 85.0151 170.685C83.5521 170.685 82.1441 171.928 82.1441 173.919C82.1441 175.954 83.4861 177.153 85.2131 177.153ZM83.6951 173.292C83.8161 172.401 84.3881 171.939 85.0371 171.939C85.8291 171.939 86.2031 172.467 86.2031 173.292H83.6951Z" fill="#222222"/>
<path fill-rule="evenodd" clip-rule="evenodd" d="M26 93H110V97H26V93ZM26 123H110V127H26V123ZM110 219H26V223H110V219ZM26 249H110V253H26V249ZM110 279H26V283H110V279Z" fill="#EEEEEE"/>
<path d="M136 23H500V467H136V23Z" fill="white"/>
<path d="M154 42H168V56H154V42Z" fill="white"/>
<path fill-rule="evenodd" clip-rule="evenodd" d="M167 43H155V55H167V43ZM154 42V56H168V42H154Z" fill="#DDDDDD"/>
<path d="M180 42L181.646 46.7348L186.658 46.8369L182.663 49.8652L184.115 54.6631L180 51.8L175.886 54.6631L177.337 49.8652L173.343 46.8369L178.354 46.7348L180 42Z" fill="#F9E16F"/>
<path fill-rule="evenodd" clip-rule="evenodd" d="M181.646 46.7348L180 42L178.354 46.7348L173.343 46.8369L177.337 49.8652L175.886 54.6631L180 51.8L184.115 54.6631L182.663 49.8652L186.658 46.8369L181.646 46.7348ZM183.761 47.7781L180.93 47.7204L180 45.0457L179.07 47.7204L176.239 47.7781L178.496 49.4888L177.676 52.1991L180 50.5817L182.324 52.1991L181.504 49.4888L183.761 47.7781Z" fill="#F7D63D"/>
<path d="M192 41H200V46H192V41Z" fill="#B1DAF8"/>
<path d="M192 43H208V46H192V43Z" fill="#B1DAF8"/>
<path d="M192 46H208V57H192V46Z" fill="#98CBF2"/>
<path d="M220 47H340V51H220V47Z" fill="#EEEEEE"/>
<path d="M136 75H500V76H136V75Z" fill="#EEEEEE"/>
<path d="M154 95H168V109H154V95Z" fill="white"/>
<path fill-rule="evenodd" clip-rule="evenodd" d="M167 96H155V108H167V96ZM154 95V109H168V95H154Z" fill="#DDDDDD"/>
<path d="M180 95L181.646 99.7348L186.658 99.8369L182.663 102.865L184.115 107.663L180 104.8L175.886 107.663L177.337 102.865L173.343 99.8369L178.354 99.7348L180 95Z" fill="#F9E16F"/>
<path fill-rule="evenodd" clip-rule="evenodd" d="M181.646 99.7348L180 95L178.354 99.7348L173.343 99.8369L177.337 102.865L175.886 107.663L180 104.8L184.115 107.663L182.663 102.865L186.658 99.8369L181.646 99.7348ZM183.761 100.778L180.93 100.72L180 98.0457L179.07 100.72L176.239 100.778L178.496 102.489L177.676 105.199L180 103.582L182.324 105.199L181.504 102.489L183.761 100.778Z" fill="#F7D63D"/>
<path d="M192 94H200V99H192V94Z" fill="#B1DAF8"/>
<path d="M192 96H208V99H192V96Z" fill="#B1DAF8"/>
<path d="M192 99H208V110H192V99Z" fill="#98CBF2"/>
<path d="M220 100H380V104H220V100Z" fill="#EEEEEE"/>
<path d="M136 128H500V129H136V128Z" fill="#EEEEEE"/>
<path d="M154 148H168V162H154V148Z" fill="white"/>
<path fill-rule="evenodd" clip-rule="evenodd" d="M167 149H155V161H167V149ZM154 148V162H168V148H154Z" fill="#DDDDDD"/>
<path d="M180 148L181.646 152.735L186.658 152.837L182.663 155.865L184.115 160.663L180 157.8L175.886 160.663L177.337 155.865L173.343 152.837L178.354 152.735L180 148Z" fill="white"/>
<path fill-rule="evenodd" clip-rule="evenodd" d="M181.646 152.735L180 148L178.354 152.735L173.343 152.837L177.337 155.865L175.886 160.663L180 157.8L184.115 160.663L182.663 155.865L186.658 152.837L181.646 152.735ZM183.761 153.778L180.93 153.72L180 151.046L179.07 153.72L176.239 153.778L178.496 155.489L177.676 158.199L180 156.582L182.324 158.199L181.504 155.489L183.761 153.778Z" fill="#BDBDBD"/>
<path d="M192 147H200V152H192V147Z" fill="#B1DAF8"/>
<path d="M192 149H208V152H192V149Z" fill="#B1DAF8"/>
<path d="M192 152H208V163H192V152Z" fill="#98CBF2"/>
<path d="M220 153H280V157H220V153Z" fill="#EEEEEE"/>
<path d="M136 181H500V182H136V181Z" fill="#EEEEEE"/>
<path d="M180 201L181.646 205.735L186.658 205.837L182.663 208.865L184.115 213.663L180 210.8L175.886 213.663L177.337 208.865L173.343 205.837L178.354 205.735L180 201Z" fill="white"/>
<path fill-rule="evenodd" clip-rule="evenodd" d="M181.646 205.735L180 201L178.354 205.735L173.343 205.837L177.337 208.865L175.886 213.663L180 210.8L184.115 213.663L182.663 208.865L186.658 205.837L181.646 205.735ZM183.761 206.778L180.93 206.72L180 204.046L179.07 206.72L176.239 206.778L178.496 208.489L177.676 211.199L180 209.582L182.324 211.199L181.504 208.489L183.761 206.778Z" fill="#BDBDBD"/>
<path d="M192 200H200V205H192V200Z" fill="#B1DAF8"/>
<path d="M192 202H208V205H192V202Z" fill="#B1DAF8"/>
<path d="M192 205H208V216H192V205Z" fill="#98CBF2"/>
<path d="M154 201H168V215H154V201Z" fill="#285BF6"/>
<path fill-rule="evenodd" clip-rule="evenodd" d="M161.3 210.099L161.3 210.1L160.1 211.3L156.5 207.7L157.7 206.5L160.1 208.899L164.3 204.699L165.5 205.899L161.3 210.099Z" fill="white"/>
<path d="M223.245 212.153C224.917 212.153 225.995 210.69 225.995 207.995C225.995 205.322 224.917 203.914 223.245 203.914C221.573 203.914 220.484 205.311 220.484 207.995C220.484 210.69 221.573 212.153 223.245 212.153ZM223.245 210.888C222.541 210.888 222.013 210.206 222.013 207.995C222.013 205.795 222.541 205.179 223.245 205.179C223.949 205.179 224.466 205.795 224.466 207.995C224.466 210.206 223.949 210.888 223.245 210.888Z" fill="#222222"/>
<path d="M229.491 212.153C231.042 212.153 232.351 211.306 232.351 209.854C232.351 208.809 231.647 208.138 230.734 207.896V207.841C231.581 207.5 232.087 206.906 232.087 206.048C232.087 204.684 231.02 203.914 229.447 203.914C228.49 203.914 227.709 204.31 227.005 204.926L227.83 205.916C228.314 205.465 228.787 205.19 229.37 205.19C230.063 205.19 230.459 205.553 230.459 206.169C230.459 206.851 229.975 207.346 228.479 207.346V208.512C230.25 208.512 230.723 208.985 230.723 209.755C230.723 210.437 230.162 210.833 229.337 210.833C228.6 210.833 228.006 210.47 227.522 209.997L226.763 211.02C227.335 211.669 228.204 212.153 229.491 212.153Z" fill="#222222"/>
<path d="M236.448 211.999H238.076V209.106H239.165C240.914 209.106 242.311 208.27 242.311 206.411C242.311 204.486 240.925 203.848 239.121 203.848H236.448V211.999ZM238.076 207.819V205.146H239C240.122 205.146 240.716 205.465 240.716 206.411C240.716 207.346 240.177 207.819 239.055 207.819H238.076Z" fill="#222222"/>
<path d="M243.653 211.999H245.27V208.325C245.611 207.434 246.194 207.115 246.678 207.115C246.931 207.115 247.107 207.148 247.327 207.214L247.602 205.817C247.415 205.74 247.217 205.685 246.876 205.685C246.238 205.685 245.578 206.125 245.127 206.928H245.094L244.973 205.839H243.653V211.999Z" fill="#222222"/>
<path d="M250.889 212.153C252.429 212.153 253.848 210.965 253.848 208.919C253.848 206.873 252.429 205.685 250.889 205.685C249.349 205.685 247.93 206.873 247.93 208.919C247.93 210.965 249.349 212.153 250.889 212.153ZM250.889 210.833C250.053 210.833 249.58 210.085 249.58 208.919C249.58 207.764 250.053 207.005 250.889 207.005C251.725 207.005 252.198 207.764 252.198 208.919C252.198 210.085 251.725 210.833 250.889 210.833Z" fill="#222222"/>
<path d="M254.772 214.518C256.323 214.518 256.829 213.473 256.829 212.153V205.839H255.212V212.197C255.212 212.89 255.058 213.242 254.541 213.242C254.354 213.242 254.189 213.209 254.024 213.154L253.738 214.353C253.98 214.441 254.299 214.518 254.772 214.518ZM256.015 204.849C256.576 204.849 256.961 204.497 256.961 203.958C256.961 203.43 256.576 203.078 256.015 203.078C255.465 203.078 255.08 203.43 255.08 203.958C255.08 204.497 255.465 204.849 256.015 204.849Z" fill="#222222"/>
<path d="M261.247 212.153C262.006 212.153 262.787 211.889 263.392 211.471L262.842 210.481C262.402 210.756 261.962 210.91 261.456 210.91C260.543 210.91 259.883 210.382 259.751 209.37H263.546C263.59 209.227 263.623 208.93 263.623 208.622C263.623 206.928 262.743 205.685 261.049 205.685C259.586 205.685 258.178 206.928 258.178 208.919C258.178 210.954 259.52 212.153 261.247 212.153ZM259.729 208.292C259.85 207.401 260.422 206.939 261.071 206.939C261.863 206.939 262.237 207.467 262.237 208.292H259.729Z" fill="#222222"/>
<path d="M267.573 212.153C268.255 212.153 269.003 211.922 269.597 211.405L268.948 210.338C268.607 210.624 268.189 210.833 267.749 210.833C266.869 210.833 266.22 210.085 266.22 208.919C266.22 207.764 266.858 207.005 267.804 207.005C268.145 207.005 268.431 207.148 268.739 207.412L269.509 206.367C269.058 205.982 268.475 205.685 267.716 205.685C266.044 205.685 264.57 206.873 264.57 208.919C264.57 210.965 265.868 212.153 267.573 212.153Z" fill="#222222"/>
<path d="M272.882 212.153C273.421 212.153 273.85 212.032 274.18 211.922L273.916 210.745C273.751 210.811 273.509 210.877 273.311 210.877C272.761 210.877 272.475 210.547 272.475 209.843V207.115H273.993V205.839H272.475V204.178H271.133L270.946 205.839L269.989 205.916V207.115H270.858V209.843C270.858 211.218 271.419 212.153 272.882 212.153Z" fill="#222222"/>
<path d="M136 234H500V235H136V234Z" fill="#EEEEEE"/>
<path d="M154 254H168V268H154V254Z" fill="white"/>
<path fill-rule="evenodd" clip-rule="evenodd" d="M167 255H155V267H167V255ZM154 254V268H168V254H154Z" fill="#DDDDDD"/>
<path d="M180 254L181.646 258.735L186.658 258.837L182.663 261.865L184.115 266.663L180 263.8L175.886 266.663L177.337 261.865L173.343 258.837L178.354 258.735L180 254Z" fill="white"/>
<path fill-rule="evenodd" clip-rule="evenodd" d="M181.646 258.735L180 254L178.354 258.735L173.343 258.837L177.337 261.865L175.886 266.663L180 263.8L184.115 266.663L182.663 261.865L186.658 258.837L181.646 258.735ZM183.761 259.778L180.93 259.72L180 257.046L179.07 259.72L176.239 259.778L178.496 261.489L177.676 264.199L180 262.582L182.324 264.199L181.504 261.489L183.761 259.778Z" fill="#BDBDBD"/>
<path d="M208 253H192V269H208V253Z" fill="#5F9EF4"/>
<path fill-rule="evenodd" clip-rule="evenodd" d="M201.2 260.693L205.953 265.447L205.246 266.154L201.2 262.108L198.753 264.554L198.046 263.847L201.2 260.693Z" fill="white"/>
<path fill-rule="evenodd" clip-rule="evenodd" d="M197.2 262.293L200.353 265.447L199.646 266.154L197.2 263.707L194.753 266.154L194.046 265.447L197.2 262.293Z" fill="white"/>
<path d="M197.6 260.2C198.484 260.2 199.2 259.484 199.2 258.6C199.2 257.716 198.484 257 197.6 257C196.716 257 196 257.716 196 258.6C196 259.484 196.716 260.2 197.6 260.2Z" fill="white"/>
<path d="M220 259H400V263H220V259Z" fill="#EEEEEE"/>
<path d="M136 287H500V288H136V287Z" fill="#EEEEEE"/>
<path d="M154 307H168V321H154V307Z" fill="white"/>
<path fill-rule="evenodd" clip-rule="evenodd" d="M167 308H155V320H167V308ZM154 307V321H168V307H154Z" fill="#DDDDDD"/>
<path d="M180 307L181.646 311.735L186.658 311.837L182.663 314.865L184.115 319.663L180 316.8L175.886 319.663L177.337 314.865L173.343 311.837L178.354 311.735L180 307Z" fill="white"/>
<path fill-rule="evenodd" clip-rule="evenodd" d="M181.646 311.735L180 307L178.354 311.735L173.343 311.837L177.337 314.865L175.886 319.663L180 316.8L184.115 319.663L182.663 314.865L186.658 311.837L181.646 311.735ZM183.761 312.778L180.93 312.72L180 310.046L179.07 312.72L176.239 312.778L178.496 314.489L177.676 317.199L180 315.582L182.324 317.199L181.504 314.489L183.761 312.778Z" fill="#BDBDBD"/>
<path d="M192 306H200V311H192V306Z" fill="#B1DAF8"/>
<path d="M192 308H208V311H192V308Z" fill="#B1DAF8"/>
<path d="M192 311H208V322H192V311Z" fill="#98CBF2"/>
<path d="M208 306H192V322H208V306Z" fill="#B55A40"/>
<path fill-rule="evenodd" clip-rule="evenodd" d="M198.4 310.5H197.4V318H198.4V314.7H201.8V313.7H202.8V311.5H201.8V310.5H198.4ZM201.8 311.5H198.4V313.7H201.8V311.5Z" fill="white"/>
<path d="M220 312H440V316H220V312Z" fill="#EEEEEE"/>
<path d="M136 340H500V341H136V340Z" fill="#EEEEEE"/>
<path d="M154 360H168V374H154V360Z" fill="white"/>
<path fill-rule="evenodd" clip-rule="evenodd" d="M167 361H155V373H167V361ZM154 360V374H168V360H154Z" fill="#DDDDDD"/>
<path d="M180 360L181.646 364.735L186.658 364.837L182.663 367.865L184.115 372.663L180 369.8L175.886 372.663L177.337 367.865L173.343 364.837L178.354 364.735L180 360Z" fill="#F9E16F"/>
<path fill-rule="evenodd" clip-rule="evenodd" d="M181.646 364.735L180 360L178.354 364.735L173.343 364.837L177.337 367.865L175.886 372.663L180 369.8L184.115 372.663L182.663 367.865L186.658 364.837L181.646 364.735ZM183.761 365.778L180.93 365.72L180 363.046L179.07 365.72L176.239 365.778L178.496 367.489L177.676 370.199L180 368.582L182.324 370.199L181.504 367.489L183.761 365.778Z" fill="#F7D63D"/>
<path d="M208 359H192V375H208V359Z" fill="#4A704E"/>
<path fill-rule="evenodd" clip-rule="evenodd" d="M196.1 363H197.4L200 366L202.6 363H203.9L200.65 366.75L203.9 370.5H202.6L200 367.5L198.267 369.5H199.6V370.5H197.4H196.8H196.1L199.35 366.75L196.1 363Z" fill="white"/>
<path d="M220 365H368V369H220V365Z" fill="#EEEEEE"/>
<path d="M136 393H500V394H136V393Z" fill="#EEEEEE"/>
<path d="M154 413H168V427H154V413Z" fill="white"/>
<path fill-rule="evenodd" clip-rule="evenodd" d="M167 414H155V426H167V414ZM154 413V427H168V413H154Z" fill="#DDDDDD"/>
<path d="M180 413L181.646 417.735L186.658 417.837L182.663 420.865L184.115 425.663L180 422.8L175.886 425.663L177.337 420.865L173.343 417.837L178.354 417.735L180 413Z" fill="white"/>
<path fill-rule="evenodd" clip-rule="evenodd" d="M181.646 417.735L180 413L178.354 417.735L173.343 417.837L177.337 420.865L175.886 425.663L180 422.8L184.115 425.663L182.663 420.865L186.658 417.837L181.646 417.735ZM183.761 418.778L180.93 418.72L180 416.046L179.07 418.72L176.239 418.778L178.496 420.489L177.676 423.199L180 421.582L182.324 423.199L181.504 420.489L183.761 418.778Z" fill="#BDBDBD"/>
<path d="M208 412H192V428H208V412Z" fill="#4A704E"/>
<path fill-rule="evenodd" clip-rule="evenodd" d="M196.1 416H197.4L200 419L202.6 416H203.9L200.65 419.75L203.9 423.5H202.6L200 420.5L198.267 422.5H199.6V423.5H197.4H196.8H196.1L199.35 419.75L196.1 416Z" fill="white"/>
<path d="M220 418H340V422H220V418Z" fill="#EEEEEE"/>
<path d="M136 446H500V447H136V446Z" fill="#EEEEEE"/>
<path d="M508 23H752V383H508V23Z" fill="white"/>
<path d="M526 107H734V108H526V107Z" fill="#EEEEEE"/>
<path d="M536.323 157.155C537.379 157.155 538.248 156.737 538.919 155.956L538.061 154.944C537.621 155.417 537.082 155.747 536.378 155.747C535.091 155.747 534.255 154.68 534.255 152.909C534.255 151.16 535.179 150.104 536.411 150.104C537.027 150.104 537.5 150.39 537.918 150.786L538.765 149.752C538.237 149.202 537.412 148.707 536.378 148.707C534.321 148.707 532.594 150.28 532.594 152.964C532.594 155.681 534.266 157.155 536.323 157.155Z" fill="#222222"/>
<path d="M540.099 157.001H541.716V153.327C542.057 152.436 542.64 152.117 543.124 152.117C543.377 152.117 543.553 152.15 543.773 152.216L544.048 150.819C543.861 150.742 543.663 150.687 543.322 150.687C542.684 150.687 542.024 151.127 541.573 151.93H541.54L541.419 150.841H540.099V157.001Z" fill="#222222"/>
<path d="M547.445 157.155C548.204 157.155 548.985 156.891 549.59 156.473L549.04 155.483C548.6 155.758 548.16 155.912 547.654 155.912C546.741 155.912 546.081 155.384 545.949 154.372H549.744C549.788 154.229 549.821 153.932 549.821 153.624C549.821 151.93 548.941 150.687 547.247 150.687C545.784 150.687 544.376 151.93 544.376 153.921C544.376 155.956 545.718 157.155 547.445 157.155ZM545.927 153.294C546.048 152.403 546.62 151.941 547.269 151.941C548.061 151.941 548.435 152.469 548.435 153.294H545.927Z" fill="#222222"/>
<path d="M552.52 157.155C553.224 157.155 553.84 156.803 554.379 156.341H554.423L554.533 157.001H555.853V153.404C555.853 151.622 555.05 150.687 553.488 150.687C552.52 150.687 551.64 151.05 550.914 151.501L551.497 152.568C552.069 152.238 552.619 151.985 553.191 151.985C553.95 151.985 554.214 152.447 554.247 153.052C551.761 153.316 550.694 154.009 550.694 155.329C550.694 156.374 551.42 157.155 552.52 157.155ZM553.048 155.89C552.575 155.89 552.234 155.681 552.234 155.197C552.234 154.647 552.74 154.229 554.247 154.042V155.285C553.851 155.67 553.51 155.89 553.048 155.89Z" fill="#222222"/>
<path d="M559.552 157.155C560.091 157.155 560.52 157.034 560.85 156.924L560.586 155.747C560.421 155.813 560.179 155.879 559.981 155.879C559.431 155.879 559.145 155.549 559.145 154.845V152.117H560.663V150.841H559.145V149.18H557.803L557.616 150.841L556.659 150.918V152.117H557.528V154.845C557.528 156.22 558.089 157.155 559.552 157.155Z" fill="#222222"/>
<path d="M564.396 157.155C565.155 157.155 565.936 156.891 566.541 156.473L565.991 155.483C565.551 155.758 565.111 155.912 564.605 155.912C563.692 155.912 563.032 155.384 562.9 154.372H566.695C566.739 154.229 566.772 153.932 566.772 153.624C566.772 151.93 565.892 150.687 564.198 150.687C562.735 150.687 561.327 151.93 561.327 153.921C561.327 155.956 562.669 157.155 564.396 157.155ZM562.878 153.294C562.999 152.403 563.571 151.941 564.22 151.941C565.012 151.941 565.386 152.469 565.386 153.294H562.878Z" fill="#222222"/>
<path d="M570.27 157.155C570.908 157.155 571.524 156.803 571.975 156.363H572.019L572.14 157.001H573.449V148.223H571.843V150.39L571.898 151.358C571.458 150.951 571.029 150.687 570.336 150.687C569.005 150.687 567.751 151.919 567.751 153.921C567.751 155.945 568.741 157.155 570.27 157.155ZM570.688 155.824C569.874 155.824 569.412 155.186 569.412 153.91C569.412 152.678 569.995 152.018 570.688 152.018C571.073 152.018 571.469 152.139 571.843 152.48V155.186C571.48 155.648 571.117 155.824 570.688 155.824Z" fill="#222222"/>
<path d="M536.125 181.155C538.116 181.155 539.271 180.044 539.271 177.338V172.85H537.709V177.481C537.709 179.175 537.093 179.747 536.125 179.747C535.179 179.747 534.585 179.175 534.585 177.481V172.85H532.957V177.338C532.957 180.044 534.145 181.155 536.125 181.155Z" fill="#222222"/>
<path d="M541.098 183.366H542.715V181.496L542.66 180.484C543.133 180.913 543.65 181.155 544.189 181.155C545.542 181.155 546.807 179.934 546.807 177.822C546.807 175.93 545.905 174.687 544.387 174.687C543.727 174.687 543.089 175.039 542.572 175.479H542.539L542.418 174.841H541.098V183.366ZM543.826 179.824C543.496 179.824 543.1 179.703 542.715 179.362V176.656C543.133 176.227 543.507 176.018 543.925 176.018C544.772 176.018 545.146 176.667 545.146 177.844C545.146 179.186 544.574 179.824 543.826 179.824Z" fill="#222222"/>
<path d="M550.344 181.155C550.982 181.155 551.598 180.803 552.049 180.363H552.093L552.214 181.001H553.523V172.223H551.917V174.39L551.972 175.358C551.532 174.951 551.103 174.687 550.41 174.687C549.079 174.687 547.825 175.919 547.825 177.921C547.825 179.945 548.815 181.155 550.344 181.155ZM550.762 179.824C549.948 179.824 549.486 179.186 549.486 177.91C549.486 176.678 550.069 176.018 550.762 176.018C551.147 176.018 551.543 176.139 551.917 176.48V179.186C551.554 179.648 551.191 179.824 550.762 179.824Z" fill="#222222"/>
<path d="M556.774 181.155C557.478 181.155 558.094 180.803 558.633 180.341H558.677L558.787 181.001H560.107V177.404C560.107 175.622 559.304 174.687 557.742 174.687C556.774 174.687 555.894 175.05 555.168 175.501L555.751 176.568C556.323 176.238 556.873 175.985 557.445 175.985C558.204 175.985 558.468 176.447 558.501 177.052C556.015 177.316 554.948 178.009 554.948 179.329C554.948 180.374 555.674 181.155 556.774 181.155ZM557.302 179.89C556.829 179.89 556.488 179.681 556.488 179.197C556.488 178.647 556.994 178.229 558.501 178.042V179.285C558.105 179.67 557.764 179.89 557.302 179.89Z" fill="#222222"/>
<path d="M563.806 181.155C564.345 181.155 564.774 181.034 565.104 180.924L564.84 179.747C564.675 179.813 564.433 179.879 564.235 179.879C563.685 179.879 563.399 179.549 563.399 178.845V176.117H564.917V174.841H563.399V173.18H562.057L561.87 174.841L560.913 174.918V176.117H561.782V178.845C561.782 180.22 562.343 181.155 563.806 181.155Z" fill="#222222"/>
<path d="M568.65 181.155C569.409 181.155 570.19 180.891 570.795 180.473L570.245 179.483C569.805 179.758 569.365 179.912 568.859 179.912C567.946 179.912 567.286 179.384 567.154 178.372H570.949C570.993 178.229 571.026 177.932 571.026 177.624C571.026 175.93 570.146 174.687 568.452 174.687C566.989 174.687 565.581 175.93 565.581 177.921C565.581 179.956 566.923 181.155 568.65 181.155ZM567.132 177.294C567.253 176.403 567.825 175.941 568.474 175.941C569.266 175.941 569.64 176.469 569.64 177.294H567.132Z" fill="#222222"/>
<path d="M574.524 181.155C575.162 181.155 575.778 180.803 576.229 180.363H576.273L576.394 181.001H577.703V172.223H576.097V174.39L576.152 175.358C575.712 174.951 575.283 174.687 574.59 174.687C573.259 174.687 572.005 175.919 572.005 177.921C572.005 179.945 572.995 181.155 574.524 181.155ZM574.942 179.824C574.128 179.824 573.666 179.186 573.666 177.91C573.666 176.678 574.249 176.018 574.942 176.018C575.327 176.018 575.723 176.139 576.097 176.48V179.186C575.734 179.648 575.371 179.824 574.942 179.824Z" fill="#222222"/>
<path d="M535.432 205.155C537.313 205.155 538.424 204.022 538.424 202.691C538.424 201.514 537.775 200.887 536.785 200.48L535.718 200.029C535.025 199.754 534.453 199.545 534.453 198.962C534.453 198.423 534.904 198.104 535.619 198.104C536.29 198.104 536.829 198.346 537.346 198.775L538.171 197.752C537.511 197.081 536.565 196.707 535.619 196.707C533.969 196.707 532.803 197.73 532.803 199.061C532.803 200.249 533.628 200.909 534.453 201.25L535.542 201.712C536.268 202.02 536.763 202.207 536.763 202.812C536.763 203.384 536.312 203.747 535.465 203.747C534.75 203.747 533.98 203.384 533.397 202.845L532.462 203.967C533.254 204.726 534.343 205.155 535.432 205.155Z" fill="#222222"/>
<path d="M539.733 205.001H541.35V198.841H539.733V205.001ZM540.547 197.851C541.097 197.851 541.482 197.499 541.482 196.96C541.482 196.432 541.097 196.08 540.547 196.08C539.986 196.08 539.601 196.432 539.601 196.96C539.601 197.499 539.986 197.851 540.547 197.851Z" fill="#222222"/>
<path d="M542.656 205.001H547.529V203.725H544.669L547.43 199.71V198.841H542.964V200.117H545.417L542.656 204.132V205.001Z" fill="#222222"/>
<path d="M551.247 205.155C552.006 205.155 552.787 204.891 553.392 204.473L552.842 203.483C552.402 203.758 551.962 203.912 551.456 203.912C550.543 203.912 549.883 203.384 549.751 202.372H553.546C553.59 202.229 553.623 201.932 553.623 201.624C553.623 199.93 552.743 198.687 551.049 198.687C549.586 198.687 548.178 199.93 548.178 201.921C548.178 203.956 549.52 205.155 551.247 205.155ZM549.729 201.294C549.85 200.403 550.422 199.941 551.071 199.941C551.863 199.941 552.237 200.469 552.237 201.294H549.729Z" fill="#222222"/>
<path d="M534.618 229.001H536.246V222.214H538.556V220.85H532.33V222.214H534.618V229.001Z" fill="#222222"/>
<path d="M539.95 231.476C541.325 231.476 541.985 230.64 542.524 229.188L544.713 222.841H543.162L542.315 225.701C542.172 226.273 542.018 226.867 541.875 227.439H541.82C541.644 226.845 541.49 226.251 541.303 225.701L540.324 222.841H538.696L541.094 228.891L540.984 229.254C540.808 229.793 540.456 230.189 539.829 230.189C539.686 230.189 539.51 230.145 539.4 230.112L539.103 231.355C539.345 231.432 539.587 231.476 539.95 231.476Z" fill="#222222"/>
<path d="M545.727 231.366H547.344V229.496L547.289 228.484C547.762 228.913 548.279 229.155 548.818 229.155C550.171 229.155 551.436 227.934 551.436 225.822C551.436 223.93 550.534 222.687 549.016 222.687C548.356 222.687 547.718 223.039 547.201 223.479H547.168L547.047 222.841H545.727V231.366ZM548.455 227.824C548.125 227.824 547.729 227.703 547.344 227.362V224.656C547.762 224.227 548.136 224.018 548.554 224.018C549.401 224.018 549.775 224.667 549.775 225.844C549.775 227.186 549.203 227.824 548.455 227.824Z" fill="#222222"/>
<path d="M555.491 229.155C556.25 229.155 557.031 228.891 557.636 228.473L557.086 227.483C556.646 227.758 556.206 227.912 555.7 227.912C554.787 227.912 554.127 227.384 553.995 226.372H557.79C557.834 226.229 557.867 225.932 557.867 225.624C557.867 223.93 556.987 222.687 555.293 222.687C553.83 222.687 552.422 223.93 552.422 225.921C552.422 227.956 553.764 229.155 555.491 229.155ZM553.973 225.294C554.094 224.403 554.666 223.941 555.315 223.941C556.107 223.941 556.481 224.469 556.481 225.294H553.973Z" fill="#222222"/>
<path d="M533.001 253.001H534.629V250.108H535.718C537.467 250.108 538.864 249.272 538.864 247.413C538.864 245.488 537.478 244.85 535.674 244.85H533.001V253.001ZM534.629 248.821V246.148H535.553C536.675 246.148 537.269 246.467 537.269 247.413C537.269 248.348 536.73 248.821 535.608 248.821H534.629Z" fill="#222222"/>
<path d="M541.273 253.155C541.977 253.155 542.593 252.803 543.132 252.341H543.176L543.286 253.001H544.606V249.404C544.606 247.622 543.803 246.687 542.241 246.687C541.273 246.687 540.393 247.05 539.667 247.501L540.25 248.568C540.822 248.238 541.372 247.985 541.944 247.985C542.703 247.985 542.967 248.447 543 249.052C540.514 249.316 539.447 250.009 539.447 251.329C539.447 252.374 540.173 253.155 541.273 253.155ZM541.801 251.89C541.328 251.89 540.987 251.681 540.987 251.197C540.987 250.647 541.493 250.229 543 250.042V251.285C542.604 251.67 542.263 251.89 541.801 251.89Z" fill="#222222"/>
<path d="M548.305 253.155C548.844 253.155 549.273 253.034 549.603 252.924L549.339 251.747C549.174 251.813 548.932 251.879 548.734 251.879C548.184 251.879 547.898 251.549 547.898 250.845V248.117H549.416V246.841H547.898V245.18H546.556L546.369 246.841L545.412 246.918V248.117H546.281V250.845C546.281 252.22 546.842 253.155 548.305 253.155Z" fill="#222222"/>
<path d="M550.669 253.001H552.286V248.766C552.737 248.315 553.056 248.073 553.562 248.073C554.167 248.073 554.431 248.403 554.431 249.36V253.001H556.048V249.162C556.048 247.611 555.476 246.687 554.145 246.687C553.309 246.687 552.704 247.127 552.209 247.589L552.286 246.434V244.223H550.669V253.001Z" fill="#222222"/>
<path d="M603.484 157H608.555V156.131H606.278C605.86 156.131 605.376 156.175 604.958 156.208C606.817 154.25 608.159 152.787 608.159 151.313C608.159 149.927 607.257 149.014 605.816 149.014C604.793 149.014 604.1 149.487 603.44 150.202L604.023 150.763C604.463 150.246 605.035 149.828 605.695 149.828C606.696 149.828 607.18 150.466 607.18 151.357C607.18 152.644 605.849 154.052 603.484 156.406V157Z" fill="#222222"/>
<path d="M612.159 157.143C613.721 157.143 614.667 155.68 614.667 153.051C614.667 150.433 613.721 149.014 612.159 149.014C610.597 149.014 609.64 150.422 609.64 153.051C609.64 155.68 610.597 157.143 612.159 157.143ZM612.159 156.34C611.235 156.34 610.619 155.35 610.619 153.051C610.619 150.752 611.235 149.817 612.159 149.817C613.072 149.817 613.688 150.752 613.688 153.051C613.688 155.35 613.072 156.34 612.159 156.34Z" fill="#222222"/>
<path d="M615.687 157H620.758V156.131H618.481C618.063 156.131 617.579 156.175 617.161 156.208C619.02 154.25 620.362 152.787 620.362 151.313C620.362 149.927 619.46 149.014 618.019 149.014C616.996 149.014 616.303 149.487 615.643 150.202L616.226 150.763C616.666 150.246 617.238 149.828 617.898 149.828C618.899 149.828 619.383 150.466 619.383 151.357C619.383 152.644 618.052 154.052 615.687 156.406V157Z" fill="#222222"/>
<path d="M622.272 157H626.694V156.164H625.077V149.157H624.307C623.867 149.421 623.35 149.608 622.635 149.729V150.378H624.065V156.164H622.272V157Z" fill="#222222"/>
<path d="M628.935 157.143C629.331 157.143 629.661 156.835 629.661 156.384C629.661 155.922 629.331 155.603 628.935 155.603C628.539 155.603 628.209 155.922 628.209 156.384C628.209 156.835 628.539 157.143 628.935 157.143Z" fill="#222222"/>
<path d="M635.986 157.143C637.548 157.143 638.494 155.68 638.494 153.051C638.494 150.433 637.548 149.014 635.986 149.014C634.424 149.014 633.467 150.422 633.467 153.051C633.467 155.68 634.424 157.143 635.986 157.143ZM635.986 156.34C635.062 156.34 634.446 155.35 634.446 153.051C634.446 150.752 635.062 149.817 635.986 149.817C636.899 149.817 637.515 150.752 637.515 153.051C637.515 155.35 636.899 156.34 635.986 156.34Z" fill="#222222"/>
<path d="M640.294 154.03L642.131 151.335C642.362 150.95 642.582 150.609 642.78 150.235H642.824C642.802 150.653 642.769 151.324 642.769 151.731V154.03H640.294ZM642.769 157H643.715V154.833H644.782V154.03H643.715V149.157H642.604L639.249 154.173V154.833H642.769V157Z" fill="#222222"/>
<path d="M646.66 157.143C647.056 157.143 647.386 156.835 647.386 156.384C647.386 155.922 647.056 155.603 646.66 155.603C646.264 155.603 645.934 155.922 645.934 156.384C645.934 156.835 646.264 157.143 646.66 157.143Z" fill="#222222"/>
<path d="M651.136 157H656.207V156.131H653.93C653.512 156.131 653.028 156.175 652.61 156.208C654.469 154.25 655.811 152.787 655.811 151.313C655.811 149.927 654.909 149.014 653.468 149.014C652.445 149.014 651.752 149.487 651.092 150.202L651.675 150.763C652.115 150.246 652.687 149.828 653.347 149.828C654.348 149.828 654.832 150.466 654.832 151.357C654.832 152.644 653.501 154.052 651.136 156.406V157Z" fill="#222222"/>
<path d="M658.184 151.522C658.184 150.488 658.778 149.806 659.548 149.806C660.549 149.806 661.165 150.62 661.297 152.138C660.791 152.886 660.153 153.205 659.647 153.205C658.668 153.205 658.184 152.545 658.184 151.522ZM659.273 157.143C660.835 157.143 662.254 155.933 662.254 152.787C662.254 150.268 661.099 149.014 659.548 149.014C658.294 149.014 657.238 150.026 657.238 151.522C657.238 153.128 658.118 153.953 659.482 153.953C660.12 153.953 660.813 153.568 661.319 152.941C661.275 155.449 660.34 156.307 659.24 156.307C658.745 156.307 658.261 156.076 657.953 155.691L657.392 156.318C657.821 156.791 658.437 157.143 659.273 157.143Z" fill="#222222"/>
<path d="M668.956 157.143C670.331 157.143 671.552 155.966 671.552 153.909C671.552 152.083 670.716 150.873 669.165 150.873C668.505 150.873 667.834 151.247 667.295 151.72L667.328 150.642V148.244H666.327V157H667.13L667.218 156.384H667.262C667.779 156.857 668.406 157.143 668.956 157.143ZM668.791 156.307C668.395 156.307 667.856 156.142 667.328 155.68V152.545C667.9 152.006 668.428 151.72 668.934 151.72C670.067 151.72 670.507 152.611 670.507 153.931C670.507 155.416 669.781 156.307 668.791 156.307Z" fill="#222222"/>
<path d="M673.183 159.574C674.371 159.574 674.998 158.672 675.405 157.495L677.66 151.027H676.681L675.614 154.349C675.449 154.877 675.273 155.482 675.108 156.021H675.053C674.866 155.482 674.657 154.866 674.481 154.349L673.26 151.027H672.215L674.613 157.011L674.481 157.462C674.239 158.199 673.81 158.749 673.128 158.749C672.974 158.749 672.798 158.694 672.677 158.65L672.479 159.453C672.666 159.53 672.897 159.574 673.183 159.574Z" fill="#222222"/>
<path d="M682.875 157.143C684.448 157.143 685.086 156.021 685.086 154.635V148.926H684.074V154.536C684.074 155.757 683.645 156.252 682.776 156.252C682.193 156.252 681.742 155.988 681.379 155.35L680.653 155.867C681.126 156.703 681.852 157.143 682.875 157.143Z" fill="#222222"/>
<path d="M688.553 157.143C689.29 157.143 689.961 156.758 690.533 156.285H690.566L690.654 157H691.479V153.326C691.479 151.852 690.863 150.873 689.411 150.873C688.454 150.873 687.607 151.302 687.057 151.654L687.453 152.347C687.926 152.028 688.553 151.709 689.246 151.709C690.225 151.709 690.478 152.446 690.478 153.216C687.937 153.502 686.804 154.151 686.804 155.449C686.804 156.527 687.552 157.143 688.553 157.143ZM688.839 156.34C688.245 156.34 687.783 156.065 687.783 155.383C687.783 154.613 688.465 154.118 690.478 153.876V155.548C689.895 156.065 689.422 156.34 688.839 156.34Z" fill="#222222"/>
<path d="M693.387 157H694.388V152.666C694.938 152.05 695.444 151.753 695.895 151.753C696.654 151.753 697.006 152.226 697.006 153.348V157H698.007V152.666C698.568 152.05 699.052 151.753 699.514 151.753C700.273 151.753 700.625 152.226 700.625 153.348V157H701.626V153.216C701.626 151.687 701.043 150.873 699.811 150.873C699.085 150.873 698.458 151.346 697.842 152.017C697.6 151.313 697.105 150.873 696.192 150.873C695.477 150.873 694.85 151.324 694.333 151.896H694.3L694.212 151.027H693.387V157Z" fill="#222222"/>
<path d="M705.979 157.143C706.793 157.143 707.431 156.868 707.959 156.527L707.596 155.867C707.156 156.164 706.683 156.34 706.1 156.34C704.967 156.34 704.186 155.526 704.12 154.25H708.146C708.168 154.107 708.19 153.898 708.19 153.678C708.19 151.973 707.332 150.873 705.814 150.873C704.428 150.873 703.119 152.083 703.119 154.019C703.119 155.988 704.395 157.143 705.979 157.143ZM704.109 153.524C704.23 152.358 704.978 151.676 705.825 151.676C706.76 151.676 707.31 152.325 707.31 153.524H704.109Z" fill="#222222"/>
<path d="M711.223 157.143C712.631 157.143 713.401 156.34 713.401 155.372C713.401 154.239 712.444 153.887 711.575 153.557C710.904 153.304 710.288 153.095 710.288 152.523C710.288 152.061 710.64 151.665 711.399 151.665C711.927 151.665 712.345 151.885 712.752 152.193L713.236 151.544C712.774 151.181 712.125 150.873 711.388 150.873C710.09 150.873 709.32 151.621 709.32 152.567C709.32 153.579 710.233 153.986 711.069 154.294C711.729 154.547 712.433 154.811 712.433 155.427C712.433 155.944 712.048 156.362 711.256 156.362C710.541 156.362 710.002 156.076 709.485 155.658L708.99 156.318C709.562 156.791 710.376 157.143 711.223 157.143Z" fill="#222222"/>
<path d="M603.484 181H608.555V180.131H606.278C605.86 180.131 605.376 180.175 604.958 180.208C606.817 178.25 608.159 176.787 608.159 175.313C608.159 173.927 607.257 173.014 605.816 173.014C604.793 173.014 604.1 173.487 603.44 174.202L604.023 174.763C604.463 174.246 605.035 173.828 605.695 173.828C606.696 173.828 607.18 174.466 607.18 175.357C607.18 176.644 605.849 178.052 603.484 180.406V181Z" fill="#222222"/>
<path d="M612.159 181.143C613.721 181.143 614.667 179.68 614.667 177.051C614.667 174.433 613.721 173.014 612.159 173.014C610.597 173.014 609.64 174.422 609.64 177.051C609.64 179.68 610.597 181.143 612.159 181.143ZM612.159 180.34C611.235 180.34 610.619 179.35 610.619 177.051C610.619 174.752 611.235 173.817 612.159 173.817C613.072 173.817 613.688 174.752 613.688 177.051C613.688 179.35 613.072 180.34 612.159 180.34Z" fill="#222222"/>
<path d="M615.687 181H620.758V180.131H618.481C618.063 180.131 617.579 180.175 617.161 180.208C619.02 178.25 620.362 176.787 620.362 175.313C620.362 173.927 619.46 173.014 618.019 173.014C616.996 173.014 616.303 173.487 615.643 174.202L616.226 174.763C616.666 174.246 617.238 173.828 617.898 173.828C618.899 173.828 619.383 174.466 619.383 175.357C619.383 176.644 618.052 178.052 615.687 180.406V181Z" fill="#222222"/>
<path d="M622.272 181H626.694V180.164H625.077V173.157H624.307C623.867 173.421 623.35 173.608 622.635 173.729V174.378H624.065V180.164H622.272V181Z" fill="#222222"/>
<path d="M628.935 181.143C629.331 181.143 629.661 180.835 629.661 180.384C629.661 179.922 629.331 179.603 628.935 179.603C628.539 179.603 628.209 179.922 628.209 180.384C628.209 180.835 628.539 181.143 628.935 181.143Z" fill="#222222"/>
<path d="M635.986 181.143C637.548 181.143 638.494 179.68 638.494 177.051C638.494 174.433 637.548 173.014 635.986 173.014C634.424 173.014 633.467 174.422 633.467 177.051C633.467 179.68 634.424 181.143 635.986 181.143ZM635.986 180.34C635.062 180.34 634.446 179.35 634.446 177.051C634.446 174.752 635.062 173.817 635.986 173.817C636.899 173.817 637.515 174.752 637.515 177.051C637.515 179.35 636.899 180.34 635.986 180.34Z" fill="#222222"/>
<path d="M640.294 178.03L642.131 175.335C642.362 174.95 642.582 174.609 642.78 174.235H642.824C642.802 174.653 642.769 175.324 642.769 175.731V178.03H640.294ZM642.769 181H643.715V178.833H644.782V178.03H643.715V173.157H642.604L639.249 178.173V178.833H642.769V181Z" fill="#222222"/>
<path d="M646.66 181.143C647.056 181.143 647.386 180.835 647.386 180.384C647.386 179.922 647.056 179.603 646.66 179.603C646.264 179.603 645.934 179.922 645.934 180.384C645.934 180.835 646.264 181.143 646.66 181.143Z" fill="#222222"/>
<path d="M651.136 181H656.207V180.131H653.93C653.512 180.131 653.028 180.175 652.61 180.208C654.469 178.25 655.811 176.787 655.811 175.313C655.811 173.927 654.909 173.014 653.468 173.014C652.445 173.014 651.752 173.487 651.092 174.202L651.675 174.763C652.115 174.246 652.687 173.828 653.347 173.828C654.348 173.828 654.832 174.466 654.832 175.357C654.832 176.644 653.501 178.052 651.136 180.406V181Z" fill="#222222"/>
<path d="M658.184 175.522C658.184 174.488 658.778 173.806 659.548 173.806C660.549 173.806 661.165 174.62 661.297 176.138C660.791 176.886 660.153 177.205 659.647 177.205C658.668 177.205 658.184 176.545 658.184 175.522ZM659.273 181.143C660.835 181.143 662.254 179.933 662.254 176.787C662.254 174.268 661.099 173.014 659.548 173.014C658.294 173.014 657.238 174.026 657.238 175.522C657.238 177.128 658.118 177.953 659.482 177.953C660.12 177.953 660.813 177.568 661.319 176.941C661.275 179.449 660.34 180.307 659.24 180.307C658.745 180.307 658.261 180.076 657.953 179.691L657.392 180.318C657.821 180.791 658.437 181.143 659.273 181.143Z" fill="#222222"/>
<path d="M668.956 181.143C670.331 181.143 671.552 179.966 671.552 177.909C671.552 176.083 670.716 174.873 669.165 174.873C668.505 174.873 667.834 175.247 667.295 175.72L667.328 174.642V172.244H666.327V181H667.13L667.218 180.384H667.262C667.779 180.857 668.406 181.143 668.956 181.143ZM668.791 180.307C668.395 180.307 667.856 180.142 667.328 179.68V176.545C667.9 176.006 668.428 175.72 668.934 175.72C670.067 175.72 670.507 176.611 670.507 177.931C670.507 179.416 669.781 180.307 668.791 180.307Z" fill="#222222"/>
<path d="M673.183 183.574C674.371 183.574 674.998 182.672 675.405 181.495L677.66 175.027H676.681L675.614 178.349C675.449 178.877 675.273 179.482 675.108 180.021H675.053C674.866 179.482 674.657 178.866 674.481 178.349L673.26 175.027H672.215L674.613 181.011L674.481 181.462C674.239 182.199 673.81 182.749 673.128 182.749C672.974 182.749 672.798 182.694 672.677 182.65L672.479 183.453C672.666 183.53 672.897 183.574 673.183 183.574Z" fill="#222222"/>
<path d="M680.664 183.673C681.841 183.673 682.292 182.903 682.292 181.682V175.027H681.291V181.682C681.291 182.408 681.148 182.859 680.554 182.859C680.334 182.859 680.136 182.804 679.982 182.749L679.784 183.519C679.993 183.596 680.301 183.673 680.664 183.673ZM681.786 173.795C682.171 173.795 682.446 173.531 682.446 173.124C682.446 172.739 682.171 172.475 681.786 172.475C681.39 172.475 681.115 172.739 681.115 173.124C681.115 173.531 681.39 173.795 681.786 173.795Z" fill="#222222"/>
<path d="M685.695 181.143C686.432 181.143 687.103 180.758 687.675 180.285H687.708L687.796 181H688.621V177.326C688.621 175.852 688.005 174.873 686.553 174.873C685.596 174.873 684.749 175.302 684.199 175.654L684.595 176.347C685.068 176.028 685.695 175.709 686.388 175.709C687.367 175.709 687.62 176.446 687.62 177.216C685.079 177.502 683.946 178.151 683.946 179.449C683.946 180.527 684.694 181.143 685.695 181.143ZM685.981 180.34C685.387 180.34 684.925 180.065 684.925 179.383C684.925 178.613 685.607 178.118 687.62 177.876V179.548C687.037 180.065 686.564 180.34 685.981 180.34Z" fill="#222222"/>
<path d="M690.529 181H691.53V176.666C692.08 176.05 692.586 175.753 693.037 175.753C693.796 175.753 694.148 176.226 694.148 177.348V181H695.149V176.666C695.71 176.05 696.194 175.753 696.656 175.753C697.415 175.753 697.767 176.226 697.767 177.348V181H698.768V177.216C698.768 175.687 698.185 174.873 696.953 174.873C696.227 174.873 695.6 175.346 694.984 176.017C694.742 175.313 694.247 174.873 693.334 174.873C692.619 174.873 691.992 175.324 691.475 175.896H691.442L691.354 175.027H690.529V181Z" fill="#222222"/>
<path d="M703.122 181.143C703.936 181.143 704.574 180.868 705.102 180.527L704.739 179.867C704.299 180.164 703.826 180.34 703.243 180.34C702.11 180.34 701.329 179.526 701.263 178.25H705.289C705.311 178.107 705.333 177.898 705.333 177.678C705.333 175.973 704.475 174.873 702.957 174.873C701.571 174.873 700.262 176.083 700.262 178.019C700.262 179.988 701.538 181.143 703.122 181.143ZM701.252 177.524C701.373 176.358 702.121 175.676 702.968 175.676C703.903 175.676 704.453 176.325 704.453 177.524H701.252Z" fill="#222222"/>
<path d="M708.366 181.143C709.774 181.143 710.544 180.34 710.544 179.372C710.544 178.239 709.587 177.887 708.718 177.557C708.047 177.304 707.431 177.095 707.431 176.523C707.431 176.061 707.783 175.665 708.542 175.665C709.07 175.665 709.488 175.885 709.895 176.193L710.379 175.544C709.917 175.181 709.268 174.873 708.531 174.873C707.233 174.873 706.463 175.621 706.463 176.567C706.463 177.579 707.376 177.986 708.212 178.294C708.872 178.547 709.576 178.811 709.576 179.427C709.576 179.944 709.191 180.362 708.399 180.362C707.684 180.362 707.145 180.076 706.628 179.658L706.133 180.318C706.705 180.791 707.519 181.143 708.366 181.143Z" fill="#222222"/>
<path d="M603.968 205H608.39V204.164H606.773V197.157H606.003C605.563 197.421 605.046 197.608 604.331 197.729V198.378H605.761V204.164H603.968V205Z" fill="#222222"/>
<path d="M610.63 205.143C611.026 205.143 611.356 204.835 611.356 204.384C611.356 203.922 611.026 203.603 610.63 203.603C610.234 203.603 609.904 203.922 609.904 204.384C609.904 204.835 610.234 205.143 610.63 205.143Z" fill="#222222"/>
<path d="M612.647 205H617.718V204.131H615.441C615.023 204.131 614.539 204.175 614.121 204.208C615.98 202.25 617.322 200.787 617.322 199.313C617.322 197.927 616.42 197.014 614.979 197.014C613.956 197.014 613.263 197.487 612.603 198.202L613.186 198.763C613.626 198.246 614.198 197.828 614.858 197.828C615.859 197.828 616.343 198.466 616.343 199.357C616.343 200.644 615.012 202.052 612.647 204.406V205Z" fill="#222222"/>
<path d="M622.532 205.143C623.621 205.143 624.512 204.747 625.029 204.208V200.82H622.389V201.667H624.094V203.779C623.775 204.076 623.214 204.252 622.642 204.252C620.904 204.252 619.947 202.976 619.947 200.941C619.947 198.928 621.003 197.674 622.62 197.674C623.445 197.674 623.962 198.015 624.369 198.444L624.919 197.784C624.457 197.289 623.72 196.783 622.598 196.783C620.464 196.783 618.902 198.367 618.902 200.974C618.902 203.592 620.42 205.143 622.532 205.143Z" fill="#222222"/>
<path d="M626.948 205H629.522C631.326 205 632.58 204.219 632.58 202.635C632.58 201.535 631.898 200.897 630.941 200.71V200.655C631.689 200.413 632.118 199.709 632.118 198.906C632.118 197.487 630.985 196.926 629.346 196.926H626.948V205ZM627.971 200.369V197.74H629.214C630.468 197.74 631.117 198.092 631.117 199.038C631.117 199.852 630.556 200.369 629.17 200.369H627.971ZM627.971 204.186V201.139H629.379C630.787 201.139 631.579 201.601 631.579 202.602C631.579 203.691 630.765 204.186 629.379 204.186H627.971Z" fill="#222222"/>
<path d="M604.177 229H605.178V223.841H606.443V223.027H605.178V222.081C605.178 221.311 605.453 220.904 606.025 220.904C606.234 220.904 606.476 220.959 606.696 221.058L606.916 220.299C606.641 220.178 606.278 220.101 605.915 220.101C604.727 220.101 604.177 220.86 604.177 222.07V223.027L603.363 223.082V223.841H604.177V229Z" fill="#222222"/>
<path d="M609.792 229.143C611.255 229.143 612.564 227.999 612.564 226.019C612.564 224.028 611.255 222.873 609.792 222.873C608.329 222.873 607.02 224.028 607.02 226.019C607.02 227.999 608.329 229.143 609.792 229.143ZM609.792 228.307C608.758 228.307 608.065 227.394 608.065 226.019C608.065 224.644 608.758 223.709 609.792 223.709C610.826 223.709 611.53 224.644 611.53 226.019C611.53 227.394 610.826 228.307 609.792 228.307Z" fill="#222222"/>
<path d="M615.198 229.143C615.473 229.143 615.638 229.11 615.781 229.055L615.638 228.285C615.528 228.307 615.484 228.307 615.429 228.307C615.275 228.307 615.143 228.186 615.143 227.878V220.244H614.142V227.812C614.142 228.659 614.45 229.143 615.198 229.143Z" fill="#222222"/>
<path d="M619.313 229.143C620.028 229.143 620.655 228.758 621.128 228.296H621.161L621.249 229H622.063V220.244H621.073V222.543L621.117 223.577C620.589 223.137 620.138 222.873 619.434 222.873C618.07 222.873 616.849 224.083 616.849 226.019C616.849 228.01 617.817 229.143 619.313 229.143ZM619.533 228.307C618.477 228.307 617.883 227.449 617.883 226.008C617.883 224.644 618.642 223.72 619.61 223.72C620.105 223.72 620.556 223.896 621.073 224.347V227.482C620.567 228.032 620.083 228.307 619.533 228.307Z" fill="#222222"/>
<path d="M626.509 229.143C627.323 229.143 627.961 228.868 628.489 228.527L628.126 227.867C627.686 228.164 627.213 228.34 626.63 228.34C625.497 228.34 624.716 227.526 624.65 226.25H628.676C628.698 226.107 628.72 225.898 628.72 225.678C628.72 223.973 627.862 222.873 626.344 222.873C624.958 222.873 623.649 224.083 623.649 226.019C623.649 227.988 624.925 229.143 626.509 229.143ZM624.639 225.524C624.76 224.358 625.508 223.676 626.355 223.676C627.29 223.676 627.84 224.325 627.84 225.524H624.639Z" fill="#222222"/>
<path d="M630.191 229H631.192V225.161C631.588 224.138 632.204 223.786 632.699 223.786C632.941 223.786 633.084 223.808 633.282 223.885L633.469 223.005C633.282 222.906 633.095 222.873 632.831 222.873C632.16 222.873 631.555 223.357 631.137 224.116H631.104L631.016 223.027H630.191V229Z" fill="#222222"/>
<path d="M635.974 229.143C637.382 229.143 638.152 228.34 638.152 227.372C638.152 226.239 637.195 225.887 636.326 225.557C635.655 225.304 635.039 225.095 635.039 224.523C635.039 224.061 635.391 223.665 636.15 223.665C636.678 223.665 637.096 223.885 637.503 224.193L637.987 223.544C637.525 223.181 636.876 222.873 636.139 222.873C634.841 222.873 634.071 223.621 634.071 224.567C634.071 225.579 634.984 225.986 635.82 226.294C636.48 226.547 637.184 226.811 637.184 227.427C637.184 227.944 636.799 228.362 636.007 228.362C635.292 228.362 634.753 228.076 634.236 227.658L633.741 228.318C634.313 228.791 635.127 229.143 635.974 229.143Z" fill="#222222"/>
<path d="M605.607 253.143C607.18 253.143 607.818 252.021 607.818 250.635V244.926H606.806V250.536C606.806 251.757 606.377 252.252 605.508 252.252C604.925 252.252 604.474 251.988 604.111 251.35L603.385 251.867C603.858 252.703 604.584 253.143 605.607 253.143Z" fill="#222222"/>
<path d="M611.284 253.143C612.021 253.143 612.692 252.758 613.264 252.285H613.297L613.385 253H614.21V249.326C614.21 247.852 613.594 246.873 612.142 246.873C611.185 246.873 610.338 247.302 609.788 247.654L610.184 248.347C610.657 248.028 611.284 247.709 611.977 247.709C612.956 247.709 613.209 248.446 613.209 249.216C610.668 249.502 609.535 250.151 609.535 251.449C609.535 252.527 610.283 253.143 611.284 253.143ZM611.57 252.34C610.976 252.34 610.514 252.065 610.514 251.383C610.514 250.613 611.196 250.118 613.209 249.876V251.548C612.626 252.065 612.153 252.34 611.57 252.34Z" fill="#222222"/>
<path d="M616.118 253H617.119V248.666C617.669 248.05 618.175 247.753 618.626 247.753C619.385 247.753 619.737 248.226 619.737 249.348V253H620.738V248.666C621.299 248.05 621.783 247.753 622.245 247.753C623.004 247.753 623.356 248.226 623.356 249.348V253H624.357V249.216C624.357 247.687 623.774 246.873 622.542 246.873C621.816 246.873 621.189 247.346 620.573 248.017C620.331 247.313 619.836 246.873 618.923 246.873C618.208 246.873 617.581 247.324 617.064 247.896H617.031L616.943 247.027H616.118V253Z" fill="#222222"/>
<path d="M628.711 253.143C629.525 253.143 630.163 252.868 630.691 252.527L630.328 251.867C629.888 252.164 629.415 252.34 628.832 252.34C627.699 252.34 626.918 251.526 626.852 250.25H630.878C630.9 250.107 630.922 249.898 630.922 249.678C630.922 247.973 630.064 246.873 628.546 246.873C627.16 246.873 625.851 248.083 625.851 250.019C625.851 251.988 627.127 253.143 628.711 253.143ZM626.841 249.524C626.962 248.358 627.71 247.676 628.557 247.676C629.492 247.676 630.042 248.325 630.042 249.524H626.841Z" fill="#222222"/>
<path d="M633.955 253.143C635.363 253.143 636.133 252.34 636.133 251.372C636.133 250.239 635.176 249.887 634.307 249.557C633.636 249.304 633.02 249.095 633.02 248.523C633.02 248.061 633.372 247.665 634.131 247.665C634.659 247.665 635.077 247.885 635.484 248.193L635.968 247.544C635.506 247.181 634.857 246.873 634.12 246.873C632.822 246.873 632.052 247.621 632.052 248.567C632.052 249.579 632.965 249.986 633.801 250.294C634.461 250.547 635.165 250.811 635.165 251.427C635.165 251.944 634.78 252.362 633.988 252.362C633.273 252.362 632.734 252.076 632.217 251.658L631.722 252.318C632.294 252.791 633.108 253.143 633.955 253.143Z" fill="#222222"/>
<path d="M637.15 250.305H639.966V249.535H637.15V250.305Z" fill="#222222"/>
<path d="M641.47 255.519H642.471V253.495L642.449 252.45C642.988 252.89 643.56 253.143 644.099 253.143C645.474 253.143 646.695 251.966 646.695 249.92C646.695 248.083 645.859 246.873 644.319 246.873C643.626 246.873 642.955 247.269 642.416 247.709H642.383L642.295 247.027H641.47V255.519ZM643.934 252.307C643.538 252.307 643.01 252.142 642.471 251.68V248.545C643.054 248.006 643.571 247.72 644.077 247.72C645.21 247.72 645.65 248.611 645.65 249.931C645.65 251.416 644.924 252.307 643.934 252.307Z" fill="#222222"/>
<path d="M650.029 253.143C650.854 253.143 651.448 252.714 652.009 252.065H652.042L652.119 253H652.955V247.027H651.954V251.262C651.382 251.977 650.953 252.274 650.337 252.274C649.545 252.274 649.215 251.801 649.215 250.69V247.027H648.214V250.811C648.214 252.329 648.775 253.143 650.029 253.143Z" fill="#222222"/>
<path d="M657.602 253.143C658.977 253.143 660.198 251.966 660.198 249.909C660.198 248.083 659.362 246.873 657.811 246.873C657.151 246.873 656.48 247.247 655.941 247.72L655.974 246.642V244.244H654.973V253H655.776L655.864 252.384H655.908C656.425 252.857 657.052 253.143 657.602 253.143ZM657.437 252.307C657.041 252.307 656.502 252.142 655.974 251.68V248.545C656.546 248.006 657.074 247.72 657.58 247.72C658.713 247.72 659.153 248.611 659.153 249.931C659.153 251.416 658.427 252.307 657.437 252.307Z" fill="#222222"/>
<path d="M662.829 253.143C663.104 253.143 663.269 253.11 663.412 253.055L663.269 252.285C663.159 252.307 663.115 252.307 663.06 252.307C662.906 252.307 662.774 252.186 662.774 251.878V244.244H661.773V251.812C661.773 252.659 662.081 253.143 662.829 253.143Z" fill="#222222"/>
<path d="M664.909 253H665.91V247.027H664.909V253ZM665.415 245.795C665.811 245.795 666.086 245.531 666.086 245.124C666.086 244.739 665.811 244.475 665.415 244.475C665.019 244.475 664.744 244.739 664.744 245.124C664.744 245.531 665.019 245.795 665.415 245.795Z" fill="#222222"/>
<path d="M670.293 253.143C671.008 253.143 671.69 252.868 672.229 252.384L671.789 251.713C671.415 252.054 670.931 252.307 670.381 252.307C669.281 252.307 668.533 251.394 668.533 250.019C668.533 248.644 669.325 247.709 670.414 247.709C670.887 247.709 671.25 247.929 671.602 248.237L672.119 247.577C671.69 247.203 671.151 246.873 670.37 246.873C668.841 246.873 667.488 248.028 667.488 250.019C667.488 251.999 668.709 253.143 670.293 253.143Z" fill="#222222"/>
<path d="M532 55H542V61.25H532V55Z" fill="#B1DAF8"/>
<path d="M532 57.5H552V61.25H532V57.5Z" fill="#B1DAF8"/>
<path d="M532 61.25H552V75H532V61.25Z" fill="#98CBF2"/>
<path d="M568.425 71.2109C570.705 71.2109 572.175 69.2159 572.175 65.5409C572.175 61.8959 570.705 59.9759 568.425 59.9759C566.145 59.9759 564.66 61.8809 564.66 65.5409C564.66 69.2159 566.145 71.2109 568.425 71.2109ZM568.425 69.4859C567.465 69.4859 566.745 68.5559 566.745 65.5409C566.745 62.5409 567.465 61.7009 568.425 61.7009C569.385 61.7009 570.09 62.5409 570.09 65.5409C570.09 68.5559 569.385 69.4859 568.425 69.4859Z" fill="#222222"/>
<path d="M576.943 71.2109C579.058 71.2109 580.843 70.0559 580.843 68.0759C580.843 66.6509 579.883 65.7359 578.638 65.4059V65.3309C579.793 64.8659 580.483 64.0559 580.483 62.8859C580.483 61.0259 579.028 59.9759 576.883 59.9759C575.578 59.9759 574.513 60.5159 573.553 61.3559L574.678 62.7059C575.338 62.0909 575.983 61.7159 576.778 61.7159C577.723 61.7159 578.263 62.2109 578.263 63.0509C578.263 63.9809 577.603 64.6559 575.563 64.6559V66.2459C577.978 66.2459 578.623 66.8909 578.623 67.9409C578.623 68.8709 577.858 69.4109 576.733 69.4109C575.728 69.4109 574.918 68.9159 574.258 68.2709L573.223 69.6659C574.003 70.5509 575.188 71.2109 576.943 71.2109Z" fill="#222222"/>
<path d="M586.43 71.0009H588.65V67.0559H590.135C592.52 67.0559 594.425 65.9159 594.425 63.3809C594.425 60.7559 592.535 59.8859 590.075 59.8859H586.43V71.0009ZM588.65 65.3009V61.6559H589.91C591.44 61.6559 592.25 62.0909 592.25 63.3809C592.25 64.6559 591.515 65.3009 589.985 65.3009H588.65Z" fill="#222222"/>
<path d="M596.254 71.0009H598.459V65.9909C598.924 64.7759 599.719 64.3409 600.379 64.3409C600.724 64.3409 600.964 64.3859 601.264 64.4759L601.639 62.5709C601.384 62.4659 601.114 62.3909 600.649 62.3909C599.779 62.3909 598.879 62.9909 598.264 64.0859H598.219L598.054 62.6009H596.254V71.0009Z" fill="#222222"/>
<path d="M606.122 71.2109C608.222 71.2109 610.157 69.5909 610.157 66.8009C610.157 64.0109 608.222 62.3909 606.122 62.3909C604.022 62.3909 602.087 64.0109 602.087 66.8009C602.087 69.5909 604.022 71.2109 606.122 71.2109ZM606.122 69.4109C604.982 69.4109 604.337 68.3909 604.337 66.8009C604.337 65.2259 604.982 64.1909 606.122 64.1909C607.262 64.1909 607.907 65.2259 607.907 66.8009C607.907 68.3909 607.262 69.4109 606.122 69.4109Z" fill="#222222"/>
<path d="M611.417 74.4359C613.532 74.4359 614.222 73.0109 614.222 71.2109V62.6009H612.017V71.2709C612.017 72.2159 611.807 72.6959 611.102 72.6959C610.847 72.6959 610.622 72.6509 610.397 72.5759L610.007 74.2109C610.337 74.3309 610.772 74.4359 611.417 74.4359ZM613.112 61.2509C613.877 61.2509 614.402 60.7709 614.402 60.0359C614.402 59.3159 613.877 58.8359 613.112 58.8359C612.362 58.8359 611.837 59.3159 611.837 60.0359C611.837 60.7709 612.362 61.2509 613.112 61.2509Z" fill="#222222"/>
<path d="M620.247 71.2109C621.282 71.2109 622.347 70.8509 623.172 70.2809L622.422 68.9309C621.822 69.3059 621.222 69.5159 620.532 69.5159C619.287 69.5159 618.387 68.7959 618.207 67.4159H623.382C623.442 67.2209 623.487 66.8159 623.487 66.3959C623.487 64.0859 622.287 62.3909 619.977 62.3909C617.982 62.3909 616.062 64.0859 616.062 66.8009C616.062 69.5759 617.892 71.2109 620.247 71.2109ZM618.177 65.9459C618.342 64.7309 619.122 64.1009 620.007 64.1009C621.087 64.1009 621.597 64.8209 621.597 65.9459H618.177Z" fill="#222222"/>
<path d="M628.872 71.2109C629.802 71.2109 630.822 70.8959 631.632 70.1909L630.747 68.7359C630.282 69.1259 629.712 69.4109 629.112 69.4109C627.912 69.4109 627.027 68.3909 627.027 66.8009C627.027 65.2259 627.897 64.1909 629.187 64.1909C629.652 64.1909 630.042 64.3859 630.462 64.7459L631.512 63.3209C630.897 62.7959 630.102 62.3909 629.067 62.3909C626.787 62.3909 624.777 64.0109 624.777 66.8009C624.777 69.5909 626.547 71.2109 628.872 71.2109Z" fill="#222222"/>
<path d="M636.112 71.2109C636.847 71.2109 637.432 71.0459 637.882 70.8959L637.522 69.2909C637.297 69.3809 636.967 69.4709 636.697 69.4709C635.947 69.4709 635.557 69.0209 635.557 68.0609V64.3409H637.627V62.6009H635.557V60.3359H633.727L633.472 62.6009L632.167 62.7059V64.3409H633.352V68.0609C633.352 69.9359 634.117 71.2109 636.112 71.2109Z" fill="#222222"/>
<path d="M508 391H752V467H508V391Z" fill="white"/>
<path d="M535.5 391H536.5V467H535.5V391Z" fill="#DDDDDD"/>
<path d="M540 425C540 427.209 538.209 429 536 429C533.791 429 532 427.209 532 425C532 422.791 533.791 421 536 421C538.209 421 540 422.791 540 425Z" fill="#DDDDDD"/>
<path d="M557.93 428.14C558.89 428.14 559.68 427.76 560.29 427.05L559.51 426.13C559.11 426.56 558.62 426.86 557.98 426.86C556.81 426.86 556.05 425.89 556.05 424.28C556.05 422.69 556.89 421.73 558.01 421.73C558.57 421.73 559 421.99 559.38 422.35L560.15 421.41C559.67 420.91 558.92 420.46 557.98 420.46C556.11 420.46 554.54 421.89 554.54 424.33C554.54 426.8 556.06 428.14 557.93 428.14Z" fill="#222222"/>
<path d="M561.363 428H562.833V424.66C563.142 423.85 563.673 423.56 564.113 423.56C564.343 423.56 564.503 423.59 564.703 423.65L564.953 422.38C564.783 422.31 564.603 422.26 564.293 422.26C563.713 422.26 563.113 422.66 562.703 423.39H562.673L562.562 422.4H561.363V428Z" fill="#222222"/>
<path d="M568.041 428.14C568.731 428.14 569.441 427.9 569.991 427.52L569.491 426.62C569.091 426.87 568.691 427.01 568.231 427.01C567.401 427.01 566.801 426.53 566.681 425.61H570.131C570.171 425.48 570.201 425.21 570.201 424.93C570.201 423.39 569.401 422.26 567.861 422.26C566.531 422.26 565.251 423.39 565.251 425.2C565.251 427.05 566.471 428.14 568.041 428.14ZM566.661 424.63C566.771 423.82 567.291 423.4 567.881 423.4C568.601 423.4 568.941 423.88 568.941 424.63H566.661Z" fill="#222222"/>
<path d="M572.655 428.14C573.295 428.14 573.855 427.82 574.345 427.4H574.385L574.485 428H575.685V424.73C575.685 423.11 574.955 422.26 573.535 422.26C572.655 422.26 571.855 422.59 571.195 423L571.725 423.97C572.245 423.67 572.745 423.44 573.265 423.44C573.955 423.44 574.195 423.86 574.225 424.41C571.965 424.65 570.995 425.28 570.995 426.48C570.995 427.43 571.655 428.14 572.655 428.14ZM573.135 426.99C572.705 426.99 572.395 426.8 572.395 426.36C572.395 425.86 572.855 425.48 574.225 425.31V426.44C573.865 426.79 573.555 426.99 573.135 426.99Z" fill="#222222"/>
<path d="M579.047 428.14C579.537 428.14 579.927 428.03 580.227 427.93L579.987 426.86C579.837 426.92 579.617 426.98 579.437 426.98C578.937 426.98 578.677 426.68 578.677 426.04V423.56H580.057V422.4H578.677V420.89H577.457L577.287 422.4L576.417 422.47V423.56H577.207V426.04C577.207 427.29 577.717 428.14 579.047 428.14Z" fill="#222222"/>
<path d="M583.451 428.14C584.141 428.14 584.851 427.9 585.401 427.52L584.901 426.62C584.501 426.87 584.101 427.01 583.641 427.01C582.811 427.01 582.211 426.53 582.091 425.61H585.541C585.581 425.48 585.611 425.21 585.611 424.93C585.611 423.39 584.811 422.26 583.271 422.26C581.941 422.26 580.661 423.39 580.661 425.2C580.661 427.05 581.881 428.14 583.451 428.14ZM582.071 424.63C582.181 423.82 582.701 423.4 583.291 423.4C584.011 423.4 584.351 423.88 584.351 424.63H582.071Z" fill="#222222"/>
<path d="M588.791 428.14C589.371 428.14 589.931 427.82 590.341 427.42H590.381L590.491 428H591.681V420.02H590.221V421.99L590.271 422.87C589.871 422.5 589.481 422.26 588.851 422.26C587.641 422.26 586.501 423.38 586.501 425.2C586.501 427.04 587.401 428.14 588.791 428.14ZM589.171 426.93C588.431 426.93 588.011 426.35 588.011 425.19C588.011 424.07 588.541 423.47 589.171 423.47C589.521 423.47 589.881 423.58 590.221 423.89V426.35C589.891 426.77 589.561 426.93 589.171 426.93Z" fill="#222222"/>
<path d="M597.573 428.14C598.063 428.14 598.453 428.03 598.753 427.93L598.513 426.86C598.363 426.92 598.143 426.98 597.963 426.98C597.463 426.98 597.203 426.68 597.203 426.04V423.56H598.583V422.4H597.203V420.89H595.983L595.813 422.4L594.943 422.47V423.56H595.733V426.04C595.733 427.29 596.243 428.14 597.573 428.14Z" fill="#222222"/>
<path d="M601.876 428.14C603.276 428.14 604.566 427.06 604.566 425.2C604.566 423.34 603.276 422.26 601.876 422.26C600.476 422.26 599.186 423.34 599.186 425.2C599.186 427.06 600.476 428.14 601.876 428.14ZM601.876 426.94C601.116 426.94 600.686 426.26 600.686 425.2C600.686 424.15 601.116 423.46 601.876 423.46C602.636 423.46 603.066 424.15 603.066 425.2C603.066 426.26 602.636 426.94 601.876 426.94Z" fill="#222222"/>
<path d="M608.182 428H609.662V425H612.292V423.76H609.662V421.83H612.742V420.59H608.182V428Z" fill="#222222"/>
<path d="M616.066 428.14C617.466 428.14 618.756 427.06 618.756 425.2C618.756 423.34 617.466 422.26 616.066 422.26C614.666 422.26 613.376 423.34 613.376 425.2C613.376 427.06 614.666 428.14 616.066 428.14ZM616.066 426.94C615.306 426.94 614.876 426.26 614.876 425.2C614.876 424.15 615.306 423.46 616.066 423.46C616.826 423.46 617.256 424.15 617.256 425.2C617.256 426.26 616.826 426.94 616.066 426.94Z" fill="#222222"/>
<path d="M621.366 428.14C621.716 428.14 621.956 428.08 622.126 428.01L621.946 426.92C621.846 426.94 621.806 426.94 621.746 426.94C621.606 426.94 621.456 426.83 621.456 426.49V420.02H619.986V426.43C619.986 427.47 620.346 428.14 621.366 428.14Z" fill="#222222"/>
<path d="M625.11 428.14C625.69 428.14 626.25 427.82 626.66 427.42H626.7L626.81 428H628V420.02H626.54V421.99L626.59 422.87C626.19 422.5 625.8 422.26 625.17 422.26C623.96 422.26 622.82 423.38 622.82 425.2C622.82 427.04 623.72 428.14 625.11 428.14ZM625.49 426.93C624.75 426.93 624.33 426.35 624.33 425.19C624.33 424.07 624.86 423.47 625.49 423.47C625.84 423.47 626.2 423.58 626.54 423.89V426.35C626.21 426.77 625.88 426.93 625.49 426.93Z" fill="#222222"/>
<path d="M632.015 428.14C632.705 428.14 633.415 427.9 633.965 427.52L633.465 426.62C633.065 426.87 632.665 427.01 632.205 427.01C631.375 427.01 630.775 426.53 630.655 425.61H634.105C634.145 425.48 634.175 425.21 634.175 424.93C634.175 423.39 633.375 422.26 631.835 422.26C630.505 422.26 629.225 423.39 629.225 425.2C629.225 427.05 630.445 428.14 632.015 428.14ZM630.635 424.63C630.745 423.82 631.265 423.4 631.855 423.4C632.575 423.4 632.915 423.88 632.915 424.63H630.635Z" fill="#222222"/>
<path d="M635.386 428H636.856V424.66C637.166 423.85 637.696 423.56 638.136 423.56C638.366 423.56 638.526 423.59 638.726 423.65L638.976 422.38C638.806 422.31 638.626 422.26 638.316 422.26C637.736 422.26 637.136 422.66 636.726 423.39H636.696L636.586 422.4H635.386V428Z" fill="#222222"/>
<path d="M556.78 446.13C558.2 446.13 559.06 444.8 559.06 442.41C559.06 440.03 558.2 438.74 556.78 438.74C555.36 438.74 554.49 440.02 554.49 442.41C554.49 444.8 555.36 446.13 556.78 446.13ZM556.78 445.4C555.94 445.4 555.38 444.5 555.38 442.41C555.38 440.32 555.94 439.47 556.78 439.47C557.61 439.47 558.17 440.32 558.17 442.41C558.17 444.5 557.61 445.4 556.78 445.4Z" fill="#222222"/>
<path d="M562.187 446.13C563.487 446.13 564.537 445.37 564.537 444.1C564.537 443.12 563.847 442.49 562.987 442.28V442.24C563.757 441.96 564.287 441.41 564.287 440.55C564.287 439.39 563.387 438.74 562.157 438.74C561.307 438.74 560.657 439.11 560.107 439.63L560.597 440.2C561.007 439.78 561.527 439.48 562.117 439.48C562.877 439.48 563.357 439.92 563.357 440.61C563.357 441.36 562.837 441.95 561.327 441.95V442.65C563.017 442.65 563.607 443.21 563.607 444.06C563.607 444.86 562.987 445.37 562.117 445.37C561.287 445.37 560.727 444.98 560.297 444.53L559.837 445.13C560.317 445.65 561.037 446.13 562.187 446.13Z" fill="#222222"/>
<path d="M568.33 446H569.26V443.09H570.47C572.08 443.09 573.17 442.37 573.17 440.82C573.17 439.22 572.07 438.66 570.43 438.66H568.33V446ZM569.26 442.34V439.42H570.31C571.6 439.42 572.25 439.76 572.25 440.82C572.25 441.87 571.64 442.34 570.35 442.34H569.26Z" fill="#222222"/>
<path d="M574.569 446H575.479V442.51C575.839 441.58 576.399 441.26 576.849 441.26C577.069 441.26 577.199 441.28 577.379 441.35L577.549 440.55C577.379 440.46 577.209 440.43 576.969 440.43C576.359 440.43 575.809 440.87 575.429 441.56H575.399L575.319 440.57H574.569V446Z" fill="#222222"/>
<path d="M580.448 446.13C581.778 446.13 582.968 445.09 582.968 443.29C582.968 441.48 581.778 440.43 580.448 440.43C579.118 440.43 577.928 441.48 577.928 443.29C577.928 445.09 579.118 446.13 580.448 446.13ZM580.448 445.37C579.508 445.37 578.878 444.54 578.878 443.29C578.878 442.04 579.508 441.19 580.448 441.19C581.388 441.19 582.028 442.04 582.028 443.29C582.028 444.54 581.388 445.37 580.448 445.37Z" fill="#222222"/>
<path d="M583.843 448.43C584.913 448.43 585.323 447.73 585.323 446.62V440.57H584.413V446.62C584.413 447.28 584.283 447.69 583.743 447.69C583.543 447.69 583.363 447.64 583.223 447.59L583.043 448.29C583.233 448.36 583.513 448.43 583.843 448.43ZM584.863 439.45C585.213 439.45 585.463 439.21 585.463 438.84C585.463 438.49 585.213 438.25 584.863 438.25C584.503 438.25 584.253 438.49 584.253 438.84C584.253 439.21 584.503 439.45 584.863 439.45Z" fill="#222222"/>
<path d="M589.356 446.13C590.096 446.13 590.676 445.88 591.156 445.57L590.826 444.97C590.426 445.24 589.996 445.4 589.466 445.4C588.436 445.4 587.726 444.66 587.666 443.5H591.326C591.346 443.37 591.366 443.18 591.366 442.98C591.366 441.43 590.586 440.43 589.206 440.43C587.946 440.43 586.756 441.53 586.756 443.29C586.756 445.08 587.916 446.13 589.356 446.13ZM587.656 442.84C587.766 441.78 588.446 441.16 589.216 441.16C590.066 441.16 590.566 441.75 590.566 442.84H587.656Z" fill="#222222"/>
<path d="M594.843 446.13C595.493 446.13 596.113 445.88 596.603 445.44L596.203 444.83C595.863 445.14 595.423 445.37 594.923 445.37C593.923 445.37 593.243 444.54 593.243 443.29C593.243 442.04 593.963 441.19 594.953 441.19C595.383 441.19 595.713 441.39 596.033 441.67L596.503 441.07C596.113 440.73 595.623 440.43 594.913 440.43C593.523 440.43 592.293 441.48 592.293 443.29C592.293 445.09 593.403 446.13 594.843 446.13Z" fill="#222222"/>
<path d="M599.394 446.13C599.724 446.13 600.084 446.03 600.394 445.93L600.214 445.25C600.034 445.32 599.784 445.39 599.594 445.39C598.964 445.39 598.754 445.01 598.754 444.34V441.31H600.224V440.57H598.754V439.04H597.994L597.884 440.57L597.034 440.62V441.31H597.844V444.32C597.844 445.4 598.234 446.13 599.394 446.13Z" fill="#222222"/>
</svg>
