<svg width="107" height="55" viewBox="0 0 107 55" fill="none" xmlns="http://www.w3.org/2000/svg">
<path d="M56.3001 44.3601C55.9572 44.5159 55.4758 44.6233 55.029 44.6233C54.4991 44.6233 54.0003 44.4744 53.6886 44.0553C53.4254 43.7055 53.3076 43.1998 53.3076 42.5521C53.3076 41.804 53.4773 41.2533 53.8202 40.9069C54.1562 40.571 54.6168 40.4844 55.1225 40.4844C55.4793 40.4844 55.8395 40.5294 56.1512 40.5917L56.0958 41.2464C55.8533 41.2083 55.5104 41.184 55.1987 41.184C54.8731 41.184 54.5683 41.2325 54.3882 41.4472C54.177 41.6897 54.1146 42.0776 54.1146 42.559C54.1146 42.9643 54.1597 43.3072 54.3017 43.5496C54.4748 43.8371 54.7762 43.9306 55.1052 43.9306C55.4342 43.9306 55.7979 43.8371 56.0958 43.7436L56.3001 44.3601Z" fill="#1C1C1B"/>
<path d="M56.6748 44.5607V40.543H59.1685V41.2288H57.461V42.1639H58.8776V42.8358H57.461V43.8714H59.1685V44.5572H56.6748V44.5607Z" fill="#1C1C1B"/>
<path d="M61.7173 44.5623C61.4299 44.0324 61.1805 43.5336 60.945 43.0106C60.7718 43.0106 60.5328 43.0037 60.3839 42.9933V44.5657H59.5977V40.5758C59.9786 40.5307 60.4774 40.4961 60.8618 40.4961C61.6862 40.4961 62.4516 40.697 62.4516 41.736C62.4516 42.2971 62.2196 42.7093 61.6862 42.9102C61.9182 43.3847 62.2715 43.9943 62.6213 44.5692H61.7173V44.5623ZM60.3839 42.4218C60.7406 42.4218 61.0246 42.4218 61.2324 42.3595C61.5199 42.2798 61.655 42.1032 61.655 41.743C61.655 41.2615 61.3121 41.1749 60.9242 41.1749C60.7441 41.1749 60.5501 41.1819 60.3804 41.1923V42.4218H60.3839Z" fill="#1C1C1B"/>
<path d="M63.6642 44.5607V41.2288H62.5801V40.543H65.5345V41.2288H64.4504V44.5607H63.6642Z" fill="#1C1C1B"/>
<path d="M65.8252 44.5607V40.543H66.6114V44.5607H65.8252Z" fill="#1C1C1B"/>
<path d="M67.2588 44.5607V40.543H69.8079V41.2288H68.0415V42.2332H69.4997V42.9051H68.0415V44.5572H67.2588V44.5607Z" fill="#1C1C1B"/>
<path d="M70.1826 44.5607V40.543H70.9688V44.5607H70.1826Z" fill="#1C1C1B"/>
<path d="M71.6152 44.5607V40.543H74.109V41.2288H72.4015V42.1639H73.818V42.8358H72.4015V43.8714H74.109V44.5572H71.6152V44.5607Z" fill="#1C1C1B"/>
<path d="M74.5391 40.5956C74.9512 40.5333 75.4188 40.4883 75.7929 40.4883C77.1506 40.4883 77.6251 41.1983 77.6251 42.5456C77.6251 43.931 77.1506 44.6099 75.7929 44.6099C75.4188 44.6099 74.9512 44.5926 74.5391 44.5475V40.5956ZM75.3253 43.9137C75.495 43.9276 75.5816 43.9276 75.7236 43.9276C76.6103 43.9276 76.8285 43.5466 76.8285 42.5491C76.8285 41.607 76.6103 41.1775 75.7236 41.1775C75.5816 41.1775 75.4569 41.1845 75.3253 41.1948V43.9137Z" fill="#1C1C1B"/>
<path d="M53.6816 15.1939V10.0645H54.4471V15.1939H53.6816Z" fill="#1C1C1B"/>
<path d="M55.2565 14.4785C55.5509 14.527 56.022 14.5894 56.4688 14.5894C56.9052 14.5894 57.3277 14.527 57.5598 14.3019C57.6949 14.1737 57.7745 14.0006 57.7745 13.7754C57.7745 13.2732 57.4628 13.107 56.5796 12.8437C55.6964 12.5874 55.1318 12.2238 55.1318 11.3544C55.1318 10.9249 55.3154 10.5751 55.6271 10.3361C55.9769 10.066 56.4237 9.98633 56.8948 9.98633C57.3658 9.98633 57.8646 10.0591 58.3114 10.1457L58.2144 10.7829C57.9131 10.7275 57.4489 10.6721 57.0264 10.6721C56.6766 10.6721 56.3406 10.7102 56.1432 10.8557C55.9839 10.9734 55.9042 11.1258 55.9042 11.3336C55.9042 11.8601 56.3094 12.009 57.1545 12.2653C57.9823 12.5216 58.5469 12.8715 58.5469 13.772C58.5469 14.2499 58.3633 14.6413 58.0308 14.9046C57.6706 15.192 57.1615 15.2786 56.6212 15.2786C56.1189 15.2786 55.6029 15.2059 55.163 15.1262L55.2565 14.4785Z" fill="#1C1C1B"/>
<path d="M58.9082 12.629C58.9082 10.8938 59.5697 9.98633 61.1214 9.98633C62.6731 9.98633 63.3346 10.8938 63.3346 12.629C63.3346 14.3642 62.6731 15.2717 61.1214 15.2717C59.5663 15.2751 58.9082 14.3677 58.9082 12.629ZM62.5553 12.629C62.5553 11.2748 62.1501 10.6686 61.1214 10.6686C60.0927 10.6686 59.6875 11.2748 59.6875 12.629C59.6875 13.9832 60.0927 14.5894 61.1214 14.5894C62.1466 14.5894 62.5553 13.9832 62.5553 12.629Z" fill="#1C1C1B"/>
<path d="M63.5176 15.1939L65.5091 10.0645H66.1291L64.1549 15.1939H63.5176Z" fill="#1C1C1B"/>
<path d="M66.5869 15.1939V10.0645H67.3524V15.1939H66.5869Z" fill="#1C1C1B"/>
<path d="M68.2178 15.1939V10.0645H71.2691V10.7398H68.9832V12.2118H70.8535V12.8803H68.9832V14.5116H71.2691V15.187H68.2178V15.1939Z" fill="#1C1C1B"/>
<path d="M75.3453 14.8833C74.9054 15.105 74.2855 15.2747 73.7036 15.2747C73.0421 15.2747 72.4117 15.0773 72.0307 14.5404C71.7121 14.104 71.5527 13.4667 71.5527 12.6286C71.5527 11.735 71.7536 11.0838 72.1173 10.637C72.5398 10.1348 73.1598 9.98242 73.8387 9.98242C74.2924 9.98242 74.7704 10.0448 75.1687 10.1348L75.0959 10.779C74.7773 10.7167 74.2993 10.6682 73.8837 10.6682C73.3988 10.6682 72.952 10.7721 72.6819 11.1289C72.4359 11.4648 72.332 11.9566 72.332 12.6251C72.332 13.2451 72.4117 13.723 72.6264 14.059C72.8723 14.4504 73.288 14.5855 73.7348 14.5855C74.23 14.5855 74.708 14.4435 75.1271 14.2737L75.3453 14.8833Z" fill="#1C1C1B"/>
<path d="M53.5843 23.5075V22.9014C55.0009 21.6684 56.0122 20.7021 56.0122 19.8501C56.0122 19.2128 55.5343 18.9807 55.0009 18.9807C54.5541 18.9807 54.038 19.1227 53.702 19.2578L53.4873 18.6517C53.8856 18.4612 54.4848 18.2949 55.0563 18.2949C56.085 18.2949 56.7915 18.811 56.7915 19.8258C56.7915 20.9411 55.6693 21.9039 54.5783 22.8287H56.8643V23.5041H53.5843V23.5075Z" fill="#1C1C1B"/>
<path d="M58.0207 23.5065C58.4675 21.7851 59.0147 20.5105 59.8286 19.0454H57.2656V18.377H60.6183V19.0073C59.8079 20.4655 59.2572 21.74 58.8415 23.5065H58.0207Z" fill="#1C1C1B"/>
<path d="M61.0234 20.9415C61.0234 19.2201 61.3836 18.2988 62.8799 18.2988C64.3692 18.2988 64.726 19.2236 64.726 20.9415C64.726 22.6525 64.3658 23.5842 62.8799 23.5842C61.3836 23.5876 61.0234 22.656 61.0234 20.9415ZM63.964 20.9415C63.964 19.7223 63.8912 18.9673 62.8799 18.9673C61.8512 18.9673 61.7889 19.7223 61.7889 20.9415C61.7889 22.1537 61.8512 22.9261 62.8799 22.9261C63.8912 22.9261 63.964 22.1537 63.964 20.9415Z" fill="#1C1C1B"/>
<path d="M66.0674 23.508V19.1508L65.0006 19.5561L64.7686 19.0365L66.1401 18.375H66.8328V23.5045H66.0674V23.508Z" fill="#1C1C1B"/>
<path d="M68.3635 23.5065C68.8102 21.7851 69.3575 20.5105 70.1714 19.0454H67.6084V18.377H70.9611V19.0073C70.1506 20.4655 69.5999 21.74 69.1843 23.5065H68.3635Z" fill="#1C1C1B"/>
<path d="M56.2856 29.8435C55.9427 30.0166 55.4578 30.1483 55.0007 30.1483C54.4846 30.1483 53.9893 29.9924 53.6914 29.5733C53.4421 29.2304 53.3174 28.7317 53.3174 28.0771C53.3174 27.3774 53.4732 26.8683 53.7607 26.5185C54.0897 26.1271 54.5781 26.0059 55.108 26.0059C55.4648 26.0059 55.8388 26.0543 56.1505 26.1236L56.0951 26.6293C55.8458 26.5808 55.4717 26.5427 55.1461 26.5427C54.7651 26.5427 54.4153 26.6224 54.204 26.9029C54.0101 27.1661 53.9304 27.5506 53.9304 28.0736C53.9304 28.5585 53.9928 28.9325 54.1625 29.1958C54.3564 29.5006 54.6786 29.6079 55.0284 29.6079C55.4163 29.6079 55.7903 29.4971 56.1194 29.3655L56.2856 29.8435Z" fill="#1C1C1B"/>
<path d="M56.6426 30.088V26.0703H57.2106V30.088H56.6426Z" fill="#1C1C1B"/>
<path d="M58.8798 30.1509C58.4746 30.1509 58.1802 30.04 57.9689 29.8322C57.7022 29.5759 57.5879 29.1603 57.5879 28.6477C57.5879 28.1351 57.6987 27.7195 57.9689 27.4632C58.1802 27.2588 58.4746 27.1445 58.8798 27.1445C59.285 27.1445 59.5794 27.2554 59.7907 27.4632C60.0574 27.7195 60.1717 28.1351 60.1717 28.6477C60.1717 29.1603 60.0609 29.5759 59.7907 29.8322C59.5794 30.0366 59.285 30.1509 58.8798 30.1509ZM59.5967 28.6477C59.5967 28.2979 59.5413 28.0104 59.3924 27.8442C59.2816 27.7125 59.1049 27.6433 58.8798 27.6433C58.6547 27.6433 58.4815 27.7125 58.3672 27.8442C58.2183 28.0139 58.1628 28.2979 58.1628 28.6477C58.1628 29.0044 58.2183 29.2885 58.3672 29.4512C58.478 29.5829 58.6547 29.6521 58.8798 29.6521C59.1049 29.6521 59.2712 29.5759 59.3924 29.4512C59.5413 29.2885 59.5967 29.001 59.5967 28.6477Z" fill="#1C1C1B"/>
<path d="M62.3882 30.0887L62.3431 29.8462C62.118 30.016 61.8132 30.158 61.4703 30.158C60.8226 30.158 60.4971 29.7666 60.4971 29.1535V27.207H61.0651V29.0947C61.0651 29.486 61.2348 29.6384 61.5708 29.6384C61.8028 29.6384 62.0245 29.5761 62.2392 29.4757V27.207H62.8073V30.0887H62.3882Z" fill="#1C1C1B"/>
<path d="M65.1834 30.088L65.1279 29.856C64.9236 30.0291 64.6119 30.1504 64.3487 30.1504C63.5382 30.1504 63.2334 29.6204 63.2334 28.6714C63.2334 27.5943 63.5763 27.144 64.3694 27.144C64.5634 27.144 64.8128 27.1752 65.0414 27.2237V26.0703H65.6094V30.088H65.1834ZM65.0414 27.6982C64.8543 27.667 64.6188 27.6497 64.4318 27.6497C63.933 27.6497 63.8153 27.9857 63.8153 28.6784C63.8153 29.326 63.94 29.6828 64.4214 29.6828C64.6327 29.6828 64.8405 29.6274 65.0448 29.5131V27.6982H65.0414Z" fill="#1C1C1B"/>
<path d="M67.3831 29.5268C67.6152 29.5649 67.9823 29.6134 68.3321 29.6134C68.675 29.6134 69.004 29.5649 69.1876 29.3882C69.295 29.2878 69.3573 29.1527 69.3573 28.9761C69.3573 28.5847 69.1149 28.4531 68.4222 28.2453C67.7295 28.0444 67.2861 27.7604 67.2861 27.078C67.2861 26.7421 67.4281 26.4685 67.674 26.2814C67.9477 26.0702 68.2975 26.0078 68.6646 26.0078C69.0318 26.0078 69.4266 26.0632 69.7764 26.1325L69.7002 26.6312C69.4647 26.5862 69.101 26.5447 68.772 26.5447C68.4984 26.5447 68.2351 26.5758 68.0793 26.6867C67.9546 26.7802 67.8923 26.8979 67.8923 27.0607C67.8923 27.4729 68.2109 27.5906 68.8724 27.7915C69.5201 27.9924 69.9634 28.266 69.9634 28.9691C69.9634 29.3432 69.8214 29.648 69.5582 29.8558C69.2777 30.0809 68.8794 30.1502 68.4533 30.1502C68.062 30.1502 67.6567 30.0948 67.3138 30.0324L67.3831 29.5268Z" fill="#1C1C1B"/>
<path d="M72.4844 29.9188C72.2281 30.0366 71.8609 30.1509 71.4869 30.1509C70.6383 30.1509 70.1846 29.621 70.1846 28.665C70.1846 27.8719 70.5448 27.1445 71.4245 27.1445C72.1242 27.1445 72.5294 27.6433 72.5294 28.4156C72.5294 28.5715 72.5121 28.7274 72.4844 28.8521H70.7561C70.7699 29.1084 70.8323 29.3127 70.95 29.4443C71.0816 29.5863 71.286 29.6452 71.525 29.6452C71.8228 29.6452 72.1172 29.5655 72.3527 29.4651L72.4844 29.9188ZM71.9891 28.4053C71.9891 27.9758 71.8644 27.6329 71.4037 27.6329C70.9846 27.6329 70.7872 28.007 70.763 28.4053H71.9891Z" fill="#1C1C1B"/>
<path d="M74.9472 29.9188C74.684 30.0435 74.3168 30.1509 73.9636 30.1509C73.2085 30.1509 72.7236 29.7283 72.7236 28.6616C72.7236 27.4389 73.3401 27.1445 74.0467 27.1445C74.3272 27.1445 74.6078 27.1757 74.8433 27.2311L74.7948 27.7056C74.5905 27.6745 74.3584 27.6502 74.1402 27.6502C73.586 27.6502 73.2986 27.8684 73.2986 28.6477C73.2986 29.3473 73.5341 29.6452 74.0224 29.6452C74.303 29.6452 74.5662 29.5655 74.7948 29.4651L74.9472 29.9188Z" fill="#1C1C1B"/>
<path d="M77.1294 30.0887L77.0843 29.8462C76.8592 30.016 76.5544 30.158 76.2115 30.158C75.5639 30.158 75.2383 29.7666 75.2383 29.1535V27.207H75.8063V29.0947C75.8063 29.486 75.976 29.6384 76.312 29.6384C76.544 29.6384 76.7657 29.5761 76.9804 29.4757V27.207H77.5485V30.0887H77.1294Z" fill="#1C1C1B"/>
<path d="M78.1133 30.0875V27.2058H78.5358L78.612 27.5626H78.6363C78.8614 27.237 79.1281 27.1504 79.4918 27.1504C79.561 27.1504 79.6303 27.1504 79.7411 27.1642L79.703 27.6803C79.5922 27.663 79.4779 27.6561 79.3602 27.6561C79.1177 27.6561 78.8753 27.7115 78.6813 27.8743V30.0875H78.1133Z" fill="#1C1C1B"/>
<path d="M80.2326 26.0527C80.4058 26.0527 80.5513 26.1947 80.5513 26.3714C80.5513 26.5446 80.4093 26.6831 80.2326 26.6831C80.056 26.6831 79.9209 26.5446 79.9209 26.3714C79.9209 26.1947 80.056 26.0527 80.2326 26.0527ZM79.9521 30.0878V27.2061H80.5201V30.0878H79.9521Z" fill="#1C1C1B"/>
<path d="M82.6084 29.9641C82.4145 30.0646 82.1651 30.1373 81.9157 30.1373C81.4481 30.1373 81.1814 29.8741 81.1814 29.3511V27.6747H80.752V27.2556L81.2022 27.2314L81.2472 26.3828H81.7529V27.2071H82.5565V27.6747H81.7529V29.2645C81.7529 29.4758 81.791 29.6247 82.0092 29.6247C82.1478 29.6247 82.2759 29.5866 82.4283 29.5173L82.6084 29.9641Z" fill="#1C1C1B"/>
<path d="M83.3908 31.2208C83.5605 30.7775 83.6956 30.3861 83.796 30.0848H83.4912C83.1968 29.2882 82.899 28.2387 82.6357 27.2031H83.228C83.422 28.0517 83.6332 28.8622 83.8826 29.6345H83.9276C84.1597 28.9349 84.4021 28.0309 84.5892 27.2031H85.1676C84.8489 28.5366 84.3952 30.0536 83.945 31.2208H83.3908Z" fill="#1C1C1B"/>
<path d="M56.8474 36.67C56.8162 35.5964 56.7677 34.4949 56.7158 33.4351H56.6846L55.7737 35.9912H55.1329L54.222 33.4351H54.1909C54.1424 34.4949 54.0904 35.5998 54.0592 36.67H53.4531C53.4982 35.3366 53.564 33.9962 53.6402 32.6523H54.513L55.4377 35.3158H55.4689L56.3937 32.6523H57.2665C57.3427 33.9927 57.4085 35.3331 57.4535 36.67H56.8474Z" fill="#1C1C1B"/>
<path d="M59.6836 36.6691L59.6213 36.4266C59.4031 36.6206 59.1017 36.7314 58.7796 36.7314C58.1874 36.7314 57.8271 36.34 57.8271 35.8274C57.8271 35.5711 57.9276 35.3148 58.1319 35.1555C58.3259 34.9996 58.5995 34.9373 58.9043 34.9373C59.1052 34.9373 59.3338 34.9511 59.5347 34.9615V34.7191C59.5347 34.5459 59.4896 34.4316 59.4169 34.3589C59.3095 34.2584 59.1364 34.2342 58.9043 34.2342C58.6238 34.2342 58.2809 34.2827 58.0938 34.3277L58.0072 33.8532C58.2566 33.777 58.6238 33.7285 58.9563 33.7285C59.3165 33.7285 59.6178 33.777 59.8221 33.9536C60.0022 34.1026 60.1027 34.3416 60.1027 34.6879V36.6725H59.6836V36.6691ZM59.5347 35.3772C59.3927 35.3633 59.1987 35.3598 59.0221 35.3598C58.603 35.3598 58.4056 35.5088 58.4056 35.8274C58.4056 36.101 58.5857 36.2811 58.8974 36.2811C59.1294 36.2811 59.365 36.2015 59.5347 36.0699V35.3772Z" fill="#1C1C1B"/>
<path d="M62.3951 36.6701V34.779C62.3951 34.4119 62.2254 34.2353 61.9102 34.2353C61.6435 34.2353 61.4046 34.3218 61.2106 34.4154V36.6667H60.6426V33.785H61.0617L61.1102 34.0482C61.3353 33.8751 61.647 33.7227 61.983 33.7227C62.6376 33.7227 62.9631 34.114 62.9631 34.7271V36.6667H62.3951V36.6701Z" fill="#1C1C1B"/>
<path d="M65.169 36.6691L65.1066 36.4266C64.8884 36.6206 64.5871 36.7314 64.265 36.7314C63.6727 36.7314 63.3125 36.34 63.3125 35.8274C63.3125 35.5711 63.4129 35.3148 63.6173 35.1555C63.8112 34.9996 64.0849 34.9373 64.3897 34.9373C64.5905 34.9373 64.8191 34.9511 65.02 34.9615V34.7191C65.02 34.5459 64.975 34.4316 64.9023 34.3589C64.7949 34.2584 64.6217 34.2342 64.3897 34.2342C64.1091 34.2342 63.7662 34.2827 63.5792 34.3277L63.4926 33.8532C63.742 33.777 64.1091 33.7285 64.4416 33.7285C64.8018 33.7285 65.1031 33.777 65.3075 33.9536C65.4876 34.1026 65.588 34.3416 65.588 34.6879V36.6725H65.169V36.6691ZM65.02 35.3772C64.878 35.3633 64.6841 35.3598 64.5074 35.3598C64.0883 35.3598 63.8909 35.5088 63.8909 35.8274C63.8909 36.101 64.071 36.2811 64.3827 36.2811C64.6148 36.2811 64.8503 36.2015 65.02 36.0699V35.3772Z" fill="#1C1C1B"/>
<path d="M67.7952 36.5058C67.5943 36.6444 67.3519 36.731 67.1094 36.731C66.292 36.731 65.9941 36.201 65.9941 35.252C65.9941 34.1714 66.3301 33.7246 67.1302 33.7246C67.5597 33.7246 68.055 33.8181 68.3667 33.9255V36.9318C68.3667 37.2436 68.2662 37.4618 68.1035 37.6176C67.8922 37.8116 67.5597 37.867 67.2168 37.867C66.8912 37.867 66.5552 37.8185 66.2885 37.7666L66.3647 37.2817C66.5691 37.3128 66.8704 37.3579 67.1371 37.3579C67.3692 37.3579 67.5805 37.3336 67.6844 37.2262C67.7606 37.1466 67.7952 37.0254 67.7952 36.8695V36.5058ZM67.7952 34.2857C67.6255 34.2545 67.39 34.2303 67.1856 34.2303C66.6938 34.2303 66.5691 34.5662 66.5691 35.259C66.5691 35.9066 66.7007 36.2634 67.1787 36.2634C67.39 36.2634 67.6082 36.2184 67.7952 36.1248V34.2857Z" fill="#1C1C1B"/>
<path d="M70.9883 36.4989C70.732 36.6167 70.3648 36.731 69.9908 36.731C69.1422 36.731 68.6885 36.201 68.6885 35.2451C68.6885 34.452 69.0487 33.7246 69.9284 33.7246C70.6281 33.7246 71.0333 34.2234 71.0333 34.9957C71.0333 35.1516 71.016 35.3074 70.9883 35.4321H69.26C69.2738 35.6884 69.3362 35.8928 69.4539 36.0244C69.5855 36.1664 69.7899 36.2253 70.0289 36.2253C70.3267 36.2253 70.6211 36.1456 70.8567 36.0452L70.9883 36.4989ZM70.493 34.9853C70.493 34.5559 70.3683 34.213 69.9076 34.213C69.4886 34.213 69.2911 34.587 69.2669 34.9853H70.493Z" fill="#1C1C1B"/>
<path d="M74.7951 36.6691V34.7606C74.7951 34.4004 74.6219 34.2377 74.3033 34.2377C74.0851 34.2377 73.853 34.3139 73.6348 34.4385C73.6521 34.5494 73.666 34.681 73.666 34.7953V36.6725H73.098V34.7641C73.098 34.4039 72.9282 34.2411 72.6131 34.2411C72.381 34.2411 72.1836 34.3035 71.9723 34.4143V36.6725H71.4043V33.7909H71.8234L71.8719 34.0541C72.0762 33.8982 72.3706 33.7285 72.7378 33.7285C73.0806 33.7285 73.3369 33.8601 73.4859 34.0957C73.7352 33.8913 74.04 33.7285 74.3829 33.7285C75.0237 33.7285 75.3631 34.0853 75.3631 34.7884V36.6725H74.7951V36.6691Z" fill="#1C1C1B"/>
<path d="M77.9707 36.4989C77.7144 36.6167 77.3472 36.731 76.9732 36.731C76.1246 36.731 75.6709 36.201 75.6709 35.2451C75.6709 34.452 76.0311 33.7246 76.9108 33.7246C77.6105 33.7246 78.0157 34.2234 78.0157 34.9957C78.0157 35.1516 77.9984 35.3074 77.9707 35.4321H76.2424C76.2562 35.6884 76.3186 35.8928 76.4363 36.0244C76.568 36.1664 76.7723 36.2253 77.0113 36.2253C77.3091 36.2253 77.6035 36.1456 77.8391 36.0452L77.9707 36.4989ZM77.4754 34.9853C77.4754 34.5559 77.3507 34.213 76.8901 34.213C76.471 34.213 76.2735 34.587 76.2493 34.9853H77.4754Z" fill="#1C1C1B"/>
<path d="M80.1393 36.6701V34.779C80.1393 34.4119 79.9696 34.2353 79.6544 34.2353C79.3877 34.2353 79.1487 34.3218 78.9547 34.4154V36.6667H78.3867V33.785H78.8058L78.8543 34.0482C79.0794 33.8751 79.3911 33.7227 79.7271 33.7227C80.3817 33.7227 80.7073 34.114 80.7073 34.7271V36.6667H80.1393V36.6701Z" fill="#1C1C1B"/>
<path d="M82.7442 36.5442C82.5502 36.6446 82.3008 36.7174 82.0514 36.7174C81.5839 36.7174 81.3172 36.4541 81.3172 35.9311V34.2548H80.8877V33.8357L81.338 33.8115L81.383 32.9629H81.8887V33.7872H82.6922V34.2548H81.8887V35.8446C81.8887 36.0558 81.9268 36.2048 82.145 36.2048C82.2835 36.2048 82.4117 36.1667 82.5641 36.0974L82.7442 36.5442Z" fill="#1C1C1B"/>
<path d="M81.8435 54.0013H24.5427C24.2033 54.0013 23.9297 53.7276 23.9297 53.3882C23.9297 53.0488 24.2033 52.7752 24.5427 52.7752H81.8435C94.7001 52.7752 105.16 42.3153 105.16 29.4586C105.16 16.602 94.7001 6.14211 81.8435 6.14211H36.8175C36.4781 6.14211 36.2045 5.86849 36.2045 5.52906C36.2045 5.18964 36.4781 4.91602 36.8175 4.91602H81.8435C95.379 4.91602 106.39 15.9266 106.39 29.4621C106.39 42.9907 95.379 54.0013 81.8435 54.0013Z" fill="#1C1C1B"/>
<path d="M25.973 23.6236C26.1497 20.8563 28.4183 18.6604 31.1822 18.6604C33.9461 18.6604 36.2112 20.8563 36.3914 23.6236H25.973ZM30.3648 35.9919C29.6271 33.8203 27.8745 32.6773 26.399 31.7145C24.7608 30.6477 24.075 30.0935 24.0438 29.0683C24.0542 27.6656 25.1695 26.5157 26.5411 26.5157H35.6398L30.3648 35.9919ZM23.3234 44.2421C23.3754 44.2525 23.9642 44.3494 24.5495 44.3529C25.1106 44.3564 25.6717 44.2663 25.7722 44.2386L24.5495 46.4345L23.3234 44.2421ZM21.841 26.5157C21.4531 27.2569 21.228 28.102 21.2107 28.999H21.2072C21.2072 29.0267 21.2072 29.0579 21.2107 29.0856V29.0926C21.2557 31.808 23.2611 33.1172 24.8786 34.1736C26.8008 35.4274 27.8884 36.2344 27.8884 38.2952C27.8884 40.3213 26.2813 41.5024 24.3071 41.5024C23.0394 41.5024 21.4323 40.8201 20.7916 39.6944L20.2236 38.7108L13.3935 26.5191H21.841V26.5157ZM18.0381 18.6604C20.802 18.6604 23.0706 20.8563 23.2472 23.6236H12.8324C13.009 20.8563 15.2776 18.6604 18.0381 18.6604ZM31.1822 15.8965C28.5014 15.8965 26.0839 17.2299 24.6119 19.4882C23.1364 17.2265 20.7189 15.8965 18.0381 15.8965C13.5978 15.8965 9.98535 19.5228 9.98535 23.9769C9.98535 23.9769 9.98535 24.0185 9.98535 24.7978C9.98535 25.5771 10.0754 26.2732 10.6919 27.3365C11.3084 28.3998 24.553 51.2419 24.553 51.2419C24.553 51.2419 37.704 28.5384 38.3552 27.3365C39.0063 26.1312 39.1102 25.6152 39.1102 24.7978V23.9769C39.1068 19.5193 35.5497 15.8965 31.1822 15.8965Z" fill="#151312"/>
<path d="M19.5618 4.29132C18.682 4.29132 17.8369 4.57879 17.2065 4.99788V0H15.2393V13.532H16.3961L16.7147 12.8047C17.4871 13.3831 18.3841 13.7433 19.5652 13.7433C22.1282 13.7433 23.0772 11.9769 23.0772 9.01558C23.0738 6.07504 22.1248 4.29132 19.5618 4.29132ZM19.1011 6.00577C20.8259 6.00577 21.0892 7.35655 21.0892 9.01558C21.0892 10.6919 20.8259 12.0323 19.1011 12.0323C18.1729 12.0323 17.5564 11.7033 17.2031 11.5059V6.52876C17.5529 6.32788 18.1694 6.00577 19.1011 6.00577ZM25.5606 7.10718C25.5606 6.29324 26.2117 5.98845 27.2508 5.98845C28.3557 5.98845 29.1869 6.20319 29.9385 6.49413V4.74158C29.2527 4.43679 28.4076 4.29132 27.2127 4.29132C24.6289 4.29132 23.6453 5.60746 23.6453 7.15913C23.6453 8.71079 24.2964 9.55589 26.9495 9.79488C28.1271 9.89878 28.4076 10.2417 28.4076 10.9101C28.4076 11.7033 27.7218 12.0323 26.3156 12.0323C25.2073 12.0323 24.2756 11.7414 23.6972 11.5266V13.255C24.2929 13.5043 25.384 13.7398 26.5997 13.7398C29.4121 13.7398 30.3437 12.3891 30.3437 10.8374C30.3437 9.16105 29.658 8.34712 27.0222 8.11506C25.8792 8.00769 25.5606 7.73754 25.5606 7.10718ZM33.4679 13.6567C33.6791 13.6567 33.8558 13.6186 33.8558 13.6186V11.9804C33.2912 11.9804 33.118 11.7968 33.118 11.2946V4.50952H31.1507V11.3119C31.1473 12.8601 31.8712 13.6567 33.4679 13.6567ZM30.8494 1.83567C30.8494 2.55955 31.4278 3.15182 32.1309 3.15182C32.834 3.15182 33.4159 2.55955 33.4159 1.83567C33.4159 1.1118 32.834 0.51953 32.1309 0.51953C31.4278 0.522994 30.8494 1.11526 30.8494 1.83567Z" fill="#151312"/>
<path d="M24.5461 53.9996C11.0106 53.9996 0 42.989 0 29.4535C0 20.7323 4.47143 12.8528 11.9561 8.37789C12.2471 8.20471 12.6246 8.29823 12.7978 8.58917C12.9709 8.8801 12.8774 9.25763 12.5865 9.4308C5.47239 13.684 1.22609 21.1687 1.22609 29.4535C1.22609 42.3102 11.686 52.77 24.5426 52.77C37.3993 52.77 47.8591 42.3102 47.8591 29.4535C47.8591 21.1687 43.6129 13.684 36.4987 9.4308C36.2078 9.25763 36.1143 8.8801 36.2875 8.58917C36.4606 8.29823 36.8382 8.20471 37.1291 8.37789C44.6173 12.8562 49.0852 20.7358 49.0852 29.4535C49.0887 42.989 38.0781 53.9996 24.5461 53.9996Z" fill="#151312"/>
</svg>
