<svg width="107" height="54" viewBox="0 0 107 54" fill="none" xmlns="http://www.w3.org/2000/svg">
<path d="M56.3001 44.362C55.9572 44.5179 55.4758 44.6253 55.029 44.6253C54.4991 44.6253 54.0003 44.4763 53.6886 44.0572C53.4254 43.7074 53.3076 43.2017 53.3076 42.5541C53.3076 41.8059 53.4773 41.2552 53.8202 40.9089C54.1562 40.5729 54.6168 40.4863 55.1225 40.4863C55.4793 40.4863 55.8395 40.5314 56.1512 40.5937L56.0958 41.2483C55.8533 41.2102 55.5104 41.186 55.1987 41.186C54.8731 41.186 54.5683 41.2345 54.3882 41.4492C54.177 41.6916 54.1146 42.0796 54.1146 42.561C54.1146 42.9662 54.1596 43.3091 54.3017 43.5516C54.4748 43.839 54.7762 43.9325 55.1052 43.9325C55.4342 43.9325 55.7979 43.839 56.0958 43.7455L56.3001 44.362Z" fill="#1C1C1B"/>
<path d="M56.6738 44.5626V40.5449H59.1676V41.2307H57.46V42.1659H58.8766V42.8378H57.46V43.8734H59.1676V44.5592H56.6738V44.5626Z" fill="#1C1C1B"/>
<path d="M61.7173 44.5623C61.4299 44.0324 61.1805 43.5336 60.945 43.0106C60.7718 43.0106 60.5328 43.0037 60.3839 42.9933V44.5657H59.5977V40.5758C59.9786 40.5307 60.4774 40.4961 60.8618 40.4961C61.6862 40.4961 62.4516 40.697 62.4516 41.736C62.4516 42.2971 62.2196 42.7093 61.6862 42.9102C61.9182 43.3847 62.2715 43.9943 62.6213 44.5692H61.7173V44.5623ZM60.3839 42.4218C60.7406 42.4218 61.0246 42.4218 61.2324 42.3595C61.5199 42.2798 61.655 42.1032 61.655 41.743C61.655 41.2615 61.3121 41.1749 60.9242 41.1749C60.7441 41.1749 60.5501 41.1819 60.3804 41.1923V42.4218H60.3839Z" fill="#1C1C1B"/>
<path d="M63.6632 44.5626V41.2307H62.5791V40.5449H65.5335V41.2307H64.4494V44.5626H63.6632Z" fill="#1C1C1B"/>
<path d="M65.8242 44.5626V40.5449H66.6104V44.5626H65.8242Z" fill="#1C1C1B"/>
<path d="M67.2588 44.5626V40.5449H69.808V41.2307H68.0415V42.2351H69.4997V42.9071H68.0415V44.5592H67.2588V44.5626Z" fill="#1C1C1B"/>
<path d="M70.1816 44.5626V40.5449H70.9679V44.5626H70.1816Z" fill="#1C1C1B"/>
<path d="M71.6152 44.5626V40.5449H74.109V41.2307H72.4015V42.1659H73.818V42.8378H72.4015V43.8734H74.109V44.5592H71.6152V44.5626Z" fill="#1C1C1B"/>
<path d="M74.5391 40.5957C74.9512 40.5333 75.4188 40.4883 75.7929 40.4883C77.1506 40.4883 77.6251 41.1983 77.6251 42.5456C77.6251 43.931 77.1506 44.6099 75.7929 44.6099C75.4188 44.6099 74.9512 44.5926 74.5391 44.5475V40.5957ZM75.3253 43.9137C75.495 43.9276 75.5816 43.9276 75.7236 43.9276C76.6103 43.9276 76.8285 43.5466 76.8285 42.5491C76.8285 41.607 76.6103 41.1775 75.7236 41.1775C75.5816 41.1775 75.4569 41.1845 75.3253 41.1948V43.9137Z" fill="#1C1C1B"/>
<path d="M53.6807 15.1959V10.0664H54.4461V15.1959H53.6807Z" fill="#1C1C1B"/>
<path d="M55.2565 14.4785C55.5509 14.527 56.022 14.5894 56.4688 14.5894C56.9052 14.5894 57.3277 14.527 57.5598 14.3019C57.6949 14.1737 57.7745 14.0006 57.7745 13.7754C57.7745 13.2732 57.4628 13.107 56.5796 12.8437C55.6964 12.5874 55.1318 12.2238 55.1318 11.3544C55.1318 10.9249 55.3154 10.5751 55.6271 10.3361C55.9769 10.066 56.4237 9.98633 56.8948 9.98633C57.3658 9.98633 57.8646 10.0591 58.3114 10.1457L58.2144 10.7829C57.9131 10.7275 57.4489 10.6721 57.0264 10.6721C56.6766 10.6721 56.3406 10.7102 56.1432 10.8557C55.9839 10.9734 55.9042 11.1258 55.9042 11.3336C55.9042 11.8601 56.3094 12.009 57.1545 12.2653C57.9823 12.5216 58.5469 12.8715 58.5469 13.772C58.5469 14.2499 58.3633 14.6413 58.0308 14.9045C57.6706 15.192 57.1615 15.2786 56.6212 15.2786C56.1189 15.2786 55.6029 15.2059 55.163 15.1262L55.2565 14.4785Z" fill="#1C1C1B"/>
<path d="M58.9072 12.629C58.9072 10.8938 59.5688 9.98633 61.1204 9.98633C62.6721 9.98633 63.3336 10.8938 63.3336 12.629C63.3336 14.3642 62.6721 15.2717 61.1204 15.2717C59.5653 15.2751 58.9072 14.3677 58.9072 12.629ZM62.5543 12.629C62.5543 11.2748 62.1491 10.6686 61.1204 10.6686C60.0918 10.6686 59.6865 11.2748 59.6865 12.629C59.6865 13.9832 60.0918 14.5894 61.1204 14.5894C62.1456 14.5894 62.5543 13.9832 62.5543 12.629Z" fill="#1C1C1B"/>
<path d="M63.5166 15.1959L65.5081 10.0664H66.1281L64.1539 15.1959H63.5166Z" fill="#1C1C1B"/>
<path d="M66.5859 15.1959V10.0664H67.3514V15.1959H66.5859Z" fill="#1C1C1B"/>
<path d="M68.2168 15.1959V10.0664H71.2682V10.7418H68.9822V12.2138H70.8525V12.8823H68.9822V14.5136H71.2682V15.189H68.2168V15.1959Z" fill="#1C1C1B"/>
<path d="M75.3453 14.8833C74.9054 15.105 74.2855 15.2747 73.7036 15.2747C73.0421 15.2747 72.4117 15.0773 72.0307 14.5404C71.7121 14.104 71.5527 13.4667 71.5527 12.6286C71.5527 11.735 71.7536 11.0838 72.1173 10.637C72.5398 10.1348 73.1598 9.98242 73.8387 9.98242C74.2924 9.98242 74.7704 10.0448 75.1687 10.1348L75.0959 10.779C74.7773 10.7167 74.2993 10.6682 73.8837 10.6682C73.3988 10.6682 72.952 10.7721 72.6819 11.1289C72.4359 11.4648 72.332 11.9566 72.332 12.6251C72.332 13.2451 72.4117 13.723 72.6264 14.059C72.8723 14.4504 73.288 14.5855 73.7348 14.5855C74.23 14.5855 74.708 14.4435 75.1271 14.2737L75.3453 14.8833Z" fill="#1C1C1B"/>
<path d="M53.5833 23.5075V22.9014C54.9999 21.6684 56.0112 20.7021 56.0112 19.8501C56.0112 19.2128 55.5333 18.9807 54.9999 18.9807C54.5531 18.9807 54.037 19.1227 53.7011 19.2578L53.4863 18.6517C53.8846 18.4612 54.4838 18.2949 55.0553 18.2949C56.084 18.2949 56.7905 18.811 56.7905 19.8258C56.7905 20.9411 55.6684 21.9039 54.5773 22.8287H56.8633V23.5041H53.5833V23.5075Z" fill="#1C1C1B"/>
<path d="M58.0207 23.5084C58.4675 21.787 59.0147 20.5124 59.8286 19.0474H57.2656V18.3789H60.6183V19.0093C59.8079 20.4674 59.2572 21.742 58.8415 23.5084H58.0207Z" fill="#1C1C1B"/>
<path d="M61.6291 23.5084C62.0759 21.787 62.6231 20.5124 63.437 19.0474H60.874V18.3789H64.2267V19.0093C63.4163 20.4674 62.8656 21.742 62.4499 23.5084H61.6291Z" fill="#1C1C1B"/>
<path d="M64.6328 20.9415C64.6328 19.2201 64.993 18.2988 66.4893 18.2988C67.9786 18.2988 68.3353 19.2236 68.3353 20.9415C68.3353 22.6525 67.9751 23.5842 66.4893 23.5842C64.993 23.5876 64.6328 22.656 64.6328 20.9415ZM67.5734 20.9415C67.5734 19.7223 67.5006 18.9673 66.4893 18.9673C65.4606 18.9673 65.3983 19.7223 65.3983 20.9415C65.3983 22.1537 65.4606 22.9261 66.4893 22.9261C67.5006 22.9261 67.5734 22.1537 67.5734 20.9415Z" fill="#1C1C1B"/>
<path d="M69.6758 23.508V19.1508L68.609 19.5561L68.377 19.0365L69.7485 18.375H70.4412V23.5045H69.6758V23.508Z" fill="#1C1C1B"/>
<path d="M53.5352 30.0887V26.0953C53.9404 26.0468 54.4322 26.0156 54.8652 26.0156C55.738 26.0156 56.3545 26.2962 56.3545 27.2867C56.3545 28.3293 55.6514 28.6167 54.8271 28.6167C54.6019 28.6167 54.4045 28.5994 54.1343 28.5683V30.0887H53.5352ZM54.1343 28.1041C54.3456 28.118 54.4772 28.118 54.6331 28.118C55.3085 28.118 55.7449 27.9933 55.7449 27.3075C55.7449 26.7014 55.4193 26.5352 54.8271 26.5352C54.5915 26.5352 54.3422 26.5525 54.1343 26.5663V28.1041Z" fill="#1C1C1B"/>
<path d="M56.7148 30.0875V27.2058H57.1374L57.2136 27.5626H57.2378C57.463 27.237 57.7297 27.1504 58.0933 27.1504C58.1626 27.1504 58.2319 27.1504 58.3427 27.1642L58.3046 27.6803C58.1938 27.663 58.0795 27.6561 57.9617 27.6561C57.7193 27.6561 57.4768 27.7115 57.2829 27.8743V30.0875H56.7148Z" fill="#1C1C1B"/>
<path d="M58.8791 26.0527C59.0523 26.0527 59.1977 26.1947 59.1977 26.3714C59.1977 26.5446 59.0557 26.6831 58.8791 26.6831C58.7025 26.6831 58.5674 26.5446 58.5674 26.3714C58.5674 26.1947 58.7059 26.0527 58.8791 26.0527ZM58.5986 30.0878V27.2061H59.1666V30.0878H58.5986Z" fill="#1C1C1B"/>
<path d="M60.3691 30.0887C59.995 29.1605 59.7006 28.156 59.4824 27.207H60.0678C60.2617 28.066 60.4868 28.9423 60.7466 29.6384H60.7951C61.0583 28.9388 61.28 28.066 61.474 27.207H62.0593C61.8411 28.156 61.5467 29.1605 61.1726 30.0887H60.3691Z" fill="#1C1C1B"/>
<path d="M64.0742 30.089L64.0119 29.8465C63.7937 30.0405 63.4924 30.1513 63.1702 30.1513C62.578 30.1513 62.2178 29.7599 62.2178 29.2473C62.2178 28.991 62.3182 28.7347 62.5226 28.5754C62.7165 28.4196 62.9901 28.3572 63.2949 28.3572C63.4958 28.3572 63.7244 28.3711 63.9253 28.3815V28.139C63.9253 27.9658 63.8803 27.8515 63.8075 27.7788C63.7002 27.6784 63.527 27.6541 63.2949 27.6541C63.0144 27.6541 62.6715 27.7026 62.4845 27.7476L62.3979 27.2731C62.6473 27.1969 63.0144 27.1484 63.3469 27.1484C63.7071 27.1484 64.0084 27.1969 64.2128 27.3736C64.3929 27.5225 64.4933 27.7615 64.4933 28.1078V30.0924H64.0742V30.089ZM63.9218 28.7971C63.7798 28.7832 63.5859 28.7798 63.4092 28.7798C62.9901 28.7798 62.7927 28.9287 62.7927 29.2473C62.7927 29.521 62.9728 29.7011 63.2845 29.7011C63.5166 29.7011 63.7521 29.6214 63.9218 29.4898V28.7971Z" fill="#1C1C1B"/>
<path d="M67.123 29.9188C66.8598 30.0435 66.4926 30.1509 66.1394 30.1509C65.3843 30.1509 64.8994 29.7283 64.8994 28.6616C64.8994 27.4389 65.5159 27.1445 66.2225 27.1445C66.503 27.1445 66.7836 27.1757 67.0191 27.2311L66.9706 27.7056C66.7663 27.6745 66.5342 27.6502 66.316 27.6502C65.7618 27.6502 65.4744 27.8684 65.4744 28.6477C65.4744 29.3473 65.7099 29.6452 66.1982 29.6452C66.4788 29.6452 66.742 29.5655 66.9706 29.4651L67.123 29.9188Z" fill="#1C1C1B"/>
<path d="M67.9992 31.2208C68.1689 30.7775 68.304 30.3861 68.4044 30.0848H68.0996C67.8052 29.2882 67.5074 28.2387 67.2441 27.2031H67.8364C68.0304 28.0517 68.2416 28.8622 68.491 29.6345H68.536C68.7681 28.9349 69.0105 28.0309 69.1976 27.2031H69.776C69.4573 28.5366 69.0036 30.0536 68.5534 31.2208H67.9992Z" fill="#1C1C1B"/>
<path d="M71.418 30.088V26.0703H72.0172V30.088H71.418Z" fill="#1C1C1B"/>
<path d="M74.4342 30.0881V28.197C74.4342 27.8299 74.2645 27.6532 73.9493 27.6532C73.6826 27.6532 73.4436 27.7398 73.2497 27.8333V30.0846H72.6816V27.203H73.1007L73.1492 27.4662C73.3743 27.293 73.6861 27.1406 74.022 27.1406C74.6766 27.1406 75.0022 27.532 75.0022 28.1451V30.0846H74.4342V30.0881Z" fill="#1C1C1B"/>
<path d="M75.737 30.0879V27.6738H75.3145V27.2547L75.737 27.2304V26.9187C75.737 26.5932 75.8167 26.3715 75.9621 26.226C76.1353 26.0563 76.3916 26.0078 76.6964 26.0078C76.8349 26.0078 76.9839 26.0217 77.119 26.0321L77.0878 26.5066C76.9423 26.4927 76.8142 26.4927 76.6999 26.4927C76.5509 26.4927 76.4436 26.51 76.3882 26.5932C76.3189 26.6693 76.3016 26.7871 76.3016 26.9672V27.2027H76.9319V27.6703H76.3016V30.0844H75.737V30.0879Z" fill="#1C1C1B"/>
<path d="M78.3798 30.1509C77.9746 30.1509 77.6802 30.04 77.4689 29.8322C77.2022 29.5759 77.0879 29.1603 77.0879 28.6477C77.0879 28.1351 77.1987 27.7195 77.4689 27.4632C77.6802 27.2588 77.9746 27.1445 78.3798 27.1445C78.785 27.1445 79.0794 27.2554 79.2907 27.4632C79.5574 27.7195 79.6717 28.1351 79.6717 28.6477C79.6717 29.1603 79.5609 29.5759 79.2907 29.8322C79.0794 30.0366 78.785 30.1509 78.3798 30.1509ZM79.0967 28.6477C79.0967 28.2979 79.0413 28.0104 78.8924 27.8442C78.7816 27.7126 78.6049 27.6433 78.3798 27.6433C78.1547 27.6433 77.9815 27.7126 77.8672 27.8442C77.7183 28.0139 77.6628 28.2979 77.6628 28.6477C77.6628 29.0044 77.7183 29.2885 77.8672 29.4512C77.978 29.5829 78.1547 29.6521 78.3798 29.6521C78.6049 29.6521 78.7712 29.5759 78.8924 29.4512C79.0413 29.2885 79.0967 29.001 79.0967 28.6477Z" fill="#1C1C1B"/>
<path d="M80.0938 30.0875V27.2058H80.5163L80.5925 27.5626H80.6167C80.8419 27.237 81.1086 27.1504 81.4722 27.1504C81.5415 27.1504 81.6108 27.1504 81.7216 27.1642L81.6835 27.6803C81.5727 27.663 81.4584 27.6561 81.3406 27.6561C81.0982 27.6561 80.8557 27.7115 80.6618 27.8743V30.0875H80.0938Z" fill="#1C1C1B"/>
<path d="M85.3683 30.089V28.1806C85.3683 27.8204 85.1952 27.6576 84.8765 27.6576C84.6583 27.6576 84.4263 27.7338 84.2081 27.8585C84.2254 27.9693 84.2392 28.1009 84.2392 28.2152V30.0924H83.6712V28.184C83.6712 27.8238 83.5015 27.661 83.1863 27.661C82.9543 27.661 82.7568 27.7234 82.5456 27.8342V30.0924H81.9775V27.2108H82.3966L82.4451 27.474C82.6495 27.3182 82.9439 27.1484 83.311 27.1484C83.6539 27.1484 83.9102 27.2801 84.0591 27.5156C84.3085 27.3112 84.6133 27.1484 84.9562 27.1484C85.6004 27.1484 85.9364 27.5052 85.9364 28.2083V30.0924H85.3683V30.089Z" fill="#1C1C1B"/>
<path d="M88.1875 30.089L88.1252 29.8465C87.907 30.0405 87.6056 30.1513 87.2835 30.1513C86.6913 30.1513 86.3311 29.7599 86.3311 29.2473C86.3311 28.991 86.4315 28.7347 86.6358 28.5754C86.8298 28.4196 87.1034 28.3572 87.4082 28.3572C87.6091 28.3572 87.8377 28.3711 88.0386 28.3815V28.139C88.0386 27.9658 87.9936 27.8515 87.9208 27.7788C87.8135 27.6784 87.6403 27.6541 87.4082 27.6541C87.1277 27.6541 86.7848 27.7026 86.5977 27.7476L86.5112 27.2731C86.7605 27.1969 87.1277 27.1484 87.4602 27.1484C87.8204 27.1484 88.1217 27.1969 88.3261 27.3736C88.5062 27.5225 88.6066 27.7615 88.6066 28.1078V30.0924H88.1875V30.089ZM88.0386 28.7971C87.8966 28.7832 87.7026 28.7798 87.526 28.7798C87.1069 28.7798 86.9095 28.9287 86.9095 29.2473C86.9095 29.521 87.0896 29.7011 87.4013 29.7011C87.6333 29.7011 87.8689 29.6214 88.0386 29.4898V28.7971Z" fill="#1C1C1B"/>
<path d="M90.7129 29.9641C90.5189 30.0646 90.2696 30.1373 90.0202 30.1373C89.5526 30.1373 89.2859 29.8741 89.2859 29.3511V27.6747H88.8564V27.2556L89.3067 27.2314L89.3517 26.3828H89.8574V27.2071H90.661V27.6747H89.8574V29.2645C89.8574 29.4758 89.8955 29.6247 90.1137 29.6247C90.2523 29.6247 90.3804 29.5866 90.5328 29.5173L90.7129 29.9641Z" fill="#1C1C1B"/>
<path d="M91.3293 26.0527C91.5025 26.0527 91.6479 26.1947 91.6479 26.3714C91.6479 26.5446 91.5059 26.6831 91.3293 26.6831C91.1527 26.6831 91.0176 26.5446 91.0176 26.3714C91.0176 26.1947 91.1527 26.0527 91.3293 26.0527ZM91.0487 30.0878V27.2061H91.6168V30.0878H91.0487Z" fill="#1C1C1B"/>
<path d="M93.331 30.1509C92.9257 30.1509 92.6313 30.04 92.4201 29.8322C92.1534 29.5759 92.0391 29.1603 92.0391 28.6477C92.0391 28.1351 92.1499 27.7195 92.4201 27.4632C92.6313 27.2588 92.9257 27.1445 93.331 27.1445C93.7362 27.1445 94.0306 27.2554 94.2419 27.4632C94.5086 27.7195 94.6229 28.1351 94.6229 28.6477C94.6229 29.1603 94.512 29.5759 94.2419 29.8322C94.0271 30.0366 93.7362 30.1509 93.331 30.1509ZM94.0479 28.6477C94.0479 28.2979 93.9925 28.0104 93.8436 27.8442C93.7327 27.7126 93.5561 27.6433 93.331 27.6433C93.1058 27.6433 92.9327 27.7126 92.8184 27.8442C92.6694 28.0139 92.614 28.2979 92.614 28.6477C92.614 29.0044 92.6694 29.2885 92.8184 29.4512C92.9292 29.5829 93.1058 29.6521 93.331 29.6521C93.5561 29.6521 93.7223 29.5759 93.8436 29.4512C93.9925 29.2885 94.0479 29.001 94.0479 28.6477Z" fill="#1C1C1B"/>
<path d="M96.7945 30.0881V28.197C96.7945 27.8299 96.6248 27.6532 96.3096 27.6532C96.043 27.6532 95.804 27.7398 95.61 27.8333V30.0846H95.042V27.203H95.4611L95.5096 27.4662C95.7347 27.293 96.0464 27.1406 96.3824 27.1406C97.037 27.1406 97.3626 27.532 97.3626 28.1451V30.0846H96.7945V30.0881Z" fill="#1C1C1B"/>
<path d="M56.8464 36.6681C56.8152 35.5944 56.7668 34.493 56.7148 33.4332H56.6836L55.7727 35.9892H55.132L54.2211 33.4332H54.1899C54.1414 34.493 54.0894 35.5979 54.0583 36.6681H53.4521C53.4972 35.3346 53.563 33.9942 53.6392 32.6504H54.512L55.4368 35.3139H55.4679L56.3927 32.6504H57.2655C57.3417 33.9908 57.4075 35.3312 57.4525 36.6681H56.8464Z" fill="#1C1C1B"/>
<path d="M59.7275 36.6691L59.6652 36.4266C59.447 36.6206 59.1457 36.7314 58.8236 36.7314C58.2313 36.7314 57.8711 36.34 57.8711 35.8274C57.8711 35.5711 57.9715 35.3148 58.1759 35.1555C58.3698 34.9996 58.6435 34.9373 58.9483 34.9373C59.1491 34.9373 59.3777 34.9511 59.5786 34.9615V34.7191C59.5786 34.5459 59.5336 34.4316 59.4609 34.3589C59.3535 34.2584 59.1803 34.2342 58.9483 34.2342C58.6677 34.2342 58.3248 34.2827 58.1378 34.3277L58.0512 33.8532C58.3006 33.777 58.6677 33.7285 59.0002 33.7285C59.3604 33.7285 59.6617 33.777 59.8661 33.9536C60.0462 34.1026 60.1466 34.3416 60.1466 34.6879V36.6725H59.7275V36.6691ZM59.5786 35.3772C59.4366 35.3633 59.2427 35.3598 59.066 35.3598C58.6469 35.3598 58.4495 35.5088 58.4495 35.8274C58.4495 36.101 58.6296 36.2811 58.9413 36.2811C59.1734 36.2811 59.4089 36.2015 59.5786 36.0699V35.3772Z" fill="#1C1C1B"/>
<path d="M62.4811 36.6682V34.7771C62.4811 34.4099 62.3114 34.2333 61.9962 34.2333C61.7295 34.2333 61.4905 34.3199 61.2965 34.4134V36.6647H60.7285V33.783H61.1476L61.1961 34.0463C61.4212 33.8731 61.7329 33.7207 62.0689 33.7207C62.7235 33.7207 63.0491 34.1121 63.0491 34.7251V36.6647H62.4811V36.6682Z" fill="#1C1C1B"/>
<path d="M65.3008 36.6691L65.2385 36.4266C65.0202 36.6206 64.7189 36.7314 64.3968 36.7314C63.8045 36.7314 63.4443 36.34 63.4443 35.8274C63.4443 35.5711 63.5448 35.3148 63.7491 35.1555C63.9431 34.9996 64.2167 34.9373 64.5215 34.9373C64.7224 34.9373 64.951 34.9511 65.1519 34.9615V34.7191C65.1519 34.5459 65.1068 34.4316 65.0341 34.3589C64.9267 34.2584 64.7536 34.2342 64.5215 34.2342C64.2409 34.2342 63.8981 34.2827 63.711 34.3277L63.6244 33.8532C63.8738 33.777 64.241 33.7285 64.5735 33.7285C64.9337 33.7285 65.235 33.777 65.4393 33.9536C65.6194 34.1026 65.7199 34.3416 65.7199 34.6879V36.6725H65.3008V36.6691ZM65.1519 35.3772C65.0099 35.3633 64.8159 35.3598 64.6393 35.3598C64.2202 35.3598 64.0228 35.5088 64.0228 35.8274C64.0228 36.101 64.2029 36.2811 64.5146 36.2811C64.7466 36.2811 64.9821 36.2015 65.1519 36.0699V35.3772Z" fill="#1C1C1B"/>
<path d="M67.968 36.5058C67.7672 36.6444 67.5247 36.731 67.2823 36.731C66.4649 36.731 66.167 36.201 66.167 35.252C66.167 34.1714 66.503 33.7246 67.303 33.7246C67.7325 33.7246 68.2278 33.8181 68.5395 33.9255V36.9318C68.5395 37.2436 68.4391 37.4618 68.2763 37.6176C68.065 37.8116 67.7325 37.867 67.3896 37.867C67.0641 37.867 66.7281 37.8185 66.4614 37.7666L66.5376 37.2817C66.7419 37.3128 67.0433 37.3579 67.31 37.3579C67.542 37.3579 67.7533 37.3336 67.8572 37.2262C67.9334 37.1466 67.968 37.0254 67.968 36.8695V36.5058ZM67.968 34.2857C67.7983 34.2545 67.5628 34.2303 67.3584 34.2303C66.8666 34.2303 66.7419 34.5662 66.7419 35.259C66.7419 35.9066 66.8736 36.2634 67.3515 36.2634C67.5628 36.2634 67.781 36.2184 67.968 36.1248V34.2857Z" fill="#1C1C1B"/>
<path d="M71.206 36.4989C70.9497 36.6167 70.5826 36.731 70.2085 36.731C69.36 36.731 68.9062 36.201 68.9062 35.2451C68.9062 34.452 69.2665 33.7246 70.1462 33.7246C70.8458 33.7246 71.2511 34.2234 71.2511 34.9957C71.2511 35.1516 71.2337 35.3074 71.206 35.4321H69.4777C69.4916 35.6884 69.5539 35.8928 69.6717 36.0244C69.8033 36.1664 70.0077 36.2253 70.2466 36.2253C70.5445 36.2253 70.8389 36.1456 71.0744 36.0452L71.206 36.4989ZM70.7108 34.9853C70.7108 34.5559 70.5861 34.213 70.1254 34.213C69.7063 34.213 69.5089 34.587 69.4847 34.9853H70.7108Z" fill="#1C1C1B"/>
<path d="M75.0578 36.6691V34.7607C75.0578 34.4004 74.8846 34.2377 74.566 34.2377C74.3478 34.2377 74.1157 34.3139 73.8975 34.4385C73.9148 34.5494 73.9287 34.681 73.9287 34.7953V36.6725H73.3607V34.7641C73.3607 34.4039 73.191 34.2411 72.8758 34.2411C72.6437 34.2411 72.4463 34.3035 72.235 34.4143V36.6725H71.667V33.7909H72.0861L72.1346 34.0541C72.3389 33.8982 72.6333 33.7285 73.0005 33.7285C73.3433 33.7285 73.5996 33.8601 73.7486 34.0957C73.998 33.8913 74.3027 33.7285 74.6456 33.7285C75.2864 33.7285 75.6258 34.0853 75.6258 34.7884V36.6725H75.0578V36.6691Z" fill="#1C1C1B"/>
<path d="M78.2754 36.4989C78.0191 36.6167 77.6519 36.731 77.2779 36.731C76.4293 36.731 75.9756 36.201 75.9756 35.2451C75.9756 34.452 76.3358 33.7246 77.2155 33.7246C77.9152 33.7246 78.3204 34.2234 78.3204 34.9957C78.3204 35.1516 78.3031 35.3074 78.2754 35.4321H76.5471C76.5609 35.6884 76.6233 35.8928 76.741 36.0244C76.8726 36.1664 77.077 36.2253 77.316 36.2253C77.6138 36.2253 77.9082 36.1456 78.1438 36.0452L78.2754 36.4989ZM77.7836 34.9853C77.7836 34.5559 77.6589 34.213 77.1982 34.213C76.7791 34.213 76.5817 34.587 76.5575 34.9853H77.7836Z" fill="#1C1C1B"/>
<path d="M80.4889 36.6682V34.7771C80.4889 34.4099 80.3192 34.2333 80.004 34.2333C79.7373 34.2333 79.4983 34.3199 79.3043 34.4134V36.6647H78.7363V33.783H79.1554L79.2039 34.0463C79.429 33.8731 79.7408 33.7207 80.0767 33.7207C80.7313 33.7207 81.0569 34.1121 81.0569 34.7251V36.6647H80.4889V36.6682Z" fill="#1C1C1B"/>
<path d="M83.1377 36.5442C82.9437 36.6446 82.6944 36.7174 82.445 36.7174C81.9774 36.7174 81.7107 36.4541 81.7107 35.9311V34.2548H81.2812V33.8357L81.7315 33.8115L81.7765 32.9629H82.2822V33.7872H83.0858V34.2548H82.2822V35.8446C82.2822 36.0558 82.3203 36.2048 82.5385 36.2048C82.6771 36.2048 82.8052 36.1667 82.9576 36.0974L83.1377 36.5442Z" fill="#1C1C1B"/>
<path d="M81.8435 53.9993H24.5427C24.2033 53.9993 23.9297 53.7257 23.9297 53.3863C23.9297 53.0468 24.2033 52.7732 24.5427 52.7732H81.8435C94.7001 52.7732 105.16 42.3133 105.16 29.4567C105.16 16.6 94.7001 6.14015 81.8435 6.14015H36.8175C36.4781 6.14015 36.2045 5.86654 36.2045 5.52711C36.2045 5.18768 36.4781 4.91406 36.8175 4.91406H81.8435C95.379 4.91406 106.39 15.9246 106.39 29.4601C106.39 42.9887 95.379 53.9993 81.8435 53.9993Z" fill="#1C1C1B"/>
<path d="M25.973 23.6256C26.1497 20.8582 28.4183 18.6623 31.1822 18.6623C33.9461 18.6623 36.2112 20.8582 36.3914 23.6256H25.973ZM30.3648 35.9939C29.6271 33.8222 27.8745 32.6793 26.3991 31.7164C24.7608 30.6496 24.075 30.0955 24.0438 29.0703C24.0542 27.6675 25.1695 26.5176 26.5411 26.5176H35.6398L30.3648 35.9939ZM23.3234 44.244C23.3754 44.2544 23.9642 44.3514 24.5495 44.3549C25.1106 44.3583 25.6717 44.2683 25.7722 44.2406L24.5495 46.4364L23.3234 44.244ZM21.841 26.5176C21.4531 27.2588 21.228 28.1039 21.2107 29.001H21.2072C21.2072 29.0287 21.2072 29.0599 21.2107 29.0876V29.0945C21.2557 31.8099 23.2611 33.1191 24.8786 34.1755C26.8008 35.4293 27.8884 36.2363 27.8884 38.2971C27.8884 40.3233 26.2813 41.5044 24.3071 41.5044C23.0394 41.5044 21.4323 40.822 20.7916 39.6964L20.2236 38.7128L13.3935 26.5211H21.841V26.5176ZM18.0381 18.6623C20.802 18.6623 23.0706 20.8582 23.2472 23.6256H12.8324C13.009 20.8582 15.2776 18.6623 18.0381 18.6623ZM31.1822 15.8984C28.5014 15.8984 26.0839 17.2319 24.6119 19.4901C23.1364 17.2284 20.7189 15.8984 18.0381 15.8984C13.5978 15.8984 9.98535 19.5248 9.98535 23.9789C9.98535 23.9789 9.98535 24.0204 9.98535 24.7997C9.98535 25.579 10.0754 26.2752 10.6919 27.3385C11.3084 28.4018 24.553 51.2438 24.553 51.2438C24.553 51.2438 37.704 28.5403 38.3552 27.3385C39.0063 26.1332 39.1102 25.6171 39.1102 24.7997V23.9789C39.1068 19.5213 35.5497 15.8984 31.1822 15.8984Z" fill="#151311"/>
<path d="M19.5618 4.29132C18.682 4.29132 17.8369 4.5788 17.2065 4.99788V0H15.2393V13.532H16.3961L16.7147 12.8047C17.4871 13.3831 18.3841 13.7433 19.5652 13.7433C22.1282 13.7433 23.0772 11.9769 23.0772 9.01559C23.0738 6.07504 22.1248 4.29132 19.5618 4.29132ZM19.1011 6.00577C20.8259 6.00577 21.0892 7.35655 21.0892 9.01559C21.0892 10.6919 20.8259 12.0323 19.1011 12.0323C18.1729 12.0323 17.5564 11.7033 17.2031 11.5059V6.52877C17.5529 6.32788 18.1694 6.00577 19.1011 6.00577ZM25.5606 7.10718C25.5606 6.29325 26.2117 5.98845 27.2508 5.98845C28.3557 5.98845 29.1869 6.20319 29.9385 6.49413V4.74158C29.2527 4.43679 28.4076 4.29132 27.2127 4.29132C24.6289 4.29132 23.6453 5.60747 23.6453 7.15913C23.6453 8.71079 24.2964 9.5559 26.9495 9.79488C28.1271 9.89879 28.4076 10.2417 28.4076 10.9101C28.4076 11.7033 27.7218 12.0323 26.3156 12.0323C25.2073 12.0323 24.2756 11.7414 23.6972 11.5266V13.255C24.2929 13.5043 25.384 13.7398 26.5997 13.7398C29.4121 13.7398 30.3437 12.3891 30.3437 10.8374C30.3437 9.16105 29.658 8.34712 27.0222 8.11507C25.8792 8.0077 25.5606 7.73754 25.5606 7.10718ZM33.4678 13.6567C33.6791 13.6567 33.8558 13.6186 33.8558 13.6186V11.9804C33.2912 11.9804 33.118 11.7968 33.118 11.2946V4.50952H31.1507V11.3119C31.1473 12.8601 31.8712 13.6567 33.4678 13.6567ZM30.8494 1.83567C30.8494 2.55955 31.4278 3.15182 32.1309 3.15182C32.834 3.15182 33.4159 2.55955 33.4159 1.83567C33.4159 1.1118 32.834 0.51953 32.1309 0.51953C31.4278 0.522994 30.8494 1.11526 30.8494 1.83567Z" fill="#151311"/>
<path d="M24.5461 53.9996C11.0106 53.9996 0 42.989 0 29.4535C0 20.7323 4.47143 12.8528 11.9561 8.37789C12.2471 8.20471 12.6246 8.29823 12.7978 8.58917C12.9709 8.8801 12.8774 9.25763 12.5865 9.4308C5.47239 13.684 1.22609 21.1687 1.22609 29.4535C1.22609 42.3102 11.686 52.77 24.5426 52.77C37.3993 52.77 47.8591 42.3102 47.8591 29.4535C47.8591 21.1687 43.6129 13.684 36.4987 9.4308C36.2078 9.25763 36.1143 8.8801 36.2875 8.58917C36.4606 8.29823 36.8382 8.20471 37.1291 8.37789C44.6173 12.8562 49.0852 20.7358 49.0852 29.4535C49.0887 42.989 38.0781 53.9996 24.5461 53.9996Z" fill="#151311"/>
</svg>
