<svg width="107" height="55" viewBox="0 0 107 55" fill="none" xmlns="http://www.w3.org/2000/svg">
<path d="M56.3001 44.3601C55.9572 44.5159 55.4758 44.6233 55.029 44.6233C54.4991 44.6233 54.0003 44.4744 53.6886 44.0553C53.4254 43.7055 53.3076 43.1998 53.3076 42.5521C53.3076 41.804 53.4773 41.2533 53.8202 40.9069C54.1562 40.571 54.6168 40.4844 55.1225 40.4844C55.4793 40.4844 55.8395 40.5294 56.1512 40.5917L56.0958 41.2464C55.8533 41.2083 55.5104 41.184 55.1987 41.184C54.8731 41.184 54.5683 41.2325 54.3882 41.4472C54.177 41.6897 54.1146 42.0776 54.1146 42.559C54.1146 42.9643 54.1597 43.3072 54.3017 43.5496C54.4748 43.8371 54.7762 43.9306 55.1052 43.9306C55.4342 43.9306 55.7979 43.8371 56.0958 43.7436L56.3001 44.3601Z" fill="#1C1C1B"/>
<path d="M56.6748 44.5607V40.543H59.1685V41.2288H57.461V42.1639H58.8776V42.8358H57.461V43.8714H59.1685V44.5572H56.6748V44.5607Z" fill="#1C1C1B"/>
<path d="M61.7173 44.5623C61.4299 44.0324 61.1805 43.5336 60.945 43.0106C60.7718 43.0106 60.5328 43.0037 60.3839 42.9933V44.5657H59.5977V40.5758C59.9786 40.5307 60.4774 40.4961 60.8618 40.4961C61.6862 40.4961 62.4516 40.697 62.4516 41.736C62.4516 42.2971 62.2196 42.7093 61.6862 42.9102C61.9182 43.3847 62.2715 43.9943 62.6213 44.5692H61.7173V44.5623ZM60.3839 42.4218C60.7406 42.4218 61.0246 42.4218 61.2324 42.3595C61.5199 42.2798 61.655 42.1032 61.655 41.743C61.655 41.2615 61.3121 41.1749 60.9242 41.1749C60.7441 41.1749 60.5501 41.1819 60.3804 41.1923V42.4218H60.3839Z" fill="#1C1C1B"/>
<path d="M63.6642 44.5607V41.2288H62.5801V40.543H65.5345V41.2288H64.4504V44.5607H63.6642Z" fill="#1C1C1B"/>
<path d="M65.8252 44.5607V40.543H66.6114V44.5607H65.8252Z" fill="#1C1C1B"/>
<path d="M67.2588 44.5607V40.543H69.8079V41.2288H68.0415V42.2332H69.4997V42.9051H68.0415V44.5572H67.2588V44.5607Z" fill="#1C1C1B"/>
<path d="M70.1826 44.5607V40.543H70.9688V44.5607H70.1826Z" fill="#1C1C1B"/>
<path d="M71.6152 44.5607V40.543H74.109V41.2288H72.4015V42.1639H73.818V42.8358H72.4015V43.8714H74.109V44.5572H71.6152V44.5607Z" fill="#1C1C1B"/>
<path d="M74.5391 40.5956C74.9512 40.5333 75.4188 40.4883 75.7929 40.4883C77.1506 40.4883 77.6251 41.1983 77.6251 42.5456C77.6251 43.931 77.1506 44.6099 75.7929 44.6099C75.4188 44.6099 74.9512 44.5926 74.5391 44.5475V40.5956ZM75.3253 43.9137C75.495 43.9276 75.5816 43.9276 75.7236 43.9276C76.6103 43.9276 76.8285 43.5466 76.8285 42.5491C76.8285 41.607 76.6103 41.1775 75.7236 41.1775C75.5816 41.1775 75.4569 41.1845 75.3253 41.1948V43.9137Z" fill="#1C1C1B"/>
<path d="M53.6816 15.1939V10.0645H54.4471V15.1939H53.6816Z" fill="#1C1C1B"/>
<path d="M55.2575 14.4785C55.5519 14.527 56.0229 14.5894 56.4697 14.5894C56.9061 14.5894 57.3287 14.527 57.5608 14.3019C57.6958 14.1737 57.7755 14.0006 57.7755 13.7754C57.7755 13.2732 57.4638 13.107 56.5806 12.8437C55.6974 12.5874 55.1328 12.2238 55.1328 11.3544C55.1328 10.9249 55.3164 10.5751 55.6281 10.3361C55.9779 10.066 56.4247 9.98633 56.8958 9.98633C57.3668 9.98633 57.8655 10.0591 58.3123 10.1457L58.2154 10.7829C57.914 10.7275 57.4499 10.6721 57.0274 10.6721C56.6775 10.6721 56.3416 10.7102 56.1442 10.8557C55.9848 10.9734 55.9052 11.1258 55.9052 11.3336C55.9052 11.8601 56.3104 12.009 57.1555 12.2653C57.9833 12.5216 58.5479 12.8715 58.5479 13.772C58.5479 14.2499 58.3643 14.6413 58.0318 14.9046C57.6716 15.192 57.1624 15.2786 56.6221 15.2786C56.1199 15.2786 55.6039 15.2059 55.164 15.1262L55.2575 14.4785Z" fill="#1C1C1B"/>
<path d="M58.9082 12.629C58.9082 10.8938 59.5697 9.98633 61.1214 9.98633C62.6731 9.98633 63.3346 10.8938 63.3346 12.629C63.3346 14.3642 62.6731 15.2717 61.1214 15.2717C59.5663 15.2751 58.9082 14.3677 58.9082 12.629ZM62.5553 12.629C62.5553 11.2748 62.1501 10.6686 61.1214 10.6686C60.0927 10.6686 59.6875 11.2748 59.6875 12.629C59.6875 13.9832 60.0927 14.5894 61.1214 14.5894C62.1466 14.5894 62.5553 13.9832 62.5553 12.629Z" fill="#1C1C1B"/>
<path d="M63.5186 15.1939L65.5101 10.0645H66.1301L64.1558 15.1939H63.5186Z" fill="#1C1C1B"/>
<path d="M66.5869 15.1939V10.0645H67.3524V15.1939H66.5869Z" fill="#1C1C1B"/>
<path d="M68.2188 15.1939V10.0645H71.2701V10.7398H68.9842V12.2118H70.8545V12.8803H68.9842V14.5116H71.2701V15.187H68.2188V15.1939Z" fill="#1C1C1B"/>
<path d="M75.3463 14.8833C74.9064 15.105 74.2864 15.2747 73.7046 15.2747C73.043 15.2747 72.4127 15.0773 72.0317 14.5404C71.713 14.104 71.5537 13.4667 71.5537 12.6286C71.5537 11.735 71.7546 11.0838 72.1183 10.637C72.5408 10.1348 73.1608 9.98242 73.8396 9.98242C74.2934 9.98242 74.7713 10.0448 75.1696 10.1348L75.0969 10.779C74.7783 10.7167 74.3003 10.6682 73.8847 10.6682C73.3998 10.6682 72.953 10.7721 72.6828 11.1289C72.4369 11.4648 72.333 11.9566 72.333 12.6251C72.333 13.2451 72.4127 13.723 72.6274 14.059C72.8733 14.4504 73.2889 14.5855 73.7357 14.5855C74.231 14.5855 74.709 14.4435 75.1281 14.2737L75.3463 14.8833Z" fill="#1C1C1B"/>
<path d="M53.5853 23.5075V22.9014C55.0019 21.6684 56.0132 20.7021 56.0132 19.8501C56.0132 19.2128 55.5352 18.9807 55.0019 18.9807C54.5551 18.9807 54.039 19.1227 53.703 19.2578L53.4883 18.6517C53.8866 18.4612 54.4858 18.2949 55.0573 18.2949C56.0859 18.2949 56.7925 18.811 56.7925 19.8258C56.7925 20.9411 55.6703 21.9039 54.5793 22.8287H56.8652V23.5041H53.5853V23.5075Z" fill="#1C1C1B"/>
<path d="M58.0217 23.5065C58.4685 21.7851 59.0157 20.5105 59.8296 19.0454H57.2666V18.377H60.6193V19.0073C59.8088 20.4655 59.2581 21.74 58.8425 23.5065H58.0217Z" fill="#1C1C1B"/>
<path d="M61.0244 20.9415C61.0244 19.2201 61.3846 18.2988 62.8809 18.2988C64.3702 18.2988 64.7269 19.2236 64.7269 20.9415C64.7269 22.6525 64.3667 23.5842 62.8809 23.5842C61.3846 23.5876 61.0244 22.656 61.0244 20.9415ZM63.965 20.9415C63.965 19.7223 63.8922 18.9673 62.8809 18.9673C61.8522 18.9673 61.7899 19.7223 61.7899 20.9415C61.7899 22.1537 61.8522 22.9261 62.8809 22.9261C63.8922 22.9261 63.965 22.1537 63.965 20.9415Z" fill="#1C1C1B"/>
<path d="M65.2783 20.9415C65.2783 19.2201 65.6385 18.2988 67.1348 18.2988C68.6241 18.2988 68.9809 19.2236 68.9809 20.9415C68.9809 22.6525 68.6206 23.5842 67.1348 23.5842C65.6385 23.5876 65.2783 22.656 65.2783 20.9415ZM68.2189 20.9415C68.2189 19.7223 68.1461 18.9673 67.1348 18.9673C66.1061 18.9673 66.0438 19.7223 66.0438 20.9415C66.0438 22.1537 66.1061 22.9261 67.1348 22.9261C68.1461 22.9261 68.2189 22.1537 68.2189 20.9415Z" fill="#1C1C1B"/>
<path d="M70.3203 23.508V19.1508L69.2535 19.5561L69.0215 19.0365L70.393 18.375H71.0857V23.5045H70.3203V23.508Z" fill="#1C1C1B"/>
<path d="M53.5361 30.088V26.0703H54.1353V30.088H53.5361Z" fill="#1C1C1B"/>
<path d="M56.5114 30.0881V28.197C56.5114 27.8299 56.3416 27.6532 56.0265 27.6532C55.7598 27.6532 55.5208 27.7398 55.3268 27.8333V30.0846H54.7588V27.203H55.1779L55.2264 27.4662C55.4515 27.293 55.7632 27.1406 56.0992 27.1406C56.7538 27.1406 57.0794 27.532 57.0794 28.1451V30.0846H56.5114V30.0881Z" fill="#1C1C1B"/>
<path d="M57.7722 30.0879V27.6738H57.3496V27.2547L57.7722 27.2304V26.9187C57.7722 26.5932 57.8518 26.3715 57.9973 26.226C58.1705 26.0563 58.4268 26.0078 58.7316 26.0078C58.8701 26.0078 59.019 26.0217 59.1541 26.0321L59.1229 26.5066C58.9775 26.4927 58.8493 26.4927 58.735 26.4927C58.5861 26.4927 58.4787 26.51 58.4233 26.5932C58.354 26.6693 58.3367 26.7871 58.3367 26.9672V27.2027H58.9671V27.6703H58.3367V30.0844H57.7722V30.0879Z" fill="#1C1C1B"/>
<path d="M60.37 30.1509C59.9648 30.1509 59.6704 30.04 59.4591 29.8322C59.1924 29.5759 59.0781 29.1603 59.0781 28.6477C59.0781 28.1351 59.189 27.7195 59.4591 27.4632C59.6704 27.2588 59.9648 27.1445 60.37 27.1445C60.7753 27.1445 61.0697 27.2554 61.2809 27.4632C61.5476 27.7195 61.6619 28.1351 61.6619 28.6477C61.6619 29.1603 61.5511 29.5759 61.2809 29.8322C61.0697 30.0366 60.7753 30.1509 60.37 30.1509ZM61.087 28.6477C61.087 28.2979 61.0316 28.0104 60.8826 27.8442C60.7718 27.7125 60.5952 27.6433 60.37 27.6433C60.1449 27.6433 59.9717 27.7125 59.8574 27.8442C59.7085 28.0139 59.6531 28.2979 59.6531 28.6477C59.6531 29.0044 59.7085 29.2885 59.8574 29.4512C59.9683 29.5829 60.1449 29.6521 60.37 29.6521C60.5952 29.6521 60.7614 29.5759 60.8826 29.4512C61.0316 29.2885 61.087 29.001 61.087 28.6477Z" fill="#1C1C1B"/>
<path d="M62.0391 30.0875V27.2058H62.4616L62.5378 27.5626H62.5621C62.7872 27.237 63.0539 27.1504 63.4176 27.1504C63.4868 27.1504 63.5561 27.1504 63.6669 27.1642L63.6288 27.6803C63.518 27.663 63.4037 27.6561 63.2859 27.6561C63.0435 27.6561 62.801 27.7115 62.6071 27.8743V30.0875H62.0391Z" fill="#1C1C1B"/>
<path d="M67.2726 30.087V28.1786C67.2726 27.8184 67.0995 27.6556 66.7808 27.6556C66.5626 27.6556 66.3306 27.7318 66.1124 27.8565C66.1297 27.9673 66.1435 28.099 66.1435 28.2133V30.0905H65.5755V28.1821C65.5755 27.8219 65.4058 27.6591 65.0906 27.6591C64.8586 27.6591 64.6611 27.7214 64.4499 27.8323V30.0905H63.8818V27.2088H64.3009L64.3494 27.4721C64.5538 27.3162 64.8482 27.1465 65.2153 27.1465C65.5582 27.1465 65.8145 27.2781 65.9634 27.5136C66.2128 27.3093 66.5176 27.1465 66.8605 27.1465C67.5012 27.1465 67.8407 27.5032 67.8407 28.2063V30.0905H67.2726V30.087Z" fill="#1C1C1B"/>
<path d="M70.0469 30.087L69.9845 29.8446C69.7663 30.0385 69.465 30.1494 69.1429 30.1494C68.5506 30.1494 68.1904 29.758 68.1904 29.2454C68.1904 28.9891 68.2909 28.7328 68.4952 28.5735C68.6892 28.4176 68.9628 28.3553 69.2676 28.3553C69.4685 28.3553 69.6971 28.3691 69.8979 28.3795V28.1371C69.8979 27.9639 69.8529 27.8496 69.7802 27.7768C69.6728 27.6764 69.4996 27.6522 69.2676 27.6522C68.987 27.6522 68.6441 27.7007 68.4571 27.7457L68.3705 27.2712C68.6199 27.195 68.987 27.1465 69.3195 27.1465C69.6797 27.1465 69.9811 27.195 70.1854 27.3716C70.3655 27.5205 70.466 27.7595 70.466 28.1059V30.0905H70.0469V30.087ZM69.8979 28.7951C69.7559 28.7813 69.562 28.7778 69.3853 28.7778C68.9663 28.7778 68.7688 28.9267 68.7688 29.2454C68.7688 29.519 68.9489 29.6991 69.2607 29.6991C69.4927 29.6991 69.7282 29.6195 69.8979 29.4878V28.7951Z" fill="#1C1C1B"/>
<path d="M72.5264 29.9641C72.3324 30.0646 72.083 30.1373 71.8337 30.1373C71.3661 30.1373 71.0994 29.8741 71.0994 29.3511V27.6747H70.6699V27.2556L71.1202 27.2314L71.1652 26.3828H71.6709V27.2071H72.4744V27.6747H71.6709V29.2645C71.6709 29.4758 71.709 29.6247 71.9272 29.6247C72.0657 29.6247 72.1939 29.5866 72.3463 29.5173L72.5264 29.9641Z" fill="#1C1C1B"/>
<path d="M73.1018 26.0527C73.2749 26.0527 73.4204 26.1947 73.4204 26.3714C73.4204 26.5446 73.2784 26.6831 73.1018 26.6831C72.9251 26.6831 72.79 26.5446 72.79 26.3714C72.79 26.1947 72.9251 26.0527 73.1018 26.0527ZM72.8212 30.0878V27.2061H73.3892V30.0878H72.8212Z" fill="#1C1C1B"/>
<path d="M75.0585 30.1509C74.6533 30.1509 74.3589 30.04 74.1476 29.8322C73.8809 29.5759 73.7666 29.1603 73.7666 28.6477C73.7666 28.1351 73.8774 27.7195 74.1476 27.4632C74.3589 27.2588 74.6533 27.1445 75.0585 27.1445C75.4637 27.1445 75.7581 27.2554 75.9694 27.4632C76.2361 27.7195 76.3504 28.1351 76.3504 28.6477C76.3504 29.1603 76.2396 29.5759 75.9694 29.8322C75.7581 30.0366 75.4637 30.1509 75.0585 30.1509ZM75.7755 28.6477C75.7755 28.2979 75.7201 28.0104 75.5711 27.8442C75.4603 27.7125 75.2836 27.6433 75.0585 27.6433C74.8334 27.6433 74.6602 27.7125 74.5459 27.8442C74.397 28.0139 74.3416 28.2979 74.3416 28.6477C74.3416 29.0044 74.397 29.2885 74.5459 29.4512C74.6567 29.5829 74.8334 29.6521 75.0585 29.6521C75.2836 29.6521 75.4499 29.5759 75.5711 29.4512C75.7201 29.2885 75.7755 29.001 75.7755 28.6477Z" fill="#1C1C1B"/>
<path d="M78.4801 30.0881V28.197C78.4801 27.8299 78.3104 27.6532 77.9952 27.6532C77.7285 27.6532 77.4895 27.7398 77.2956 27.8333V30.0846H76.7275V27.203H77.1466L77.1951 27.4662C77.4202 27.293 77.732 27.1406 78.0679 27.1406C78.7225 27.1406 79.0481 27.532 79.0481 28.1451V30.0846H78.4801V30.0881Z" fill="#1C1C1B"/>
<path d="M80.7737 29.5268C81.0058 29.5649 81.3729 29.6134 81.7227 29.6134C82.0656 29.6134 82.3947 29.5649 82.5782 29.3882C82.6856 29.2878 82.748 29.1527 82.748 28.9761C82.748 28.5847 82.5055 28.4531 81.8128 28.2453C81.1201 28.0444 80.6768 27.7604 80.6768 27.078C80.6768 26.7421 80.8188 26.4685 81.0647 26.2814C81.3383 26.0702 81.6881 26.0078 82.0553 26.0078C82.4224 26.0078 82.8172 26.0632 83.167 26.1325L83.0908 26.6312C82.8553 26.5862 82.4917 26.5447 82.1626 26.5447C81.889 26.5447 81.6258 26.5758 81.4699 26.6867C81.3452 26.7802 81.2829 26.8979 81.2829 27.0607C81.2829 27.4729 81.6015 27.5906 82.2631 27.7915C82.9107 27.9924 83.3541 28.266 83.3541 28.9691C83.3541 29.3432 83.2121 29.648 82.9488 29.8558C82.6683 30.0809 82.27 30.1502 81.844 30.1502C81.4526 30.1502 81.0474 30.0948 80.7045 30.0324L80.7737 29.5268Z" fill="#1C1C1B"/>
<path d="M85.875 29.9188C85.6187 30.0366 85.2515 30.1509 84.8775 30.1509C84.0289 30.1509 83.5752 29.621 83.5752 28.665C83.5752 27.8719 83.9354 27.1445 84.8151 27.1445C85.5148 27.1445 85.92 27.6433 85.92 28.4156C85.92 28.5715 85.9027 28.7274 85.875 28.8521H84.1467C84.1605 29.1084 84.2229 29.3127 84.3406 29.4443C84.4722 29.5863 84.6766 29.6452 84.9156 29.6452C85.2134 29.6452 85.5078 29.5655 85.7434 29.4651L85.875 29.9188ZM85.3832 28.4053C85.3832 27.9758 85.2585 27.6329 84.7978 27.6329C84.3787 27.6329 84.1813 28.007 84.1571 28.4053H85.3832Z" fill="#1C1C1B"/>
<path d="M88.3378 29.9188C88.0746 30.0435 87.7075 30.1509 87.3542 30.1509C86.5992 30.1509 86.1143 29.7283 86.1143 28.6616C86.1143 27.4389 86.7308 27.1445 87.4373 27.1445C87.7179 27.1445 87.9984 27.1757 88.2339 27.2311L88.1854 27.7056C87.9811 27.6745 87.749 27.6502 87.5308 27.6502C86.9767 27.6502 86.6892 27.8684 86.6892 28.6477C86.6892 29.3473 86.9247 29.6452 87.4131 29.6452C87.6936 29.6452 87.9569 29.5655 88.1854 29.4651L88.3378 29.9188Z" fill="#1C1C1B"/>
<path d="M90.52 30.0887L90.475 29.8462C90.2498 30.016 89.9451 30.158 89.6022 30.158C88.9545 30.158 88.6289 29.7666 88.6289 29.1535V27.207H89.1969V29.0947C89.1969 29.486 89.3666 29.6384 89.7026 29.6384C89.9347 29.6384 90.1563 29.5761 90.3711 29.4757V27.207H90.9391V30.0887H90.52Z" fill="#1C1C1B"/>
<path d="M91.5029 30.0875V27.2058H91.9255L92.0017 27.5626H92.0259C92.2511 27.237 92.5177 27.1504 92.8814 27.1504C92.9507 27.1504 93.02 27.1504 93.1308 27.1642L93.0927 27.6803C92.9819 27.663 92.8676 27.6561 92.7498 27.6561C92.5074 27.6561 92.2649 27.7115 92.0709 27.8743V30.0875H91.5029Z" fill="#1C1C1B"/>
<path d="M93.6232 26.0527C93.7964 26.0527 93.9419 26.1947 93.9419 26.3714C93.9419 26.5446 93.7999 26.6831 93.6232 26.6831C93.4466 26.6831 93.3115 26.5446 93.3115 26.3714C93.3115 26.1947 93.4501 26.0527 93.6232 26.0527ZM93.3427 30.0878V27.2061H93.9107V30.0878H93.3427Z" fill="#1C1C1B"/>
<path d="M95.999 29.9641C95.8051 30.0646 95.5557 30.1373 95.3063 30.1373C94.8388 30.1373 94.5721 29.8741 94.5721 29.3511V27.6747H94.1426V27.2556L94.5928 27.2314L94.6379 26.3828H95.1435V27.2071H95.9471V27.6747H95.1435V29.2645C95.1435 29.4758 95.1816 29.6247 95.3998 29.6247C95.5384 29.6247 95.6665 29.5866 95.8189 29.5173L95.999 29.9641Z" fill="#1C1C1B"/>
<path d="M96.7853 31.2208C96.955 30.7775 97.0901 30.3861 97.1906 30.0848H96.8858C96.5914 29.2882 96.2935 28.2387 96.0303 27.2031H96.6225C96.8165 28.0517 97.0278 28.8622 97.2771 29.6345H97.3222C97.5542 28.9349 97.7967 28.0309 97.9837 27.2031H98.5621C98.2435 28.5366 97.7898 30.0536 97.3395 31.2208H96.7853Z" fill="#1C1C1B"/>
<path d="M56.8474 36.67C56.8162 35.5964 56.7677 34.4949 56.7158 33.4351H56.6846L55.7737 35.9912H55.1329L54.222 33.4351H54.1909C54.1424 34.4949 54.0904 35.5998 54.0592 36.67H53.4531C53.4982 35.3366 53.564 33.9962 53.6402 32.6523H54.513L55.4377 35.3158H55.4689L56.3937 32.6523H57.2665C57.3427 33.9927 57.4085 35.3331 57.4535 36.67H56.8474Z" fill="#1C1C1B"/>
<path d="M59.6846 36.6691L59.6222 36.4266C59.404 36.6206 59.1027 36.7314 58.7806 36.7314C58.1883 36.7314 57.8281 36.34 57.8281 35.8274C57.8281 35.5711 57.9286 35.3148 58.1329 35.1555C58.3269 34.9996 58.6005 34.9373 58.9053 34.9373C59.1062 34.9373 59.3348 34.9511 59.5356 34.9615V34.7191C59.5356 34.5459 59.4906 34.4316 59.4179 34.3589C59.3105 34.2584 59.1373 34.2342 58.9053 34.2342C58.6247 34.2342 58.2818 34.2827 58.0948 34.3277L58.0082 33.8532C58.2576 33.777 58.6247 33.7285 58.9572 33.7285C59.3174 33.7285 59.6188 33.777 59.8231 33.9536C60.0032 34.1026 60.1037 34.3416 60.1037 34.6879V36.6725H59.6846V36.6691ZM59.5356 35.3772C59.3936 35.3633 59.1997 35.3598 59.023 35.3598C58.604 35.3598 58.4065 35.5088 58.4065 35.8274C58.4065 36.101 58.5866 36.2811 58.8984 36.2811C59.1304 36.2811 59.3659 36.2015 59.5356 36.0699V35.3772Z" fill="#1C1C1B"/>
<path d="M62.3961 36.6701V34.779C62.3961 34.4119 62.2264 34.2353 61.9112 34.2353C61.6445 34.2353 61.4055 34.3218 61.2116 34.4154V36.6667H60.6436V33.785H61.0626L61.1111 34.0482C61.3363 33.8751 61.648 33.7227 61.9839 33.7227C62.6385 33.7227 62.9641 34.114 62.9641 34.7271V36.6667H62.3961V36.6701Z" fill="#1C1C1B"/>
<path d="M65.1709 36.6691L65.1086 36.4266C64.8904 36.6206 64.589 36.7314 64.2669 36.7314C63.6747 36.7314 63.3145 36.34 63.3145 35.8274C63.3145 35.5711 63.4149 35.3148 63.6192 35.1555C63.8132 34.9996 64.0868 34.9373 64.3916 34.9373C64.5925 34.9373 64.8211 34.9511 65.022 34.9615V34.7191C65.022 34.5459 64.977 34.4316 64.9042 34.3589C64.7969 34.2584 64.6237 34.2342 64.3916 34.2342C64.1111 34.2342 63.7682 34.2827 63.5811 34.3277L63.4946 33.8532C63.7439 33.777 64.1111 33.7285 64.4436 33.7285C64.8038 33.7285 65.1051 33.777 65.3095 33.9536C65.4896 34.1026 65.59 34.3416 65.59 34.6879V36.6725H65.1709V36.6691ZM65.022 35.3772C64.88 35.3633 64.686 35.3598 64.5094 35.3598C64.0903 35.3598 63.8929 35.5088 63.8929 35.8274C63.8929 36.101 64.073 36.2811 64.3847 36.2811C64.6167 36.2811 64.8523 36.2015 65.022 36.0699V35.3772Z" fill="#1C1C1B"/>
<path d="M67.7952 36.5058C67.5943 36.6444 67.3519 36.731 67.1094 36.731C66.292 36.731 65.9941 36.201 65.9941 35.252C65.9941 34.1714 66.3301 33.7246 67.1302 33.7246C67.5597 33.7246 68.055 33.8181 68.3667 33.9255V36.9318C68.3667 37.2436 68.2662 37.4618 68.1035 37.6176C67.8922 37.8116 67.5597 37.867 67.2168 37.867C66.8912 37.867 66.5552 37.8185 66.2885 37.7666L66.3647 37.2817C66.5691 37.3128 66.8704 37.3579 67.1371 37.3579C67.3692 37.3579 67.5805 37.3336 67.6844 37.2262C67.7606 37.1466 67.7952 37.0254 67.7952 36.8695V36.5058ZM67.7952 34.2857C67.6255 34.2545 67.39 34.2303 67.1856 34.2303C66.6938 34.2303 66.5691 34.5662 66.5691 35.259C66.5691 35.9066 66.7007 36.2634 67.1787 36.2634C67.39 36.2634 67.6082 36.2184 67.7952 36.1248V34.2857Z" fill="#1C1C1B"/>
<path d="M70.9893 36.4989C70.733 36.6167 70.3658 36.731 69.9917 36.731C69.1432 36.731 68.6895 36.201 68.6895 35.2451C68.6895 34.452 69.0497 33.7246 69.9294 33.7246C70.629 33.7246 71.0343 34.2234 71.0343 34.9957C71.0343 35.1516 71.017 35.3074 70.9893 35.4321H69.2609C69.2748 35.6884 69.3371 35.8928 69.4549 36.0244C69.5865 36.1664 69.7909 36.2253 70.0298 36.2253C70.3277 36.2253 70.6221 36.1456 70.8576 36.0452L70.9893 36.4989ZM70.494 34.9853C70.494 34.5559 70.3693 34.213 69.9086 34.213C69.4895 34.213 69.2921 34.587 69.2679 34.9853H70.494Z" fill="#1C1C1B"/>
<path d="M74.7951 36.6691V34.7606C74.7951 34.4004 74.6219 34.2377 74.3033 34.2377C74.0851 34.2377 73.853 34.3139 73.6348 34.4385C73.6521 34.5494 73.666 34.681 73.666 34.7953V36.6725H73.098V34.7641C73.098 34.4039 72.9282 34.2411 72.6131 34.2411C72.381 34.2411 72.1836 34.3035 71.9723 34.4143V36.6725H71.4043V33.7909H71.8234L71.8719 34.0541C72.0762 33.8982 72.3706 33.7285 72.7378 33.7285C73.0806 33.7285 73.3369 33.8601 73.4859 34.0957C73.7352 33.8913 74.04 33.7285 74.3829 33.7285C75.0237 33.7285 75.3631 34.0853 75.3631 34.7884V36.6725H74.7951V36.6691Z" fill="#1C1C1B"/>
<path d="M77.9717 36.4989C77.7154 36.6167 77.3482 36.731 76.9742 36.731C76.1256 36.731 75.6719 36.201 75.6719 35.2451C75.6719 34.452 76.0321 33.7246 76.9118 33.7246C77.6114 33.7246 78.0167 34.2234 78.0167 34.9957C78.0167 35.1516 77.9994 35.3074 77.9717 35.4321H76.2434C76.2572 35.6884 76.3196 35.8928 76.4373 36.0244C76.5689 36.1664 76.7733 36.2253 77.0123 36.2253C77.3101 36.2253 77.6045 36.1456 77.84 36.0452L77.9717 36.4989ZM77.4764 34.9853C77.4764 34.5559 77.3517 34.213 76.891 34.213C76.4719 34.213 76.2745 34.587 76.2503 34.9853H77.4764Z" fill="#1C1C1B"/>
<path d="M80.1393 36.6701V34.779C80.1393 34.4119 79.9696 34.2353 79.6544 34.2353C79.3877 34.2353 79.1487 34.3218 78.9547 34.4154V36.6667H78.3867V33.785H78.8058L78.8543 34.0482C79.0794 33.8751 79.3911 33.7227 79.7271 33.7227C80.3817 33.7227 80.7073 34.114 80.7073 34.7271V36.6667H80.1393V36.6701Z" fill="#1C1C1B"/>
<path d="M82.7442 36.5442C82.5502 36.6446 82.3008 36.7174 82.0514 36.7174C81.5839 36.7174 81.3172 36.4541 81.3172 35.9311V34.2548H80.8877V33.8357L81.338 33.8115L81.383 32.9629H81.8887V33.7872H82.6922V34.2548H81.8887V35.8446C81.8887 36.0558 81.9268 36.2048 82.145 36.2048C82.2835 36.2048 82.4117 36.1667 82.5641 36.0974L82.7442 36.5442Z" fill="#1C1C1B"/>
<path d="M81.8435 54.0013H24.5427C24.2033 54.0013 23.9297 53.7276 23.9297 53.3882C23.9297 53.0488 24.2033 52.7752 24.5427 52.7752H81.8435C94.7001 52.7752 105.16 42.3153 105.16 29.4586C105.16 16.602 94.7001 6.14211 81.8435 6.14211H36.8175C36.4781 6.14211 36.2045 5.86849 36.2045 5.52906C36.2045 5.18964 36.4781 4.91602 36.8175 4.91602H81.8435C95.379 4.91602 106.39 15.9266 106.39 29.4621C106.39 42.9907 95.379 54.0013 81.8435 54.0013Z" fill="#1C1C1B"/>
<path d="M25.973 23.6236C26.1497 20.8563 28.4183 18.6604 31.1822 18.6604C33.9461 18.6604 36.2112 20.8563 36.3914 23.6236H25.973ZM30.3648 35.9919C29.6271 33.8203 27.8745 32.6773 26.399 31.7145C24.7608 30.6477 24.075 30.0935 24.0438 29.0683C24.0542 27.6656 25.1695 26.5157 26.5411 26.5157H35.6398L30.3648 35.9919ZM23.3234 44.2421C23.3754 44.2525 23.9642 44.3494 24.5495 44.3529C25.1106 44.3564 25.6717 44.2663 25.7722 44.2386L24.5495 46.4345L23.3234 44.2421ZM21.841 26.5157C21.4531 27.2569 21.228 28.102 21.2107 28.999H21.2072C21.2072 29.0267 21.2072 29.0579 21.2107 29.0856V29.0926C21.2557 31.808 23.2611 33.1172 24.8786 34.1736C26.8008 35.4274 27.8884 36.2344 27.8884 38.2952C27.8884 40.3213 26.2813 41.5024 24.3071 41.5024C23.0394 41.5024 21.4323 40.8201 20.7916 39.6944L20.2236 38.7108L13.3935 26.5191H21.841V26.5157ZM18.0381 18.6604C20.802 18.6604 23.0706 20.8563 23.2472 23.6236H12.8324C13.009 20.8563 15.2776 18.6604 18.0381 18.6604ZM31.1822 15.8965C28.5014 15.8965 26.0839 17.2299 24.6119 19.4882C23.1364 17.2265 20.7189 15.8965 18.0381 15.8965C13.5978 15.8965 9.98535 19.5228 9.98535 23.9769C9.98535 23.9769 9.98535 24.0185 9.98535 24.7978C9.98535 25.5771 10.0754 26.2732 10.6919 27.3365C11.3084 28.3998 24.553 51.2419 24.553 51.2419C24.553 51.2419 37.704 28.5384 38.3552 27.3365C39.0063 26.1312 39.1102 25.6152 39.1102 24.7978V23.9769C39.1068 19.5193 35.5497 15.8965 31.1822 15.8965Z" fill="#151312"/>
<path d="M19.5618 4.29132C18.682 4.29132 17.8369 4.57879 17.2065 4.99788V0H15.2393V13.532H16.3961L16.7147 12.8047C17.4871 13.3831 18.3841 13.7433 19.5652 13.7433C22.1282 13.7433 23.0772 11.9769 23.0772 9.01558C23.0738 6.07504 22.1248 4.29132 19.5618 4.29132ZM19.1011 6.00577C20.8259 6.00577 21.0892 7.35655 21.0892 9.01558C21.0892 10.6919 20.8259 12.0323 19.1011 12.0323C18.1729 12.0323 17.5564 11.7033 17.2031 11.5059V6.52876C17.5529 6.32788 18.1694 6.00577 19.1011 6.00577ZM25.5606 7.10718C25.5606 6.29324 26.2117 5.98845 27.2508 5.98845C28.3557 5.98845 29.1869 6.20319 29.9385 6.49413V4.74158C29.2527 4.43679 28.4076 4.29132 27.2127 4.29132C24.6289 4.29132 23.6453 5.60746 23.6453 7.15913C23.6453 8.71079 24.2964 9.55589 26.9495 9.79488C28.1271 9.89878 28.4076 10.2417 28.4076 10.9101C28.4076 11.7033 27.7218 12.0323 26.3156 12.0323C25.2073 12.0323 24.2756 11.7414 23.6972 11.5266V13.255C24.2929 13.5043 25.384 13.7398 26.5997 13.7398C29.4121 13.7398 30.3437 12.3891 30.3437 10.8374C30.3437 9.16105 29.658 8.34712 27.0222 8.11506C25.8792 8.00769 25.5606 7.73754 25.5606 7.10718ZM33.4679 13.6567C33.6791 13.6567 33.8558 13.6186 33.8558 13.6186V11.9804C33.2912 11.9804 33.118 11.7968 33.118 11.2946V4.50952H31.1507V11.3119C31.1473 12.8601 31.8712 13.6567 33.4679 13.6567ZM30.8494 1.83567C30.8494 2.55955 31.4278 3.15182 32.1309 3.15182C32.834 3.15182 33.4159 2.55955 33.4159 1.83567C33.4159 1.1118 32.834 0.51953 32.1309 0.51953C31.4278 0.522994 30.8494 1.11526 30.8494 1.83567Z" fill="#151312"/>
<path d="M24.5461 53.9996C11.0106 53.9996 0 42.989 0 29.4535C0 20.7323 4.47143 12.8528 11.9561 8.37789C12.2471 8.20471 12.6246 8.29823 12.7978 8.58917C12.9709 8.8801 12.8774 9.25763 12.5865 9.4308C5.47239 13.684 1.22609 21.1687 1.22609 29.4535C1.22609 42.3102 11.686 52.77 24.5426 52.77C37.3993 52.77 47.8591 42.3102 47.8591 29.4535C47.8591 21.1687 43.6129 13.684 36.4987 9.4308C36.2078 9.25763 36.1143 8.8801 36.2875 8.58917C36.4606 8.29823 36.8382 8.20471 37.1291 8.37789C44.6173 12.8562 49.0852 20.7358 49.0852 29.4535C49.0887 42.989 38.0781 53.9996 24.5461 53.9996Z" fill="#151312"/>
</svg>
