<svg width="107" height="54" viewBox="0 0 107 54" fill="none" xmlns="http://www.w3.org/2000/svg">
<path d="M56.3001 44.362C55.9572 44.5179 55.4758 44.6253 55.029 44.6253C54.4991 44.6253 54.0003 44.4763 53.6886 44.0572C53.4254 43.7074 53.3076 43.2017 53.3076 42.5541C53.3076 41.8059 53.4773 41.2552 53.8202 40.9089C54.1562 40.5729 54.6168 40.4863 55.1225 40.4863C55.4793 40.4863 55.8395 40.5314 56.1512 40.5937L56.0958 41.2483C55.8533 41.2102 55.5104 41.186 55.1987 41.186C54.8731 41.186 54.5683 41.2345 54.3882 41.4492C54.177 41.6916 54.1146 42.0796 54.1146 42.561C54.1146 42.9662 54.1596 43.3091 54.3017 43.5516C54.4748 43.839 54.7762 43.9325 55.1052 43.9325C55.4342 43.9325 55.7979 43.839 56.0958 43.7455L56.3001 44.362Z" fill="#1C1C1B"/>
<path d="M56.6738 44.5626V40.5449H59.1676V41.2307H57.46V42.1659H58.8766V42.8378H57.46V43.8734H59.1676V44.5592H56.6738V44.5626Z" fill="#1C1C1B"/>
<path d="M61.7173 44.5623C61.4299 44.0324 61.1805 43.5336 60.945 43.0106C60.7718 43.0106 60.5328 43.0037 60.3839 42.9933V44.5657H59.5977V40.5758C59.9786 40.5307 60.4774 40.4961 60.8618 40.4961C61.6862 40.4961 62.4516 40.697 62.4516 41.736C62.4516 42.2971 62.2196 42.7093 61.6862 42.9102C61.9182 43.3847 62.2715 43.9943 62.6213 44.5692H61.7173V44.5623ZM60.3839 42.4218C60.7406 42.4218 61.0246 42.4218 61.2324 42.3595C61.5199 42.2798 61.655 42.1032 61.655 41.743C61.655 41.2615 61.3121 41.1749 60.9242 41.1749C60.7441 41.1749 60.5501 41.1819 60.3804 41.1923V42.4218H60.3839Z" fill="#1C1C1B"/>
<path d="M63.6632 44.5626V41.2307H62.5791V40.5449H65.5335V41.2307H64.4494V44.5626H63.6632Z" fill="#1C1C1B"/>
<path d="M65.8242 44.5626V40.5449H66.6104V44.5626H65.8242Z" fill="#1C1C1B"/>
<path d="M67.2588 44.5626V40.5449H69.808V41.2307H68.0415V42.2351H69.4997V42.9071H68.0415V44.5592H67.2588V44.5626Z" fill="#1C1C1B"/>
<path d="M70.1816 44.5626V40.5449H70.9679V44.5626H70.1816Z" fill="#1C1C1B"/>
<path d="M71.6152 44.5626V40.5449H74.109V41.2307H72.4015V42.1659H73.818V42.8378H72.4015V43.8734H74.109V44.5592H71.6152V44.5626Z" fill="#1C1C1B"/>
<path d="M74.5391 40.5957C74.9512 40.5333 75.4188 40.4883 75.7929 40.4883C77.1506 40.4883 77.6251 41.1983 77.6251 42.5456C77.6251 43.931 77.1506 44.6099 75.7929 44.6099C75.4188 44.6099 74.9512 44.5926 74.5391 44.5475V40.5957ZM75.3253 43.9137C75.495 43.9276 75.5816 43.9276 75.7236 43.9276C76.6103 43.9276 76.8285 43.5466 76.8285 42.5491C76.8285 41.607 76.6103 41.1775 75.7236 41.1775C75.5816 41.1775 75.4569 41.1845 75.3253 41.1948V43.9137Z" fill="#1C1C1B"/>
<path d="M53.5361 14.0802V10.0625H54.1353V14.0802H53.5361Z" fill="#1C1C1B"/>
<path d="M54.7728 13.519C55.0048 13.5571 55.372 13.6055 55.7218 13.6055C56.0647 13.6055 56.3937 13.5571 56.5773 13.3804C56.6846 13.28 56.747 13.1449 56.747 12.9683C56.747 12.5769 56.5045 12.4453 55.8118 12.2374C55.1191 12.0366 54.6758 11.7525 54.6758 11.0702C54.6758 10.7343 54.8178 10.4607 55.0637 10.2736C55.3373 10.0623 55.6871 10 56.0543 10C56.4214 10 56.8162 10.0554 57.1661 10.1247L57.0899 10.6234C56.8543 10.5784 56.4907 10.5368 56.1616 10.5368C55.888 10.5368 55.6248 10.568 55.4689 10.6789C55.3442 10.7724 55.2819 10.8901 55.2819 11.0529C55.2819 11.4651 55.6005 11.5828 56.2621 11.7837C56.9098 11.9846 57.3531 12.2582 57.3531 12.9613C57.3531 13.3354 57.2111 13.6402 56.9479 13.848C56.6673 14.0731 56.269 14.1424 55.843 14.1424C55.4516 14.1424 55.0464 14.087 54.7035 14.0246L54.7728 13.519Z" fill="#1C1C1B"/>
<path d="M57.626 12.0712C57.626 10.71 58.1455 10 59.3612 10C60.5769 10 61.0964 10.71 61.0964 12.0712C61.0964 13.4324 60.5769 14.1424 59.3612 14.1424C58.1455 14.1424 57.626 13.4289 57.626 12.0712ZM60.4834 12.0712C60.4834 11.0114 60.1647 10.5368 59.3612 10.5368C58.5577 10.5368 58.239 11.0114 58.239 12.0712C58.239 13.131 58.5577 13.6055 59.3612 13.6055C60.1647 13.6055 60.4834 13.131 60.4834 12.0712Z" fill="#1C1C1B"/>
<path d="M62.6836 14.08V13.6055C63.7954 12.6392 64.5851 11.8842 64.5851 11.2157C64.5851 10.717 64.211 10.5368 63.792 10.5368C63.4421 10.5368 63.0369 10.6477 62.7771 10.7551L62.6074 10.2805C62.9191 10.1316 63.3867 10 63.837 10C64.6405 10 65.1947 10.4052 65.1947 11.1984C65.1947 12.0712 64.3149 12.8262 63.4629 13.5501H65.2536V14.08H62.6836Z" fill="#1C1C1B"/>
<path d="M66.1538 14.0806C66.5036 12.7333 66.9331 11.7358 67.5704 10.5894H65.5615V10.0664H68.1869V10.5582C67.5496 11.6977 67.1201 12.6987 66.798 14.0806H66.1538Z" fill="#1C1C1B"/>
<path d="M68.98 14.0806C69.3298 12.7333 69.7593 11.7358 70.3965 10.5894H68.3877V10.0664H71.0131V10.5582C70.3758 11.6977 69.9463 12.6987 69.6242 14.0806H68.98Z" fill="#1C1C1B"/>
<path d="M73.4449 12.4383C73.2336 12.5803 72.8977 12.6877 72.5409 12.6877C72.1495 12.6877 71.7859 12.5803 71.5607 12.3379C71.3564 12.1266 71.249 11.801 71.249 11.3473C71.249 10.9178 71.3564 10.5923 71.5677 10.3741C71.8032 10.1178 72.2084 10 72.6656 10C73.0639 10 73.4276 10.0935 73.6631 10.2944C73.9125 10.5126 74.0441 10.8486 74.0441 11.3092V12.7985C74.0441 13.2592 73.9125 13.5952 73.6562 13.8203C73.3999 14.0454 73.0189 14.1389 72.5652 14.1389C72.1911 14.1389 71.7928 14.0835 71.4534 14.0142L71.5296 13.5155C71.7408 13.5605 72.108 13.6159 72.4647 13.6159C72.7903 13.6159 73.0882 13.5709 73.2509 13.4047C73.3826 13.273 73.4449 13.0618 73.4449 12.757V12.4383ZM73.4449 11.3404C73.4449 10.7932 73.2406 10.523 72.6518 10.523C72.063 10.523 71.8586 10.7897 71.8586 11.3404C71.8586 11.6209 71.9071 11.8322 72.0387 11.9708C72.1773 12.1197 72.3955 12.1647 72.6483 12.1647C72.9462 12.1647 73.2336 12.0954 73.4414 12.0227V11.3404H73.4449Z" fill="#1C1C1B"/>
<path d="M76.5924 12.4383C76.3811 12.5803 76.0451 12.6877 75.6884 12.6877C75.297 12.6877 74.9333 12.5803 74.7082 12.3379C74.5039 12.1266 74.3965 11.801 74.3965 11.3473C74.3965 10.9178 74.5039 10.5923 74.7151 10.3741C74.9506 10.1178 75.3559 10 75.8131 10C76.2114 10 76.575 10.0935 76.8106 10.2944C77.0599 10.5126 77.1916 10.8486 77.1916 11.3092V12.7985C77.1916 13.2592 77.0599 13.5952 76.8036 13.8203C76.5473 14.0454 76.1664 14.1389 75.7126 14.1389C75.3386 14.1389 74.9403 14.0835 74.6008 14.0142L74.677 13.5155C74.8883 13.5605 75.2554 13.6159 75.6122 13.6159C75.9378 13.6159 76.2356 13.5709 76.3984 13.4047C76.53 13.273 76.5924 13.0618 76.5924 12.757V12.4383ZM76.5924 11.3404C76.5924 10.7932 76.388 10.523 75.7992 10.523C75.2104 10.523 75.0061 10.7897 75.0061 11.3404C75.0061 11.6209 75.0546 11.8322 75.1862 11.9708C75.3247 12.1197 75.5429 12.1647 75.7958 12.1647C76.0936 12.1647 76.3811 12.0954 76.5889 12.0227V11.3404H76.5924Z" fill="#1C1C1B"/>
<path d="M53.5361 20.6603V16.6426H54.1353V20.6603H53.5361Z" fill="#1C1C1B"/>
<path d="M56.5113 20.6604V18.7693C56.5113 18.4021 56.3416 18.2255 56.0264 18.2255C55.7597 18.2255 55.5208 18.3121 55.3268 18.4056V20.6569H54.7588V17.7752H55.1779L55.2264 18.0385C55.4515 17.8653 55.7632 17.7129 56.0992 17.7129C56.7538 17.7129 57.0794 18.1043 57.0794 18.7173V20.6569H56.5113V20.6604Z" fill="#1C1C1B"/>
<path d="M57.7722 20.6601V18.246H57.3496V17.827L57.7722 17.8027V17.491C57.7722 17.1654 57.8518 16.9437 57.9973 16.7983C58.1705 16.6286 58.4268 16.5801 58.7316 16.5801C58.8701 16.5801 59.019 16.5939 59.1541 16.6043L59.1229 17.0788C58.9775 17.065 58.8493 17.065 58.735 17.065C58.5861 17.065 58.4787 17.0823 58.4233 17.1654C58.354 17.2416 58.3367 17.3594 58.3367 17.5395V17.775H58.9671V18.2426H58.3367V20.6567H57.7722V20.6601Z" fill="#1C1C1B"/>
<path d="M60.37 20.7231C59.9648 20.7231 59.6704 20.6123 59.4591 20.4045C59.1924 20.1482 59.0781 19.7326 59.0781 19.22C59.0781 18.7074 59.189 18.2917 59.4591 18.0354C59.6704 17.8311 59.9648 17.7168 60.37 17.7168C60.7753 17.7168 61.0697 17.8276 61.2809 18.0354C61.5476 18.2917 61.6619 18.7074 61.6619 19.22C61.6619 19.7326 61.5511 20.1482 61.2809 20.4045C61.0697 20.6088 60.7753 20.7231 60.37 20.7231ZM61.087 19.22C61.087 18.8702 61.0316 18.5827 60.8826 18.4164C60.7718 18.2848 60.5952 18.2155 60.37 18.2155C60.1449 18.2155 59.9717 18.2848 59.8574 18.4164C59.7085 18.5861 59.6531 18.8702 59.6531 19.22C59.6531 19.5767 59.7085 19.8607 59.8574 20.0235C59.9683 20.1551 60.1449 20.2244 60.37 20.2244C60.5952 20.2244 60.7614 20.1482 60.8826 20.0235C61.0316 19.8607 61.087 19.5733 61.087 19.22Z" fill="#1C1C1B"/>
<path d="M62.0391 20.6617V17.78H62.4616L62.5378 18.1368H62.5621C62.7872 17.8112 63.0539 17.7246 63.4176 17.7246C63.4868 17.7246 63.5561 17.7246 63.6669 17.7385L63.6288 18.2545C63.518 18.2372 63.4037 18.2303 63.2859 18.2303C63.0435 18.2303 62.801 18.2857 62.6071 18.4485V20.6617H62.0391Z" fill="#1C1C1B"/>
<path d="M67.2726 20.6612V18.7528C67.2726 18.3926 67.0995 18.2298 66.7808 18.2298C66.5626 18.2298 66.3306 18.306 66.1124 18.4307C66.1297 18.5416 66.1435 18.6732 66.1435 18.7875V20.6647H65.5755V18.7563C65.5755 18.3961 65.4058 18.2333 65.0906 18.2333C64.8585 18.2333 64.6611 18.2957 64.4499 18.4065V20.6647H63.8818V17.783H64.3009L64.3494 18.0463C64.5538 17.8904 64.8482 17.7207 65.2153 17.7207C65.5582 17.7207 65.8145 17.8523 65.9634 18.0878C66.2128 17.8835 66.5176 17.7207 66.8605 17.7207C67.5012 17.7207 67.8407 18.0774 67.8407 18.7805V20.6647H67.2726V20.6612Z" fill="#1C1C1B"/>
<path d="M70.0469 20.6612L69.9845 20.4188C69.7663 20.6128 69.465 20.7236 69.1429 20.7236C68.5506 20.7236 68.1904 20.3322 68.1904 19.8196C68.1904 19.5633 68.2909 19.307 68.4952 19.1477C68.6892 18.9918 68.9628 18.9295 69.2676 18.9295C69.4685 18.9295 69.6971 18.9433 69.898 18.9537V18.7113C69.898 18.5381 69.8529 18.4238 69.7802 18.3511C69.6728 18.2506 69.4996 18.2264 69.2676 18.2264C68.987 18.2264 68.6441 18.2749 68.4571 18.3199L68.3705 17.8454C68.6199 17.7692 68.987 17.7207 69.3195 17.7207C69.6797 17.7207 69.9811 17.7692 70.1854 17.9458C70.3655 18.0948 70.466 18.3337 70.466 18.6801V20.6647H70.0469V20.6612ZM69.898 19.3693C69.7559 19.3555 69.562 19.352 69.3853 19.352C68.9663 19.352 68.7688 19.501 68.7688 19.8196C68.7688 20.0932 68.9489 20.2733 69.2607 20.2733C69.4927 20.2733 69.7282 20.1937 69.898 20.0621V19.3693Z" fill="#1C1C1B"/>
<path d="M72.5264 20.5364C72.3324 20.6368 72.083 20.7096 71.8337 20.7096C71.3661 20.7096 71.0994 20.4463 71.0994 19.9233V18.247H70.6699V17.8279L71.1202 17.8036L71.1652 16.9551H71.6709V17.7794H72.4744V18.247H71.6709V19.8367C71.6709 20.048 71.709 20.1969 71.9272 20.1969C72.0657 20.1969 72.1939 20.1588 72.3463 20.0896L72.5264 20.5364Z" fill="#1C1C1B"/>
<path d="M73.1018 16.627C73.2749 16.627 73.4204 16.769 73.4204 16.9456C73.4204 17.1188 73.2784 17.2573 73.1018 17.2573C72.9251 17.2573 72.79 17.1188 72.79 16.9456C72.79 16.769 72.9251 16.627 73.1018 16.627ZM72.8212 20.662V17.7803H73.3892V20.662H72.8212Z" fill="#1C1C1B"/>
<path d="M75.0585 20.7231C74.6533 20.7231 74.3589 20.6123 74.1476 20.4045C73.8809 20.1482 73.7666 19.7326 73.7666 19.22C73.7666 18.7074 73.8774 18.2917 74.1476 18.0354C74.3589 17.8311 74.6533 17.7168 75.0585 17.7168C75.4637 17.7168 75.7581 17.8276 75.9694 18.0354C76.2361 18.2917 76.3504 18.7074 76.3504 19.22C76.3504 19.7326 76.2396 20.1482 75.9694 20.4045C75.7581 20.6088 75.4637 20.7231 75.0585 20.7231ZM75.7755 19.22C75.7755 18.8702 75.72 18.5827 75.5711 18.4164C75.4603 18.2848 75.2836 18.2155 75.0585 18.2155C74.8334 18.2155 74.6602 18.2848 74.5459 18.4164C74.397 18.5861 74.3415 18.8702 74.3415 19.22C74.3415 19.5767 74.397 19.8607 74.5459 20.0235C74.6567 20.1551 74.8334 20.2244 75.0585 20.2244C75.2836 20.2244 75.4499 20.1482 75.5711 20.0235C75.72 19.8607 75.7755 19.5733 75.7755 19.22Z" fill="#1C1C1B"/>
<path d="M78.4801 20.6604V18.7693C78.4801 18.4021 78.3104 18.2255 77.9952 18.2255C77.7285 18.2255 77.4895 18.3121 77.2956 18.4056V20.6569H76.7275V17.7752H77.1466L77.1951 18.0385C77.4202 17.8653 77.732 17.7129 78.0679 17.7129C78.7225 17.7129 79.0481 18.1043 79.0481 18.7173V20.6569H78.4801V20.6604Z" fill="#1C1C1B"/>
<path d="M53.4944 26.6811C53.7265 26.7192 54.0936 26.7676 54.4435 26.7676C54.7863 26.7676 55.1154 26.7192 55.2989 26.5425C55.4063 26.4421 55.4687 26.307 55.4687 26.1304C55.4687 25.739 55.2262 25.6074 54.5335 25.3996C53.8408 25.1987 53.3975 24.9147 53.3975 24.2323C53.3975 23.8964 53.5395 23.6228 53.7854 23.4357C54.059 23.2245 54.4088 23.1621 54.7759 23.1621C55.1431 23.1621 55.5379 23.2175 55.8877 23.2868L55.8115 23.7855C55.576 23.7405 55.2124 23.699 54.8833 23.699C54.6097 23.699 54.3465 23.7301 54.1906 23.841C54.0659 23.9345 54.0036 24.0522 54.0036 24.215C54.0036 24.6272 54.3222 24.7449 54.9838 24.9458C55.6314 25.1467 56.0748 25.4203 56.0748 26.1234C56.0748 26.4975 55.9328 26.8023 55.6695 27.0101C55.389 27.2352 54.9907 27.3045 54.5647 27.3045C54.1733 27.3045 53.7681 27.2491 53.4252 27.1867L53.4944 26.6811Z" fill="#1C1C1B"/>
<path d="M58.5928 27.0712C58.3365 27.1889 57.9693 27.3032 57.5953 27.3032C56.7467 27.3032 56.293 26.7733 56.293 25.8174C56.293 25.0242 56.6532 24.2969 57.5329 24.2969C58.2325 24.2969 58.6378 24.7956 58.6378 25.568C58.6378 25.7239 58.6205 25.8797 58.5928 26.0044H56.8645C56.8783 26.2607 56.9407 26.465 57.0584 26.5967C57.19 26.7387 57.3944 26.7975 57.6334 26.7975C57.9312 26.7975 58.2256 26.7179 58.4611 26.6174L58.5928 27.0712ZM58.1009 25.5576C58.1009 25.1281 57.9762 24.7852 57.5156 24.7852C57.0965 24.7852 56.8991 25.1593 56.8748 25.5576H58.1009Z" fill="#1C1C1B"/>
<path d="M61.0556 27.0712C60.7924 27.1959 60.4253 27.3032 60.072 27.3032C59.3169 27.3032 58.832 26.8807 58.832 25.8139C58.832 24.5913 59.4485 24.2969 60.1551 24.2969C60.4356 24.2969 60.7162 24.328 60.9517 24.3835L60.9032 24.858C60.6989 24.8268 60.4668 24.8026 60.2486 24.8026C59.6945 24.8026 59.407 25.0208 59.407 25.8C59.407 26.4997 59.6425 26.7975 60.1309 26.7975C60.4114 26.7975 60.6746 26.7179 60.9032 26.6174L61.0556 27.0712Z" fill="#1C1C1B"/>
<path d="M63.2378 27.241L63.1927 26.9986C62.9676 27.1683 62.6628 27.3103 62.3199 27.3103C61.6723 27.3103 61.3467 26.9189 61.3467 26.3059V24.3594H61.9147V26.2505C61.9147 26.6418 62.0844 26.7942 62.4204 26.7942C62.6524 26.7942 62.8741 26.7319 63.0888 26.6315V24.3628H63.6569V27.2445H63.2378V27.241Z" fill="#1C1C1B"/>
<path d="M64.2207 27.2418V24.3601H64.6433L64.7195 24.7168H64.7437C64.9688 24.3913 65.2355 24.3047 65.5992 24.3047C65.6685 24.3047 65.7377 24.3047 65.8486 24.3185L65.8105 24.8346C65.6996 24.8173 65.5853 24.8104 65.4676 24.8104C65.2251 24.8104 64.9827 24.8658 64.7887 25.0286V27.2418H64.2207Z" fill="#1C1C1B"/>
<path d="M66.341 23.207C66.5142 23.207 66.6597 23.349 66.6597 23.5257C66.6597 23.6989 66.5177 23.8374 66.341 23.8374C66.1644 23.8374 66.0293 23.6989 66.0293 23.5257C66.0293 23.349 66.1678 23.207 66.341 23.207ZM66.0605 27.2421V24.3604H66.6285V27.2421H66.0605Z" fill="#1C1C1B"/>
<path d="M68.7168 27.1165C68.5228 27.2169 68.2735 27.2896 68.0241 27.2896C67.5565 27.2896 67.2898 27.0264 67.2898 26.5034V24.8271H66.8604V24.408L67.3106 24.3837L67.3556 23.5352H67.8613V24.3595H68.6649V24.8271H67.8613V26.4168C67.8613 26.6281 67.8994 26.777 68.1176 26.777C68.2562 26.777 68.3843 26.7389 68.5367 26.6697L68.7168 27.1165Z" fill="#1C1C1B"/>
<path d="M69.5031 28.3732C69.6728 27.9298 69.8079 27.5385 69.9083 27.2371H69.6035C69.3091 26.4405 69.0113 25.3911 68.748 24.3555H69.3403C69.5343 25.204 69.7455 26.0145 69.9949 26.7869H70.0399C70.272 26.0872 70.5145 25.1833 70.7015 24.3555H71.2799C70.9612 25.6889 70.5075 27.206 70.0573 28.3732H69.5031Z" fill="#1C1C1B"/>
<path d="M73.0568 23.207C73.23 23.207 73.3755 23.349 73.3755 23.5257C73.3755 23.6989 73.2335 23.8374 73.0568 23.8374C72.8802 23.8374 72.7451 23.6989 72.7451 23.5257C72.7451 23.349 72.8837 23.207 73.0568 23.207ZM72.7763 27.2421V24.3604H73.3443V27.2421H72.7763Z" fill="#1C1C1B"/>
<path d="M75.6647 27.2404V25.3493C75.6647 24.9822 75.4949 24.8056 75.1798 24.8056C74.9131 24.8056 74.6741 24.8922 74.4801 24.9857V27.237H73.9121V24.3553H74.3312L74.3797 24.6185C74.6048 24.4454 74.9165 24.293 75.2525 24.293C75.9071 24.293 76.2327 24.6843 76.2327 25.2974V27.237H75.6647V27.2404Z" fill="#1C1C1B"/>
<path d="M80.3889 27.2423V25.4205H78.5982V27.2423H77.999V23.2246H78.5982V24.9079H80.3889V23.2246H80.9881V27.2423H80.3889Z" fill="#1C1C1B"/>
<path d="M83.7002 27.0712C83.4439 27.1889 83.0767 27.3032 82.7027 27.3032C81.8541 27.3032 81.4004 26.7733 81.4004 25.8174C81.4004 25.0242 81.7606 24.2969 82.6403 24.2969C83.34 24.2969 83.7452 24.7956 83.7452 25.568C83.7452 25.7239 83.7279 25.8797 83.7002 26.0044H81.9719C81.9857 26.2607 82.0481 26.465 82.1658 26.5967C82.2974 26.7387 82.5018 26.7975 82.7408 26.7975C83.0386 26.7975 83.333 26.7179 83.5686 26.6174L83.7002 27.0712ZM83.2049 25.5576C83.2049 25.1281 83.0802 24.7852 82.6196 24.7852C82.2005 24.7852 82.003 25.1593 81.9788 25.5576H83.2049Z" fill="#1C1C1B"/>
<path d="M85.8057 27.2413L85.7433 26.9989C85.5251 27.1928 85.2238 27.3037 84.9017 27.3037C84.3094 27.3037 83.9492 26.9123 83.9492 26.3997C83.9492 26.1434 84.0497 25.8871 84.254 25.7278C84.448 25.5719 84.7216 25.5096 85.0264 25.5096C85.2273 25.5096 85.4559 25.5234 85.6567 25.5338V25.2914C85.6567 25.1182 85.6117 25.0039 85.539 24.9311C85.4316 24.8307 85.2584 24.8065 85.0264 24.8065C84.7458 24.8065 84.4029 24.8549 84.2159 24.9L84.1293 24.4255C84.3787 24.3493 84.7458 24.3008 85.0783 24.3008C85.4385 24.3008 85.7399 24.3493 85.9442 24.5259C86.1243 24.6748 86.2248 24.9138 86.2248 25.2602V27.2448H85.8057V27.2413ZM85.6567 25.9494C85.5147 25.9356 85.3208 25.9321 85.1441 25.9321C84.725 25.9321 84.5276 26.081 84.5276 26.3997C84.5276 26.6733 84.7077 26.8534 85.0195 26.8534C85.2515 26.8534 85.487 26.7737 85.6567 26.6421V25.9494Z" fill="#1C1C1B"/>
<path d="M86.7646 27.2423V23.2246H87.3327V27.2423H86.7646Z" fill="#1C1C1B"/>
<path d="M89.4219 27.1165C89.2279 27.2169 88.9785 27.2896 88.7292 27.2896C88.2616 27.2896 87.9949 27.0264 87.9949 26.5034V24.8271H87.5654V24.408L88.0157 24.3837L88.0607 23.5352H88.5664V24.3595H89.3699V24.8271H88.5664V26.4168C88.5664 26.6281 88.6045 26.777 88.8227 26.777C88.9612 26.777 89.0894 26.7389 89.2418 26.6697L89.4219 27.1165Z" fill="#1C1C1B"/>
<path d="M91.4654 27.2419V25.3508C91.4654 24.9836 91.2957 24.807 90.9805 24.807C90.7139 24.807 90.4749 24.8936 90.2809 24.9871V27.2384H89.7129V23.2207H90.2809V24.5611C90.4853 24.4122 90.7554 24.2944 91.0533 24.2944C91.7079 24.2944 92.0335 24.6858 92.0335 25.2988V27.2384H91.4654V27.2419Z" fill="#1C1C1B"/>
<path d="M81.8435 53.9993H24.5427C24.2033 53.9993 23.9297 53.7257 23.9297 53.3863C23.9297 53.0468 24.2033 52.7732 24.5427 52.7732H81.8435C94.7001 52.7732 105.16 42.3133 105.16 29.4567C105.16 16.6 94.7001 6.14015 81.8435 6.14015H36.8175C36.4781 6.14015 36.2045 5.86654 36.2045 5.52711C36.2045 5.18768 36.4781 4.91406 36.8175 4.91406H81.8435C95.379 4.91406 106.39 15.9246 106.39 29.4601C106.39 42.9887 95.379 53.9993 81.8435 53.9993Z" fill="#1C1C1B"/>
<path d="M25.973 23.6256C26.1497 20.8582 28.4183 18.6623 31.1822 18.6623C33.9461 18.6623 36.2112 20.8582 36.3914 23.6256H25.973ZM30.3648 35.9939C29.6271 33.8222 27.8745 32.6793 26.3991 31.7164C24.7608 30.6496 24.075 30.0955 24.0438 29.0703C24.0542 27.6675 25.1695 26.5176 26.5411 26.5176H35.6398L30.3648 35.9939ZM23.3234 44.244C23.3754 44.2544 23.9642 44.3514 24.5495 44.3549C25.1106 44.3583 25.6717 44.2683 25.7722 44.2406L24.5495 46.4364L23.3234 44.244ZM21.841 26.5176C21.4531 27.2588 21.228 28.1039 21.2107 29.001H21.2072C21.2072 29.0287 21.2072 29.0599 21.2107 29.0876V29.0945C21.2557 31.8099 23.2611 33.1191 24.8786 34.1755C26.8008 35.4293 27.8884 36.2363 27.8884 38.2971C27.8884 40.3233 26.2813 41.5044 24.3071 41.5044C23.0394 41.5044 21.4323 40.822 20.7916 39.6964L20.2236 38.7128L13.3935 26.5211H21.841V26.5176ZM18.0381 18.6623C20.802 18.6623 23.0706 20.8582 23.2472 23.6256H12.8324C13.009 20.8582 15.2776 18.6623 18.0381 18.6623ZM31.1822 15.8984C28.5014 15.8984 26.0839 17.2319 24.6119 19.4901C23.1364 17.2284 20.7189 15.8984 18.0381 15.8984C13.5978 15.8984 9.98535 19.5248 9.98535 23.9789C9.98535 23.9789 9.98535 24.0204 9.98535 24.7997C9.98535 25.579 10.0754 26.2752 10.6919 27.3385C11.3084 28.4018 24.553 51.2438 24.553 51.2438C24.553 51.2438 37.704 28.5403 38.3552 27.3385C39.0063 26.1332 39.1102 25.6171 39.1102 24.7997V23.9789C39.1068 19.5213 35.5497 15.8984 31.1822 15.8984Z" fill="#151312"/>
<path d="M19.5618 4.29132C18.682 4.29132 17.8369 4.5788 17.2065 4.99788V0H15.2393V13.532H16.3961L16.7147 12.8047C17.4871 13.3831 18.3841 13.7433 19.5652 13.7433C22.1282 13.7433 23.0772 11.9769 23.0772 9.01559C23.0738 6.07504 22.1248 4.29132 19.5618 4.29132ZM19.1011 6.00577C20.8259 6.00577 21.0892 7.35655 21.0892 9.01559C21.0892 10.6919 20.8259 12.0323 19.1011 12.0323C18.1729 12.0323 17.5564 11.7033 17.2031 11.5059V6.52877C17.5529 6.32788 18.1694 6.00577 19.1011 6.00577ZM25.5606 7.10718C25.5606 6.29325 26.2117 5.98845 27.2508 5.98845C28.3557 5.98845 29.1869 6.20319 29.9385 6.49413V4.74158C29.2527 4.43679 28.4076 4.29132 27.2127 4.29132C24.6289 4.29132 23.6453 5.60747 23.6453 7.15913C23.6453 8.71079 24.2964 9.5559 26.9495 9.79488C28.1271 9.89879 28.4076 10.2417 28.4076 10.9101C28.4076 11.7033 27.7218 12.0323 26.3156 12.0323C25.2073 12.0323 24.2756 11.7414 23.6972 11.5266V13.255C24.2929 13.5043 25.384 13.7398 26.5997 13.7398C29.4121 13.7398 30.3437 12.3891 30.3437 10.8374C30.3437 9.16105 29.658 8.34712 27.0222 8.11507C25.8792 8.0077 25.5606 7.73754 25.5606 7.10718ZM33.4678 13.6567C33.6791 13.6567 33.8558 13.6186 33.8558 13.6186V11.9804C33.2912 11.9804 33.118 11.7968 33.118 11.2946V4.50952H31.1507V11.3119C31.1473 12.8601 31.8712 13.6567 33.4678 13.6567ZM30.8494 1.83567C30.8494 2.55955 31.4278 3.15182 32.1309 3.15182C32.834 3.15182 33.4159 2.55955 33.4159 1.83567C33.4159 1.1118 32.834 0.51953 32.1309 0.51953C31.4278 0.522994 30.8494 1.11526 30.8494 1.83567Z" fill="#151312"/>
<path d="M24.5461 53.9996C11.0106 53.9996 0 42.989 0 29.4535C0 20.7323 4.47143 12.8528 11.9561 8.37789C12.2471 8.20471 12.6246 8.29823 12.7978 8.58917C12.9709 8.8801 12.8774 9.25763 12.5865 9.4308C5.47239 13.684 1.22609 21.1687 1.22609 29.4535C1.22609 42.3102 11.686 52.77 24.5426 52.77C37.3993 52.77 47.8591 42.3102 47.8591 29.4535C47.8591 21.1687 43.6129 13.684 36.4987 9.4308C36.2078 9.25763 36.1143 8.8801 36.2875 8.58917C36.4606 8.29823 36.8382 8.20471 37.1291 8.37789C44.6173 12.8562 49.0852 20.7358 49.0852 29.4535C49.0887 42.989 38.0781 53.9996 24.5461 53.9996Z" fill="#151312"/>
</svg>
