<svg width="107" height="54" viewBox="0 0 107 54" fill="none" xmlns="http://www.w3.org/2000/svg">
<path d="M56.3001 44.362C55.9572 44.5179 55.4758 44.6253 55.029 44.6253C54.4991 44.6253 54.0003 44.4763 53.6886 44.0572C53.4254 43.7074 53.3076 43.2017 53.3076 42.5541C53.3076 41.8059 53.4773 41.2552 53.8202 40.9089C54.1562 40.5729 54.6168 40.4863 55.1225 40.4863C55.4793 40.4863 55.8395 40.5314 56.1512 40.5937L56.0958 41.2483C55.8533 41.2102 55.5104 41.186 55.1987 41.186C54.8731 41.186 54.5683 41.2345 54.3882 41.4492C54.177 41.6916 54.1146 42.0796 54.1146 42.561C54.1146 42.9662 54.1596 43.3091 54.3017 43.5516C54.4748 43.839 54.7762 43.9325 55.1052 43.9325C55.4342 43.9325 55.7979 43.839 56.0958 43.7455L56.3001 44.362Z" fill="#1C1C1B"/>
<path d="M56.6738 44.5626V40.5449H59.1676V41.2307H57.46V42.1659H58.8766V42.8378H57.46V43.8734H59.1676V44.5592H56.6738V44.5626Z" fill="#1C1C1B"/>
<path d="M61.7173 44.5623C61.4299 44.0324 61.1805 43.5336 60.945 43.0106C60.7718 43.0106 60.5328 43.0037 60.3839 42.9933V44.5657H59.5977V40.5758C59.9786 40.5307 60.4774 40.4961 60.8618 40.4961C61.6862 40.4961 62.4516 40.697 62.4516 41.736C62.4516 42.2971 62.2196 42.7093 61.6862 42.9102C61.9182 43.3847 62.2715 43.9943 62.6213 44.5692H61.7173V44.5623ZM60.3839 42.4218C60.7406 42.4218 61.0246 42.4218 61.2324 42.3595C61.5199 42.2798 61.655 42.1032 61.655 41.743C61.655 41.2615 61.3121 41.1749 60.9242 41.1749C60.7441 41.1749 60.5501 41.1819 60.3804 41.1923V42.4218H60.3839Z" fill="#1C1C1B"/>
<path d="M63.6632 44.5626V41.2307H62.5791V40.5449H65.5335V41.2307H64.4494V44.5626H63.6632Z" fill="#1C1C1B"/>
<path d="M65.8242 44.5626V40.5449H66.6104V44.5626H65.8242Z" fill="#1C1C1B"/>
<path d="M67.2588 44.5626V40.5449H69.808V41.2307H68.0415V42.2351H69.4997V42.9071H68.0415V44.5592H67.2588V44.5626Z" fill="#1C1C1B"/>
<path d="M70.1816 44.5626V40.5449H70.9679V44.5626H70.1816Z" fill="#1C1C1B"/>
<path d="M71.6152 44.5626V40.5449H74.109V41.2307H72.4015V42.1659H73.818V42.8378H72.4015V43.8734H74.109V44.5592H71.6152V44.5626Z" fill="#1C1C1B"/>
<path d="M74.5391 40.5957C74.9512 40.5333 75.4188 40.4883 75.7929 40.4883C77.1506 40.4883 77.6251 41.1983 77.6251 42.5456C77.6251 43.931 77.1506 44.6099 75.7929 44.6099C75.4188 44.6099 74.9512 44.5926 74.5391 44.5475V40.5957ZM75.3253 43.9137C75.495 43.9276 75.5816 43.9276 75.7236 43.9276C76.6103 43.9276 76.8285 43.5466 76.8285 42.5491C76.8285 41.607 76.6103 41.1775 75.7236 41.1775C75.5816 41.1775 75.4569 41.1845 75.3253 41.1948V43.9137Z" fill="#1C1C1B"/>
<path d="M53.6816 15.1959V10.0664H54.4471V15.1959H53.6816Z" fill="#1C1C1B"/>
<path d="M55.2575 14.4785C55.5519 14.527 56.0229 14.5894 56.4697 14.5894C56.9061 14.5894 57.3287 14.527 57.5608 14.3019C57.6958 14.1737 57.7755 14.0006 57.7755 13.7754C57.7755 13.2732 57.4638 13.107 56.5806 12.8437C55.6974 12.5874 55.1328 12.2238 55.1328 11.3544C55.1328 10.9249 55.3164 10.5751 55.6281 10.3361C55.9779 10.066 56.4247 9.98633 56.8958 9.98633C57.3668 9.98633 57.8655 10.0591 58.3123 10.1457L58.2154 10.7829C57.914 10.7275 57.4499 10.6721 57.0274 10.6721C56.6776 10.6721 56.3416 10.7102 56.1442 10.8557C55.9848 10.9734 55.9052 11.1258 55.9052 11.3336C55.9052 11.8601 56.3104 12.009 57.1555 12.2653C57.9833 12.5216 58.5479 12.8715 58.5479 13.772C58.5479 14.2499 58.3643 14.6413 58.0318 14.9045C57.6716 15.192 57.1624 15.2786 56.6221 15.2786C56.1199 15.2786 55.6039 15.2059 55.164 15.1262L55.2575 14.4785Z" fill="#1C1C1B"/>
<path d="M58.9082 12.629C58.9082 10.8938 59.5697 9.98633 61.1214 9.98633C62.6731 9.98633 63.3346 10.8938 63.3346 12.629C63.3346 14.3642 62.6731 15.2717 61.1214 15.2717C59.5663 15.2751 58.9082 14.3677 58.9082 12.629ZM62.5553 12.629C62.5553 11.2748 62.1501 10.6686 61.1214 10.6686C60.0927 10.6686 59.6875 11.2748 59.6875 12.629C59.6875 13.9832 60.0927 14.5894 61.1214 14.5894C62.1466 14.5894 62.5553 13.9832 62.5553 12.629Z" fill="#1C1C1B"/>
<path d="M65.3675 15.195V14.5889C66.7841 13.3559 67.7954 12.3896 67.7954 11.5376C67.7954 10.9003 67.3175 10.6682 66.7841 10.6682C66.3373 10.6682 65.8212 10.8102 65.4853 10.9453L65.2705 10.3392C65.6688 10.1487 66.268 9.98242 66.8395 9.98242C67.8682 9.98242 68.5747 10.4985 68.5747 11.5133C68.5747 12.6286 67.4525 13.5914 66.3615 14.5162H68.6475V15.1916H65.3675V15.195Z" fill="#1C1C1B"/>
<path d="M69.8039 15.1959C70.2507 13.4745 70.7979 12.1999 71.6118 10.7349H69.0488V10.0664H72.4015V10.6968C71.5911 12.1549 71.0404 13.4295 70.6247 15.1959H69.8039Z" fill="#1C1C1B"/>
<path d="M72.8066 12.629C72.8066 10.9076 73.1668 9.98633 74.6631 9.98633C76.1524 9.98633 76.5092 10.9111 76.5092 12.629C76.5092 14.34 76.149 15.2717 74.6631 15.2717C73.1634 15.2751 72.8066 14.3435 72.8066 12.629ZM75.7437 12.629C75.7437 11.4098 75.671 10.6548 74.6596 10.6548C73.631 10.6548 73.5686 11.4098 73.5686 12.629C73.5686 13.8412 73.631 14.6136 74.6596 14.6136C75.6744 14.6136 75.7437 13.8412 75.7437 12.629Z" fill="#1C1C1B"/>
<path d="M77.8496 15.1955V10.8383L76.7828 11.2436L76.5508 10.724L77.9223 10.0625H78.615V15.192H77.8496V15.1955Z" fill="#1C1C1B"/>
<path d="M82.9862 13.7754C82.9862 14.7556 82.3004 15.2717 81.2094 15.2717C80.1184 15.2717 79.4326 14.7556 79.4326 13.7754C79.4326 13.0516 79.824 12.6671 80.2846 12.5251C79.869 12.3658 79.5365 12.0229 79.5365 11.4029C79.5365 10.4955 80.2223 9.98633 81.2094 9.98633C82.1965 9.98633 82.8823 10.4955 82.8823 11.4029C82.8823 12.0229 82.5463 12.3658 82.1342 12.5251C82.5948 12.6706 82.9862 13.0516 82.9862 13.7754ZM81.2094 12.8611C80.6137 12.8611 80.2223 13.1243 80.2223 13.7373C80.2223 14.3435 80.5964 14.5894 81.2094 14.5894C81.8225 14.5894 82.1965 14.3435 82.1965 13.7373C82.1965 13.1243 81.8086 12.8611 81.2094 12.8611ZM81.2094 10.6721C80.6275 10.6721 80.3089 10.8938 80.3089 11.4272C80.3089 11.9675 80.676 12.2065 81.2094 12.2065C81.7428 12.2065 82.1099 11.9675 82.1099 11.4272C82.1099 10.8938 81.7913 10.6721 81.2094 10.6721Z" fill="#1C1C1B"/>
<path d="M53.5361 21.7762V17.7828C53.9414 17.7343 54.4332 17.7031 54.8661 17.7031C55.7389 17.7031 56.3555 17.9837 56.3555 18.9742C56.3555 20.0168 55.6524 20.3042 54.828 20.3042C54.6029 20.3042 54.4055 20.2869 54.1353 20.2558V21.7762H53.5361ZM54.1353 19.7916C54.3466 19.8055 54.4782 19.8055 54.6341 19.8055C55.3095 19.8055 55.7459 19.6808 55.7459 18.995C55.7459 18.3889 55.4203 18.2227 54.828 18.2227C54.5925 18.2227 54.3431 18.24 54.1353 18.2538V19.7916Z" fill="#1C1C1B"/>
<path d="M58.8076 21.6063C58.5513 21.7241 58.1842 21.8384 57.8101 21.8384C56.9615 21.8384 56.5078 21.3085 56.5078 20.3525C56.5078 19.5594 56.868 18.832 57.7478 18.832C58.4474 18.832 58.8526 19.3308 58.8526 20.1031C58.8526 20.259 58.8353 20.4149 58.8076 20.5396H57.0793C57.0932 20.7959 57.1555 21.0002 57.2733 21.1318C57.4049 21.2738 57.6092 21.3327 57.8482 21.3327C58.1461 21.3327 58.4405 21.253 58.676 21.1526L58.8076 21.6063ZM58.3123 20.0928C58.3123 19.6633 58.1876 19.3204 57.727 19.3204C57.3079 19.3204 57.1105 19.6945 57.0862 20.0928H58.3123Z" fill="#1C1C1B"/>
<path d="M59.2676 21.775V18.8933H59.6901L59.7663 19.2501H59.7906C60.0157 18.9245 60.2824 18.8379 60.6461 18.8379C60.7153 18.8379 60.7846 18.8379 60.8954 18.8517L60.8573 19.3678C60.7465 19.3505 60.6322 19.3436 60.5145 19.3436C60.272 19.3436 60.0296 19.399 59.8356 19.5618V21.775H59.2676Z" fill="#1C1C1B"/>
<path d="M61.0487 21.2457C61.3154 21.2907 61.6028 21.3323 61.8972 21.3323C62.1085 21.3323 62.3094 21.3149 62.4341 21.2249C62.5207 21.1695 62.5726 21.0864 62.5726 20.9686C62.5726 20.7365 62.3995 20.6638 61.873 20.5253C61.4123 20.4075 60.9863 20.2205 60.9863 19.6698C60.9863 19.358 61.1283 19.1329 61.3604 18.9978C61.5717 18.8662 61.8453 18.8281 62.1397 18.8281C62.4202 18.8281 62.725 18.8662 62.964 18.9147L62.9155 19.3892C62.6973 19.358 62.4549 19.3338 62.2055 19.3338C61.9561 19.3338 61.7864 19.358 61.6825 19.4342C61.6063 19.4827 61.5647 19.5589 61.5647 19.6524C61.5647 19.8845 61.7968 19.933 62.3683 20.1027C62.874 20.2516 63.1545 20.4768 63.1545 20.9374C63.1545 21.2491 63.0298 21.4743 62.8359 21.6163C62.6038 21.786 62.2886 21.8345 61.9561 21.8345C61.6132 21.8345 61.2842 21.7894 60.9967 21.7236L61.0487 21.2457Z" fill="#1C1C1B"/>
<path d="M64.6015 21.8384C64.1962 21.8384 63.9018 21.7275 63.6906 21.5197C63.4239 21.2634 63.3096 20.8478 63.3096 20.3352C63.3096 19.8226 63.4204 19.407 63.6906 19.1507C63.9018 18.9463 64.1962 18.832 64.6015 18.832C65.0067 18.832 65.3011 18.9429 65.5124 19.1507C65.7791 19.407 65.8934 19.8226 65.8934 20.3352C65.8934 20.8478 65.7825 21.2634 65.5124 21.5197C65.3011 21.7241 65.0067 21.8384 64.6015 21.8384ZM65.3184 20.3352C65.3184 19.9854 65.263 19.6979 65.1141 19.5317C65.0032 19.4001 64.8266 19.3308 64.6015 19.3308C64.3763 19.3308 64.2032 19.4001 64.0889 19.5317C63.9399 19.7014 63.8845 19.9854 63.8845 20.3352C63.8845 20.692 63.9399 20.976 64.0889 21.1387C64.1997 21.2704 64.3763 21.3396 64.6015 21.3396C64.8266 21.3396 64.9929 21.2634 65.1141 21.1387C65.263 20.976 65.3184 20.6885 65.3184 20.3352Z" fill="#1C1C1B"/>
<path d="M68.069 21.7756V19.8845C68.069 19.5174 67.8992 19.3407 67.5841 19.3407C67.3174 19.3407 67.0784 19.4273 66.8844 19.5208V21.7721H66.3164V18.8905H66.7355L66.784 19.1537C67.0091 18.9805 67.3208 18.8281 67.6568 18.8281C68.3114 18.8281 68.637 19.2195 68.637 19.8325V21.7721H68.069V21.7756Z" fill="#1C1C1B"/>
<path d="M70.8887 21.7765L70.8263 21.534C70.6081 21.728 70.3068 21.8388 69.9847 21.8388C69.3924 21.8388 69.0322 21.4474 69.0322 20.9348C69.0322 20.6785 69.1327 20.4222 69.337 20.2629C69.531 20.1071 69.8046 20.0447 70.1094 20.0447C70.3103 20.0447 70.5389 20.0586 70.7398 20.069V19.8265C70.7398 19.6533 70.6947 19.539 70.622 19.4663C70.5146 19.3659 70.3414 19.3416 70.1094 19.3416C69.8288 19.3416 69.486 19.3901 69.2989 19.4351L69.2123 18.9606C69.4617 18.8844 69.8288 18.8359 70.1613 18.8359C70.5216 18.8359 70.8229 18.8844 71.0272 19.0611C71.2073 19.21 71.3078 19.449 71.3078 19.7953V21.7799H70.8887V21.7765ZM70.7398 20.4846C70.5977 20.4707 70.4038 20.4673 70.2271 20.4673C69.8081 20.4673 69.6106 20.6162 69.6106 20.9348C69.6106 21.2085 69.7907 21.3886 70.1025 21.3886C70.3345 21.3886 70.57 21.3089 70.7398 21.1773V20.4846Z" fill="#1C1C1B"/>
<path d="M71.8896 21.7755V17.7578H72.4577V21.7755H71.8896Z" fill="#1C1C1B"/>
<path d="M76.1179 21.7755L76.0625 21.5435C75.8582 21.7166 75.5465 21.8379 75.2832 21.8379C74.4728 21.8379 74.168 21.3079 74.168 20.3589C74.168 19.2818 74.5109 18.8315 75.304 18.8315C75.498 18.8315 75.7473 18.8627 75.9759 18.9112V17.7578H76.544V21.7755H76.1179ZM75.9759 19.3857C75.7889 19.3545 75.5534 19.3372 75.3664 19.3372C74.8676 19.3372 74.7498 19.6731 74.7498 20.3659C74.7498 21.0135 74.8745 21.3703 75.356 21.3703C75.5672 21.3703 75.775 21.3149 75.9794 21.2006V19.3857H75.9759Z" fill="#1C1C1B"/>
<path d="M78.8438 21.7765L78.7814 21.534C78.5632 21.728 78.2619 21.8388 77.9398 21.8388C77.3475 21.8388 76.9873 21.4474 76.9873 20.9348C76.9873 20.6785 77.0877 20.4222 77.2921 20.2629C77.4861 20.1071 77.7597 20.0447 78.0645 20.0447C78.2653 20.0447 78.4939 20.0586 78.6948 20.069V19.8265C78.6948 19.6533 78.6498 19.539 78.5771 19.4663C78.4697 19.3659 78.2965 19.3416 78.0645 19.3416C77.7839 19.3416 77.441 19.3901 77.254 19.4351L77.1674 18.9606C77.4168 18.8844 77.7839 18.8359 78.1164 18.8359C78.4766 18.8359 78.778 18.8844 78.9823 19.0611C79.1624 19.21 79.2629 19.449 79.2629 19.7953V21.7799H78.8438V21.7765ZM78.6914 20.4846C78.5494 20.4707 78.3554 20.4673 78.1788 20.4673C77.7597 20.4673 77.5623 20.6162 77.5623 20.9348C77.5623 21.2085 77.7424 21.3886 78.0541 21.3886C78.2861 21.3886 78.5217 21.3089 78.6914 21.1773V20.4846Z" fill="#1C1C1B"/>
<path d="M81.3652 21.6516C81.1713 21.7521 80.9219 21.8248 80.6725 21.8248C80.205 21.8248 79.9383 21.5616 79.9383 21.0386V19.3622H79.5088V18.9431L79.959 18.9189L80.0041 18.0703H80.5098V18.8946H81.3133V19.3622H80.5098V20.952C80.5098 21.1633 80.5479 21.3122 80.7661 21.3122C80.9046 21.3122 81.0327 21.2741 81.1851 21.2048L81.3652 21.6516Z" fill="#1C1C1B"/>
<path d="M83.3955 21.7765L83.3332 21.534C83.115 21.728 82.8136 21.8388 82.4915 21.8388C81.8993 21.8388 81.5391 21.4474 81.5391 20.9348C81.5391 20.6785 81.6395 20.4222 81.8439 20.2629C82.0378 20.1071 82.3114 20.0447 82.6162 20.0447C82.8171 20.0447 83.0457 20.0586 83.2466 20.069V19.8265C83.2466 19.6533 83.2016 19.539 83.1288 19.4663C83.0215 19.3659 82.8483 19.3416 82.6162 19.3416C82.3357 19.3416 81.9928 19.3901 81.8058 19.4351L81.7192 18.9606C81.9685 18.8844 82.3357 18.8359 82.6682 18.8359C83.0284 18.8359 83.3297 18.8844 83.5341 19.0611C83.7142 19.21 83.8146 19.449 83.8146 19.7953V21.7799H83.3955V21.7765ZM83.2431 20.4846C83.1011 20.4707 82.9072 20.4673 82.7305 20.4673C82.3114 20.4673 82.114 20.6162 82.114 20.9348C82.114 21.2085 82.2941 21.3886 82.6058 21.3886C82.8379 21.3886 83.0734 21.3089 83.2431 21.1773V20.4846Z" fill="#1C1C1B"/>
<path d="M85.9162 17.7402C86.0894 17.7402 86.2349 17.8822 86.2349 18.0589C86.2349 18.2321 86.0928 18.3706 85.9162 18.3706C85.7396 18.3706 85.6045 18.2321 85.6045 18.0589C85.6045 17.8822 85.743 17.7402 85.9162 17.7402ZM85.6357 21.7753V18.8936H86.2037V21.7753H85.6357Z" fill="#1C1C1B"/>
<path d="M88.566 21.7756V19.8845C88.566 19.5174 88.3963 19.3407 88.0811 19.3407C87.8144 19.3407 87.5755 19.4273 87.3815 19.5208V21.7721H86.8135V18.8905H87.2326L87.2811 19.1537C87.5062 18.9805 87.8179 18.8281 88.1539 18.8281C88.8085 18.8281 89.1341 19.2195 89.1341 19.8325V21.7721H88.566V21.7756Z" fill="#1C1C1B"/>
<path d="M55.001 28.2317C54.807 28.3321 54.5577 28.4049 54.3083 28.4049C53.8407 28.4049 53.574 28.1416 53.574 27.6186V25.9423H53.1445V25.5232L53.5948 25.499L53.6398 24.6504H54.1455V25.4747H54.949V25.9423H54.1455V27.5321C54.1455 27.7433 54.1836 27.8923 54.4018 27.8923C54.5403 27.8923 54.6685 27.8542 54.8209 27.7849L55.001 28.2317Z" fill="#1C1C1B"/>
<path d="M57.0895 28.3571V26.466C57.0895 26.0989 56.9197 25.9222 56.6046 25.9222C56.3379 25.9222 56.0989 26.0088 55.9049 26.1023V28.3536H55.3369V24.3359H55.9049V25.6763C56.1093 25.5274 56.3794 25.4096 56.6773 25.4096C57.3319 25.4096 57.6575 25.801 57.6575 26.4141V28.3536H57.0895V28.3571Z" fill="#1C1C1B"/>
<path d="M60.3076 28.1864C60.0513 28.3042 59.6842 28.4185 59.3101 28.4185C58.4615 28.4185 58.0078 27.8885 58.0078 26.9326C58.0078 26.1395 58.368 25.4121 59.2478 25.4121C59.9474 25.4121 60.3526 25.9109 60.3526 26.6832C60.3526 26.8391 60.3353 26.9949 60.3076 27.1196H58.5793C58.5932 27.3759 58.6555 27.5803 58.7733 27.7119C58.9049 27.8539 59.1092 27.9128 59.3482 27.9128C59.6461 27.9128 59.9405 27.8331 60.176 27.7327L60.3076 28.1864ZM59.8158 26.6728C59.8158 26.2434 59.6911 25.9005 59.2304 25.9005C58.8114 25.9005 58.6139 26.2745 58.5897 26.6728H59.8158Z" fill="#1C1C1B"/>
<path d="M64.0546 28.1864C63.7914 28.3111 63.4243 28.4185 63.071 28.4185C62.316 28.4185 61.8311 27.9959 61.8311 26.9291C61.8311 25.7065 62.4476 25.4121 63.1541 25.4121C63.4347 25.4121 63.7152 25.4433 63.9507 25.4987L63.9022 25.9732C63.6979 25.942 63.4658 25.9178 63.2476 25.9178C62.6935 25.9178 62.406 26.136 62.406 26.9153C62.406 27.6149 62.6415 27.9128 63.1299 27.9128C63.4104 27.9128 63.6737 27.8331 63.9022 27.7327L64.0546 28.1864Z" fill="#1C1C1B"/>
<path d="M64.4395 28.3556V24.3379H65.0075V28.3556H64.4395Z" fill="#1C1C1B"/>
<path d="M66.7216 28.4185C66.3164 28.4185 66.0219 28.3076 65.8107 28.0998C65.544 27.8435 65.4297 27.4279 65.4297 26.9153C65.4297 26.4027 65.5405 25.9871 65.8107 25.7308C66.0219 25.5264 66.3164 25.4121 66.7216 25.4121C67.1268 25.4121 67.4212 25.5229 67.6325 25.7308C67.8992 25.9871 68.0135 26.4027 68.0135 26.9153C68.0135 27.4279 67.9027 27.8435 67.6325 28.0998C67.4212 28.3042 67.1268 28.4185 66.7216 28.4185ZM67.4385 26.9153C67.4385 26.5655 67.3831 26.278 67.2342 26.1117C67.1234 25.9801 66.9467 25.9109 66.7216 25.9109C66.4965 25.9109 66.3233 25.9801 66.209 26.1117C66.0601 26.2815 66.0046 26.5655 66.0046 26.9153C66.0046 27.272 66.0601 27.556 66.209 27.7188C66.3198 27.8504 66.4965 27.9197 66.7216 27.9197C66.9467 27.9197 67.113 27.8435 67.2342 27.7188C67.3831 27.556 67.4385 27.2686 67.4385 26.9153Z" fill="#1C1C1B"/>
<path d="M70.2749 28.3563L70.2299 28.1138C70.0047 28.2835 69.6999 28.4255 69.357 28.4255C68.7094 28.4255 68.3838 28.0342 68.3838 27.4211V25.4746H68.9518V27.3622C68.9518 27.7536 69.1215 27.906 69.4575 27.906C69.6895 27.906 69.9112 27.8437 70.1259 27.7432V25.4746H70.694V28.3563H70.2749Z" fill="#1C1C1B"/>
<path d="M73.1121 28.3556L73.0567 28.1235C72.8523 28.2967 72.5406 28.4179 72.2774 28.4179C71.4669 28.4179 71.1621 27.888 71.1621 26.939C71.1621 25.8618 71.505 25.4116 72.2981 25.4116C72.4921 25.4116 72.7415 25.4428 72.9701 25.4912V24.3379H73.5381V28.3556H73.1121ZM72.9701 25.9658C72.783 25.9346 72.5475 25.9173 72.3605 25.9173C71.8617 25.9173 71.744 26.2532 71.744 26.9459C71.744 27.5936 71.8687 27.9504 72.3501 27.9504C72.5614 27.9504 72.7692 27.8949 72.9735 27.7806V25.9658H72.9701Z" fill="#1C1C1B"/>
<path d="M81.8435 53.9993H24.5427C24.2033 53.9993 23.9297 53.7257 23.9297 53.3863C23.9297 53.0468 24.2033 52.7732 24.5427 52.7732H81.8435C94.7001 52.7732 105.16 42.3133 105.16 29.4567C105.16 16.6 94.7001 6.14015 81.8435 6.14015H36.8175C36.4781 6.14015 36.2045 5.86654 36.2045 5.52711C36.2045 5.18768 36.4781 4.91406 36.8175 4.91406H81.8435C95.379 4.91406 106.39 15.9246 106.39 29.4601C106.39 42.9887 95.379 53.9993 81.8435 53.9993Z" fill="#1C1C1B"/>
<path d="M25.973 23.6256C26.1497 20.8582 28.4183 18.6623 31.1822 18.6623C33.9461 18.6623 36.2112 20.8582 36.3914 23.6256H25.973ZM30.3648 35.9939C29.6271 33.8222 27.8745 32.6793 26.3991 31.7164C24.7608 30.6496 24.075 30.0955 24.0438 29.0703C24.0542 27.6675 25.1695 26.5176 26.5411 26.5176H35.6398L30.3648 35.9939ZM23.3234 44.244C23.3754 44.2544 23.9642 44.3514 24.5495 44.3549C25.1106 44.3583 25.6717 44.2683 25.7722 44.2406L24.5495 46.4364L23.3234 44.244ZM21.841 26.5176C21.4531 27.2588 21.228 28.1039 21.2107 29.001H21.2072C21.2072 29.0287 21.2072 29.0599 21.2107 29.0876V29.0945C21.2557 31.8099 23.2611 33.1191 24.8786 34.1755C26.8008 35.4293 27.8884 36.2363 27.8884 38.2971C27.8884 40.3233 26.2813 41.5044 24.3071 41.5044C23.0394 41.5044 21.4323 40.822 20.7916 39.6964L20.2236 38.7128L13.3935 26.5211H21.841V26.5176ZM18.0381 18.6623C20.802 18.6623 23.0706 20.8582 23.2472 23.6256H12.8324C13.009 20.8582 15.2776 18.6623 18.0381 18.6623ZM31.1822 15.8984C28.5014 15.8984 26.0839 17.2319 24.6119 19.4901C23.1364 17.2284 20.7189 15.8984 18.0381 15.8984C13.5978 15.8984 9.98535 19.5248 9.98535 23.9789C9.98535 23.9789 9.98535 24.0204 9.98535 24.7997C9.98535 25.579 10.0754 26.2752 10.6919 27.3385C11.3084 28.4018 24.553 51.2438 24.553 51.2438C24.553 51.2438 37.704 28.5403 38.3552 27.3385C39.0063 26.1332 39.1102 25.6171 39.1102 24.7997V23.9789C39.1068 19.5213 35.5497 15.8984 31.1822 15.8984Z" fill="#151312"/>
<path d="M19.5618 4.29132C18.682 4.29132 17.8369 4.5788 17.2065 4.99788V0H15.2393V13.532H16.3961L16.7147 12.8047C17.4871 13.3831 18.3841 13.7433 19.5652 13.7433C22.1282 13.7433 23.0772 11.9769 23.0772 9.01559C23.0738 6.07504 22.1248 4.29132 19.5618 4.29132ZM19.1011 6.00577C20.8259 6.00577 21.0892 7.35655 21.0892 9.01559C21.0892 10.6919 20.8259 12.0323 19.1011 12.0323C18.1729 12.0323 17.5564 11.7033 17.2031 11.5059V6.52877C17.5529 6.32788 18.1694 6.00577 19.1011 6.00577ZM25.5606 7.10718C25.5606 6.29325 26.2117 5.98845 27.2508 5.98845C28.3557 5.98845 29.1869 6.20319 29.9385 6.49413V4.74158C29.2527 4.43679 28.4076 4.29132 27.2127 4.29132C24.6289 4.29132 23.6453 5.60747 23.6453 7.15913C23.6453 8.71079 24.2964 9.5559 26.9495 9.79488C28.1271 9.89879 28.4076 10.2417 28.4076 10.9101C28.4076 11.7033 27.7218 12.0323 26.3156 12.0323C25.2073 12.0323 24.2756 11.7414 23.6972 11.5266V13.255C24.2929 13.5043 25.384 13.7398 26.5997 13.7398C29.4121 13.7398 30.3437 12.3891 30.3437 10.8374C30.3437 9.16105 29.658 8.34712 27.0222 8.11507C25.8792 8.0077 25.5606 7.73754 25.5606 7.10718ZM33.4678 13.6567C33.6791 13.6567 33.8558 13.6186 33.8558 13.6186V11.9804C33.2912 11.9804 33.118 11.7968 33.118 11.2946V4.50952H31.1507V11.3119C31.1473 12.8601 31.8712 13.6567 33.4678 13.6567ZM30.8494 1.83567C30.8494 2.55955 31.4278 3.15182 32.1309 3.15182C32.834 3.15182 33.4159 2.55955 33.4159 1.83567C33.4159 1.1118 32.834 0.51953 32.1309 0.51953C31.4278 0.522994 30.8494 1.11526 30.8494 1.83567Z" fill="#151312"/>
<path d="M24.5461 53.9996C11.0106 53.9996 0 42.989 0 29.4535C0 20.7323 4.47143 12.8528 11.9561 8.37789C12.2471 8.20471 12.6246 8.29823 12.7978 8.58917C12.9709 8.8801 12.8774 9.25763 12.5865 9.4308C5.47239 13.684 1.22609 21.1687 1.22609 29.4535C1.22609 42.3102 11.686 52.77 24.5426 52.77C37.3993 52.77 47.8591 42.3102 47.8591 29.4535C47.8591 21.1687 43.6129 13.684 36.4987 9.4308C36.2078 9.25763 36.1143 8.8801 36.2875 8.58917C36.4606 8.29823 36.8382 8.20471 37.1291 8.37789C44.6173 12.8562 49.0852 20.7358 49.0852 29.4535C49.0887 42.989 38.0781 53.9996 24.5461 53.9996Z" fill="#151312"/>
</svg>
