<?xml version="1.0" encoding="UTF-8"?>
<svg width="91px" height="38px" viewBox="0 0 91 38" version="1.1" xmlns="http://www.w3.org/2000/svg" xmlns:xlink="http://www.w3.org/1999/xlink">
    <title>icon/BI/WW</title>
    <g id="icon/BI/WW" stroke="none" stroke-width="1" fill="none" fill-rule="evenodd">
        <g id="Group-14" transform="translate(0.696429, 0.152927)" fill="#FFFFFF">
            <path d="M7.57549464,14.4390732 C11.734573,14.4390732 14.4074698,17.8155416 14.4605118,21.7714259 L14.4613161,21.8914756 C14.4613161,22.1385283 14.4496825,22.9108518 14.3805833,23.2769964 L14.3703161,23.326439 L3.98122679,23.326439 C4.4601375,25.7246098 6.71656607,26.2054024 8.6363875,26.2054024 C9.98647574,26.2054024 10.9116528,25.9570022 12.6194442,25.5754524 L12.7768875,25.5404024 L13.7075482,28.7412073 L13.3619169,28.8436029 C11.7528414,29.3129817 10.1895625,29.6585366 8.3195125,29.6585366 C3.29524464,29.6585366 -2.32142857e-05,26.9874146 -2.32142857e-05,22.1187805 C-2.32142857e-05,18.5201341 2.21995893,14.4390732 7.57549464,14.4390732 Z M31.4517821,8.57277683 L31.4517821,28.9993988 L27.5111571,28.9993988 L27.5111571,27.7331183 C26.4381929,28.6875207 25.1470143,29.4097524 23.2097821,29.4097524 C18.9949964,29.4097524 16.2338893,26.1185817 16.2338893,21.7777768 C16.2338893,17.4367402 19.2603357,14.4548988 23.2097821,14.4548988 C25.1039647,14.4548988 26.3525237,14.9313961 27.4374339,15.7654769 L27.5111571,15.8228988 L27.5111571,8.57277683 L31.4517821,8.57277683 Z M37.6461661,14.8653683 L37.6461661,23.0156732 C37.6461661,24.5442463 38.4103804,25.972722 40.3204518,25.972722 L40.4030533,25.971793 C41.7068217,25.9424297 43.4502017,25.2049264 43.48676,22.0577994 L43.4873446,21.956539 L43.4873446,14.8653683 L47.4284339,14.8653683 L47.4284339,28.9995146 L43.4873446,28.9995146 L43.4873446,27.7332341 C42.6945768,28.5286854 40.9321482,29.4098683 39.5625054,29.4098683 C35.3896377,29.4098683 33.7108795,26.860939 33.6777216,22.5980817 L33.6772196,22.4683805 L33.6772196,14.8653683 L37.6461661,14.8653683 Z M89.318125,8.57293902 L89.318125,28.999561 L85.3772679,28.999561 L85.3772679,8.57293902 L89.318125,8.57293902 Z M75.5768929,14.8654146 L75.5768929,28.999561 L71.6358036,28.999561 L71.6358036,14.8654146 L75.5768929,14.8654146 Z M82.434625,11.7185976 L82.434625,28.999561 L78.4935357,28.999561 L78.4935357,11.7185976 L82.434625,11.7185976 Z M53.1464143,14.865322 L55.4332536,22.8321146 L57.7205571,14.865322 L61.2874321,14.865322 L63.5747357,22.8321146 L65.861575,14.865322 L69.7887357,14.865322 L65.5200929,28.9994683 L62.013575,28.9994683 L59.5038786,20.2942244 L56.9941821,28.9994683 L53.4874321,28.9994683 L49.2192536,14.865322 L53.1464143,14.865322 Z M23.8312286,17.8927402 C21.9585321,17.8927402 20.3114786,19.1328378 20.3114786,21.7777768 C20.3114786,24.4199354 21.8712464,25.9726061 23.8135857,25.9726061 C26.4697643,25.9726061 27.5111571,23.8529476 27.5111571,21.7777768 C27.5111571,19.3990695 25.7937643,17.8927402 23.8312286,17.8927402 Z M7.57549464,17.8926707 C5.49000893,17.8926707 4.46250651,19.0003346 4.08149,20.3240986 L4.06410179,20.3863049 L10.8343161,20.3863049 C10.6627625,19.3452439 9.53686964,17.8926707 7.57549464,17.8926707 Z" id="Shape"></path>
            <path d="M90.0435482,3.30252439 L88.1474054,0.0787804878 C83.2178518,2.73368293 73.7981911,7.02467073 55.6320839,7.02467073 C54.3292982,7.02467073 50.7870304,6.95678049 49.2885482,6.87429268 L49.2885482,10.600378 C50.3345839,10.6569146 53.0169946,10.7563171 55.5884411,10.7563171 C71.7525482,10.7563171 82.1446554,7.57960976 90.0435482,3.30252439" id="Fill-12"></path>
        </g>
    </g>
</svg>