<svg width="720" height="450" viewBox="0 0 720 450" fill="none" xmlns="http://www.w3.org/2000/svg">
<rect width="720" height="450" rx="8" fill="#F0F0F0"/>
<rect width="720" height="450" rx="8" fill="#333333"/>
<path fill-rule="evenodd" clip-rule="evenodd" d="M165 42.5992C165 41.2737 166.075 40.1992 167.4 40.1992L678.6 40.1992C679.925 40.1992 681 41.2737 681 42.5992V356.399C681 357.725 679.925 358.799 678.6 358.799H167.4C166.075 358.799 165 357.725 165 356.399V42.5992Z" fill="white"/>
<path d="M180.6 378.599C180.6 377.605 181.406 376.799 182.4 376.799H496.62C497.614 376.799 498.42 377.605 498.42 378.599V411.239C498.42 412.233 497.614 413.039 496.62 413.039H182.4C181.406 413.039 180.6 412.233 180.6 411.239V378.599Z" fill="#333333" stroke="#616161" stroke-width="1.2"/>
<circle cx="206.52" cy="392.58" r="3.12" stroke="white" stroke-width="1.56"/>
<path d="M201.84 401.159V401.159C201.84 399.436 203.237 398.039 204.96 398.039H208.08C209.803 398.039 211.2 399.436 211.2 401.159V401.159" stroke="white" stroke-width="1.56"/>
<rect x="212.76" y="394.92" width="0.78" height="3.9" fill="white"/>
<rect x="211.2" y="396.48" width="3.9" height="0.78" fill="white"/>
<path fill-rule="evenodd" clip-rule="evenodd" d="M469.341 390.239H474.84V391.019H469.341C469.16 391.91 468.374 392.58 467.43 392.58C466.487 392.58 465.7 391.91 465.519 391.019H463.92V390.239H465.519C465.7 389.349 466.487 388.68 467.43 388.68C468.373 388.68 469.16 389.349 469.341 390.239ZM474.84 394.139H474.021C473.84 393.249 473.053 392.58 472.11 392.58C471.167 392.58 470.38 393.249 470.199 394.139H463.92V394.919H470.199C470.38 395.81 471.167 396.48 472.11 396.48C473.054 396.48 473.841 395.81 474.021 394.919H474.84V394.139ZM469.341 398.039H474.84V398.819H469.341C469.16 399.71 468.374 400.38 467.43 400.38C466.487 400.38 465.7 399.71 465.519 398.819H463.92V398.039H465.519C465.7 397.149 466.487 396.48 467.43 396.48C468.373 396.48 469.16 397.149 469.341 398.039Z" fill="white"/>
<path fill-rule="evenodd" clip-rule="evenodd" d="M428.04 389.46C428.04 389.029 428.389 388.68 428.82 388.68H435.06C435.491 388.68 435.84 389.029 435.84 389.46V399.6L431.94 396.688L428.04 399.6V389.46Z" stroke="white" stroke-width="1.56"/>
<circle cx="357.06" cy="394.92" r="6.24" stroke="white" stroke-width="1.56"/>
<circle cx="357.06" cy="394.92" r="3.9" fill="white"/>
<path d="M389.042 397.946L389.766 398.236C389.853 398.018 389.837 397.772 389.723 397.567L389.042 397.946ZM388.336 399.71L389.06 400V400L388.336 399.71ZM389.038 400.515L389.228 401.272H389.228L389.038 400.515ZM390.934 400.041L391.381 399.402C391.196 399.273 390.964 399.23 390.745 399.285L390.934 400.041ZM399.96 394.92C399.96 397.935 397.515 400.38 394.5 400.38V401.94C398.377 401.94 401.52 398.797 401.52 394.92H399.96ZM394.5 389.46C397.515 389.46 399.96 391.904 399.96 394.92H401.52C401.52 391.043 398.377 387.9 394.5 387.9V389.46ZM389.04 394.92C389.04 391.904 391.485 389.46 394.5 389.46V387.9C390.623 387.9 387.48 391.043 387.48 394.92H389.04ZM389.723 397.567C389.288 396.784 389.04 395.882 389.04 394.92H387.48C387.48 396.154 387.799 397.315 388.36 398.325L389.723 397.567ZM389.06 400L389.766 398.236L388.317 397.656L387.612 399.421L389.06 400ZM388.849 399.759C388.992 399.723 389.114 399.864 389.06 400L387.612 399.421C387.193 400.466 388.135 401.545 389.228 401.272L388.849 399.759ZM390.745 399.285L388.849 399.759L389.228 401.272L391.124 400.798L390.745 399.285ZM394.5 400.38C393.339 400.38 392.265 400.018 391.381 399.402L390.488 400.681C391.626 401.474 393.01 401.94 394.5 401.94V400.38Z" fill="white"/>
<path d="M317.28 390.631L319.62 388.291L321.96 390.631" stroke="white" stroke-width="1.56"/>
<path fill-rule="evenodd" clip-rule="evenodd" d="M317.28 392.58H314.16C313.729 392.58 313.38 392.929 313.38 393.36V400.38C313.38 400.811 313.729 401.16 314.16 401.16H325.08C325.511 401.16 325.86 400.811 325.86 400.38V393.36C325.86 392.929 325.511 392.58 325.08 392.58H321.96V394.141H324.3V399.601H314.94V394.141H317.28V392.58ZM320.4 392.58H318.84V394.141H320.4V392.58Z" fill="white"/>
<path fill-rule="evenodd" clip-rule="evenodd" d="M318.84 388.682H320.4V396.482H318.84V388.682Z" fill="white"/>
<path fill-rule="evenodd" clip-rule="evenodd" d="M279.84 391.02C279.84 389.727 280.888 388.68 282.18 388.68V388.68C283.472 388.68 284.52 389.727 284.52 391.02V394.14C284.52 395.432 283.472 396.48 282.18 396.48V396.48C280.888 396.48 279.84 395.432 279.84 394.14L279.84 391.02Z" stroke="white" stroke-width="1.56"/>
<path fill-rule="evenodd" clip-rule="evenodd" d="M282.96 398.041H281.4V400.381H279.45V401.161H284.91V400.381H282.96V398.041Z" fill="white"/>
<path d="M277.89 392.58V394.14C277.89 396.509 279.811 398.43 282.18 398.43V398.43C284.549 398.43 286.47 396.509 286.47 394.14V392.58" stroke="white" stroke-width="1.17"/>
<rect x="236.16" y="388.68" width="14.04" height="11.7" rx="1.56" stroke="white" stroke-width="1.56"/>
<circle cx="241.23" cy="394.53" r="1.95" stroke="white" stroke-width="1.17"/>
<circle cx="245.13" cy="394.53" r="1.95" stroke="white" stroke-width="1.17"/>
<path fill-rule="evenodd" clip-rule="evenodd" d="M250.2 392.191L253.71 390.631V398.431L250.2 396.871V392.191Z" stroke="white" stroke-width="1.56"/>
<rect x="502.74" y="376.799" width="36.24" height="36.24" rx="1.8" fill="#333333" stroke="#616161" stroke-width="1.2"/>
<path fill-rule="evenodd" clip-rule="evenodd" d="M513.06 398.11C513.06 398.502 513.377 398.82 513.769 398.82H516.96C517.391 398.82 517.74 398.47 517.74 398.04V396.48C517.74 395.618 518.438 394.92 519.3 394.92H522.42C523.282 394.92 523.98 395.618 523.98 396.48V398.04C523.98 398.47 524.329 398.82 524.76 398.82H527.951C528.343 398.82 528.66 398.502 528.66 398.11V398.11C528.66 394.194 525.485 391.02 521.569 391.02H520.151C516.235 391.02 513.06 394.194 513.06 398.11V398.11Z" stroke="#D06A77" stroke-width="1.56"/>
<g clip-path="url(#clip0)">
<rect x="39" y="40.1992" width="96" height="75.6" rx="2.4" fill="#E9EFE4"/>
<rect x="39" y="40.1992" width="96" height="75.6" rx="2.4" fill="#DAEDC9"/>
<mask id="mask0" mask-type="alpha" maskUnits="userSpaceOnUse" x="39" y="40" width="96" height="76">
<rect x="39" y="40.1992" width="96" height="75.6" rx="2.4" fill="white"/>
</mask>
<g mask="url(#mask0)">
<path fill-rule="evenodd" clip-rule="evenodd" d="M116.284 81.9746C116.284 81.9746 118.203 75.5239 119.756 75.9564C120.98 76.2971 118.88 81.7411 118.526 83.4746C120.12 83.2475 121.144 83.9289 121.258 84.8375C122.511 85.0647 123.307 86.9955 122.966 87.7901C124.332 88.4711 124.446 89.2661 124.104 90.5154C123.763 91.7643 123.307 98.6912 120.575 99.9401C117.843 101.189 113.365 99.4483 112.606 97.2147C111.847 94.9819 109.874 87.1086 109.191 86.3136C108.508 85.519 110.671 84.3836 112.15 87.2222L113.63 90.0611L116.284 81.9746Z" fill="#FECFAB"/>
<path fill-rule="evenodd" clip-rule="evenodd" d="M116.284 81.9746C116.284 81.9746 118.203 75.5239 119.756 75.9564C120.98 76.2971 118.88 81.7411 118.526 83.4746C120.12 83.2475 121.144 83.9289 121.258 84.8375C122.511 85.0647 123.307 86.9955 122.966 87.7901C124.332 88.4711 124.446 89.2661 124.104 90.5154C123.763 91.7644 123.307 98.6912 120.575 99.9401C117.843 101.189 113.365 99.4483 112.606 97.2147C111.847 94.9819 109.874 87.1086 109.191 86.3136C108.508 85.519 110.671 84.3836 112.15 87.2222L113.63 90.0611L116.284 81.9746Z" stroke="black" stroke-width="1.728" stroke-linecap="round" stroke-linejoin="round"/>
<path fill-rule="evenodd" clip-rule="evenodd" d="M115.973 92.0645C115.973 92.0645 117.684 92.9858 117.816 94.8293L115.973 92.0645Z" fill="white"/>
<path d="M115.973 92.0645C115.973 92.0645 117.684 92.9858 117.816 94.8293" stroke="black" stroke-width="1.8432" stroke-linecap="round" stroke-linejoin="round"/>
<path fill-rule="evenodd" clip-rule="evenodd" d="M118.272 84.1762C118.272 84.1762 114.974 87.6616 116.278 89.0033C116.802 89.5427 117.172 89.3455 117.576 89.4655C119.226 90.9547 120.541 93.3682 122.707 93.445C124.541 93.5107 125.131 90.8006 124.46 89.3114C123.79 87.8222 123.213 87.7433 123.213 87.7433C123.213 87.7433 123.377 86.0762 122.758 85.5627C122.14 85.0492 121.314 85.46 121.314 85.46C121.314 85.46 121.624 84.1249 120.747 83.5087C119.871 82.8924 118.324 83.8681 118.272 84.1762Z" fill="#FECFAB" stroke="black" stroke-width="1.728" stroke-linecap="round" stroke-linejoin="round"/>
<path fill-rule="evenodd" clip-rule="evenodd" d="M83.9557 89.7598C83.9557 89.7598 85.0813 93.02 79.669 93.1705C74.2571 93.321 73.4322 90.3617 73.4322 90.3617C73.4322 90.3617 52.128 114.527 55.1641 114.383C55.7067 114.358 57.9121 117.12 57.9121 117.12H120.408C120.408 117.12 120.454 116.387 120.532 116.085C121.963 110.549 122.851 104.639 122.215 100.392C116.201 100.542 112.142 97.2325 112.142 96.7811C112.142 96.3301 108.951 108.894 108.951 108.894C108.951 108.894 97.1122 92.48 83.9557 89.7598Z" fill="#5B5F7A" stroke="black" stroke-width="1.728" stroke-linecap="round" stroke-linejoin="round"/>
<path fill-rule="evenodd" clip-rule="evenodd" d="M109.061 109.115L107.678 115.106L109.061 109.115Z" fill="white"/>
<path d="M109.061 107.963L107.678 113.953" stroke="black" stroke-width="1.728" stroke-linecap="round" stroke-linejoin="round"/>
<path d="M121.963 103.443C121.963 103.443 116.553 106.201 111.365 99.8965" stroke="black" stroke-width="1.8432" stroke-linecap="round" stroke-linejoin="round"/>
<path fill-rule="evenodd" clip-rule="evenodd" d="M89.5727 66.0783C89.5727 66.0783 97.0326 65.1331 97.275 62.4656C97.5183 59.7978 94.6413 57.7736 93.4288 56.3186C92.216 54.8628 88.6871 50.8321 86.0106 51.7017C83.3342 52.5713 77.898 50.6379 75.5478 52.5117C73.1973 54.3846 65.4364 65.7843 67.5185 69.9157C69.5996 74.0466 78.3135 83.7911 81.7766 81.9261C85.2392 80.0622 89.5727 66.0783 89.5727 66.0783Z" fill="#1E1E1E"/>
<path fill-rule="evenodd" clip-rule="evenodd" d="M89.5727 66.0783C89.5727 66.0783 97.0326 65.1331 97.275 62.4656C97.5183 59.7978 94.6413 57.7736 93.4288 56.3186C92.216 54.8628 88.6871 50.8321 86.0106 51.7017C83.3342 52.5713 77.898 50.6379 75.5478 52.5117C73.1973 54.3846 65.4364 65.7843 67.5185 69.9157C69.5996 74.0466 78.3135 83.7911 81.7766 81.9261C85.2392 80.0622 89.5727 66.0783 89.5727 66.0783Z" stroke="black" stroke-width="2.62193" stroke-linecap="round" stroke-linejoin="round"/>
<path fill-rule="evenodd" clip-rule="evenodd" d="M90.6185 60.1928C90.6185 60.1928 94.013 67.2263 94.105 69.786C94.1975 72.3447 96.9659 74.0348 96.9659 74.0348L93.9455 76.1253C93.9455 76.1253 94.9914 85.032 92.5405 85.4589C90.0902 85.8848 84.3193 84.061 84.3193 84.061C84.3193 84.061 86.1187 84.6345 86.2697 84.9918C86.7067 87.6137 87.5807 91.9836 87.5807 91.9836C87.5807 91.9836 88.2763 97.4656 88.4546 98.5384C89.0945 102.388 87.1401 100.115 81.8998 98.9754C71.8491 96.7905 74.034 88.4877 74.034 88.4877C74.034 88.4877 78.3141 83.793 77.7876 79.8958C77.2611 75.9987 80.5898 77.1364 80.5898 77.1364C80.5898 77.1364 76.5082 72.5445 78.6329 71.1135C80.7572 69.6844 82.1872 71.8085 82.1872 71.8085C82.1872 71.8085 84.3788 61.4795 90.6185 60.1928Z" fill="#FECFAB" stroke="black" stroke-width="1.6128" stroke-linecap="round" stroke-linejoin="round"/>
<path fill-rule="evenodd" clip-rule="evenodd" d="M88.0898 69.0762C88.3887 68.7292 88.7484 68.5351 89.2091 68.5049C90.3318 68.4333 90.253 66.6862 89.1298 66.7589C88.2159 66.8169 87.384 67.2177 86.7836 67.9127C86.0511 68.7637 87.3531 69.9313 88.0898 69.0762Z" fill="black"/>
<path fill-rule="evenodd" clip-rule="evenodd" d="M90.1241 69.3209C89.7968 69.0293 89.1701 69.0096 88.8903 69.3928C88.3477 70.1324 87.8395 71.029 88.1626 71.9725C88.4692 72.8737 89.335 73.3634 90.253 73.157C90.6514 73.0679 90.8376 72.6481 90.8569 72.2862C90.8861 71.7199 90.7287 71.2215 90.4763 70.7218C90.4213 70.6147 90.339 70.5311 90.2406 70.4685C90.4661 70.0993 90.4744 69.6325 90.1241 69.3209Z" fill="black"/>
<path fill-rule="evenodd" clip-rule="evenodd" d="M91.2445 79.2045C90.159 79.6932 88.9965 79.5095 88.1481 78.6631C87.3515 77.8688 86.1905 79.1742 86.986 79.9679C88.2245 81.2031 90.1822 81.5888 91.7846 80.8669C92.7991 80.4087 92.2703 78.7416 91.2445 79.2045Z" fill="black"/>
<path fill-rule="evenodd" clip-rule="evenodd" d="M83.0567 98.8404C73.5098 97.5264 74.616 87.7441 74.616 87.7441C74.616 87.7441 73.6477 88.2251 72.6 88.8961C69.585 90.8273 58.9619 94.1293 58.9619 94.1293L51.288 117.12H88.152H91.032L94.2 94.3681L87.5807 90.2347C87.5807 90.2347 88.2864 95.4579 87.6511 96.9038C86.9414 98.5188 85.41 99.1643 83.0567 98.8404Z" fill="#5B5F7A" stroke="black" stroke-width="1.728" stroke-linecap="round" stroke-linejoin="round"/>
<path fill-rule="evenodd" clip-rule="evenodd" d="M90.744 112.801L89.016 115.105V117.985H90.168L90.744 112.801Z" fill="#5B5F7A"/>
<path d="M88.1521 117.119L87.8641 94.3672" stroke="black" stroke-width="1.728"/>
<path fill-rule="evenodd" clip-rule="evenodd" d="M74.0401 88.6094L67.1281 92.0654L82.3921 117.121H86.1361C86.1361 117.121 83.1121 109.993 80.0881 102.865C77.0641 95.7374 74.0401 88.6094 74.0401 88.6094Z" fill="#5B5F7A" stroke="black" stroke-width="1.728" stroke-linejoin="round"/>
<path fill-rule="evenodd" clip-rule="evenodd" d="M82.1041 109.92L79.2241 110.208L83.8321 117.984H85.5601L82.1041 109.92Z" fill="#5B5F7A"/>
</g>
<rect x="39" y="121.199" width="96" height="75.6" rx="2.4" fill="#DFECF7"/>
<rect x="39" y="121.199" width="96" height="75.6" rx="2.4" fill="#D1E7FA"/>
<mask id="mask1" mask-type="alpha" maskUnits="userSpaceOnUse" x="39" y="121" width="96" height="76">
<rect x="39" y="121.199" width="96" height="75.6" rx="2.4" fill="white"/>
</mask>
<g mask="url(#mask1)">
<path fill-rule="evenodd" clip-rule="evenodd" d="M89.9501 142.456C89.9501 142.456 92.3472 132.81 88.2432 129.458C84.1393 126.106 77.7568 127.167 73.803 130.384C69.8496 133.601 61.9191 143.282 71.8234 154.897C81.1812 161.252 83.5124 159.89 83.5124 159.89L89.9501 142.456Z" fill="#B6A78D" stroke="black" stroke-width="1.5552" stroke-linecap="round" stroke-linejoin="round"/>
<path fill-rule="evenodd" clip-rule="evenodd" d="M88.5723 135.358C88.5723 135.358 90.7828 137.005 91.9921 141.564C95.7285 145.164 97.0099 146.566 97.0099 146.566L94.2554 148.122C94.2554 148.122 97.905 155.213 92.183 158.584C93.3755 161.999 94.1434 171.85 96.3206 171.209C98.4977 170.569 97.0417 180.906 87.9225 183.65C78.8035 186.394 78.2772 172.497 78.5913 168.409C78.9055 164.322 82.0123 160.809 79.235 156.783C75.9136 155.959 72.7569 152.925 74.7338 150.728C76.7108 148.533 77.4902 150.652 77.4902 150.652C77.4902 150.652 73.2148 142.524 79.4678 137.766C85.721 133.009 88.5723 135.358 88.5723 135.358Z" fill="#FFF4E5" stroke="black" stroke-width="1.5552" stroke-linecap="round" stroke-linejoin="round"/>
<path d="M95.4024 152.797C95.4133 153.11 95.2151 153.503 94.6662 153.863C94.1284 154.216 93.3374 154.471 92.4219 154.503C91.5064 154.535 90.6996 154.336 90.1384 154.021C89.5658 153.7 89.3406 153.322 89.3297 153.009C89.3187 152.696 89.517 152.302 90.0658 151.942C90.6037 151.589 91.3946 151.335 92.3101 151.303C93.2256 151.271 94.0324 151.469 94.5936 151.784C95.1662 152.105 95.3914 152.483 95.4024 152.797Z" stroke="black" stroke-width="1.24416"/>
<path fill-rule="evenodd" clip-rule="evenodd" d="M85.2971 142.489C85.5003 141.964 85.9234 141.5 86.4709 141.343C86.8971 141.222 87.2312 140.885 87.1519 140.392C87.0871 139.988 86.6337 139.55 86.2043 139.672C85.067 139.998 84.1887 140.731 83.7495 141.866C83.3621 142.869 84.9096 143.491 85.2971 142.489Z" fill="black"/>
<path fill-rule="evenodd" clip-rule="evenodd" d="M88.7866 143.998C88.7757 143.979 88.7674 143.96 88.7583 143.94C88.7581 143.939 88.7581 143.937 88.7581 143.937C88.7601 143.939 88.7621 143.943 88.7642 143.946C88.7648 143.949 88.765 143.948 88.765 143.948C88.7788 143.969 88.7901 143.991 88.7866 143.998ZM88.4337 144.094C88.4205 144.1 88.3816 144.123 88.3144 144.167C88.3599 144.141 88.402 144.109 88.444 144.078C88.4441 144.08 88.4475 144.079 88.4531 144.075C88.4467 144.081 88.44 144.087 88.4337 144.094ZM88.9539 143.157C88.7651 142.782 88.2187 142.487 87.7844 142.741C87.172 143.099 86.8332 143.662 86.8732 144.352C86.9084 144.964 87.285 145.463 87.8544 145.701C88.278 145.879 88.86 145.613 89.0154 145.184C89.1636 144.775 89.0204 144.379 88.6787 144.16C88.97 143.905 89.1392 143.526 88.9539 143.157Z" fill="black"/>
<path fill-rule="evenodd" clip-rule="evenodd" d="M78.0458 166.123C78.0458 166.123 82.0551 176.007 88.4275 175.544C94.8 175.081 94.9396 168.929 94.9396 168.929C94.9396 168.929 112.117 172.858 115.098 178.75C118.079 184.643 121.771 218.875 121.771 218.875H51.9246C51.9246 218.875 49.3692 186.326 58.597 177.908C67.8244 169.49 78.0458 166.123 78.0458 166.123Z" fill="#C2DEEF" stroke="black" stroke-width="1.5552" stroke-linecap="round" stroke-linejoin="round"/>
<path d="M68.662 217.878C68.662 217.878 67.6561 200.068 71.0089 193.99" stroke="black" stroke-width="1.99066" stroke-linecap="round" stroke-linejoin="round"/>
<path d="M96.8874 192.498H104.85" stroke="black" stroke-width="1.99066" stroke-linecap="round" stroke-linejoin="round"/>
</g>
<rect x="39" y="202.199" width="96" height="75.6" rx="2.4" fill="#EAE8F9"/>
<rect x="39" y="202.199" width="96" height="75.6" rx="2.4" fill="#D8D4F9"/>
<mask id="mask2" mask-type="alpha" maskUnits="userSpaceOnUse" x="39" y="202" width="96" height="76">
<rect x="39" y="202.199" width="96" height="75.6" rx="2.4" fill="white"/>
</mask>
<g mask="url(#mask2)">
<path fill-rule="evenodd" clip-rule="evenodd" d="M91.6085 250.684C91.6085 250.684 111.275 275.629 112.841 281.618C114.409 287.607 98.4239 301.866 92.1549 302.721C85.8859 303.577 93.2486 295.348 96.6478 293.406C101.14 290.839 103.543 282.759 103.543 282.759C103.543 282.759 88.6834 262.947 88.3698 259.809C88.0563 256.673 91.6085 250.684 91.6085 250.684Z" fill="#CC8170" stroke="black" stroke-width="1.62" stroke-linecap="round" stroke-linejoin="round"/>
<path fill-rule="evenodd" clip-rule="evenodd" d="M80.5341 208.57C80.5341 208.57 91.5045 204.292 94.6381 213.703C97.7726 223.115 90.8858 225.397 92.4536 232.526C94.0204 239.656 88.0649 241.082 88.692 242.793C88.9285 243.438 93.12 242.433 96.1494 246.971C99.1789 251.509 98.1045 258.769 89.3191 260.19C75.2151 262.471 63.2957 257.338 59.8476 251.919C56.3996 246.5 64.8625 243.934 63.6083 239.656C62.3551 235.378 61.1009 231.1 67.0564 225.682C65.8031 219.977 65.176 207.429 80.5341 208.57Z" fill="#F4E39A" stroke="black" stroke-width="1.62"/>
<path fill-rule="evenodd" clip-rule="evenodd" d="M89.9364 249.636C89.9364 249.636 100.908 255.625 98.3993 267.889C95.8919 280.152 99.2573 297.488 102.705 307.185C81.5082 314.291 60.6687 309.578 60.6687 309.578C60.6687 309.578 51.7251 257.242 68.3102 248.02C79.4542 241.824 89.9364 249.636 89.9364 249.636Z" fill="#E0E5AC"/>
<path fill-rule="evenodd" clip-rule="evenodd" d="M89.9364 249.636C89.9364 249.636 100.908 255.625 98.3993 267.889C95.8919 280.152 99.2573 297.488 102.705 307.185C81.5082 314.291 60.6687 309.578 60.6687 309.578C60.6687 309.578 51.7251 257.242 68.3102 248.02C79.4542 241.824 89.9364 249.636 89.9364 249.636Z" stroke="black" stroke-width="1.62" stroke-linecap="round" stroke-linejoin="round"/>
<path fill-rule="evenodd" clip-rule="evenodd" d="M91.504 217.126C91.504 217.126 94.6385 221.404 93.3843 225.968C92.1311 230.53 95.8918 232.812 95.8918 232.812L92.1311 233.097C92.1311 233.097 92.1217 243.238 84.4089 239.709C84.3704 239.693 84.3328 239.674 84.2943 239.657C83.7743 243.937 81.4414 244.088 86.4572 247.226C91.4721 250.363 83.7245 256.699 77.0865 252.205C73.7164 249.923 73.1682 247.713 74.5791 243.65C77.5428 235.11 77.7136 229.104 75.2053 226.252C72.6978 223.401 80.8472 223.401 80.5337 218.837C80.2201 214.275 86.1756 213.134 91.504 217.126Z" fill="#CC8170" stroke="black" stroke-width="1.62" stroke-linecap="round" stroke-linejoin="round"/>
<path fill-rule="evenodd" clip-rule="evenodd" d="M108.742 243.506L125.863 241.269L119.526 264.918L102.405 267.155L108.742 243.506Z" fill="white" stroke="black" stroke-width="1.62" stroke-linecap="round" stroke-linejoin="round"/>
<path fill-rule="evenodd" clip-rule="evenodd" d="M68.7025 252.191C68.7025 252.191 62.3284 248.62 59.6266 256.121C56.9258 263.62 64.5682 290.56 70.9387 293.685C77.3081 296.811 101.426 275.421 103.198 273.394C104.971 271.367 112.763 269.619 113.881 267.237C114.999 264.855 116.893 257.913 112.191 259.678C107.488 261.442 104.415 263.427 104.415 263.427C104.415 263.427 102.247 257.27 101.124 258.985C99.9998 260.698 100.561 267.639 99.4309 268.688C98.3016 269.735 76.145 281.505 76.145 281.505C76.145 281.505 74.5904 256.051 68.7025 252.191Z" fill="#CC8170" stroke="black" stroke-width="1.62" stroke-linecap="round" stroke-linejoin="round"/>
<path fill-rule="evenodd" clip-rule="evenodd" d="M87.3796 228.585C86.9768 228.379 86.883 228.006 86.8257 227.621C86.7262 226.948 86.8182 226.194 87.5213 225.814C88.1109 225.495 88.9895 225.598 89.3162 226.193C89.4843 226.499 89.4054 226.881 89.0656 227.063C89.0046 227.095 88.936 227.114 88.8666 227.128C89.075 227.63 89.0402 228.19 88.461 228.525C88.1437 228.708 87.7166 228.76 87.3796 228.585Z" fill="black"/>
<path fill-rule="evenodd" clip-rule="evenodd" d="M87.4071 223.386C86.4486 223.67 86.0393 222.299 86.9921 222.015C88.2191 221.65 89.555 221.958 90.474 222.774C91.195 223.413 90.0891 224.418 89.37 223.778C88.8302 223.299 88.1149 223.175 87.4071 223.386Z" fill="black"/>
<path fill-rule="evenodd" clip-rule="evenodd" d="M84.7284 233.952C85.6868 234.613 86.8087 234.835 87.9737 234.538C88.7369 234.342 89.0617 235.422 88.3013 235.616C86.8528 235.986 85.3113 235.748 84.1078 234.917C83.4864 234.488 84.0975 233.516 84.7284 233.952Z" fill="black"/>
</g>
<rect x="39" y="283.199" width="96" height="75.6" rx="2.4" fill="#FFE7E7"/>
<rect x="39" y="283.199" width="96" height="75.6" rx="2.4" fill="#FED6D6"/>
<mask id="mask3" mask-type="alpha" maskUnits="userSpaceOnUse" x="39" y="283" width="96" height="76">
<rect x="39" y="283.199" width="96" height="75.6" rx="2.4" fill="white"/>
</mask>
<g mask="url(#mask3)">
<path fill-rule="evenodd" clip-rule="evenodd" d="M82.3666 312.63L80.8292 314.673L93.1377 324.09C93.1377 324.09 92.5383 337.628 90.9333 339.526C90.7512 339.741 92.1083 339.39 91.8904 339.526C85.6195 343.447 70.401 348.251 66.246 341.877C62.1269 335.557 69.0369 318.135 70.6951 304.653C73.0498 291.046 83.507 287.056 91.8904 290.227C113.745 299.987 91.0233 312.63 82.3666 312.63Z" fill="#3C3C3C" stroke="black" stroke-width="1.4448"/>
<path fill-rule="evenodd" clip-rule="evenodd" d="M99.9508 310.046C102.05 312.88 102.05 314.474 102.05 314.474L99.0759 315.005C99.0759 315.005 97.6711 322.286 97.4675 323.051C97.2345 323.926 94.1768 325.809 90.5024 324.038C88.7527 329.351 87.178 332.185 87.178 332.185C87.178 332.185 92.777 335.373 93.127 338.915C93.4769 342.457 98.901 350.073 95.4016 352.198C91.9022 354.324 75.1051 346.177 71.2557 338.738C67.4062 331.299 74.5801 327.934 74.5801 327.934C74.5801 327.934 79.8292 325.632 79.8292 319.964C79.8292 314.297 78.0795 309.692 80.3541 308.629C82.6288 307.567 83.3286 311.286 83.3286 311.286C83.3286 311.286 87.287 309.19 89.4526 307.035C91.6181 304.881 90.5928 303.6 92.3425 303.246C94.0922 302.891 94.8766 298.18 94.8766 298.18C94.8766 298.18 101.176 302.076 99.9508 310.046Z" fill="#FFF4E5"/>
<path fill-rule="evenodd" clip-rule="evenodd" d="M94.7901 297.709C94.7901 297.709 101.176 302.191 99.9508 310.217C102.05 313.072 102.05 314.677 102.05 314.677L99.0759 315.212C99.0759 315.212 99.2156 321.433 96.5452 323.821C93.8749 326.209 91.2884 324.636 90.0046 323.821C88.2549 329.172 87.178 332.514 87.178 332.514C87.178 332.514 92.777 335.725 93.127 339.292C93.4769 342.86 98.901 350.53 95.4016 352.671C91.9022 354.811 75.1051 346.606 71.2557 339.114C67.4062 331.622 74.5801 328.233 74.5801 328.233C74.5801 328.233 79.8292 325.914 79.8292 320.206C79.8292 314.498 78.0795 309.861 80.3541 308.79C82.6288 307.72 83.3286 311.466 83.3286 311.466C83.3286 311.466 87.178 309.719 89.4526 307.185C91.7272 304.651 94.7901 297.709 94.7901 297.709Z" stroke="black" stroke-width="1.4448" stroke-linecap="round" stroke-linejoin="round"/>
<path fill-rule="evenodd" clip-rule="evenodd" d="M73.6316 331.122C75.4706 333.198 81.0793 340.393 84.9413 342.247C87.3664 343.411 88.9525 339.811 88.9525 339.811C88.9525 339.811 90.7135 334.324 88.9525 332.723C95.8205 334.146 100.752 343.042 101.632 350.337C102.513 357.632 106.563 378.448 105.682 383.252C104.802 388.056 103.041 388.768 102.689 390.369C102.337 391.97 97.2293 396.952 88.4242 395.885C79.6191 394.817 74.6987 402.184 72.9377 402.007C71.7234 401.884 58.784 410.736 56.5352 402.007C54.2851 393.272 59.9382 374.009 59.7195 366.884C59.0151 343.932 55.4931 340.729 65.5309 332.189C65.5309 332.189 70.6379 327.741 73.6316 331.122Z" fill="#FAE5FF"/>
<path fill-rule="evenodd" clip-rule="evenodd" d="M65.4754 332.189C65.4754 332.189 70.5894 327.741 73.5873 331.122C91.2377 354.651 90.6927 334.324 88.9293 332.723C95.8067 334.146 100.745 343.042 101.626 350.337C102.508 357.632 106.564 378.448 105.682 383.252C104.801 388.056 103.037 388.768 102.684 390.369C102.332 391.97 97.2175 396.952 88.4003 395.885C79.583 394.817 75.3507 404.72 73.5873 404.542C72.2959 404.412 58.2487 406.461 55.0944 396.979C53.9414 393.512 59.8448 373.028 59.656 366.884C58.9506 343.932 55.4237 340.729 65.4754 332.189Z" stroke="black" stroke-width="1.4448" stroke-linecap="round" stroke-linejoin="round"/>
<path d="M90.3114 324.18C90.3114 324.18 88.5899 323.207 87.0245 321.344" stroke="black" stroke-width="1.4448" stroke-linecap="round" stroke-linejoin="round"/>
<path fill-rule="evenodd" clip-rule="evenodd" d="M95.0305 311.73C94.5731 311.397 94.3898 310.692 94.671 310.145C94.9316 309.637 95.4852 309.422 95.97 309.573C96.2695 309.666 96.4828 310.062 96.3844 310.411C96.3803 310.425 96.374 310.438 96.3692 310.452C96.4467 310.733 96.4265 311.056 96.3148 311.325C96.0877 311.872 95.4707 312.051 95.0305 311.73Z" fill="black"/>
<path fill-rule="evenodd" clip-rule="evenodd" d="M95.737 308.128C95.2081 308.058 94.7026 308.235 94.409 308.721C93.9441 309.492 92.7689 308.78 93.2368 308.005C93.7651 307.13 94.7374 306.577 95.737 306.709C96.1007 306.757 96.4157 307.001 96.4157 307.418C96.4157 307.765 96.1033 308.177 95.737 308.128Z" fill="black"/>
<path fill-rule="evenodd" clip-rule="evenodd" d="M55.8972 345.473C54.9908 354.525 52.2716 372.096 52.2716 372.096C52.2716 372.096 49.3711 376.883 58.0726 378.658L66.7741 380.433L72.9377 371.031L64.5987 369.079C64.5987 369.079 69.8559 352.395 69.312 344.94C68.7682 337.486 67.3179 333.936 62.9672 334.114C62.9672 334.114 56.8036 336.421 55.8972 345.473Z" fill="#FAE5FF"/>
<path fill-rule="evenodd" clip-rule="evenodd" d="M63.7084 333.167C63.7084 333.167 57.3948 335.555 56.4663 344.922C55.5378 354.29 52.7524 369.524 52.7524 369.524C52.7524 369.524 49.7813 377.422 58.6946 379.259L85.876 380.431L92.1896 367.757L65.3796 366.402C65.3796 366.402 70.7647 352.086 70.2077 344.371C69.6506 336.657 68.165 332.983 63.7084 333.167Z" fill="#FAE5FF" stroke="black" stroke-width="1.4448" stroke-linecap="round" stroke-linejoin="round"/>
<path fill-rule="evenodd" clip-rule="evenodd" d="M96.4157 317.549C96.4157 317.549 94.516 317.816 92.8175 316.746C91.119 315.676 93.2578 321.647 94.6166 320.786C95.9754 319.926 96.4157 317.549 96.4157 317.549Z" fill="#FA655F" stroke="black" stroke-width="1.4448" stroke-linejoin="round"/>
</g>
<path d="M206.528 75.7408V74.3056H198.931V71.716H206.466V70.2496H197.106V75.7408H206.528ZM202.628 83.4316V78.7984H208.026V77.3632H195.468V78.7984H200.803V83.4316H202.628ZM220.79 83.4316V69.532H219.043V83.4316H220.79ZM218.107 82.792V69.7972H216.407V74.602H214.894V76.0684H216.407V82.792H218.107ZM215.096 78.3772C213.911 78.6112 212.866 78.6892 211.259 78.6892V76.084H214.332V70.9828H209.418V72.4492H212.522V74.6332H209.418V80.1868H210.541C212.132 80.1868 214.098 80.0776 215.284 79.7812L215.096 78.3772ZM233.945 83.4316V69.532H232.135V83.4316H233.945ZM222.853 75.46C222.853 78.3772 224.179 80.4052 226.441 80.4052C228.719 80.4052 230.045 78.3616 230.045 75.46C230.045 72.5272 228.719 70.4836 226.441 70.4836C224.179 70.4836 222.853 72.5272 222.853 75.46ZM228.298 75.46C228.298 77.644 227.518 78.9388 226.441 78.9388C225.396 78.9388 224.632 77.644 224.632 75.46C224.632 73.2604 225.396 71.95 226.441 71.95C227.518 71.95 228.298 73.2604 228.298 75.46ZM251.556 79.6096V69.532H249.731V79.6096H251.556ZM251.853 83.0572V81.622H244.037V78.7048H242.196V83.0572H251.853ZM248.514 76.0996C246.907 75.5692 245.301 73.8376 245.301 71.7004V70.3276H243.397V71.794C243.397 73.8844 242.071 75.694 240.043 76.4272L241.151 77.878C242.43 77.4256 243.943 75.9904 244.365 74.5708C244.973 75.85 246.424 77.1448 247.485 77.5504L248.514 76.0996ZM264.508 70.2808H254.945V71.7316H262.698C262.698 73.042 262.558 75.1168 262.324 76.2556H253.557V77.6908H256.474V83.4472H258.315V77.6908H261.294V83.4472H263.119V77.6908H266.115V76.2556H264.055C264.367 74.5864 264.508 72.262 264.508 70.2808ZM282.665 83.4316V69.532H280.824V74.2276H278.313V75.772H280.824V83.4316H282.665ZM279.608 78.97C277.517 77.6284 276.269 75.4756 276.269 72.73V70.702H274.397V72.8236C274.397 75.5848 273.18 77.7844 270.95 79.2352L272.042 80.5768C273.492 79.7968 274.912 78.034 275.364 76.4428C275.832 77.8936 277.408 79.6408 278.562 80.3428L279.608 78.97ZM296.132 83.4316V69.532H294.322V83.4316H296.132ZM291.904 79.9996V70.624H290.063V73.9936H287.146V70.6552H285.336V79.9996H291.904ZM290.063 78.5644H287.146V75.4288H290.063V78.5644ZM310.706 81.622V80.1712H298.148V81.622H310.706ZM310.44 75.928C308.319 75.5692 305.386 73.744 305.386 71.2948V70.3744H303.483V71.2948C303.483 73.7596 300.722 75.6004 298.444 75.928L299.302 77.41C301.221 76.9888 303.701 75.5068 304.419 73.6348C305.214 75.46 307.617 76.9108 309.52 77.3476L310.44 75.928ZM206.965 104.432V90.532H205.14V104.432H206.965ZM202.691 91.9828H196.201V93.496H200.725C200.476 96.2572 198.401 99.1588 195.359 100.547L196.482 101.92C200.725 99.6112 202.582 96.1792 202.691 91.9828ZM216.859 96.2104C216.859 95.0092 215.455 94.3072 213.552 94.3072C211.649 94.3072 210.276 95.0092 210.276 96.2104C210.276 97.1776 211.228 97.8016 212.632 97.9888V98.6908C211.415 98.722 210.136 98.7376 208.903 98.7376C208.981 99.2212 209.075 99.7204 209.137 100.204C211.727 100.204 215.596 100.032 218.138 99.6892L217.998 98.3164C216.968 98.4412 215.752 98.5504 214.457 98.6284V98.0044C215.876 97.8172 216.859 97.1776 216.859 96.2104ZM210.838 100.812V102.216H218.684V104.463H220.525V100.812H210.838ZM220.525 90.532H218.7V100.188H220.525V90.532ZM217.514 94.0108V92.638H209.699V94.0108H217.514ZM211.633 92.1544H215.564V90.8128H211.633V92.1544ZM215.05 96.2104C215.05 96.5848 214.535 96.85 213.552 96.85C212.585 96.85 212.054 96.5848 212.054 96.2104C212.054 95.8048 212.585 95.524 213.552 95.524C214.535 95.524 215.05 95.8048 215.05 96.2104ZM222.448 104.666H223.914L225.037 101.514H223.072L222.448 104.666ZM242.317 104.432V90.532H240.585V95.9764H239.353V90.7816H237.653V103.792H239.353V97.4272H240.585V104.432H242.317ZM236.389 92.17H231.007V93.6364H234.626C234.392 96.3976 232.879 98.8312 230.165 100.454L231.35 101.717C234.751 99.4864 236.405 96.3196 236.389 92.17ZM250.901 97.084V91.0312H249.075V92.8096H246.127V91.0624H244.333V97.084H250.901ZM249.075 95.6644H246.127V94.2448H249.075V95.6644ZM256.797 94.8844V93.3868H254.847V90.532H252.991V97.5832H254.847V94.8844H256.797ZM255.237 104.322V102.856H247.578V101.982H254.847V98.3008H245.659V99.7516H252.991V100.641H245.768V104.322H255.237ZM274.409 97.7236V96.226H272.568V90.532H270.758V104.432H272.568V97.7236H274.409ZM270.088 101.171L269.947 99.7828C268.84 99.9232 267.545 100.017 265.844 100.11V96.2728H264.097V100.188C263.161 100.204 262.241 100.204 261.242 100.204L261.476 101.686C262.553 101.686 263.692 101.655 265.127 101.592C266.749 101.499 268.793 101.343 270.088 101.171ZM269.448 92.0452H262.116V93.5116H267.592C267.592 94.9468 267.498 96.694 267.233 97.9264L268.98 98.1136C269.308 96.6472 269.448 94.744 269.448 92.0452ZM286.658 101.655C286.658 99.9232 284.864 98.8624 281.791 98.8624C278.718 98.8624 276.924 99.9232 276.924 101.655C276.924 103.34 278.718 104.4 281.791 104.4C284.864 104.4 286.658 103.34 286.658 101.655ZM275.551 93.0124H278.312C278.203 94.9936 276.924 96.46 274.974 97.162C275.348 97.63 275.692 98.098 276.066 98.5816C277.408 98.1136 278.874 96.8032 279.295 95.4616C279.888 96.7252 281.245 97.7704 282.306 98.176C282.634 97.6924 282.977 97.2244 283.289 96.7408C281.776 96.2416 280.372 94.9468 280.231 93.0124H282.868V91.5148H275.551V93.0124ZM282.649 95.3212H284.74V98.8H286.565V90.532H284.74V93.8548H282.649V95.3212ZM281.791 100.329C283.71 100.329 284.802 100.812 284.802 101.655C284.802 102.466 283.71 102.95 281.791 102.95C279.904 102.95 278.796 102.466 278.796 101.655C278.796 100.812 279.904 100.329 281.791 100.329Z" fill="#222222"/>
<path d="M286.5 182.101H588.3" stroke="#CCCCCC" stroke-width="1.2" stroke-linecap="square"/>
<path d="M286.5 272.101L559.2 272.401" stroke="#CCCCCC" stroke-width="1.2" stroke-linecap="square"/>
<g clip-path="url(#clip1)">
<circle cx="256.2" cy="181.8" r="47.4" fill="#D4EBFF"/>
<rect x="225.6" y="173.4" width="59.4" height="6" fill="#B3CDE4"/>
<rect x="237.6" y="186" width="36" height="6" fill="#B3CDE4"/>
</g>
<g clip-path="url(#clip2)">
<circle cx="368.4" cy="181.8" r="47.4" fill="#D4EBFF"/>
<rect x="339" y="173.4" width="59.4" height="6" fill="#B3CDE4"/>
<rect x="344.4" y="186" width="48" height="6" fill="#B3CDE4"/>
<circle cx="478.2" cy="181.8" r="47.4" fill="#0058FF"/>
<rect x="454.2" y="177.6" width="48" height="6" fill="#E1EBFF"/>
<circle cx="588" cy="181.8" r="47.4" fill="#0058FF"/>
<rect x="564" y="173.4" width="48" height="6" fill="#E1EBFF"/>
<rect x="576" y="186" width="24" height="6" fill="#E1EBFF"/>
</g>
<circle cx="314.4" cy="271.8" r="47.4" fill="#EEEEEE"/>
<circle cx="421.2" cy="271.8" r="47.4" fill="#6AD784"/>
<rect x="391.8" y="261.6" width="59.4" height="6" fill="#D6F4DD"/>
<rect x="403.8" y="274.199" width="36" height="6" fill="#D6F4DD"/>
<circle cx="531" cy="271.8" r="47.4" fill="#EEEEEE"/>
<rect x="501.6" y="261.6" width="59.4" height="6" fill="#D1D1D1"/>
<rect x="513.6" y="274.199" width="36" height="6" fill="#D1D1D1"/>
<rect x="285" y="261.6" width="59.4" height="6" fill="#D1D1D1"/>
<rect x="297" y="274.199" width="36" height="6" fill="#D1D1D1"/>
</g>
<rect x="39" y="40" width="96" height="76" fill="#FFC1C3"/>
<mask id="mask4" mask-type="alpha" maskUnits="userSpaceOnUse" x="39" y="40" width="96" height="76">
<rect x="39" y="40" width="96" height="76" fill="#2E6450"/>
</mask>
<g mask="url(#mask4)">
<g clip-path="url(#clip3)">
<path d="M96.4754 101.894C96.4754 101.894 99.7633 104.844 101.343 105.539C104.049 106.733 108.214 107.979 112.15 109.417C116.082 110.859 120.783 111.467 124.1 117.365C127.417 123.264 132.303 143.999 132.303 143.999H84.6384H36.9736C36.9736 143.999 41.8562 123.264 45.1768 117.365C48.4975 111.467 53.1944 110.859 57.1267 109.417C61.059 107.975 64.2513 106.805 68.3183 105.05C69.9021 104.365 72.0705 101.468 72.0705 101.468C72.0705 101.468 73.0526 99.4004 83.5534 99.4004C94.0541 99.4004 96.4754 101.894 96.4754 101.894Z" fill="#3F3131"/>
<path d="M76.4027 90.291C76.4027 90.291 78.5764 97.6496 73.8831 102.416C73.8831 102.416 75.4888 107.83 84.1399 107.83C92.791 107.83 95.4599 102.416 95.4599 102.416C90.7666 97.6496 92.9403 90.291 92.9403 90.291H76.4027Z" fill="#E4AC89"/>
<path d="M73.8861 102.416C73.8861 102.416 78.7651 99.765 87.2123 94.7367L76.4021 90.291C76.4021 90.291 75.3352 99.0222 73.8861 102.416Z" fill="#291213"/>
<path d="M98.2231 69.5686C98.2231 69.5686 98.041 76.3919 97.6769 80.8122C97.3128 85.2324 93.69 93.8798 84.6493 93.8798C75.6086 93.8798 71.9858 85.2324 71.6217 80.8122C71.2576 76.3919 71.0755 69.5686 71.0755 69.5686C71.1447 65.7674 71.8802 52.2773 84.6493 52.2773C97.4184 52.2773 98.2231 67.3658 98.2231 69.5686Z" fill="#E4AC89"/>
<path d="M86.7389 69.063V68.0396C86.7957 67.8122 87.08 67.3574 87.7622 67.3574H92.5378C93.1063 67.4143 94.3116 67.7326 94.5844 68.5513L94.9124 69.6992C94.9215 69.7158 94.9256 69.7313 94.9256 69.7452L94.9124 69.6992C94.8469 69.5794 94.5196 69.4041 93.5611 69.4041H86.7389V69.063Z" fill="#7D6B67"/>
<path d="M81.1096 69.063V68.0396C81.0527 67.8122 80.7684 67.3574 80.0862 67.3574H75.3107C74.7422 67.4143 73.5369 67.7326 73.264 68.5513L72.936 69.6992C72.927 69.7158 72.9229 69.7313 72.9229 69.7452L72.936 69.6992C73.0016 69.5794 73.3288 69.4041 74.2873 69.4041H81.1096V69.063Z" fill="#7D6B67"/>
<path d="M71.2247 73.8192C71.2247 73.8192 70.3946 69.3262 67.54 69.5701C64.6891 69.8141 65.1114 74.3654 66.0836 76.4881C67.0558 78.6108 68.9054 80.9484 71.6216 80.81L71.2247 73.8192Z" fill="#E4AC89"/>
<path d="M98.0625 73.8192C98.0625 73.8192 98.8926 69.3262 101.747 69.5701C104.598 69.8141 104.176 74.3654 103.204 76.4881C102.231 78.6108 100.382 80.9484 97.6656 80.81L98.0625 73.8192Z" fill="#E4AC89"/>
<path d="M94.1966 57.0884C94.1966 57.0884 93.796 61.5414 95.6384 64.3923C97.4371 67.1741 97.9359 69.1257 97.5172 71.6817C97.0948 74.2595 97.6737 80.8134 97.6737 80.8134C97.6737 80.8134 98.7078 79.9942 98.8534 77.6566C99.2467 71.3904 101.744 69.5699 101.744 69.5699C101.744 69.5699 103.758 64.3632 103.933 61.9456C104.107 59.5425 102.808 50.9751 97.8813 52.2786C97.8813 52.2786 98.868 46.6641 91.0689 45.2259C83.2225 43.7768 81.0306 49.7736 81.0306 49.7736C81.0306 49.7736 77.0691 47.1775 71.6185 50.6583C65.7455 54.4122 68.793 61.3994 68.793 61.3994C68.793 61.3994 66.856 62.0075 66.4336 66.0017C66.1897 68.2737 68.2578 69.4789 68.9751 70.8151C70.3295 73.3384 69.9108 73.8517 70.2458 76.273C70.406 77.4309 71.5347 80.3219 71.6185 80.8098C71.6185 80.8098 70.7738 66.6243 73.9669 64.4652C73.9669 64.4652 78.0959 65.9398 81.5731 62.8595C84.8937 59.9248 90.5956 54.5069 94.1966 57.0884Z" fill="#776B67"/>
<path d="M84.6748 97.2536C93.883 97.2536 97.6005 90.8271 97.8845 88.4168C98.569 82.5947 98.7038 80.7269 98.7038 80.7269C98.7038 80.7269 98.864 77.49 98.8749 77.3407C98.8749 77.3407 98.4853 78.3202 97.677 80.8106C96.592 84.1495 94.8188 89.3015 92.8927 89.7931C89.3681 90.696 87.8607 89.1413 85.1846 88.9593C82.5084 88.7772 80.2255 91.5189 76.8102 90.2409C74.3743 89.3307 72.2953 81.6153 71.5889 80.3191C71.5999 80.4684 70.2527 76.2266 70.2527 76.2266C70.3874 78.8663 70.6314 85.0306 71.6254 88.5369C72.43 91.3951 75.4994 97.2536 84.6748 97.2536Z" fill="#776B67"/>
<path d="M89.8379 83.7305L79.4666 83.8203C79.4666 83.8203 78.4629 88.1649 84.5026 88.1649C91.3435 88.1649 89.8379 83.7305 89.8379 83.7305Z" fill="white"/>
<path d="M79.1288 75.1921C79.7884 75.1921 80.3231 74.4618 80.3231 73.5609C80.3231 72.66 79.7884 71.9297 79.1288 71.9297C78.4693 71.9297 77.9346 72.66 77.9346 73.5609C77.9346 74.4618 78.4693 75.1921 79.1288 75.1921Z" fill="#311E17"/>
<path d="M90.3926 75.1921C91.0521 75.1921 91.5868 74.4618 91.5868 73.5609C91.5868 72.66 91.0521 71.9297 90.3926 71.9297C89.733 71.9297 89.1983 72.66 89.1983 73.5609C89.1983 74.4618 89.733 75.1921 90.3926 75.1921Z" fill="#311E17"/>
<path d="M83.0255 72.3901C83.0255 72.3901 84.3107 71.3233 86.5973 72.5613" stroke="#2B1813" stroke-width="1.36444" stroke-miterlimit="10" stroke-linecap="round" stroke-linejoin="round"/>
<path d="M67.5837 72.6387C67.5837 72.6387 69.2076 73.345 69.8703 75.9484" stroke="#311E17" stroke-width="0.341111" stroke-miterlimit="10" stroke-linecap="round" stroke-linejoin="round"/>
<path d="M90.988 82.5374C89.426 81.3686 85.0895 81.7873 84.6744 81.831C84.2594 81.7873 79.9265 81.3686 78.3609 82.5374C76.7188 83.7681 77.4652 85.8057 77.8366 85.9805C77.8366 85.9805 78.958 85.1699 79.9265 85.1699C80.8987 85.1699 83.6586 85.3228 84.4087 84.1904C84.5252 84.0157 84.6089 83.8409 84.6708 83.6661C84.7363 83.8409 84.8201 84.0157 84.933 84.1904C85.6794 85.3191 88.4429 85.1699 89.4151 85.1699C90.3872 85.1699 91.505 85.9805 91.505 85.9805C91.8837 85.8057 92.6301 83.7681 90.988 82.5374Z" fill="#5B5050"/>
<path d="M102.199 72.8613C102.199 72.8613 100.342 73.1526 99.37 76.5169" stroke="#311E17" stroke-width="0.341111" stroke-miterlimit="10" stroke-linecap="round" stroke-linejoin="round"/>
<path d="M87.3437 80.8184L84.6748 81.9507L82.4465 80.8184" stroke="#311E17" stroke-width="0.341111" stroke-miterlimit="10" stroke-linecap="round" stroke-linejoin="round"/>
<path d="M84.6489 74.9043L84.6743 79.6231" stroke="#311E17" stroke-width="0.341111" stroke-miterlimit="10" stroke-linecap="round" stroke-linejoin="round"/>
<path d="M94.1962 57.088C94.1962 57.088 94.877 53.8766 92.9254 53.2285C90.9738 52.5804 87.6423 57.1863 87.6423 57.1863L85.8837 59.2035C85.8837 59.2035 88.3814 57.4194 89.4082 57.0407C90.435 56.662 92.1717 55.7445 94.1962 57.088Z" fill="#4B3F3D"/>
<path d="M81.0339 49.7737C81.0339 49.7737 81.5691 53.6295 79.1296 55.6503C79.1296 55.6503 80.0144 50.6512 78.7655 48.9727C78.7655 48.9727 80.7681 49.3477 81.0339 49.7737Z" fill="#4B3F3D"/>
<path d="M68.7993 61.4023C68.7993 61.4023 71.0895 64.6502 73.9695 64.4681C73.9695 64.4681 69.3745 67.4392 68.7993 61.4023Z" fill="#4B3F3D"/>
<path d="M97.8117 73.7755H96.5483L96.3408 71.6055H97.8117V73.7755Z" fill="#2B1813"/>
<path d="M73.1037 73.7755H71.538V71.6055H73.4496L73.1037 73.7755Z" fill="#2B1813"/>
<path d="M96.9159 57.0254C96.9159 57.0254 96.3334 60.9395 97.7716 63.2989" stroke="#6B5E5B" stroke-width="0.511666" stroke-miterlimit="10" stroke-linecap="round" stroke-linejoin="round"/>
<path d="M127.949 146.308C127.949 146.308 124.276 116.147 122.451 111.337C120.626 106.528 116.848 109.405 113.887 105.796C110.925 102.182 110.412 99.3067 106.606 96.9332C102.798 94.5644 108.124 92.8482 110.727 95.1197C113.327 97.3959 114.679 99.6571 115.864 99.6921C117.05 99.727 116.529 95.534 116.407 93.4313C116.283 91.3252 114.804 88.898 114.164 85.5086C113.523 82.1192 111.987 77.5647 113.741 76.9997C115.494 76.4347 116.772 82.1093 117.398 84.0535C118.024 85.9977 119.628 89.9069 119.899 90.095C120.167 90.2842 120.526 89.8929 120.526 89.8929L117.881 81.6829C117.881 81.6829 115.552 75.3069 116.664 74.2599C117.779 73.2083 118.778 73.0929 119.425 75.0994C120.071 77.106 121.501 81.9703 122.15 83.559C122.8 85.1476 123.968 89.201 124.32 89.2253C124.672 89.2495 124.988 89.1479 124.988 89.1479C124.988 89.1479 123.946 84.8471 123.355 81.7173C122.76 78.5885 122.187 75.7283 123.668 75.3886C125.15 75.0488 126.112 78.8894 126.704 82.0193C127.295 85.1491 128.235 89.1346 128.784 90.4113C129.333 91.688 129.429 90.4788 129.429 90.4788C129.429 90.4788 128.521 83.5759 128.956 81.7069C129.39 79.8378 130.498 79.6187 131.073 82.2717C131.651 84.9201 132.037 89.7762 132.983 93.1399C133.928 96.5002 134.816 101.405 132.98 105.799C132.98 105.799 132.621 107.521 134.62 112.397C138.183 121.069 144.879 140.854 144.879 140.854L127.949 146.308Z" fill="#E4AC89"/>
<path d="M117.616 99.6172C117.616 99.6172 122.583 99.8606 124.852 103.188" stroke="#33120B" stroke-width="0.341111" stroke-miterlimit="10" stroke-linecap="round" stroke-linejoin="round"/>
<path d="M119.766 95.416C119.766 95.416 125.915 94.1733 128.494 94.448" stroke="#33120B" stroke-width="0.341111" stroke-miterlimit="10" stroke-linecap="round" stroke-linejoin="round"/>
<path opacity="0.3" d="M77.7274 78.3165C80.3335 78.3165 82.4462 76.2038 82.4462 73.5977C82.4462 70.9916 80.3335 68.8789 77.7274 68.8789C75.1213 68.8789 73.0086 70.9916 73.0086 73.5977C73.0086 76.2038 75.1213 78.3165 77.7274 78.3165Z" fill="#2B1813" stroke="#2B1813" stroke-width="0.511666" stroke-miterlimit="10"/>
<path opacity="0.3" d="M91.8321 78.3165C94.4382 78.3165 96.5509 76.2038 96.5509 73.5977C96.5509 70.9916 94.4382 68.8789 91.8321 68.8789C89.226 68.8789 87.1133 70.9916 87.1133 73.5977C87.1133 76.2038 89.226 78.3165 91.8321 78.3165Z" fill="#2B1813" stroke="#2B1813" stroke-width="0.511666" stroke-miterlimit="10"/>
<path d="M77.7274 78.3165C80.3335 78.3165 82.4462 76.2038 82.4462 73.5977C82.4462 70.9916 80.3335 68.8789 77.7274 68.8789C75.1213 68.8789 73.0086 70.9916 73.0086 73.5977C73.0086 76.2038 75.1213 78.3165 77.7274 78.3165Z" stroke="#2B1813" stroke-width="0.511666" stroke-miterlimit="10"/>
<path d="M91.8321 78.3165C94.4382 78.3165 96.5509 76.2038 96.5509 73.5977C96.5509 70.9916 94.4382 68.8789 91.8321 68.8789C89.226 68.8789 87.1133 70.9916 87.1133 73.5977C87.1133 76.2038 89.226 78.3165 91.8321 78.3165Z" stroke="#2B1813" stroke-width="0.511666" stroke-miterlimit="10"/>
<path d="M74.796 98.293C74.796 98.293 78.2769 104.945 84.1426 107.829L77.1865 111.189L71.6575 101.894L74.796 98.293Z" fill="white"/>
<path d="M93.4904 98.293C93.4904 98.293 90.0096 104.945 84.1439 107.829L92.0261 110.678L96.629 101.894L93.4904 98.293Z" fill="white"/>
</g>
</g>
<rect x="39" y="121" width="96" height="76" fill="#65338A"/>
<mask id="mask5" mask-type="alpha" maskUnits="userSpaceOnUse" x="39" y="121" width="96" height="76">
<rect x="39" y="121" width="96" height="76" fill="#2E6450"/>
</mask>
<g mask="url(#mask5)">
<path d="M100.172 181.223C100.172 181.223 110.684 186.03 117.194 189.126C123.365 192.061 129.926 221.772 129.926 221.772H87.1089H44.2919C44.2919 221.772 50.8817 192.123 57.0239 189.126C63.8028 185.819 73.8074 181.554 73.8074 181.554C73.8074 181.554 81.4434 177.906 87.6548 177.906C93.8661 177.906 100.172 181.223 100.172 181.223Z" fill="#7087D5"/>
<mask id="mask6" mask-type="alpha" maskUnits="userSpaceOnUse" x="44" y="177" width="86" height="45">
<path d="M100.172 181.223C100.172 181.223 110.684 186.03 117.194 189.126C123.365 192.061 129.926 221.772 129.926 221.772H87.1089H44.2919C44.2919 221.772 50.8817 192.123 57.0239 189.126C63.8028 185.819 73.8074 181.554 73.8074 181.554C73.8074 181.554 81.4434 177.906 87.6548 177.906C93.8661 177.906 100.172 181.223 100.172 181.223Z" fill="#7087D5"/>
</mask>
<g mask="url(#mask6)">
<path d="M45.0637 191.043H136.523" stroke="#5E3885" stroke-width="0.497452" stroke-miterlimit="10"/>
</g>
<path d="M102.512 162.662C102.848 163.508 102.825 164.971 102.825 164.971L104.649 168.785C104.649 168.785 105.659 172.072 104.095 173.604C102.817 174.855 100.998 174.784 99.8408 174.754C98.0687 174.714 96.8535 174.833 94.5792 174.509C92.869 174.266 91.2753 173.236 91.2753 173.236L93.7169 169.959L93.182 164.805L102.512 162.662Z" fill="white"/>
<path d="M99.343 162.08C97.9266 162.786 96.9551 164.248 96.9551 165.939C96.9551 168.319 98.8851 170.248 101.266 170.248C103.648 170.248 105.578 168.319 105.578 165.939C105.578 163.558 103.648 161.629 101.266 161.629" stroke="#54DBEE" stroke-width="0.663269" stroke-miterlimit="10" stroke-linecap="round" stroke-linejoin="round"/>
<path d="M94.6664 169.618C94.6664 169.618 93.1127 175.739 97.5483 181.334C97.5483 181.334 94.746 184.662 90.3892 185.533C88.731 185.865 82.9315 187.027 79.26 180.803L79.9223 159.895H83.2954L94.6664 169.618Z" fill="#FFC8B8"/>
<path d="M94.5031 170.604L85.0351 165.85C85.0351 165.85 86.4615 173.998 95.3946 177.58C95.3909 177.584 94.0628 174.63 94.5031 170.604Z" fill="#2C1912"/>
<path d="M105.976 136.119C105.976 136.119 108.45 139.444 106.977 144.623L103.32 138.163L105.976 136.119Z" fill="white"/>
<path d="M104.717 138.284C104.717 138.284 109.292 133.964 105.81 131.477C102.494 129.321 98.8459 130.814 98.8459 130.814C98.8459 130.814 94.3509 127 86.5754 127C80.2741 127 72.3553 130.873 69.4961 136.949C66.8431 142.587 69.1645 148.39 68.0038 152.536C66.8431 156.681 64.6874 159.666 62.6976 163.811C60.7078 167.957 60.0445 170.776 60.0445 170.776C60.0445 170.776 59.3814 174.092 62.366 175.75C65.3506 177.408 66.6772 177.574 69.4961 177.906C72.315 178.238 73.4757 178.05 75.6312 177.906C78.1622 177.737 79.6109 177.276 80.9374 176.745C82.2639 176.215 83.5272 175.102 83.852 173.364C84.0879 172.102 83.0224 167.421 82.3238 164.845C81.6288 162.266 82.1819 160.127 82.1819 160.127L104.717 138.284Z" fill="white"/>
<path d="M104.717 138.285C104.717 138.285 108.519 143.942 107.642 149.205C106.765 154.472 105.626 162.282 102.57 166.367C99.2877 170.757 87.4508 175.435 82.182 160.125C82.182 160.125 76.2799 159.896 76.0216 153.195C75.7632 146.495 82.4003 148.75 82.7241 152.42C82.7241 152.42 89.1028 151.969 92.1958 145.4C95.2887 138.831 99.5424 136.896 99.5424 136.896C99.5424 136.896 102.66 135.623 104.717 138.285Z" fill="#FFC8B8"/>
<path d="M103.359 154.027C104.767 155.811 105.358 155.756 105.31 156.489C105.265 157.222 102.903 157.904 101.996 158.007" stroke="#311E17" stroke-width="0.331635" stroke-miterlimit="10" stroke-linecap="round" stroke-linejoin="round"/>
<path d="M78.6161 152.701C78.6161 152.701 80.1085 153.364 80.7718 155.354" stroke="#311E17" stroke-width="0.331635" stroke-miterlimit="10" stroke-linecap="round" stroke-linejoin="round"/>
<path d="M101.333 146.4C101.333 146.4 100.338 143.912 94.7004 144.927" stroke="#311E17" stroke-width="0.663269" stroke-miterlimit="10" stroke-linecap="round" stroke-linejoin="round"/>
<path d="M107.73 148.602C107.73 148.602 107.137 147.231 105.81 147.894" stroke="#311E17" stroke-width="0.663269" stroke-miterlimit="10" stroke-linecap="round" stroke-linejoin="round"/>
<path d="M95.9511 134.473C95.9511 134.473 92.0031 136.932 89.4814 141.588C86.9598 146.244 84.7402 148.026 83.1428 148.804" stroke="#C5DFEB" stroke-width="0.447707" stroke-miterlimit="10" stroke-linecap="round" stroke-linejoin="round"/>
<path d="M84.8239 141.637C84.8239 141.637 82.7826 145.718 80.25 147.406" stroke="#C5DFEB" stroke-width="0.447707" stroke-miterlimit="10" stroke-linecap="round" stroke-linejoin="round"/>
<path d="M105.194 135.181C105.194 135.181 102.148 133.62 98.353 137.643" stroke="#C5DFEB" stroke-width="0.447707" stroke-miterlimit="10" stroke-linecap="round" stroke-linejoin="round"/>
<path d="M78.2845 158.836C76.8681 159.543 75.9738 160.883 75.9738 162.573C75.9738 164.954 77.9037 166.883 80.285 166.883C82.6663 166.883 84.5963 164.954 84.5963 162.573C84.5963 160.193 82.6663 158.264 80.285 158.264" stroke="#54DBEE" stroke-width="0.663269" stroke-miterlimit="10" stroke-linecap="round" stroke-linejoin="round"/>
<g filter="url(#filter0_f)">
<path d="M91.3101 160.742C93.2193 160.742 94.7669 159.194 94.7669 157.285C94.7669 155.376 93.2193 153.828 91.3101 153.828C89.401 153.828 87.8533 155.376 87.8533 157.285C87.8533 159.194 89.401 160.742 91.3101 160.742Z" fill="#E6735A" fill-opacity="0.4"/>
</g>
<path d="M97.829 149.323C99.9754 149.968 100.505 151.549 100.582 151.685C100.127 152.173 98.8166 152.833 97.0386 152.208C95.2606 151.584 94.3934 150.488 94.204 149.938C94.6969 149.518 96.1119 148.806 97.829 149.323Z" fill="white"/>
<mask id="mask7" mask-type="alpha" maskUnits="userSpaceOnUse" x="93" y="148" width="8" height="6">
<path d="M97.8282 149.325C99.9745 149.97 100.505 151.551 100.581 151.687C100.126 152.175 98.8157 152.835 97.0377 152.21C95.2597 151.585 94.3925 150.49 94.2031 149.94C94.696 149.52 96.1111 148.808 97.8282 149.325Z" fill="white"/>
</mask>
<g mask="url(#mask7)">
<circle cx="99.1295" cy="151.076" r="1.92628" transform="rotate(15.3177 99.1295 151.076)" fill="#311E17"/>
</g>
<path d="M104.057 152.694C105.136 151.235 106.77 151.463 107.452 151.759C107.988 152.804 107.349 153.885 106.962 154.295C105.46 154.218 104.4 153.195 104.057 152.694Z" fill="white"/>
<mask id="mask8" mask-type="alpha" maskUnits="userSpaceOnUse" x="103" y="150" width="6" height="5">
<path d="M104.058 152.694C105.137 151.235 106.771 151.463 107.453 151.759C107.989 152.804 107.35 153.885 106.963 154.295C105.461 154.218 104.401 153.195 104.058 152.694Z" fill="white"/>
</mask>
<g mask="url(#mask8)">
<circle cx="107.115" cy="152.909" r="1.75152" transform="rotate(22.2414 107.115 152.909)" fill="#311E17"/>
</g>
<path d="M100.738 151.9C100.475 151.434 99.7373 149.713 97.8514 149.31C95.5882 148.827 94.4949 149.746 94.0376 150.133" stroke="black" stroke-width="0.331635" stroke-linecap="round"/>
<path d="M104.044 152.726C104.666 151.948 106.005 150.71 107.635 151.872" stroke="black" stroke-width="0.331635" stroke-linecap="round" stroke-linejoin="round"/>
<path d="M99.7845 160.207L101.95 161.066C102.362 161.229 102.576 161.64 102.369 162.031C101.745 163.21 100.182 165.215 98.8863 164.251C97.8494 163.479 98.1458 161.849 98.5981 160.682C98.7798 160.213 99.317 160.022 99.7845 160.207Z" fill="#341C17"/>
<mask id="mask9" mask-type="alpha" maskUnits="userSpaceOnUse" x="97" y="159" width="6" height="6">
<path d="M99.7386 160.227L101.885 161.093C102.292 161.258 102.506 161.665 102.303 162.055C101.689 163.238 100.137 165.262 98.8438 164.287C97.8141 163.51 98.1003 161.878 98.5447 160.706C98.7248 160.231 99.2678 160.038 99.7386 160.227Z" fill="#341C17"/>
</mask>
<g mask="url(#mask9)">
<path d="M100.139 162.543C100.388 162.828 100.522 163.645 100.558 164.018C100.344 165.621 98.7144 164.392 98.3903 163.978C98.0662 163.564 98.1652 161.984 98.176 161.742C98.1868 161.5 98.3831 161.58 98.637 161.648C98.8908 161.717 99.8262 162.187 100.139 162.543Z" fill="#B6532F" stroke="#B6532F" stroke-width="0.331635"/>
</g>
<path d="M79.2794 180.56L79.4452 176.746C77.2896 177.575 75.7972 179.068 75.963 182.384C76.0957 185.037 80.4401 188.022 82.5957 189.182L86.2437 187.856V185.534L84.2539 185.203C81.7334 184.407 79.8873 181.776 79.2794 180.56Z" fill="white"/>
<path d="M95.3642 180.56L95.0323 176.746C97.1879 177.575 98.8463 179.068 98.6805 182.384C98.5479 185.037 94.2035 188.022 92.0478 189.182L88.3998 187.856V185.534L90.3897 185.203C92.9101 184.407 94.7562 181.776 95.3642 180.56Z" fill="white"/>
<path d="M86.3611 188.075C84.9375 192.603 78.9466 192.478 76.1292 191.849C79.4656 186.398 82.8021 185.35 84.804 185.56C86.4055 185.727 86.5093 187.307 86.3611 188.075Z" fill="white"/>
<path d="M86.4586 188.075C87.8821 192.603 93.873 192.478 96.6905 191.849C93.354 186.398 90.0175 185.35 88.0156 185.56C86.4141 185.727 86.3103 187.307 86.4586 188.075Z" fill="white"/>
<ellipse cx="86.5756" cy="187.193" rx="2.48726" ry="2.32144" fill="#7087D5"/>
<ellipse cx="86.5756" cy="187.192" rx="1.49236" ry="1.32654" fill="white"/>
</g>
<rect x="39" y="202" width="96" height="76" fill="#2E6450"/>
<mask id="mask10" mask-type="alpha" maskUnits="userSpaceOnUse" x="39" y="202" width="96" height="76">
<rect x="39" y="202" width="96" height="76" fill="#2E6450"/>
</mask>
<g mask="url(#mask10)">
<path d="M103.315 267.871C103.315 267.871 103.894 267.944 105.549 268.674C108.386 269.925 112.759 271.231 116.887 272.743C121.015 274.254 125.946 274.893 129.428 281.079C132.91 287.264 138.032 309.021 138.032 309.021H88.0217H38.0146C38.0146 309.021 43.1405 287.268 46.6188 281.079C50.0972 274.889 55.0322 274.254 59.16 272.743C63.2878 271.231 66.2305 270.516 70.4978 268.674C72.1599 267.955 72.7323 267.871 72.7323 267.871C72.7323 267.871 81.8317 265.523 87.7815 265.494C93.9181 265.465 103.315 267.871 103.315 267.871Z" fill="#9F5D40"/>
<path d="M101.751 309.027H73.9388L76.1403 269.373H99.9165L101.751 309.027Z" fill="white"/>
<path d="M96.8785 252.914H88.0285H79.1784C79.1784 252.914 80.9323 262.27 76.1404 269.439C76.1404 269.439 79.0794 276.733 88.0285 276.733C96.9776 276.733 99.9166 269.439 99.9166 269.439C95.1246 262.27 96.8785 252.914 96.8785 252.914Z" fill="#F2AEA2"/>
<path d="M78.563 264.093C78.563 264.093 83.9567 260.002 90.3924 258.619L79.3116 253.85C79.3152 253.853 79.9243 259.687 78.563 264.093Z" fill="#261313"/>
<path d="M103.084 235.002C103.084 235.002 102.673 241.247 101.436 245.565C99.7888 251.318 95.9656 258.876 87.9705 258.876C79.9717 258.876 76.1484 251.318 74.5046 245.565C73.2681 241.247 72.8572 235.002 72.8572 235.002C72.8572 235.002 73.2314 227.187 76.064 222.465C76.064 222.465 80.7239 220.664 87.9705 220.664C95.2171 220.664 100.112 222.036 100.112 222.036C100.112 222.036 103.084 229.334 103.084 235.002Z" fill="#F2AEA2"/>
<g clip-path="url(#clip4)">
<path d="M86.5277 241.526C86.5277 241.526 88.4647 244.434 90.0117 241.377" stroke="#311E17" stroke-width="0.487911" stroke-miterlimit="10" stroke-linecap="round" stroke-linejoin="round"/>
</g>
<path d="M71.8595 233.715C71.8595 233.715 68.3371 232.254 68.2527 237.666C68.1684 243.074 72.487 246.031 74.7068 246.226L74.2665 235.604L71.8595 233.715Z" fill="#F2AEA2"/>
<path d="M104.148 233.715C104.148 233.715 107.67 232.254 107.754 237.666C107.839 243.074 103.52 246.031 101.3 246.226L101.741 235.604L104.148 233.715Z" fill="#F2AEA2"/>
<path d="M70.2148 236.363C70.2148 236.363 72.1191 237.721 72.7355 239.43" stroke="#311E17" stroke-width="0.487911" stroke-miterlimit="10" stroke-linecap="round" stroke-linejoin="round"/>
<path d="M106.052 236.773C106.052 236.773 104.147 238.131 103.531 239.841" stroke="#311E17" stroke-width="0.487911" stroke-miterlimit="10" stroke-linecap="round" stroke-linejoin="round"/>
<path d="M98.618 221.687C98.618 221.687 97.7484 224.846 92.7877 225.749C92.7877 225.749 94.237 224.043 94.3985 222.788C94.3985 222.788 92.7877 225.91 89.247 226.329C89.247 226.329 90.1899 224.439 90.234 223.496C90.234 223.496 89.3754 225.815 85.4677 226.329C81.5601 226.842 78.8119 226.156 78.8119 226.156C78.8119 226.156 74.585 228.739 74.3171 236.935L71.8588 233.714C71.8588 233.714 70.6626 228.086 71.4772 224.138C72.2917 220.187 76.1884 214.621 82.6792 212.548C91.9548 209.587 93.5619 212.999 93.5619 212.999C93.5619 212.999 100.332 211.613 103.982 220.576C106.675 227.187 104.147 233.718 104.147 233.718L101.744 235.607C101.74 235.604 100.273 224.736 98.618 221.687Z" fill="#493531"/>
<path d="M100.753 223.926C100.753 223.926 101.44 226.201 103.373 226.975" stroke="#281A18" stroke-width="0.487911" stroke-miterlimit="10" stroke-linecap="round" stroke-linejoin="round"/>
<path d="M94.399 222.787C94.399 222.787 95.5584 221.393 95.8153 219.588" stroke="#281A18" stroke-width="0.487911" stroke-miterlimit="10" stroke-linecap="round" stroke-linejoin="round"/>
<path d="M90.2341 223.496C90.2341 223.496 92.2742 221.394 93.2392 219.332" stroke="#281A18" stroke-width="0.487911" stroke-miterlimit="10" stroke-linecap="round" stroke-linejoin="round"/>
<path d="M94.1277 239.05C94.7923 239.05 95.3312 238.315 95.3312 237.41C95.3312 236.504 94.7923 235.77 94.1277 235.77C93.463 235.77 92.9242 236.504 92.9242 237.41C92.9242 238.315 93.463 239.05 94.1277 239.05Z" fill="#311E17"/>
<path d="M81.8754 239.05C82.5401 239.05 83.0789 238.315 83.0789 237.41C83.0789 236.504 82.5401 235.77 81.8754 235.77C81.2108 235.77 80.6719 236.504 80.6719 237.41C80.6719 238.315 81.2108 239.05 81.8754 239.05Z" fill="#311E17"/>
<path d="M91.3793 232.684C91.3793 232.684 94.1112 230.908 97.7841 232.075" stroke="#493531" stroke-width="1.58347" stroke-miterlimit="10" stroke-linecap="round"/>
<path d="M84.7125 232.684C84.7125 232.684 82.1842 230.908 78.5114 232.075" stroke="#493531" stroke-width="1.58347" stroke-miterlimit="10" stroke-linecap="round"/>
<path d="M92.9662 246.744H88.2831H82.6633C82.0639 246.744 82.1638 247.369 82.2886 247.681C82.8506 248.992 85.0179 250.812 85.6605 251.24C86.2225 251.615 87.1591 251.802 87.9084 251.802C88.9574 251.802 90.0627 251.24 90.7183 250.678C91.4676 250.036 92.0296 249.554 92.5916 248.805C92.9095 248.381 93.3409 247.868 93.5282 247.493C93.9028 246.744 93.216 246.744 92.9662 246.744Z" fill="#3A1D1B"/>
<path d="M83.6902 247.868C83.3016 247.868 83.1282 247.447 82.5662 246.744H93.0564C92.6818 247.306 92.2794 247.868 91.8909 247.868H83.6902Z" fill="white"/>
<mask id="mask11" mask-type="alpha" maskUnits="userSpaceOnUse" x="82" y="246" width="12" height="6">
<path d="M92.964 246.742H88.2809H82.6611C82.0617 246.742 82.1616 247.367 82.2864 247.679C82.8484 248.99 85.0157 250.81 85.6583 251.238C86.2203 251.613 87.1569 251.8 87.9062 251.8C88.9553 251.8 90.0605 251.238 90.7161 250.676C91.4654 250.034 92.0274 249.552 92.5894 248.803C92.9073 248.379 93.3387 247.866 93.526 247.491C93.9006 246.742 93.2138 246.742 92.964 246.742Z" fill="#3A1D1B"/>
</mask>
<g mask="url(#mask11)">
<path d="M87.8782 248.99C86.1616 248.99 84.6198 250.15 84.0635 250.73C84.302 251.476 85.7324 252.52 87.6397 252.719C89.5471 252.918 91.4544 251.393 91.9312 250.73C91.2954 250.15 89.5947 248.99 87.8782 248.99Z" fill="#C06C61"/>
</g>
<path d="M73.1656 235.428L74.0683 239.486C74.127 239.743 74.5049 239.702 74.5049 239.438V234.676L73.1656 235.428Z" fill="#493531"/>
<path d="M103.531 234.199L102.17 239.501C102.097 239.787 101.671 239.736 101.671 239.438V234.676L103.531 234.199Z" fill="#493531"/>
<path d="M66.9344 273.357L63.5148 309.159" stroke="#DB8C35" stroke-width="0.658679" stroke-miterlimit="10" stroke-linecap="round" stroke-linejoin="round"/>
<path d="M107.267 273.357L110.683 309.159" stroke="#DB8C35" stroke-width="0.658679" stroke-miterlimit="10" stroke-linecap="round" stroke-linejoin="round"/>
<path d="M86.7042 214.914C86.7042 214.914 81.7288 211.858 77.3625 212.746C70.8314 214.074 73.5466 220.572 73.5466 220.572" fill="#493531"/>
<path d="M82.1712 214.021C82.1712 214.021 75.0103 216.673 71.1936 219.876C65.0081 224.96 72.169 227.683 72.169 227.683" fill="#493531"/>
<path d="M87.4171 215.206C87.4171 215.206 84.6872 212.237 75.452 218.122" stroke="#281A18" stroke-width="0.487911" stroke-miterlimit="10" stroke-linecap="round" stroke-linejoin="round"/>
<path d="M78.0419 225.449C75.8514 225.064 74.7067 223.497 74.7067 223.497C74.7067 223.497 76.9485 224.099 79.8472 222.488" stroke="#281A18" stroke-width="0.487911" stroke-miterlimit="10" stroke-linecap="round" stroke-linejoin="round"/>
</g>
<rect x="39" y="283" width="96" height="76" fill="#C1E0EC"/>
<mask id="mask12" mask-type="alpha" maskUnits="userSpaceOnUse" x="39" y="283" width="96" height="76">
<rect x="39" y="283" width="96" height="76" fill="#2E6450"/>
</mask>
<g mask="url(#mask12)">
<path d="M97.2029 337.004C97.2029 337.004 110.485 342.057 116.45 343.987C122.414 345.917 127.748 377.958 127.748 377.958H49.7292C49.7292 377.958 55.6652 345.917 61.6297 343.987C67.5942 342.057 80.0537 337.364 80.0537 337.364L97.2029 337.004Z" fill="#B5C2D1"/>
<mask id="mask13" mask-type="alpha" maskUnits="userSpaceOnUse" x="49" y="337" width="79" height="41">
<path d="M97.2029 337.004C97.2029 337.004 110.485 342.057 116.45 343.987C122.414 345.917 127.748 377.958 127.748 377.958H49.7292C49.7292 377.958 55.6652 345.917 61.6297 343.987C67.5942 342.057 80.0537 337.364 80.0537 337.364L97.2029 337.004Z" fill="#B5C2D1"/>
</mask>
<g mask="url(#mask13)">
<path d="M45.788 356.414H129.113" stroke="white" stroke-width="0.178044" stroke-miterlimit="10" stroke-linecap="round" stroke-linejoin="round"/>
<path d="M45.788 348.025H129.113" stroke="white" stroke-width="0.178044" stroke-miterlimit="10" stroke-linecap="round" stroke-linejoin="round"/>
<path d="M45.788 339.635H129.113" stroke="white" stroke-width="0.178044" stroke-miterlimit="10" stroke-linecap="round" stroke-linejoin="round"/>
<path d="M57.7564 315.859V405.362" stroke="white" stroke-width="0.178044" stroke-miterlimit="10" stroke-linecap="round" stroke-linejoin="round"/>
<path d="M65.569 315.859V405.362" stroke="white" stroke-width="0.178044" stroke-miterlimit="10" stroke-linecap="round" stroke-linejoin="round"/>
<path d="M73.3816 315.859V405.362" stroke="white" stroke-width="0.178044" stroke-miterlimit="10" stroke-linecap="round" stroke-linejoin="round"/>
<path d="M81.1942 315.859V405.362" stroke="white" stroke-width="0.178044" stroke-miterlimit="10" stroke-linecap="round" stroke-linejoin="round"/>
<path d="M89.003 315.859V405.362" stroke="white" stroke-width="0.178044" stroke-miterlimit="10" stroke-linecap="round" stroke-linejoin="round"/>
<path d="M96.8156 315.859V405.362" stroke="white" stroke-width="0.178044" stroke-miterlimit="10" stroke-linecap="round" stroke-linejoin="round"/>
<path d="M104.628 315.859V405.362" stroke="white" stroke-width="0.178044" stroke-miterlimit="10" stroke-linecap="round" stroke-linejoin="round"/>
<path d="M112.441 315.859V405.362" stroke="white" stroke-width="0.178044" stroke-miterlimit="10" stroke-linecap="round" stroke-linejoin="round"/>
<path d="M120.25 315.859V405.362" stroke="white" stroke-width="0.178044" stroke-miterlimit="10" stroke-linecap="round" stroke-linejoin="round"/>
</g>
<path d="M103.48 306.336C103.48 306.336 109.007 321.334 105.692 327.965C105.692 327.965 102.376 334.282 97.4802 334.282V338.701C97.4802 338.701 95.2047 343.732 89.1619 343.732C83.1191 343.732 79.7968 338.701 79.7968 338.701L80.8829 326.088C80.8829 326.088 73.4798 326.861 72.8495 320.227C72.8495 320.227 74.0032 313.931 76.5279 313.771C79.0526 313.614 81.2354 315.555 81.2354 315.555L79.7968 303.491L90.6895 298.281L103.48 306.336Z" fill="#843D25"/>
<path d="M100.999 316.961C100.999 316.961 103.238 318.812 105.528 318.41C105.813 318.36 106.34 318.171 106.34 318.171C106.34 318.171 106.205 317.043 106.023 315.981C105.891 315.209 105.517 313.998 105.517 313.998C105.517 313.998 105.047 314.005 104.759 314.055C102.473 314.457 100.999 316.961 100.999 316.961Z" fill="white"/>
<mask id="mask14" mask-type="alpha" maskUnits="userSpaceOnUse" x="100" y="314" width="7" height="5">
<path d="M101 316.963C101 316.963 103.239 318.814 105.529 318.412C105.814 318.362 106.341 318.173 106.341 318.173C106.341 318.173 106.206 317.045 106.024 315.983C105.892 315.211 105.518 314 105.518 314C105.518 314 105.048 314.007 104.76 314.057C102.474 314.459 101 316.963 101 316.963Z" fill="white"/>
</mask>
<g mask="url(#mask14)">
<circle cx="106.52" cy="316.623" r="3.2048" fill="#1E120F"/>
</g>
<path d="M90.2303 311.482C90.2303 311.482 93.3853 310.314 95.6714 311.536" stroke="#33120B" stroke-width="0.356089" stroke-miterlimit="10" stroke-linecap="round" stroke-linejoin="round"/>
<path d="M104.958 311.73C104.958 311.73 103.84 310.958 101.39 311.798" stroke="#33120B" stroke-width="0.356089" stroke-miterlimit="10" stroke-linecap="round" stroke-linejoin="round"/>
<path d="M77.0733 317.756C77.0733 317.756 79.452 318.692 80.0538 321.067" stroke="#33120B" stroke-width="0.356089" stroke-miterlimit="10" stroke-linecap="round" stroke-linejoin="round"/>
<path d="M99.3319 325.008L94.0582 324.534C94.0582 324.534 95.6713 328.266 99.2927 328.266C102.914 328.266 103.815 324.199 103.815 324.199L99.3319 325.008Z" fill="#622E1D"/>
<path d="M100.896 323.39C99.4644 323.429 99.2899 324.394 99.2899 324.394C99.2899 324.394 98.7593 323.426 97.3279 323.39C95.8964 323.351 94.0554 324.533 94.0554 324.533C94.0554 324.533 97.3528 325.217 99.2899 325.217C101.227 325.217 103.812 324.198 103.812 324.198C103.812 324.198 102.327 323.351 100.896 323.39Z" fill="#23130E"/>
<path d="M97.4918 317.3C97.4918 317.3 94.928 319.665 92.1576 319.33C89.3873 318.995 87.4608 316.09 87.4608 316.09C87.4608 316.09 90.0247 313.725 92.795 314.06C95.5654 314.395 97.4918 317.3 97.4918 317.3Z" fill="white"/>
<mask id="mask15" mask-type="alpha" maskUnits="userSpaceOnUse" x="87" y="314" width="11" height="6">
<path d="M97.4918 317.3C97.4918 317.3 94.928 319.665 92.1576 319.33C89.3873 318.995 87.4608 316.09 87.4608 316.09C87.4608 316.09 90.0247 313.725 92.795 314.06C95.5654 314.395 97.4918 317.3 97.4918 317.3Z" fill="white"/>
</mask>
<g mask="url(#mask15)">
<circle cx="94.4109" cy="316.623" r="3.2048" fill="#1E120F"/>
</g>
<path d="M80.741 325.288C81.4844 325.288 82.087 324.685 82.087 323.942C82.087 323.198 81.4844 322.596 80.741 322.596C79.9976 322.596 79.395 323.198 79.395 323.942C79.395 324.685 79.9976 325.288 80.741 325.288Z" fill="white"/>
<path d="M99.724 317.467C99.724 317.467 101.593 319.678 101.415 320.465C101.237 321.256 98.2783 321.256 98.2783 321.256" stroke="#33120B" stroke-width="0.356089" stroke-miterlimit="10" stroke-linecap="round" stroke-linejoin="round"/>
<path d="M97.4915 334.385C97.4915 334.385 88.2545 334.463 85.1779 330.518C85.1779 330.518 89.9139 337.308 97.4915 337.465V334.385Z" fill="#1E120F"/>
<path d="M101.533 307.009C100.109 305.407 98.1503 303.627 97.082 302.558C92.0968 308.256 88.0018 308.012 84.975 310.036C80.9328 312.74 82.9958 316.103 80.88 316.268C79.8117 313.953 76.3398 313.775 75.0045 315.556C71.7997 319.829 76.0728 324.814 80.88 325.882C80.88 325.882 83.5506 326.95 82.3043 330.333C81.058 333.716 85.6872 333.538 85.6872 337.989C85.6872 342.44 83.9067 343.509 83.9067 346.357C83.9067 349.562 86.7554 350.63 84.975 357.574C83.1946 364.518 71.2199 370.692 58.6244 362.737C51.8587 358.464 51.1466 353.657 51.8587 348.316C52.7318 341.767 58.9805 338.442 61.4732 337.989C63.9658 337.536 64.856 335.319 64.856 333.716C64.856 331.758 62.0073 329.799 66.4816 324.28C61.6027 317.566 63.8425 307.009 66.1023 303.093C74.1143 289.205 87.8237 288.137 93.3431 290.807C104.56 290.807 109.189 302.024 109.189 308.256C109.189 314.487 108.136 317.553 106.518 319.117C105.272 311.461 105.094 312.107 104.738 310.392C104.738 310.392 102.957 308.612 101.533 307.009Z" fill="#331E18"/>
</g>
<defs>
<filter id="filter0_f" x="86.5268" y="152.502" width="9.56668" height="9.56668" filterUnits="userSpaceOnUse" color-interpolation-filters="sRGB">
<feFlood flood-opacity="0" result="BackgroundImageFix"/>
<feBlend mode="normal" in="SourceGraphic" in2="BackgroundImageFix" result="shape"/>
<feGaussianBlur stdDeviation="0.663269" result="effect1_foregroundBlur"/>
</filter>
<clipPath id="clip0">
<rect width="596.4" height="318.6" fill="white" transform="translate(39 40.1992)"/>
</clipPath>
<clipPath id="clip1">
<rect width="94.8" height="94.8" fill="white" transform="translate(208.8 134.4)"/>
</clipPath>
<clipPath id="clip2">
<rect width="314.4" height="94.8" fill="white" transform="translate(321 134.4)"/>
</clipPath>
<clipPath id="clip3">
<rect width="101.443" height="113.895" fill="white" transform="translate(36.9736 45)"/>
</clipPath>
<clipPath id="clip4">
<rect width="3.90329" height="1.95164" fill="white" transform="translate(86.3182 241.1)"/>
</clipPath>
</defs>
</svg>
