<svg width="170" height="302" viewBox="0 0 170 302" fill="none" xmlns="http://www.w3.org/2000/svg">
<rect width="170" height="302" rx="6" fill="#333333"/>
<mask id="mask0" mask-type="alpha" maskUnits="userSpaceOnUse" x="0" y="0" width="170" height="302">
<rect width="170" height="302" rx="8" fill="#F5F5F5"/>
</mask>
<g mask="url(#mask0)">
<rect x="59" y="292" width="52" height="2" rx="1" fill="#222222"/>
<rect y="42" width="170" height="218" fill="#2E6450"/>
<mask id="mask1" mask-type="alpha" maskUnits="userSpaceOnUse" x="0" y="42" width="170" height="218">
<rect y="42" width="170" height="218" fill="#2E6450"/>
</mask>
<g mask="url(#mask1)">
<path d="M117.836 182.869C117.836 182.869 119.024 183.019 122.416 184.515C128.229 187.08 137.193 189.757 145.653 192.855C154.113 195.953 164.22 197.261 171.357 209.939C178.494 222.617 188.992 267.209 188.992 267.209H86.4922H-16C-16 267.209 -5.49434 222.625 1.63476 209.939C8.76387 197.254 18.8785 195.953 27.3386 192.855C35.7988 189.757 41.83 188.29 50.5759 184.515C53.9826 183.042 55.1557 182.869 55.1557 182.869C55.1557 182.869 73.8055 178.057 86 177.999C98.5773 177.938 117.836 182.869 117.836 182.869Z" fill="#9F5D40"/>
<path d="M114.633 267.218H57.6299L62.142 185.945H110.873L114.633 267.218Z" fill="white"/>
<path d="M104.645 152.211H86.5069H68.3683C68.3683 152.211 71.9629 171.386 62.1416 186.079C62.1416 186.079 68.1652 201.028 86.5069 201.028C104.849 201.028 110.872 186.079 110.872 186.079C101.051 171.386 104.645 152.211 104.645 152.211Z" fill="#F2AEA2"/>
<path d="M67.1055 175.124C67.1055 175.124 78.1601 166.739 91.3504 163.904L68.6396 154.129C68.6471 154.136 69.8954 166.093 67.1055 175.124Z" fill="#261313"/>
<path d="M12.5166 217.641C12.5166 217.641 18.9238 233.304 22.2552 267.488" stroke="#7F4632" stroke-width="1.35" stroke-miterlimit="10" stroke-linecap="round" stroke-linejoin="round"/>
<path d="M158.482 230.191C158.482 230.191 153.045 258.337 151.624 267.489" stroke="#7F4632" stroke-width="1.35" stroke-miterlimit="10" stroke-linecap="round" stroke-linejoin="round"/>
<path d="M117.362 115.5C117.362 115.5 116.52 128.298 113.986 137.149C110.609 148.94 102.773 164.43 86.3866 164.43C69.9927 164.43 62.1567 148.94 58.7877 137.149C56.2534 128.298 55.4111 115.5 55.4111 115.5C55.4111 115.5 56.1782 99.4832 61.9837 89.8054C61.9837 89.8054 71.5343 86.1133 86.3866 86.1133C101.239 86.1133 111.271 88.9256 111.271 88.9256C111.271 88.9256 117.362 103.882 117.362 115.5Z" fill="#F2AEA2"/>
<g clip-path="url(#clip0)">
<path d="M83.4297 128.872C83.4297 128.872 87.3996 134.833 90.5704 128.566" stroke="#311E17" stroke-miterlimit="10" stroke-linecap="round" stroke-linejoin="round"/>
</g>
<path d="M53.3665 112.86C53.3665 112.86 46.1471 109.867 45.9742 120.959C45.8012 132.042 54.6524 138.103 59.2021 138.502L58.2997 116.732L53.3665 112.86Z" fill="#F2AEA2"/>
<path d="M119.543 112.86C119.543 112.86 126.762 109.867 126.935 120.959C127.108 132.042 118.257 138.103 113.707 138.502L114.609 116.732L119.543 112.86Z" fill="#F2AEA2"/>
<path d="M49.9971 118.289C49.9971 118.289 53.9 121.071 55.1634 124.575" stroke="#311E17" stroke-miterlimit="10" stroke-linecap="round" stroke-linejoin="round"/>
<path d="M123.447 119.133C123.447 119.133 119.544 121.915 118.28 125.419" stroke="#311E17" stroke-miterlimit="10" stroke-linecap="round" stroke-linejoin="round"/>
<path d="M108.211 88.2118C108.211 88.2118 106.428 94.6862 96.2612 96.5361C96.2612 96.5361 99.2317 93.0394 99.5626 90.4677C99.5626 90.4677 96.2612 96.8669 89.0043 97.7242C89.0043 97.7242 90.937 93.8516 91.0272 91.919C91.0272 91.919 89.2675 96.6714 81.2585 97.7242C73.2496 98.7769 67.617 97.3708 67.617 97.3708C67.617 97.3708 58.9538 102.665 58.4048 119.463L53.3663 112.861C53.3663 112.861 50.9147 101.326 52.5842 93.235C54.2537 85.1363 62.2401 73.729 75.5432 69.4804C94.5542 63.4121 97.848 70.4053 97.848 70.4053C97.848 70.4053 111.723 67.5629 119.205 85.9334C124.725 99.4838 119.544 112.869 119.544 112.869L114.618 116.741C114.61 116.734 111.602 94.4607 108.211 88.2118Z" fill="#493531"/>
<path d="M112.587 92.7988C112.587 92.7988 113.993 97.461 117.956 99.0476" stroke="#281A18" stroke-miterlimit="10" stroke-linecap="round" stroke-linejoin="round"/>
<path d="M99.5625 90.4673C99.5625 90.4673 101.939 87.6098 102.465 83.9102" stroke="#281A18" stroke-miterlimit="10" stroke-linecap="round" stroke-linejoin="round"/>
<path d="M91.0264 91.9196C91.0264 91.9196 95.2076 87.6108 97.1854 83.3848" stroke="#281A18" stroke-miterlimit="10" stroke-linecap="round" stroke-linejoin="round"/>
<path d="M99.0057 123.795C100.368 123.795 101.472 122.29 101.472 120.434C101.472 118.577 100.368 117.072 99.0057 117.072C97.6434 117.072 96.5391 118.577 96.5391 120.434C96.5391 122.29 97.6434 123.795 99.0057 123.795Z" fill="#311E17"/>
<path d="M73.8963 123.795C75.2586 123.795 76.3629 122.29 76.3629 120.434C76.3629 118.577 75.2586 117.072 73.8963 117.072C72.534 117.072 71.4297 118.577 71.4297 120.434C71.4297 122.29 72.534 123.795 73.8963 123.795Z" fill="#311E17"/>
<path d="M93.373 110.749C93.373 110.749 98.9723 107.108 106.5 109.499" stroke="#493531" stroke-width="3.2454" stroke-miterlimit="10" stroke-linecap="round"/>
<path d="M79.7095 110.748C79.7095 110.748 74.5277 107.108 67 109.499" stroke="#493531" stroke-width="3.2454" stroke-miterlimit="10" stroke-linecap="round"/>
<path d="M96.6238 139.566H87.0254H75.5074C74.2789 139.566 74.4836 140.846 74.7396 141.486C75.8914 144.174 80.3333 147.903 81.6504 148.781C82.8022 149.549 84.7219 149.933 86.2576 149.933C88.4077 149.933 90.6729 148.781 92.0166 147.629C93.5524 146.313 94.7042 145.325 95.856 143.79C96.5075 142.921 97.3917 141.87 97.7756 141.102C98.5435 139.566 97.1357 139.566 96.6238 139.566Z" fill="#3A1D1B"/>
<path d="M77.6166 141.87C76.8203 141.87 76.4648 141.006 75.313 139.566H96.8133C96.0454 140.718 95.2207 141.87 94.4243 141.87H77.6166Z" fill="white"/>
<mask id="mask2" mask-type="alpha" maskUnits="userSpaceOnUse" x="74" y="139" width="24" height="11">
<path d="M96.6238 139.566H87.0254H75.5074C74.2789 139.566 74.4836 140.846 74.7396 141.486C75.8914 144.174 80.3333 147.903 81.6504 148.781C82.8022 149.549 84.7219 149.933 86.2576 149.933C88.4077 149.933 90.6729 148.781 92.0166 147.629C93.5524 146.313 94.7042 145.325 95.856 143.79C96.5075 142.921 97.3917 141.87 97.7756 141.102C98.5435 139.566 97.1357 139.566 96.6238 139.566Z" fill="#3A1D1B"/>
</mask>
<g mask="url(#mask2)">
<path d="M86.203 144.174C82.6848 144.174 79.5249 146.551 78.3848 147.74C78.8734 149.269 81.8053 151.409 85.7144 151.816C89.6235 152.224 93.5327 149.099 94.51 147.74C93.2069 146.551 89.7213 144.174 86.203 144.174Z" fill="#C06C61"/>
</g>
<path d="M56.043 116.374L57.8929 124.69C58.0132 125.217 58.7878 125.134 58.7878 124.593V114.832L56.043 116.374Z" fill="#493531"/>
<path d="M118.28 113.855L115.49 124.721C115.339 125.308 114.467 125.203 114.467 124.594V114.833L118.28 113.855Z" fill="#493531"/>
<path d="M162.288 254.132C162.288 254.132 182.608 208.991 185.157 199.268C187.699 189.553 179.765 185.74 179.141 176.634C178.524 167.535 180.968 162.369 177.599 154.286C174.23 146.202 184.646 149.503 186.21 156.075C187.766 162.64 187.353 167.776 189.203 169.167C191.053 170.566 194.978 163.309 197.159 159.82C199.347 156.331 199.754 150.797 202.574 144.676C205.394 138.555 208.116 129.569 211.545 130.659C214.974 131.749 210.575 142.224 209.364 146.022C208.161 149.819 206.281 157.858 206.492 158.467C206.702 159.076 207.717 158.858 207.717 158.858L212.816 142.803C212.816 142.803 216.335 130.02 219.298 129.614C222.261 129.208 223.983 130.155 222.735 134.081C221.487 138.006 218.246 147.36 217.486 150.631C216.727 153.902 213.982 161.663 214.523 162.106C215.065 162.55 215.674 162.738 215.674 162.738C215.674 162.738 218.892 154.722 221.494 149.067C224.096 143.42 226.42 138.216 229.165 139.359C231.91 140.502 229.082 147.699 226.48 153.346C223.878 158.993 220.855 166.4 220.284 169.054C219.712 171.709 221.231 169.897 221.231 169.897C221.231 169.897 227.608 157.888 230.421 155.406C233.233 152.925 235.241 153.835 233.151 158.7C231.06 163.565 226.179 171.731 223.871 178.153C221.562 184.575 217.418 193.373 209.515 198.291C209.515 198.291 206.988 200.622 204.649 210.646C200.49 228.475 197.813 254.139 197.813 254.139H162.288V254.132Z" fill="#F2AEA2"/>
<path d="M154.67 267.053L177.524 202.016L213.966 211.596L199.031 267.053H154.67Z" fill="#9F5D40"/>
<path d="M171.786 218.031L154.67 267.052" stroke="#7F4632" stroke-width="1.35" stroke-miterlimit="10" stroke-linecap="round" stroke-linejoin="round"/>
<path d="M43.2734 194.111L36.2646 267.488" stroke="#DB8C35" stroke-width="1.35" stroke-miterlimit="10" stroke-linecap="round" stroke-linejoin="round"/>
<path d="M19.8633 204.82L13.8848 267.489" stroke="#DB8C35" stroke-width="1.35" stroke-miterlimit="10" stroke-linecap="round" stroke-linejoin="round"/>
<path d="M125.936 194.111L132.937 267.488" stroke="#DB8C35" stroke-width="1.35" stroke-miterlimit="10" stroke-linecap="round" stroke-linejoin="round"/>
<path d="M149.338 204.82L155.324 267.489" stroke="#DB8C35" stroke-width="1.35" stroke-miterlimit="10" stroke-linecap="round" stroke-linejoin="round"/>
<path d="M83.7929 74.3304C83.7929 74.3304 73.5956 68.0665 64.6466 69.8863C51.2608 72.6084 56.8257 85.9257 56.8257 85.9257" fill="#493531"/>
<path d="M74.4995 72.5C74.4995 72.5 59.8229 77.9354 52.0004 84.5C39.3229 94.9197 53.9995 100.5 53.9995 100.5" fill="#493531"/>
<path d="M85.2517 74.9247C85.2517 74.9247 79.6567 68.8413 60.7285 80.9028" stroke="#281A18" stroke-miterlimit="10" stroke-linecap="round" stroke-linejoin="round"/>
<path d="M66.037 95.9199C61.5475 95.1303 59.2012 91.9195 59.2012 91.9195C59.2012 91.9195 63.796 93.1527 69.7369 89.8516" stroke="#281A18" stroke-miterlimit="10" stroke-linecap="round" stroke-linejoin="round"/>
</g>
</g>
<defs>
<clipPath id="clip0">
<rect width="8" height="4" fill="white" transform="translate(83 128)"/>
</clipPath>
</defs>
</svg>
