<svg width="56" height="56" viewBox="0 0 56 56" fill="none" xmlns="http://www.w3.org/2000/svg">
  <path d="M12 44.9198V25.0646L14.2857 23.3228L27.6936 12.1013C27.7782 12.0358 27.8842 12 27.9936 12C28.1029 12 28.2089 12.0358 28.2936 12.1013L41.7143 23.3282L44 25.0714V44.9198C44 45.2063 43.8796 45.481 43.6653 45.6836C43.4509 45.8862 43.1602 46 42.8571 46H13.1429C12.8398 46 12.5491 45.8862 12.3347 45.6836C12.1204 45.481 12 45.2063 12 44.9198Z" fill="#9FDCFF"/>
  <path d="M29.5693 10.578L47.8251 25.8569C47.9211 25.9416 47.9825 26.0609 47.9968 26.1908C48.0111 26.3207 47.9773 26.4514 47.9022 26.5563L46.9168 27.8181C46.8375 27.9194 46.7228 27.9838 46.5978 27.9973C46.4728 28.0109 46.3477 27.9723 46.2501 27.8902L43.5556 25.6342L41.3333 23.7725L28.2852 12.8506C28.203 12.7807 28.0999 12.7425 27.9936 12.7425C27.8872 12.7425 27.7842 12.7807 27.7019 12.8506L14.6663 23.7667L12.444 25.6269L9.75857 27.8758C9.71025 27.9165 9.65467 27.947 9.595 27.9654C9.53533 27.9839 9.47275 27.9899 9.41083 27.9832C9.34891 27.9765 9.28887 27.9572 9.23414 27.9264C9.17942 27.8956 9.13108 27.8539 9.09189 27.8037L8.10576 26.5419C8.06661 26.4924 8.03733 26.4353 8.01961 26.3739C8.0019 26.3125 7.9961 26.2481 8.00256 26.1844C8.00902 26.1206 8.02761 26.0589 8.05725 26.0027C8.08689 25.9465 8.12698 25.8969 8.17521 25.8569L26.431 10.578C26.8747 10.2041 27.4287 10 28.0002 10C28.5716 10 29.1256 10.2041 29.5693 10.578Z" fill="#0053E0"/>
  <path d="M22 31.1431C22 30.5119 22.5373 30.0002 23.2 30.0002H32.8C33.4627 30.0002 34 30.5119 34 31.1431V46.0002H22V31.1431Z" fill="#125DE6"/>
</svg>
