<svg width="56" height="56" viewBox="0 0 56 56" fill="none" xmlns="http://www.w3.org/2000/svg">
<path fill-rule="evenodd" clip-rule="evenodd" d="M40.9027 45.9988C35.3259 45.9988 30.8051 41.4953 30.8051 35.9399C30.8051 30.3846 35.3259 25.8811 40.9027 25.8811C46.4794 25.8811 51.0002 30.3846 51.0002 35.9399C51.0002 38.5005 50.0398 40.8377 48.4581 42.6134C48.236 42.8627 48.2345 43.2437 48.4711 43.4793L50.4831 45.4836C50.6739 45.6737 50.5388 45.9988 50.2689 45.9988H41.2056C41.1759 45.9988 41.1462 45.9959 41.1165 45.9965C41.0454 45.998 40.9741 45.9988 40.9027 45.9988Z" fill="#324FB9"/>
<path fill-rule="evenodd" clip-rule="evenodd" d="M24.0732 46C34.607 46 43.1464 37.4934 43.1464 27C43.1464 16.5066 34.607 8 24.0732 8C13.5394 8 5 16.5066 5 27C5 31.8367 6.81424 36.2513 9.80179 39.6054C10.2213 40.0763 10.2241 40.7959 9.7772 41.2411L5.9768 45.0269C5.61634 45.386 5.87163 46 6.3814 46H23.501C23.5571 46 23.6132 45.9947 23.6693 45.9958C23.8036 45.9986 23.9382 46 24.0732 46Z" fill="#4899F8"/>
</svg>
