<svg width="62" height="68" viewBox="0 0 62 68" fill="none" xmlns="http://www.w3.org/2000/svg">
<path d="M32.7069 29.75C32.9293 26.2652 35.7861 23.5 39.2665 23.5C42.747 23.5 45.5994 26.2652 45.8262 29.75H32.7069ZM38.2372 45.3249C37.3082 42.5902 35.1013 41.151 33.2433 39.9385C31.1803 38.5951 30.3168 37.8973 30.2775 36.6063C30.2906 34.8399 31.695 33.3919 33.4221 33.3919H44.8798L38.2372 45.3249ZM29.3703 55.714C29.4357 55.7271 30.1772 55.8492 30.9143 55.8535C31.6208 55.8579 32.3274 55.7445 32.4539 55.7096L30.9143 58.4748L29.3703 55.714ZM27.5036 33.3919C27.0151 34.3252 26.7316 35.3894 26.7098 36.5191H26.7054C26.7054 36.5539 26.7055 36.5932 26.7098 36.6281V36.6368C26.7665 40.0562 29.2918 41.7049 31.3286 43.0351C33.7493 44.614 35.1188 45.6302 35.1188 48.2253C35.1188 50.7768 33.095 52.264 30.609 52.264C29.0127 52.264 26.9889 51.4048 26.1821 49.9873L25.4668 48.7487L16.8659 33.3962H27.5036V33.3919ZM22.7147 23.5C26.1952 23.5 29.0519 26.2652 29.2744 29.75H16.1594C16.3818 26.2652 19.2386 23.5 22.7147 23.5ZM39.2665 20.0195C35.8907 20.0195 32.8464 21.6987 30.9928 24.5424C29.1348 21.6943 26.0905 20.0195 22.7147 20.0195C17.1233 20.0195 12.5742 24.586 12.5742 30.1949C12.5742 30.1949 12.5742 30.2472 12.5742 31.2286C12.5742 32.2099 12.6876 33.0866 13.464 34.4255C14.2403 35.7645 30.9186 64.5285 30.9186 64.5285C30.9186 64.5285 47.4792 35.939 48.2992 34.4255C49.1191 32.9077 49.25 32.2579 49.25 31.2286V30.1949C49.2456 24.5817 44.7664 20.0195 39.2665 20.0195Z" fill="black"/>
<path d="M24.6336 5.40389C23.5258 5.40389 22.4615 5.76589 21.6678 6.29363V0H19.1904V17.0403H20.6472L21.0484 16.1244C22.021 16.8528 23.1507 17.3064 24.6379 17.3064C27.8654 17.3064 29.0605 15.082 29.0605 11.353C29.0561 7.65005 27.8611 5.40389 24.6336 5.40389ZM24.0535 7.56282C26.2255 7.56282 26.557 9.26381 26.557 11.353C26.557 13.4639 26.2255 15.1518 24.0535 15.1518C22.8846 15.1518 22.1083 14.7375 21.6634 14.4889V8.22141C22.1039 7.96844 22.8803 7.56282 24.0535 7.56282ZM32.1877 8.94978C32.1877 7.92483 33.0076 7.54102 34.3161 7.54102C35.7074 7.54102 36.7542 7.81143 37.7006 8.17779V5.97088C36.837 5.58707 35.7728 5.40389 34.2681 5.40389C31.0144 5.40389 29.7758 7.06125 29.7758 9.0152C29.7758 10.9691 30.5957 12.0334 33.9366 12.3343C35.4195 12.4651 35.7728 12.8969 35.7728 13.7387C35.7728 14.7375 34.9092 15.1518 33.1385 15.1518C31.7428 15.1518 30.5696 14.7855 29.8412 14.515V16.6914C30.5914 17.0055 31.9652 17.302 33.4961 17.302C37.0377 17.302 38.2109 15.6011 38.2109 13.6471C38.2109 11.5361 37.3473 10.5112 34.0282 10.219C32.5889 10.0838 32.1877 9.74357 32.1877 8.94978ZM42.145 17.1974C42.411 17.1974 42.6334 17.1494 42.6334 17.1494V15.0864C41.9225 15.0864 41.7044 14.8552 41.7044 14.2228V5.67866H39.2271V14.2446C39.2228 16.1942 40.1343 17.1974 42.145 17.1974ZM38.8477 2.31159C38.8477 3.22314 39.576 3.96896 40.4614 3.96896C41.3468 3.96896 42.0795 3.22314 42.0795 2.31159C42.0795 1.40004 41.3468 0.654224 40.4614 0.654224C39.576 0.658585 38.8477 1.4044 38.8477 2.31159Z" fill="black"/>
<path d="M30.9099 68.0004C13.8652 68.0004 0 54.1352 0 37.0905C0 26.1082 5.63068 16.1858 15.0559 10.5508C15.4222 10.3327 15.8976 10.4505 16.1157 10.8169C16.3338 11.1832 16.216 11.6586 15.8497 11.8767C6.89115 17.2326 1.54397 26.6578 1.54397 37.0905C1.54397 53.2803 14.7157 66.452 30.9055 66.452C47.0954 66.452 60.2671 53.2803 60.2671 37.0905C60.2671 26.6578 54.9199 17.2326 45.9614 11.8767C45.595 11.6586 45.4773 11.1832 45.6953 10.8169C45.9134 10.4505 46.3888 10.3327 46.7552 10.5508C56.1847 16.1902 61.811 26.1126 61.811 37.0905C61.8154 54.1352 47.9502 68.0004 30.9099 68.0004Z" fill="black"/>
</svg>
