<svg width="292" height="264" viewBox="0 0 292 264" fill="none" xmlns="http://www.w3.org/2000/svg">
<g filter="url(#filter0_dd)">
<path d="M138.654 68.0485C138.654 45.9303 156.585 28 178.703 28C200.821 28 218.751 45.9303 218.751 68.0485C218.751 90.1667 200.821 108.097 178.703 108.097C156.585 108.097 138.654 90.1667 138.654 68.0485Z" fill="#009ED0"/>
<path d="M70 96.6556C70 65.0581 95.6148 39.4434 127.212 39.4434C158.81 39.4434 184.424 65.0581 184.424 96.6555V153.868H127.212C95.6148 153.868 70 128.253 70 96.6556Z" fill="#25D3FC"/>
<path d="M161.539 113.818C161.539 91.6999 179.469 73.7695 201.587 73.7695C223.705 73.7695 241.636 91.6999 241.636 113.818C241.636 135.936 223.705 153.867 201.587 153.867H161.539V113.818Z" fill="#25D3FC"/>
</g>
<defs>
<filter id="filter0_dd" x="0" y="0" width="291.636" height="263.868" filterUnits="userSpaceOnUse" color-interpolation-filters="sRGB">
<feFlood flood-opacity="0" result="BackgroundImageFix"/>
<feColorMatrix in="SourceAlpha" type="matrix" values="0 0 0 0 0 0 0 0 0 0 0 0 0 0 0 0 0 0 127 0"/>
<feOffset dx="-10" dy="12"/>
<feGaussianBlur stdDeviation="20"/>
<feColorMatrix type="matrix" values="0 0 0 0 0 0 0 0 0 0 0 0 0 0 0 0 0 0 0.1 0"/>
<feBlend mode="normal" in2="BackgroundImageFix" result="effect1_dropShadow"/>
<feColorMatrix in="SourceAlpha" type="matrix" values="0 0 0 0 0 0 0 0 0 0 0 0 0 0 0 0 0 0 127 0"/>
<feOffset dx="-10" dy="50"/>
<feGaussianBlur stdDeviation="30"/>
<feColorMatrix type="matrix" values="0 0 0 0 0 0 0 0 0 0 0 0 0 0 0 0 0 0 0.1 0"/>
<feBlend mode="normal" in2="effect1_dropShadow" result="effect2_dropShadow"/>
<feBlend mode="normal" in="SourceGraphic" in2="effect2_dropShadow" result="shape"/>
</filter>
</defs>
</svg>
