<svg width="524" height="887" viewBox="0 0 524 887" fill="none" xmlns="http://www.w3.org/2000/svg">
<path d="M53.0775 667.926C53.0775 667.926 24.5433 717.805 14.6931 806.89C4.84289 895.975 0 956.003 0 956.003H149.95L173 866.003L192.953 956.003H331.574L267.928 667.926H53.0775Z" fill="#C4BC8A"/>
<path d="M368.986 546.852L387.371 575.177L266.628 663.111L285.028 746.785C285.028 746.785 300.349 768.19 302.994 771.359C305.64 774.527 314.623 771.359 314.623 771.359C314.623 771.359 316.208 773.735 317.523 774.796C318.838 775.858 338.135 773.481 340.766 771.359C343.412 769.251 353.979 757.891 356.879 756.038C359.779 754.184 353.441 747.847 341.827 754.184C341.827 754.184 347.896 739.656 351.603 736.218C355.295 732.78 346.58 729.088 337.597 736.218C337.597 736.218 341.035 729.342 343.935 725.65C346.835 721.958 335.744 722.212 329.929 728.027C324.115 733.841 324.115 735.426 324.115 735.426H319.093C319.093 735.426 323.577 710.06 307.464 689.986L460.538 608.255C466.068 605.295 468.789 598.868 467.025 592.844C461.375 573.488 448.819 532.204 439.507 514.252L368.986 546.852Z" fill="#EAA48A"/>
<path d="M299.616 750.252L314.593 771.342" stroke="#200F0C" stroke-width="2.01787" stroke-miterlimit="10" stroke-linecap="round" stroke-linejoin="round"/>
<path d="M318.809 736.486C318.809 736.486 318.48 741.718 316.985 746.381C316.985 746.381 324.384 757.113 325.296 760.805C325.296 760.805 331.469 759.027 335.789 759.535C335.789 759.535 337.269 756.426 340.841 754.871" stroke="#200F0C" stroke-width="2.01787" stroke-miterlimit="10" stroke-linecap="round" stroke-linejoin="round"/>
<path d="M336.342 737.16C336.342 737.16 333.023 740.239 330.946 745.471L319.392 748.655" stroke="#200F0C" stroke-width="2.01787" stroke-miterlimit="10" stroke-linecap="round" stroke-linejoin="round"/>
<path d="M175.853 272.182L194.507 255.74C197.781 252.856 202.22 251.645 206.51 252.452L286.791 267.743C290.797 268.505 294.28 270.957 296.342 274.469L306.432 291.584L343.785 310.626C361.348 319.58 375.159 334.482 382.752 352.688L448.445 510.112L364.666 548.84L329.211 498.602C329.211 498.602 308.599 581.963 303.203 640.167C302.396 648.867 296.806 656.385 288.689 659.628L267.898 667.924H53.0769L27.1136 652.409C18.1453 647.043 13.3472 636.759 15.0213 626.446C17.8165 609.256 21.8522 580.767 23.7505 549.423C26.8296 498.692 28.3692 388.337 45.2745 352.837C62.1797 317.338 73.704 300.403 109.831 289.641C145.944 278.879 175.853 272.182 175.853 272.182Z" fill="#EBE3DD"/>
<mask id="mask0" mask-type="alpha" maskUnits="userSpaceOnUse" x="14" y="252" width="435" height="416">
<path d="M175.853 272.182L194.507 255.74C197.781 252.856 202.22 251.645 206.51 252.452L286.791 267.743C290.797 268.505 294.28 270.957 296.342 274.469L306.432 291.584L343.785 310.626C361.348 319.58 375.159 334.482 382.752 352.688L448.445 510.112L364.666 548.84L329.211 498.602C329.211 498.602 308.599 581.963 303.203 640.167C302.396 648.867 296.806 656.385 288.689 659.628L267.898 667.924H53.0769L27.1136 652.409C18.1453 647.043 13.3472 636.759 15.0213 626.446C17.8165 609.256 21.8522 580.767 23.7505 549.423C26.8296 498.692 28.3692 388.337 45.2745 352.837C62.1797 317.338 73.704 300.403 109.831 289.641C145.944 278.879 175.853 272.182 175.853 272.182Z" fill="#EBE3DD"/>
</mask>
<g mask="url(#mask0)">
<path d="M-0.000976562 544.002H332.999" stroke="#C4BC8A" stroke-width="2" stroke-miterlimit="10" stroke-linecap="round" stroke-linejoin="round"/>
<path d="M-0.000976562 578.002H332.999" stroke="#C4BC8A" stroke-width="2" stroke-miterlimit="10" stroke-linecap="round" stroke-linejoin="round"/>
<path d="M-0.000976562 612.002H332.999" stroke="#C4BC8A" stroke-width="2" stroke-miterlimit="10" stroke-linecap="round" stroke-linejoin="round"/>
</g>
<path d="M332 133.501C325.923 129.88 318.54 135.511 314.5 139.001L288.067 178.663L262.514 194.401L234.5 225.501L217 213.001C217 213.001 210.5 179.001 204 159.001C197.5 139.001 189.5 115.752 198.5 95.5009C208.5 73.0007 222.689 58.4776 240 49.5016C253.5 42.5017 276 37.9562 291 40.001C306 42.0458 316.446 47.1115 320.5 51.0016C333.865 49.0014 341 52.1826 350 58.5012C356.169 62.8318 358.499 68.0011 360 73.0011C375 76.0011 377.5 82.0012 380.5 86.5012C383.245 90.6197 384.5 101.501 384.5 101.501C384.5 101.501 384.895 110.949 387.5 112.501C390.104 114.053 394.5 114.001 394.5 114.001C393.617 118.262 390.051 119.501 386.5 121.001C391.051 122.001 394.785 123.176 397 122.501C396.672 132.922 384.88 139.103 376.5 140.001C362.5 141.501 358.893 135.851 350 133.501C341.107 131.151 339.596 138.028 332 133.501Z" fill="#331A14"/>
<path d="M245.253 211.001C254.252 260.671 302.068 274.153 328.15 252.226C349.824 234.005 353.755 209.417 361.677 176.548C369.599 143.679 359.5 119.5 359.5 119.5C359.5 119.5 345.5 108 324.5 118.5C324.5 118.5 301.5 132.5 273.5 109C273.5 109 276.157 125.346 260 134.001C260 134.001 263.325 156.04 245.238 163.918C245.238 163.918 251.591 144.113 243.699 136.22C235.807 128.328 225.239 128.911 218.124 138.522C211.009 148.133 209.664 174.874 233.325 187.37C233.325 187.37 220.112 248.295 201.847 262.704L255.283 335.033L287.345 285.737C287.345 285.737 285.835 269.699 290.588 261.523" fill="#EAA48A"/>
<path d="M326.046 109.002C326.046 109.002 340.975 87.1269 319 77.002" stroke="#200F0C" stroke-width="2.01787" stroke-miterlimit="10" stroke-linecap="round" stroke-linejoin="round"/>
<path d="M290 112.323C290 112.323 300.283 117.564 310.713 113.056C321.142 108.547 322.284 98.9049 320.89 95.2219" stroke="#200F0C" stroke-width="2.01787" stroke-miterlimit="10" stroke-linecap="round" stroke-linejoin="round"/>
<path d="M244.5 70.502C244.5 70.502 249 93.502 269.958 105.979" stroke="#200F0C" stroke-width="2.01787" stroke-miterlimit="10" stroke-linecap="round" stroke-linejoin="round"/>
<path d="M341 96.9494C341 96.9494 363.5 77.0515 375.5 95.5005" stroke="#200F0C" stroke-width="2.01787" stroke-miterlimit="10" stroke-linecap="round" stroke-linejoin="round"/>
<path d="M361 108.502C361 108.502 369 111.002 374 123.002" stroke="#200F0C" stroke-width="2.01787" stroke-miterlimit="10" stroke-linecap="round" stroke-linejoin="round"/>
<path d="M336 95.5005C336 95.5005 343 82.0006 353.5 80.0006" stroke="#200F0C" stroke-width="2.01787" stroke-miterlimit="10" stroke-linecap="round" stroke-linejoin="round"/>
<path d="M293.5 144.002C293.5 144.002 310.5 137.501 323 149.502" stroke="#331A14" stroke-width="6" stroke-miterlimit="10" stroke-linecap="round"/>
<path d="M348.255 156.599C348.255 156.599 357 155 362.5 160.001" stroke="#331A14" stroke-width="6" stroke-miterlimit="10" stroke-linecap="round"/>
<path d="M225.403 145.205C225.403 145.205 237.436 149.869 236.943 169.524" stroke="#111111" stroke-width="2" stroke-miterlimit="10" stroke-linecap="round" stroke-linejoin="round"/>
<path d="M290.603 261.555C271.545 258.431 250.186 238.193 245.268 211.004C245.268 211.004 242.832 267.639 287.165 277.414C287.165 277.414 287.389 267.101 290.603 261.555Z" fill="#200F0C"/>
<path d="M352.927 182.101C354.088 178.045 353.04 174.188 350.587 173.487C348.134 172.785 345.206 175.504 344.046 179.56C342.886 183.616 343.934 187.473 346.386 188.174C348.839 188.876 351.767 186.157 352.927 182.101Z" fill="#200F0C"/>
<path d="M311.118 170.217C312.228 166.044 311.033 162.105 308.448 161.417C305.863 160.729 302.868 163.554 301.758 167.727C300.648 171.899 301.843 175.839 304.428 176.526C307.013 177.214 310.008 174.389 311.118 170.217Z" fill="#200F0C"/>
<path d="M330.5 176.002C330.5 182.002 333.42 183.608 336.424 188.181C337.306 189.527 336.977 191.335 335.632 192.232C333.3 193.787 328.98 195.745 322 195.79" stroke="#111111" stroke-width="2" stroke-miterlimit="10" stroke-linecap="round" stroke-linejoin="round"/>
<path d="M203.823 466.002L115 516.502C115 516.502 158.98 561.899 203.823 593.113C212.475 599.133 224.588 596.442 232.913 589.976C253.518 573.982 301.11 534.077 396.421 441.308C396.421 441.308 423.078 436.027 431.235 418.155C439.393 400.283 440.809 379.633 440.809 379.633L453.264 375.622L453.278 382.071C453.278 382.071 445.993 389.531 448.165 394.962C450.319 400.381 454.693 398.79 457.34 395.675C459.986 392.559 468.384 381.349 468.384 381.349C468.384 381.349 470.186 365.974 467.853 361.4C465.52 356.825 461.653 355.735 461.653 355.735C461.653 355.735 464.426 349.193 458.772 343.89C458.772 343.89 460.369 334.185 453.001 331.106C447.967 329.003 433.276 333.865 433.276 333.865C433.276 333.865 438.416 322.311 446.273 315.116C454.13 307.921 470.911 297.052 472.191 289.165C473.47 281.279 469.973 278.253 469.973 278.253L448.418 291.45L427.079 311.559C427.079 311.559 387.665 374.663 377.426 411.338C377.426 411.338 262.323 474.498 223.838 501.051C223.852 501.048 213.323 478.502 203.823 466.002Z" fill="#EAA48A"/>
<path d="M435.297 363.317C435.297 363.317 450.948 355.072 461.667 355.73" stroke="#111111" stroke-width="2" stroke-miterlimit="10" stroke-linecap="round" stroke-linejoin="round"/>
<path d="M429.516 350.261C429.516 350.261 449.786 342.526 457.426 343.871" stroke="#111111" stroke-width="2" stroke-miterlimit="10" stroke-linecap="round" stroke-linejoin="round"/>
<path d="M425.903 336.613L432.186 334.207" stroke="#111111" stroke-width="2" stroke-miterlimit="10" stroke-linecap="round" stroke-linejoin="round"/>
<path d="M212.271 510.627C212.271 510.627 216.66 505.357 222.753 501.266" stroke="#111111" stroke-width="2" stroke-miterlimit="10" stroke-linecap="round" stroke-linejoin="round"/>
<path d="M175.854 272.184L205.21 366.157L252.966 336.726" stroke="white" stroke-width="2" stroke-miterlimit="10" stroke-linecap="round" stroke-linejoin="round"/>
<path d="M257.869 335.05L299.392 369.473L306.358 293.9" stroke="white" stroke-width="2" stroke-miterlimit="10" stroke-linecap="round" stroke-linejoin="round"/>
<path d="M58.6377 440.114L105.109 522.817L210.127 461.339C210.127 461.339 169.875 374.242 156.706 346.799C143.538 319.356 125.242 306.546 106.215 308.37" stroke="white" stroke-width="2" stroke-miterlimit="10" stroke-linecap="round" stroke-linejoin="round"/>
<path d="M339 428.502C339 428.502 350.5 415.002 368.448 387.486" stroke="white" stroke-width="2" stroke-miterlimit="10" stroke-linecap="round" stroke-linejoin="round"/>
<path d="M255.627 383.161C259.581 383.161 262.786 379.956 262.786 376.002C262.786 372.047 259.581 368.842 255.627 368.842C251.672 368.842 248.467 372.047 248.467 376.002C248.467 379.956 251.672 383.161 255.627 383.161Z" fill="#8C8558"/>
<path d="M252.966 422.89C256.921 422.89 260.126 419.684 260.126 415.73C260.126 411.776 256.921 408.57 252.966 408.57C249.012 408.57 245.807 411.776 245.807 415.73C245.807 419.684 249.012 422.89 252.966 422.89Z" fill="#8C8558"/>
<path d="M48.7422 684.486H266.612" stroke="#200F0C" stroke-width="2.01787" stroke-miterlimit="10" stroke-linecap="round" stroke-linejoin="round"/>
<path d="M142.267 669.105V693.275H128.8V669.105" fill="#F3E8E0"/>
<path d="M142.267 669.105V693.275H128.8V669.105" stroke="#200F0C" stroke-width="2.01787" stroke-miterlimit="10" stroke-linecap="round" stroke-linejoin="round"/>
<path d="M256.015 669.105V693.275H242.548V669.105" fill="#F3E8E0"/>
<path d="M256.015 669.105V693.275H242.548V669.105" stroke="#200F0C" stroke-width="2.01787" stroke-miterlimit="10" stroke-linecap="round" stroke-linejoin="round"/>
<path d="M174.493 861.506L189.246 785.873L194.777 684.486" stroke="#200F0C" stroke-width="2.01787" stroke-miterlimit="10" stroke-linecap="round" stroke-linejoin="round"/>
<path d="M189.246 785.872C189.246 785.872 201.802 786.335 204.268 773.002C206.734 759.654 210.142 684.5 210.142 684.5" stroke="#200F0C" stroke-width="2.01787" stroke-miterlimit="10" stroke-linecap="round" stroke-linejoin="round"/>
<path d="M181.145 827.426L210.142 954.118" stroke="#200F0C" stroke-width="2.01787" stroke-miterlimit="10" stroke-linecap="round" stroke-linejoin="round"/>
<path d="M14.6934 954.119L64.602 684.486" stroke="#200F0C" stroke-width="2.01787" stroke-miterlimit="10" stroke-linecap="round" stroke-linejoin="round"/>
<path d="M53.5557 744.185C53.5557 744.185 78.1139 740.643 85.3932 718.536C92.6725 696.429 96.5886 684.486 96.5886 684.486" stroke="#200F0C" stroke-width="2.01787" stroke-miterlimit="10" stroke-linecap="round" stroke-linejoin="round"/>
<path d="M184.06 669.941V684.485" stroke="#200F0C" stroke-width="2.01787" stroke-miterlimit="10" stroke-linecap="round" stroke-linejoin="round"/>
<path d="M221.278 669.941V684.485" stroke="#200F0C" stroke-width="2.01787" stroke-miterlimit="10" stroke-linecap="round" stroke-linejoin="round"/>
<path d="M304.148 202.333L329.425 212.354C330.665 212.846 331.432 214.111 330.951 215.356C328.672 221.262 319.889 231.351 307.283 224.502C299.769 220.419 297.457 211.703 300.557 203.761C301.108 202.349 302.738 201.775 304.148 202.333Z" fill="white"/>
</svg>
