<svg width="101" height="26" viewBox="0 0 101 26" fill="none" xmlns="http://www.w3.org/2000/svg">
<path d="M0 19.8697V0.367188H7.62272C10.5537 0.367188 12.8494 1.23644 14.5099 3.00839C16.1704 4.7469 17.0174 7.12064 17.0174 10.163C17.0174 13.1497 16.1704 15.5234 14.4542 17.262C12.7602 19.0005 10.4422 19.8697 7.45555 19.8697H0ZM3.90051 16.1252H7.645C9.33894 16.1252 10.6317 15.5457 11.5455 14.409C12.4705 13.2723 12.9497 11.8235 12.9497 10.085C12.9497 8.3688 12.4705 6.97576 11.5455 5.83904C10.6205 4.70232 9.3278 4.12282 7.645 4.12282H3.90051V16.1252Z" fill="#125DE6"/>
<path d="M20.7393 7.31147C22.188 5.82927 24.038 5.09375 26.278 5.09375C28.518 5.09375 30.368 5.82927 31.8167 7.31147C33.2655 8.76023 33.9787 10.5545 33.9787 12.6719C33.9787 14.8116 33.2655 16.6058 31.8167 18.0546C30.368 19.5033 28.518 20.25 26.278 20.25C24.038 20.25 22.188 19.5145 20.7393 18.0546C19.2905 16.6058 18.5773 14.8116 18.5773 12.6719C18.5661 10.5545 19.2794 8.76023 20.7393 7.31147ZM26.278 16.7841C27.4147 16.7841 28.3397 16.3829 29.0975 15.5917C29.8665 14.7782 30.2565 13.7975 30.2565 12.6607C30.2565 11.524 29.8553 10.5545 29.0975 9.75207C28.3285 8.96083 27.4036 8.55963 26.278 8.55963C25.1413 8.55963 24.194 8.96083 23.4251 9.75207C22.6561 10.5433 22.2883 11.524 22.2883 12.6607C22.2883 13.7975 22.6561 14.767 23.4251 15.5917C24.194 16.3941 25.1413 16.7841 26.278 16.7841Z" fill="#125DE6"/>
<path d="M37.4677 7.31147C38.9164 5.82927 40.7664 5.09375 43.0064 5.09375C45.2464 5.09375 47.0963 5.82927 48.5451 7.31147C49.9939 8.76023 50.7071 10.5545 50.7071 12.6719C50.7071 14.8116 49.9939 16.6058 48.5451 18.0546C47.0963 19.5033 45.2464 20.25 43.0064 20.25C40.7664 20.25 38.9164 19.5145 37.4677 18.0546C36.0189 16.6058 35.3057 14.8116 35.3057 12.6719C35.3057 10.5545 36.0189 8.76023 37.4677 7.31147ZM43.0064 16.7841C44.1431 16.7841 45.0681 16.3829 45.8259 15.5917C46.5949 14.7782 46.9849 13.7975 46.9849 12.6607C46.9849 11.524 46.5837 10.5545 45.8259 9.75207C45.0569 8.96083 44.132 8.55963 43.0064 8.55963C41.8697 8.55963 40.9224 8.96083 40.1534 9.75207C39.3845 10.5433 39.0167 11.524 39.0167 12.6607C39.0167 13.7975 39.3845 14.767 40.1534 15.5917C40.9224 16.3941 41.8697 16.7841 43.0064 16.7841Z" fill="#125DE6"/>
<path d="M52.8115 19.8697V5.49357H56.3777V7.42153C57.247 5.86133 58.5731 5.10352 60.3339 5.10352C60.9134 5.10352 61.4929 5.20381 62.0725 5.41556L61.7604 8.98174C61.1586 8.79228 60.568 8.69198 60.0442 8.69198C57.9379 8.69198 56.5337 10.0627 56.5337 13.0494V19.8809H52.8115V19.8697Z" fill="#125DE6"/>
<path d="M74.2449 5.49472H77.7777V19.882H74.2449V18.2215C73.0079 19.57 71.47 20.2275 69.6534 20.2275C67.5917 20.2275 65.8755 19.5143 64.5382 18.0655C63.1897 16.6167 62.5322 14.7891 62.5322 12.6271C62.5322 10.4651 63.2232 8.67084 64.5605 7.26666C65.9089 5.84019 67.6252 5.12695 69.6534 5.12695C71.4477 5.12695 72.9745 5.8179 74.2449 7.21094V5.49472ZM73.1416 9.7407C72.3727 8.92716 71.4254 8.52597 70.2664 8.52597C69.0739 8.52597 68.1267 8.92716 67.3577 9.7407C66.6222 10.5542 66.2544 11.5349 66.2544 12.6717C66.2544 13.8307 66.6222 14.8114 67.3912 15.6249C68.1601 16.4384 69.1074 16.8396 70.2664 16.8396C71.4254 16.8396 72.3727 16.4384 73.1416 15.6249C73.9106 14.8114 74.3006 13.8307 74.3006 12.6717C74.3006 11.5349 73.8994 10.5542 73.1416 9.7407Z" fill="#125DE6"/>
<path d="M90.4038 5.49414H94.4715L88.6876 20.5947C87.2834 24.2612 85.4446 25.9997 82.5917 25.9997C81.5107 25.9997 80.5857 25.7656 79.8168 25.2864L80.452 22.1772C81.1095 22.4892 81.7447 22.6564 82.3019 22.6564C83.4609 22.6564 84.3859 21.8874 85.0992 20.3829L85.3889 19.7254L79.1035 5.50529H83.4052L87.1274 14.8777L90.4038 5.49414Z" fill="#125DE6"/>
<path d="M95.874 18.0204C95.874 16.8279 96.8213 15.9141 98.0695 15.9141C99.2619 15.9141 100.209 16.8391 100.209 18.0204C100.209 19.2908 99.2619 20.1823 98.0695 20.1823C96.8213 20.1935 95.874 19.2908 95.874 18.0204ZM96.2975 14.4653L96.0858 0H100.02L99.7522 14.4653H96.2975Z" fill="#125DE6"/>
</svg>
