<svg width="134" height="135" viewBox="0 0 134 135" fill="none" xmlns="http://www.w3.org/2000/svg">
<rect y="0.523438" width="134" height="134" rx="8" fill="white"/>
<g clip-path="url(#clip0)">
<path fill-rule="evenodd" clip-rule="evenodd" d="M67 27C57.2569 26.9901 47.8287 30.4519 40.4049 36.765C32.9812 43.0782 28.0473 51.83 26.4873 61.4521C24.9273 71.0741 26.8432 80.9376 31.8917 89.2747C36.9403 97.6119 44.7914 103.878 54.0381 106.95C56.1019 107.327 56.8318 106.043 56.8318 104.96C56.8318 103.878 56.8318 101.41 56.8318 97.9852C45.38 100.478 42.9638 92.4706 42.9638 92.4706C42.2041 89.9888 40.5901 87.8566 38.4082 86.4523C34.7084 83.9342 38.7103 83.9342 38.7103 83.9342C40.0072 84.1175 41.2455 84.5937 42.3313 85.3266C43.417 86.0595 44.3219 87.03 44.9773 88.1646C45.5342 89.1749 46.285 90.0652 47.1866 90.7844C48.0883 91.5037 49.123 92.0377 50.2314 92.3559C51.3398 92.6741 52.5001 92.7701 53.6458 92.6386C54.7914 92.507 55.8998 92.1504 56.9073 91.5893C57.0653 89.5177 57.9579 87.5709 59.4242 86.0998C50.3131 85.0674 40.7489 81.542 40.7489 65.955C40.6864 61.8832 42.1913 57.9433 44.9521 54.9509C43.7225 51.4105 43.8662 47.5373 45.3548 44.0979C45.3548 44.0979 48.803 42.9899 56.6305 48.3031C63.352 46.4568 70.4467 46.4568 77.1682 48.3031C84.9957 42.9899 88.4187 44.0979 88.4187 44.0979C89.928 47.5009 90.1076 51.3464 88.922 54.8754C91.6829 57.8677 93.1878 61.8077 93.1252 65.8795C93.1252 81.6428 83.5359 85.0926 74.3996 86.0243C75.3793 87.0095 76.1358 88.194 76.6178 89.4974C77.0998 90.8008 77.2961 92.1926 77.1934 93.5786C77.1934 99.068 77.1934 103.5 77.1934 104.834C77.1934 106.169 77.9233 107.201 80.0123 106.799C89.1537 103.646 96.8872 97.3619 101.847 89.0572C106.806 80.7525 108.672 70.9614 107.115 61.4136C105.558 51.8658 100.679 43.1757 93.3381 36.8786C85.9977 30.5815 76.669 27.0826 67 27V27Z" fill="#1A1414"/>
</g>
<defs>
<clipPath id="clip0">
<rect width="82" height="80" fill="white" transform="translate(26 27)"/>
</clipPath>
</defs>
</svg>
