<svg width="134" height="135" viewBox="0 0 134 135" fill="none" xmlns="http://www.w3.org/2000/svg">
<rect y="0.523438" width="134" height="134" rx="8" fill="white"/>
<g clip-path="url(#clip0)">
<path fill-rule="evenodd" clip-rule="evenodd" d="M100.79 64.7655C100.79 83.9746 85.4057 99.5469 66.4285 99.5469C47.4516 99.5469 32.0676 83.9746 32.0676 64.7655C32.0676 45.556 47.4516 29.9835 66.4285 29.9835C85.4057 29.9835 100.79 45.556 100.79 64.7655Z" fill="#D33833"/>
<path d="M33.4679 73.3799C33.4679 73.3799 30.9804 37.1086 64.7527 36.0722L62.3967 32.186L44.0708 38.2745L38.8347 44.2332L34.2533 52.9127L31.6351 63.0169L32.4205 69.7529" fill="#EF3D3A"/>
<path d="M42.8942 41.0372C36.8655 47.1417 33.1348 55.5701 33.1348 64.8943C33.1348 74.2166 36.8655 82.6461 42.8942 88.7495C48.9258 94.8528 57.2383 98.6189 66.4281 98.6189C75.6181 98.6189 83.9311 94.8528 89.9622 88.7495C95.9905 82.6461 99.722 74.2166 99.722 64.8943C99.722 55.5701 95.9905 47.1417 89.9622 41.0372C83.9311 34.9351 75.6181 31.169 66.4281 31.1682C57.2383 31.169 48.9258 34.9351 42.8942 41.0372ZM41.3682 90.2259C34.961 83.7414 31 74.7797 31 64.8943C31 55.0074 34.961 46.0466 41.3682 39.5616C47.7738 33.0755 56.6408 29.0552 66.4281 29.0564C76.2154 29.0552 85.0833 33.0755 91.4878 39.5616C97.8955 46.0466 101.857 55.0082 101.856 64.8943C101.857 74.7797 97.8955 83.7414 91.4878 90.2259C85.0833 96.7117 76.2154 100.731 66.4281 100.731C56.6408 100.731 47.7738 96.7117 41.3682 90.2259" fill="#231F20"/>
<path fill-rule="evenodd" clip-rule="evenodd" d="M80.8928 64.9577L75.6565 65.7349L68.5879 66.5122L64.0062 66.6416L59.5558 66.5122L56.1522 65.4757L53.1414 62.2373L50.7852 55.6308L50.2617 54.2057L47.1201 53.1696L45.2875 50.1901L43.9785 45.9152L45.4186 42.1584L48.8218 40.9926L51.5706 42.2882L52.8799 45.138L54.4507 44.8788L54.9741 44.2313L54.4507 41.2518L54.3195 37.495L55.1049 32.3135L55.0743 29.3537L57.4611 25.5775L61.65 22.5979L68.9806 19.4889L77.0962 20.6548L84.1648 25.7069L87.4375 30.8884L89.5318 34.6452L90.0552 43.9721L88.4844 52.0038L85.6048 59.1284L82.8559 62.8852" fill="#F0D6B7"/>
<path fill-rule="evenodd" clip-rule="evenodd" d="M76.442 87.3683L57.723 88.1455V91.2545L59.2938 102.136L58.5084 103.043L45.4187 98.6383L44.5021 97.0838L43.1932 82.446L40.1829 73.6371L39.5282 71.5646L49.9999 64.44L53.2727 63.1443L56.1523 66.6419L58.6393 68.8442L61.5193 69.7509L62.8281 70.1395L64.3989 76.8755L65.577 78.3005L68.5879 77.2641L66.4933 81.2801L77.8816 86.591L76.442 87.3683" fill="#335061"/>
<path fill-rule="evenodd" clip-rule="evenodd" d="M45.4186 42.1581L48.8218 40.9923L51.5707 42.2879L52.8799 45.1377L54.4507 44.8785L54.8434 43.324L54.058 40.3448L54.8434 33.2198L54.1887 29.3336L56.5449 26.6133L61.65 22.5976L60.21 20.6545L53.0106 24.1521L49.9999 26.4839L48.2982 30.1109L45.6802 33.6085L44.8948 37.7539L45.4186 42.1581Z" fill="#6D6B6D"/>
<path fill-rule="evenodd" clip-rule="evenodd" d="M50.7853 29.982C50.7853 29.982 52.7488 25.1891 60.6028 22.8574C68.4568 20.5257 60.9955 21.1731 60.9955 21.1731L52.4873 24.4119L49.2145 27.6503L47.7749 30.2412L50.7853 29.982Z" fill="#DCD9D8"/>
<path fill-rule="evenodd" clip-rule="evenodd" d="M46.8583 41.2515C46.8583 41.2515 44.1094 32.1834 54.5814 30.8882L54.1887 29.3337L46.9894 31.018L44.8948 37.7539L45.4186 42.1582L46.8583 41.2515Z" fill="#DCD9D8"/>
<path fill-rule="evenodd" clip-rule="evenodd" d="M51.0471 53.2993L52.7611 51.6558C52.7611 51.6558 53.5346 51.7448 53.6653 52.6515C53.796 53.5585 54.1887 61.7196 59.8173 66.1242C60.3308 66.526 55.6288 65.476 55.6288 65.476L51.4398 58.9992" fill="#F7E4CD"/>
<path fill-rule="evenodd" clip-rule="evenodd" d="M75.1336 50.8389C75.1336 50.8389 75.4387 46.9122 76.5072 47.2142C77.5758 47.5162 77.5758 48.5736 77.5758 48.5736C77.5758 48.5736 74.9808 50.2349 75.1336 50.8389" fill="#F7E4CD"/>
<path d="M85.9976 36.4586C85.9976 36.4586 83.8401 36.9094 83.6414 38.7904C83.4427 40.6717 85.9976 39.179 86.3903 39.0496" fill="#F7E4CD"/>
<path d="M70.1587 36.5888C70.1587 36.5888 67.2787 36.9774 67.2787 38.7907C67.2787 40.6044 70.5515 40.475 71.4677 39.6977" fill="#F7E4CD"/>
<path fill-rule="evenodd" clip-rule="evenodd" d="M52.3561 45.0088C52.3561 45.0088 47.3817 42.0292 46.8583 44.8794C46.3348 47.7292 45.1564 49.8021 47.6437 52.7812L45.9421 52.2632L44.3713 48.2476L43.8479 44.3614L46.8583 41.252L50.2618 41.5112L52.2253 43.0657L52.3561 45.0088Z" fill="#F7E4CD"/>
<path fill-rule="evenodd" clip-rule="evenodd" d="M54.7123 36.8477C54.7123 36.8477 56.9376 25.4482 68.1952 23.2459C77.4634 21.433 82.332 23.6345 84.1648 25.707C84.1648 25.707 75.9181 15.9919 68.064 18.9711C60.21 21.9506 54.4507 27.3913 54.5814 30.8885C54.8043 36.8453 54.7123 36.8477 54.7123 36.8477Z" fill="#F7E4CD"/>
<path fill-rule="evenodd" clip-rule="evenodd" d="M85.0813 27.0025C85.0813 27.0025 81.2855 26.8731 81.1543 30.2413C81.1543 30.2413 81.1539 30.7593 81.4158 31.2773C81.4158 31.2773 84.4271 27.9092 86.2594 29.7229" fill="#F7E4CD"/>
<path fill-rule="evenodd" clip-rule="evenodd" d="M68.4591 31.6283C68.4591 31.6283 67.8056 26.4584 63.3517 29.464C60.4719 31.4071 60.734 34.1275 61.2573 34.6455C61.7809 35.1639 61.6385 36.2074 62.0371 35.4912C62.4354 34.7749 62.3043 32.4432 63.7444 31.7958C65.1843 31.1479 67.5448 30.4243 68.4591 31.6283Z" fill="#F7E4CD"/>
<path fill-rule="evenodd" clip-rule="evenodd" d="M56.1522 66.6413L43.8479 72.082C43.8479 72.082 48.953 92.161 46.3348 98.3789L44.5021 97.7315L44.3713 90.0884L40.9683 75.58L39.5282 71.564L52.3561 63.0147L56.1522 66.6413Z" fill="#49728B"/>
<path fill-rule="evenodd" clip-rule="evenodd" d="M57.4174 77.7477L59.1631 79.8555V87.6279H57.0684C57.0684 87.6279 56.8069 82.1872 56.8069 81.5393C56.8069 80.8916 57.0684 78.5598 57.0684 78.5598" fill="#49728B"/>
<path fill-rule="evenodd" clip-rule="evenodd" d="M57.4612 88.7938L51.5707 89.0526L53.2726 90.2185L57.4612 90.8662" fill="#49728B"/>
<path fill-rule="evenodd" clip-rule="evenodd" d="M77.6201 87.4977L82.4633 87.3682L83.6414 99.2862L78.6671 99.9336L77.6201 87.4977" fill="#335061"/>
<path fill-rule="evenodd" clip-rule="evenodd" d="M78.929 87.498L86.2595 87.1094C86.2595 87.1094 89.2699 79.5961 89.2699 79.2075C89.2699 78.8189 91.888 68.3262 91.888 68.3262L85.9975 62.238L84.8194 61.2016L81.6778 64.3105V76.3578L78.929 87.498" fill="#335061"/>
<path fill-rule="evenodd" clip-rule="evenodd" d="M82.2013 86.5913L77.6201 87.498L78.2744 91.1254C79.9759 91.9027 82.856 89.8298 82.856 89.8298" fill="#49728B"/>
<path fill-rule="evenodd" clip-rule="evenodd" d="M82.3324 63.9222L91.4952 70.6582L91.7572 67.5492L84.8194 61.2019L82.3324 63.9222Z" fill="#49728B"/>
<path fill-rule="evenodd" clip-rule="evenodd" d="M62.0039 113.019L59.2938 102.136L57.9459 94.1061L57.723 88.1458L69.9889 87.4996L77.6201 87.4983L76.9262 101.101L78.1043 111.594L77.9735 113.537L68.0254 114.314L62.0039 113.019" fill="white"/>
<path fill-rule="evenodd" clip-rule="evenodd" d="M75.9181 87.368C75.9181 87.368 75.2639 100.84 77.2274 110.426C77.2274 110.426 73.3004 112.888 67.5405 113.535L78.5363 113.147L79.8451 112.369L78.2743 91.1249L77.8816 86.5904" fill="#DCD9D8"/>
<path fill-rule="evenodd" clip-rule="evenodd" d="M83.8644 98.251L88.9695 96.826L98.6558 96.3079L100.096 91.9037L97.4777 84.2606L94.4673 83.872L90.2784 85.1673L86.2595 87.1092L84.1259 86.7218L82.4633 87.3683" fill="white"/>
<path fill-rule="evenodd" clip-rule="evenodd" d="M83.7721 95.6586C83.7721 95.6586 87.1752 94.1044 87.6991 94.2339L86.2594 87.1089L87.961 86.4614C87.961 86.4614 89.1391 93.1973 89.1391 93.9746C89.1391 93.9746 96.4692 94.3632 97.1239 94.3632C97.1239 94.3632 98.6947 91.3837 98.302 88.2747L99.742 92.4201L99.8728 94.7518L97.7785 97.8608L95.4223 98.3789L91.4953 98.2494L90.1864 96.5656L85.6048 97.213L84.1648 97.7315" fill="#DCD9D8"/>
<path d="M78.6282 86.4629L75.7485 79.2084L72.7377 74.9336C72.7377 74.9336 73.3919 73.1199 74.3085 73.1199C75.225 73.1199 77.3193 73.1199 77.3193 73.1199L80.199 74.1564L79.9374 78.9493L78.6282 86.4629Z" fill="white"/>
<path fill-rule="evenodd" clip-rule="evenodd" d="M79.1909 84.0002C79.1909 84.0002 75.5254 77.0053 75.5254 75.969C75.5254 75.969 76.1797 74.4145 77.0962 74.8031C78.0128 75.1917 79.9763 76.2278 79.9763 76.2278V73.7667L75.5254 72.8596L72.515 73.2482L77.6201 85.1661L78.667 85.2959" fill="#DCD9D8"/>
<path d="M63.1822 66.9023L59.5558 66.5121L56.1522 65.4756V66.6415L57.8152 68.4564L63.0512 70.7881" fill="white"/>
<path fill-rule="evenodd" clip-rule="evenodd" d="M57.3308 67.291C57.3308 67.291 61.389 68.9753 62.6979 68.5867L62.8281 70.1396L59.1636 69.364L56.9381 67.8095L57.3308 67.291Z" fill="#DCD9D8"/>
<path fill-rule="evenodd" clip-rule="evenodd" d="M83.8501 73.5615C81.629 73.497 79.6224 73.2359 77.8654 72.7454C77.9848 72.0327 77.7613 71.3332 77.9408 70.8198C78.4305 70.4708 79.2512 70.4763 79.9915 70.3943C79.3514 70.083 78.4521 69.9598 77.7134 70.1397C77.6962 69.645 77.4719 69.3384 77.3361 68.9513C78.5848 68.5102 81.5328 65.6185 83.1912 66.576C83.9813 67.0315 84.3171 69.6329 84.3783 70.8979C84.4294 71.9472 84.2821 73.0058 83.8501 73.5615Z" fill="#D33833"/>
<path d="M83.8501 73.5615C81.629 73.497 79.6224 73.2359 77.8654 72.7454C77.9848 72.0327 77.7613 71.3332 77.9408 70.8198C78.4305 70.4708 79.2512 70.4763 79.9915 70.3943C79.3514 70.083 78.4521 69.9598 77.7134 70.1397C77.6962 69.645 77.4719 69.3384 77.3361 68.9513C78.5848 68.5102 81.5328 65.6185 83.1912 66.576C83.9813 67.0315 84.3171 69.6329 84.3783 70.8979C84.4294 71.9472 84.2821 73.0058 83.8501 73.5615Z" stroke="#D33833" stroke-width="2.5"/>
<path fill-rule="evenodd" clip-rule="evenodd" d="M73.2288 69.9683C73.223 70.1346 73.2159 70.3021 73.2092 70.47C72.5157 70.9208 71.3961 70.9154 70.6351 71.2943C71.757 71.3428 72.6402 71.6102 73.4044 71.9872C73.3875 72.4061 73.3714 72.8247 73.3549 73.2436C72.0837 74.1048 70.9225 75.3872 69.4259 76.1948C68.7182 76.5768 66.2347 77.5595 65.4818 77.3859C65.0559 77.288 65.0175 76.7649 64.8472 76.2718C64.4845 75.2158 63.6492 73.5351 63.5764 71.9456C63.4836 69.938 63.2788 66.5733 65.465 66.9868C67.2288 67.3198 69.2801 68.1239 70.6457 68.8623C71.4802 69.3138 71.9628 69.8719 73.2288 69.9683" fill="#D33833"/>
<path d="M73.2288 69.9683C73.223 70.1346 73.2159 70.3021 73.2092 70.47C72.5157 70.9208 71.3961 70.9154 70.6351 71.2943C71.757 71.3428 72.6402 71.6102 73.4044 71.9872C73.3875 72.4061 73.3714 72.8247 73.3549 73.2436C72.0837 74.1048 70.9225 75.3872 69.4259 76.1948C68.7182 76.5768 66.2347 77.5595 65.4818 77.3859C65.0559 77.288 65.0175 76.7649 64.8472 76.2718C64.4845 75.2158 63.6492 73.5351 63.5764 71.9456C63.4836 69.938 63.2788 66.5733 65.465 66.9868C67.2288 67.3198 69.2801 68.1239 70.6457 68.8623C71.4802 69.3138 71.9628 69.8719 73.2288 69.9683V69.9683Z" stroke="#D33833" stroke-width="2.5"/>
<path fill-rule="evenodd" clip-rule="evenodd" d="M74.4914 72.3638C74.2974 71.2702 74.0732 70.9581 74.16 70.0041C77.1072 68.0594 77.6605 73.3443 74.4914 72.3638Z" fill="#D33833"/>
<path d="M74.4914 72.3638C74.2974 71.2702 74.0732 70.9581 74.16 70.0041C77.1072 68.0594 77.6605 73.3443 74.4914 72.3638Z" stroke="#D33833" stroke-width="2.5"/>
<path fill-rule="evenodd" clip-rule="evenodd" d="M78.7589 73.25C78.7589 73.25 77.8423 71.9543 78.4969 71.5657C79.1516 71.1771 79.8062 71.5661 80.1989 70.9183C80.5916 70.2704 80.1989 69.8818 80.3297 69.1046C80.4604 68.3273 81.1155 68.1975 81.7697 68.0681C82.4239 67.9387 84.2571 67.6795 84.5186 68.3273L83.7332 65.9956L82.1624 65.4776L77.1881 68.3273L76.9261 69.7524V72.6022" fill="#EF3D3A"/>
<path fill-rule="evenodd" clip-rule="evenodd" d="M65.0146 77.5244C64.8573 75.5028 64.6909 73.4839 64.5057 71.4642C64.2287 68.4485 65.2377 68.9747 67.8793 68.9747C68.2827 68.9747 70.3634 69.4508 70.5123 69.752C71.2262 71.1949 69.3185 70.8743 71.3346 71.9624C73.0365 72.8807 76.043 71.4048 75.3554 69.3633C74.9706 68.9094 73.3503 69.2219 72.7695 68.9238C71.7469 68.3992 70.7243 67.8745 69.7016 67.3499C68.4005 66.6818 65.3934 65.708 64.0063 66.6414C60.4914 69.007 64.2281 74.9175 65.4819 77.3852" fill="#EF3D3A"/>
<path fill-rule="evenodd" clip-rule="evenodd" d="M68.4591 31.6283C64.8913 30.806 63.1185 33.1059 62.037 35.4912C61.0714 35.2596 61.4557 33.96 61.6996 33.2978C62.3382 31.5599 64.9117 29.2464 67.0145 29.5601C67.9194 29.6949 69.144 30.5137 68.4591 31.6283" fill="#231F20"/>
<path fill-rule="evenodd" clip-rule="evenodd" d="M85.8423 35.6488C85.8985 35.6511 85.9554 35.653 86.0116 35.6554C86.8178 37.3128 87.5156 39.0686 88.5327 40.5318C87.8514 42.1022 83.3734 43.4919 83.4426 40.6721C84.411 40.2532 86.0827 40.5866 86.9411 40.0515C86.4447 38.7033 85.7285 37.5557 85.8423 35.6488" fill="#231F20"/>
<path fill-rule="evenodd" clip-rule="evenodd" d="M70.2856 35.692C71.0506 37.0798 71.2995 38.5379 72.3869 39.5868C72.8766 40.0589 73.8289 40.6345 73.3569 41.9476C73.2465 42.2574 72.4403 42.948 71.975 43.0836C70.275 43.5802 66.3137 43.1862 67.6552 41.0888C69.0611 41.1537 70.9508 41.9923 72.0017 40.9823C71.1947 39.7057 69.756 37.18 70.2856 35.692" fill="#231F20"/>
<path fill-rule="evenodd" clip-rule="evenodd" d="M85.2043 49.7966C82.6447 51.4237 79.7905 53.1931 75.5965 52.7827C74.7004 52.0117 74.3587 50.2959 75.2293 49.1627C75.6825 49.9337 75.3978 51.3518 76.6607 51.5652C79.0405 51.9682 81.8102 50.1246 83.522 49.4802C84.5834 47.7093 83.4305 47.0579 82.4742 45.9181C80.5166 43.5829 77.8907 40.6884 77.9861 37.1924C78.7774 36.6246 78.8457 38.059 78.9592 38.3202C79.9814 40.6877 82.554 43.7154 84.4315 45.7417C84.8925 46.2407 85.6516 46.7194 85.736 47.0494C85.9795 48.0089 85.1026 49.1584 85.2043 49.7966" fill="#231F20"/>
<path fill-rule="evenodd" clip-rule="evenodd" d="M51.4602 48.0835C50.6579 47.6303 50.467 45.6344 49.5251 45.5776C48.179 45.4968 48.4245 48.167 48.4298 49.7285C47.5033 48.8961 47.3404 46.3331 48.021 45.0169C47.2453 44.6399 46.8989 45.4327 46.4686 45.7121C47.0216 41.7365 52.3453 43.8681 51.4602 48.0835Z" fill="#231F20"/>
<path fill-rule="evenodd" clip-rule="evenodd" d="M86.8339 51.4524C85.6425 53.6967 83.957 56.1683 80.4608 56.2402C80.3897 55.5155 80.3351 54.4125 80.4647 53.9761C83.1374 53.722 84.7876 52.3758 86.8339 51.4524Z" fill="#231F20"/>
<path fill-rule="evenodd" clip-rule="evenodd" d="M70.084 52.9069C72.3139 54.0673 76.4121 54.1921 79.4429 54.1042C79.6055 54.7614 79.6016 55.5732 79.6079 56.3746C75.7119 56.5669 71.1056 55.6129 70.084 52.9069Z" fill="#231F20"/>
<path fill-rule="evenodd" clip-rule="evenodd" d="M69.6601 55.0706C71.2021 58.902 76.502 58.4609 80.9713 58.3552C80.7746 58.8527 80.3481 59.4402 79.8179 59.6528C78.3858 60.2295 74.4356 60.6671 72.4474 59.6221C71.1864 58.9587 70.3763 57.4598 69.6854 56.5812C69.3518 56.1568 67.6905 55.0729 69.6601 55.0706" fill="#231F20"/>
<path fill-rule="evenodd" clip-rule="evenodd" d="M85.0182 76.2054C83.2086 79.2725 81.4772 82.4226 79.3303 85.1279C80.2304 82.509 80.6156 78.1256 80.7515 74.7839C82.6345 73.9118 84.2469 74.9801 85.0182 76.2054Z" fill="#81B0C4"/>
<path fill-rule="evenodd" clip-rule="evenodd" d="M94.7555 87.2284C92.7296 87.6297 91.306 89.5783 89.3296 89.4532C90.4158 87.9379 92.3192 87.2991 94.7555 87.2284Z" fill="#231F20"/>
<path fill-rule="evenodd" clip-rule="evenodd" d="M95.6493 90.3665C93.998 90.5391 92.0584 90.8037 90.3835 90.6674C91.1764 89.4689 94.2312 89.8824 95.6493 90.3665Z" fill="#231F20"/>
<path fill-rule="evenodd" clip-rule="evenodd" d="M96.2214 93.0709C94.3655 93.1107 92.0588 93.0741 90.2948 92.9277C91.3382 91.8186 95.0178 92.5161 96.2214 93.0709Z" fill="#231F20"/>
<path fill-rule="evenodd" clip-rule="evenodd" d="M81.5262 100.474C81.7925 102.781 82.7165 105.118 82.6006 107.644C81.5745 107.986 80.9851 108.286 79.6102 108.284C79.5132 106.137 79.223 102.855 79.3098 100.809C79.986 100.853 80.9831 100.331 81.5262 100.474Z" fill="#DCD9D8"/>
<path fill-rule="evenodd" clip-rule="evenodd" d="M78.5343 66.4808C77.6024 67.0828 76.8088 67.8344 75.9138 68.4772C73.9291 68.5743 72.846 68.3411 71.3879 67.2134C71.4119 67.1228 71.5584 67.1632 71.5639 67.0521C73.6884 67.9891 76.389 66.6705 78.5343 66.4808" fill="#F0D6B7"/>
<path fill-rule="evenodd" clip-rule="evenodd" d="M67.3813 80.8125C67.9651 78.3093 70.2522 77.0129 72.3292 75.6345C74.4729 78.3269 75.7767 81.7895 77.2124 85.1309C73.8202 84.1189 70.3543 82.477 67.3813 80.8125Z" fill="#81B0C4"/>
<path fill-rule="evenodd" clip-rule="evenodd" d="M79.3099 100.809C79.2231 102.856 79.5133 106.137 79.6103 108.284C80.9851 108.286 81.5746 107.987 82.6007 107.644C82.7166 105.118 81.7925 102.781 81.5263 100.474C80.9832 100.331 79.9861 100.853 79.3099 100.809V100.809ZM57.9023 89.1703C58.8088 97.418 60.1219 104.351 62.5303 111.655C67.8754 113.261 74.3191 113.401 79.0436 111.952C78.1762 107.829 78.5551 102.811 78.0481 98.412C77.6661 95.1057 77.8608 91.779 77.337 88.4058C71.6122 87.2272 63.5204 88.1302 57.9023 89.1703V89.1703ZM78.6906 88.4575C78.6423 91.9997 78.8508 95.4938 79.1241 99.0405C80.4986 98.8363 81.4312 98.7 82.7083 98.4229C82.2936 95.0085 82.3447 91.1665 81.5 88.1462C80.5237 88.1554 79.6641 88.1349 78.6906 88.4575V88.4575ZM85.663 87.8866C85.0107 87.7386 84.2512 87.8808 83.628 87.8928C83.921 90.7803 84.6317 93.9666 84.8819 96.9975C85.8625 97.0277 86.3863 96.57 87.1929 96.4161C87.2361 93.7555 86.9581 90.0901 85.663 87.8866V87.8866ZM96.2203 97.4322C98.2643 96.941 99.5496 94.4636 98.9778 91.9193C98.5942 90.2094 97.9109 86.9896 97.1797 85.8957C96.6393 85.0865 95.1741 84.0272 94.0043 84.7687C92.1013 85.9746 88.7488 86.3247 87.361 87.7844C88.0569 90.0773 88.2729 93.2266 88.5599 96.1319C90.9373 96.2785 93.8625 95.4844 95.8398 96.3271C94.4594 96.7696 92.6683 96.7731 91.4757 97.418C92.4504 97.8839 94.7324 97.7897 96.2203 97.4322V97.4322ZM77.2125 85.1309C75.7768 81.7895 74.473 78.3269 72.3293 75.6345C70.2523 77.0129 67.9652 78.3093 67.3815 80.8124C70.3544 82.477 73.8204 84.1189 77.2125 85.1309ZM80.7515 74.7838C80.6156 78.1255 80.2304 82.5089 79.3303 85.1278C81.4772 82.4225 83.2086 79.2724 85.0182 76.2053C84.2469 74.98 82.6345 73.9117 80.7515 74.7838V74.7838ZM76.7397 73.3731C75.9264 73.2864 75.236 74.2984 74.1785 73.8608C73.9362 74.1259 73.7159 74.413 73.4689 74.6719C75.8047 77.4576 76.8661 81.4098 78.6702 84.6835C79.6382 81.5388 79.5267 78.0936 79.7399 74.6614C78.4098 74.7449 77.6719 73.471 76.7397 73.3731ZM74.16 70.0037C74.0732 70.9578 74.2975 71.2699 74.4915 72.3635C77.6606 73.344 77.1072 68.0591 74.16 70.0037ZM70.6458 68.862C69.2802 68.1236 67.2289 67.3195 65.4651 66.9865C63.2789 66.5726 63.4836 69.9377 63.5764 71.9453C63.6493 73.5348 64.4846 75.2156 64.8473 76.2715C65.0176 76.7646 65.056 77.2877 65.4819 77.3856C66.2348 77.5593 68.7183 76.5765 69.426 76.1945C70.9226 75.3869 72.0838 74.1045 73.355 73.2433C73.3715 72.8244 73.3876 72.4058 73.4045 71.9869C72.6403 71.6099 71.7571 71.3426 70.6352 71.294C71.3962 70.9151 72.5158 70.9205 73.2093 70.4697C73.216 70.3018 73.2231 70.1343 73.2289 69.968C71.9629 69.8716 71.4803 69.3136 70.6458 68.862V68.862ZM57.6028 66.5174C56.4695 67.6561 60.7815 69.2082 62.1544 69.2918C62.1468 68.5713 62.5694 67.892 62.4842 67.3751C60.8536 67.0918 58.7107 67.2787 57.6028 66.5174V66.5174ZM71.5639 67.0522C71.5584 67.1633 71.4119 67.1229 71.388 67.2134C72.8461 68.3412 73.9291 68.5744 75.9138 68.4772C76.8088 67.8345 77.6024 67.0829 78.5343 66.4809C76.389 66.6705 73.6884 67.9891 71.5639 67.0522V67.0522ZM84.3785 70.8976C84.3172 69.6326 83.9814 67.0312 83.1913 66.5757C81.533 65.6178 78.585 68.5099 77.3362 68.951C77.4721 69.338 77.6963 69.6447 77.7136 70.1394C78.4522 69.9594 79.3515 70.0826 79.9916 70.3939C79.2514 70.4759 78.4306 70.4705 77.9409 70.8195C77.7615 71.3328 77.9849 72.0324 77.8655 72.7451C79.6225 73.2355 81.6292 73.4967 83.8503 73.5612C84.2822 73.0055 84.4295 71.9469 84.3785 70.8976V70.8976ZM55.6949 67.6188C55.339 67.3677 52.9314 64.2677 52.6016 64.3963C48.2451 66.0965 44.1716 69.0365 40.5314 71.8171C44.0021 79.1869 45.4031 88.2162 45.6506 96.9188C49.6264 98.759 53.1185 101.412 58.5135 101.689C57.8892 97.3176 57.3193 93.4177 56.965 89.3023C55.6094 88.7368 53.6646 89.328 52.396 89.127C52.3853 87.6141 54.3334 88.4645 54.4957 87.4471C54.618 86.6776 53.4238 86.6193 53.8126 85.4076C54.8044 85.7643 55.3252 86.5524 56.3828 86.8483C57.3493 84.7559 56.3693 81.0538 56.5086 79.305C56.535 78.9767 56.6743 77.4859 57.4175 77.7475C58.0753 77.979 57.3799 81.7122 57.452 83.3673C57.5177 84.8922 57.2659 86.3678 57.89 87.325C63.1032 86.6228 68.4008 86.1689 74.0414 86.0157C72.8005 85.4888 71.3263 84.9901 69.71 84.0886C68.8339 83.5998 66.0719 82.5827 65.8191 81.7591C65.4157 80.4468 66.8775 79.7477 67.1276 78.6226C64.4961 80.0429 63.9826 77.2613 63.3601 75.2906C62.7961 73.5056 62.475 72.1723 62.3366 71.1428C60.0698 70.0733 57.6461 68.9902 55.6949 67.6188V67.6188ZM82.0761 64.7713C85.7058 63.0295 86.36 71.2811 84.9373 73.9393C85.1572 74.7321 85.9135 75.0356 86.2222 75.7484C84.1966 79.3392 81.9469 82.691 79.8801 86.2396C81.4175 85.2925 83.6135 86.0702 85.4226 85.3613C86.0839 85.1025 86.5627 83.6043 87.0633 82.4058C88.4405 79.1084 89.8865 74.9513 90.5297 71.8046C90.675 71.0876 91.0708 69.5254 90.9821 68.8872C90.8238 67.7447 89.2574 66.8975 88.4606 66.191C86.9927 64.886 86.0682 63.7376 84.5371 62.5173C83.9162 63.4244 82.5838 64.0337 82.0761 64.7713V64.7713ZM47.3937 32.9168C45.6641 34.8001 46.0262 38.3287 46.2356 40.8392C49.3618 38.893 53.5112 40.9931 53.4721 44.3034C54.9647 44.2642 54.0297 42.4586 53.7597 41.2955C52.8774 37.4963 55.2462 33.3688 53.8671 29.8945C51.1895 30.0954 48.9898 31.1777 47.3937 32.9168V32.9168ZM59.7691 21.9864C55.8536 23.0847 50.8355 25.9002 49.2265 29.3811C50.4724 29.202 51.3373 28.5802 52.5663 28.5032C53.0308 28.4733 53.6393 28.696 54.1731 28.5646C55.237 28.3035 56.1348 25.943 56.9374 25.0647C57.7197 24.207 58.66 23.8405 59.3035 23.0586C59.717 22.8612 60.3282 22.8748 60.3517 22.2604C60.1725 22.0707 59.9838 21.9262 59.7691 21.9864V21.9864ZM80.1514 23.0194C76.0874 20.7502 69.2085 19.0434 64.8854 21.1761C61.3971 22.8973 56.6819 25.7452 55.0743 29.3539C56.5761 32.8363 54.6295 36.0273 54.5053 39.563C54.4393 41.4443 55.4003 43.0866 55.474 45.1347C54.9601 45.9737 53.39 46.0771 52.3032 46.0196C51.9374 44.2078 51.2969 42.1714 49.4117 41.967C46.7441 41.6783 44.7936 43.8631 44.6724 46.1463C44.529 48.8312 46.7563 53.2814 49.9133 52.9724C51.1328 52.8531 51.4324 51.6433 52.7611 51.6557C53.4813 53.0777 51.6502 53.5242 51.4618 54.5413C51.4127 54.804 51.6137 55.8307 51.7306 56.3122C52.304 58.6568 53.5823 61.6911 54.8404 63.4761C56.4373 65.7402 59.5746 66.0814 62.9498 66.3033C63.5526 65.0181 65.7734 65.1238 67.2204 65.46C65.4863 64.7803 63.874 63.1325 62.5379 61.674C61.0032 60.0006 59.4485 58.2056 59.37 56.0184C62.2702 60.0002 64.6663 63.4776 69.9402 65.2291C73.9307 66.5536 78.5913 64.6221 81.6574 62.4913C82.9298 61.6056 83.6893 60.2004 84.5937 58.914C87.9775 54.0971 89.5566 47.2216 89.2094 40.5575C89.0665 37.8092 89.0728 35.0701 88.1409 33.2211C87.167 31.2877 83.8731 29.5579 81.9449 31.3067C81.5875 29.4266 83.5483 28.2638 85.8515 28.9404C84.2092 26.843 82.4856 24.3228 80.1514 23.0194V23.0194ZM87.7231 85.0307C90.8988 83.4683 96.8325 80.8254 98.8235 85.0364C99.5582 86.5887 100.42 89.2126 100.801 90.8149C101.338 93.0754 100.218 97.8268 97.87 98.5854C95.7962 99.2553 93.3764 99.2145 90.8784 98.7179C90.5843 98.4758 90.2568 98.0537 90.0278 97.6138C88.2442 97.5453 86.574 97.7086 85.165 98.4342C85.2985 99.7395 84.4063 99.949 83.5699 100.218C82.9498 102.651 84.8104 105.828 84.3651 108.047C84.0474 109.628 82.0823 109.872 80.638 110.168C80.5909 111.046 80.7012 111.779 80.7998 112.522C80.4695 113.727 78.9883 114.412 77.5848 114.58C72.967 115.13 65.9556 115.377 61.514 113.796C60.2745 110.787 59.2981 107.128 58.2658 103.693C53.9338 104.15 50.4302 101.843 47.1273 100.331C45.9837 99.8063 44.4017 99.5173 43.9745 98.6165C43.5603 97.7443 43.7298 96.0728 43.627 94.4939C43.3655 90.4612 43.1415 86.5715 42.0654 82.4424C41.5822 80.5895 40.7401 78.9545 40.1525 77.1691C39.6095 75.5144 38.6607 73.4695 38.4133 71.8194C38.0464 69.3738 40.3734 69.2378 41.8614 68.178C44.1616 66.5392 45.9671 65.6329 48.4583 64.1538C49.1961 63.7158 51.4212 62.6071 51.6743 62.0965C52.1774 61.0841 50.8107 59.6567 50.4453 58.8631C49.8672 57.6083 49.5658 56.5423 49.483 55.3041C47.3932 54.9773 45.8091 53.7465 44.8522 52.3588C43.2693 50.062 42.1716 45.8128 43.5411 42.5807C43.6485 42.3261 44.1841 41.8256 44.2632 41.4346C44.419 40.6647 43.9698 39.6411 43.9419 38.8223C43.798 34.6213 44.6602 31.0017 47.518 29.7348C48.6781 25.1611 52.8304 23.6404 56.7425 21.3673C58.2049 20.5178 59.8169 19.9749 61.4818 19.3687C67.454 17.1935 76.6172 17.6032 81.5738 21.3129C83.6755 22.8861 87.0351 26.2076 88.2367 28.6124C91.4105 34.9613 91.1851 45.5719 88.9652 53.295C88.6667 54.3318 88.234 55.856 87.6296 57.1015C87.2082 57.9712 85.8986 59.7115 86.0576 60.4794C86.2214 61.2734 89.0437 63.3941 89.6489 63.9716C90.7386 65.0119 92.8089 66.3927 92.9766 67.7054C93.1569 69.1025 92.3546 71.0138 91.9481 72.3619C90.5894 76.8609 89.2636 81.0197 87.7231 85.0307" fill="#231F20"/>
<path fill-rule="evenodd" clip-rule="evenodd" d="M66.5357 53.8871C66.708 53.6601 67.6552 53.3154 68.9806 53.9469C68.9806 53.9469 67.4098 54.2061 67.5405 56.7979L66.8859 56.6681C66.8859 56.6681 66.2094 54.3181 66.5357 53.8871" fill="#F7E4CD"/>
<path fill-rule="evenodd" clip-rule="evenodd" d="M78.0128 76.1637C78.0128 76.557 77.6904 76.876 77.2926 76.876C76.8952 76.876 76.5728 76.557 76.5728 76.1637C76.5728 75.7704 76.8952 75.451 77.2926 75.451C77.6904 75.451 78.0128 75.7704 78.0128 76.1637Z" fill="#1D1919"/>
<path fill-rule="evenodd" clip-rule="evenodd" d="M78.7326 79.4664C78.7326 79.8598 78.4102 80.1787 78.0124 80.1787C77.615 80.1787 77.2926 79.8598 77.2926 79.4664C77.2926 79.0731 77.615 78.7537 78.0124 78.7537C78.4102 78.7537 78.7326 79.0731 78.7326 79.4664Z" fill="#1D1919"/>
</g>
<defs>
<clipPath id="clip0">
<rect width="71" height="97" fill="white" transform="translate(31 18)"/>
</clipPath>
</defs>
</svg>
