<svg width="134" height="135" viewBox="0 0 134 135" fill="none" xmlns="http://www.w3.org/2000/svg">
<rect y="0.523438" width="134" height="134" rx="8" fill="white"/>
<path d="M43.8985 79.2397C43.8985 83.9467 40.0533 87.7919 35.3463 87.7919C30.6393 87.7919 26.7941 83.9467 26.7941 79.2397C26.7941 74.5327 30.6393 70.6875 35.3463 70.6875H43.8985V79.2397Z" fill="#E01E5A"/>
<path d="M48.2078 79.2397C48.2078 74.5327 52.0529 70.6875 56.76 70.6875C61.467 70.6875 65.3122 74.5327 65.3122 79.2397V100.653C65.3122 105.36 61.467 109.206 56.76 109.206C52.0529 109.206 48.2078 105.36 48.2078 100.653V79.2397Z" fill="#E01E5A"/>
<path d="M56.76 44.8984C52.0529 44.8984 48.2078 41.0532 48.2078 36.3462C48.2078 31.6391 52.0529 27.7939 56.76 27.7939C61.467 27.7939 65.3122 31.6391 65.3122 36.3462V44.8984H56.76Z" fill="#36C5F0"/>
<path d="M56.76 49.208C61.467 49.208 65.3122 53.0532 65.3122 57.7602C65.3122 62.4673 61.467 66.3124 56.76 66.3124H35.3463C30.6393 66.3124 26.7941 62.4673 26.7941 57.7602C26.7941 53.0532 30.6393 49.208 35.3463 49.208H56.76Z" fill="#36C5F0"/>
<path d="M91.1014 57.7602C91.1014 53.0532 94.9466 49.208 99.6537 49.208C104.361 49.208 108.206 53.0532 108.206 57.7602C108.206 62.4673 104.361 66.3124 99.6537 66.3124H91.1014V57.7602Z" fill="#2EB67D"/>
<path d="M86.7922 57.7599C86.7922 62.4669 82.947 66.3121 78.24 66.3121C73.5329 66.3121 69.6877 62.4669 69.6877 57.7599V36.3462C69.6877 31.6391 73.5329 27.7939 78.24 27.7939C82.947 27.7939 86.7922 31.6391 86.7922 36.3462V57.7599Z" fill="#2EB67D"/>
<path d="M78.24 92.1016C82.947 92.1016 86.7922 95.9467 86.7922 100.654C86.7922 105.361 82.947 109.206 78.24 109.206C73.5329 109.206 69.6877 105.361 69.6877 100.654V92.1016H78.24Z" fill="#ECB22E"/>
<path d="M78.24 87.7919C73.5329 87.7919 69.6877 83.9467 69.6877 79.2397C69.6877 74.5327 73.5329 70.6875 78.24 70.6875H99.6537C104.361 70.6875 108.206 74.5327 108.206 79.2397C108.206 83.9467 104.361 87.7919 99.6537 87.7919H78.24Z" fill="#ECB22E"/>
</svg>
