<svg width="720" height="40" viewBox="0 0 720 40" fill="none" xmlns="http://www.w3.org/2000/svg">
<path d="M0 8C0 3.58172 3.58172 0 8 0H712C716.418 0 720 3.58172 720 8V40H0V8Z" fill="#4B59BD"/>
<path d="M47 25.2281V13.2266H51.6909C53.4946 13.2266 54.9073 13.7615 55.9292 14.8519C56.951 15.9218 57.4722 17.3825 57.4722 19.2548C57.4722 21.0927 56.951 22.5535 55.8949 23.6233C54.8525 24.6932 53.426 25.2281 51.588 25.2281H47ZM49.4003 22.9238H51.7046C52.747 22.9238 53.5426 22.5672 54.1049 21.8677C54.6742 21.1682 54.969 20.2766 54.969 19.2068C54.969 18.1506 54.6742 17.2934 54.1049 16.5939C53.5357 15.8943 52.7402 15.5377 51.7046 15.5377H49.4003V22.9238Z" fill="white"/>
<path d="M59.7629 17.4995C60.6545 16.5874 61.7929 16.1348 63.1714 16.1348C64.5498 16.1348 65.6883 16.5874 66.5798 17.4995C67.4713 18.3911 67.9103 19.4952 67.9103 20.7982C67.9103 22.115 67.4713 23.2191 66.5798 24.1107C65.6883 25.0022 64.5498 25.4617 63.1714 25.4617C61.7929 25.4617 60.6545 25.0091 59.7629 24.1107C58.8714 23.2191 58.4325 22.115 58.4325 20.7982C58.4256 19.4952 58.8645 18.3911 59.7629 17.4995ZM63.1714 23.3288C63.8709 23.3288 64.4401 23.082 64.9064 22.595C65.3796 22.0944 65.6197 21.4909 65.6197 20.7914C65.6197 20.0919 65.3728 19.4952 64.9064 19.0014C64.4332 18.5145 63.864 18.2676 63.1714 18.2676C62.4718 18.2676 61.8889 18.5145 61.4157 19.0014C60.9425 19.4883 60.7162 20.0919 60.7162 20.7914C60.7162 21.4909 60.9425 22.0875 61.4157 22.595C61.8889 23.0888 62.4718 23.3288 63.1714 23.3288Z" fill="white"/>
<path d="M70.0567 17.4995C70.9482 16.5874 72.0866 16.1348 73.4651 16.1348C74.8436 16.1348 75.982 16.5874 76.8735 17.4995C77.7651 18.3911 78.204 19.4952 78.204 20.7982C78.204 22.115 77.7651 23.2191 76.8735 24.1107C75.982 25.0022 74.8436 25.4617 73.4651 25.4617C72.0866 25.4617 70.9482 25.0091 70.0567 24.1107C69.1651 23.2191 68.7262 22.115 68.7262 20.7982C68.7262 19.4952 69.1651 18.3911 70.0567 17.4995ZM73.4651 23.3288C74.1646 23.3288 74.7338 23.082 75.2002 22.595C75.6734 22.0944 75.9134 21.4909 75.9134 20.7914C75.9134 20.0919 75.6665 19.4952 75.2002 19.0014C74.727 18.5145 74.1578 18.2676 73.4651 18.2676C72.7656 18.2676 72.1827 18.5145 71.7094 19.0014C71.2362 19.4883 71.0099 20.0919 71.0099 20.7914C71.0099 21.4909 71.2362 22.0875 71.7094 22.595C72.1827 23.0888 72.7656 23.3288 73.4651 23.3288Z" fill="white"/>
<path d="M79.5002 25.2275V16.3807H81.6948V17.5671C82.2297 16.607 83.0459 16.1406 84.1294 16.1406C84.486 16.1406 84.8427 16.2023 85.1993 16.3327L85.0073 18.5272C84.6369 18.4106 84.2734 18.3489 83.9511 18.3489C82.6549 18.3489 81.7908 19.1925 81.7908 21.0304V25.2344H79.5002V25.2275Z" fill="white"/>
<path d="M92.6883 16.3806H94.8623V25.2343H92.6883V24.2125C91.927 25.0423 90.9806 25.4469 89.8628 25.4469C88.594 25.4469 87.5379 25.008 86.7149 24.1165C85.8851 23.2249 85.4805 22.1002 85.4805 20.7698C85.4805 19.4393 85.9057 18.3352 86.7286 17.471C87.5585 16.5932 88.6146 16.1543 89.8628 16.1543C90.9669 16.1543 91.9065 16.5795 92.6883 17.4368V16.3806ZM92.0093 18.9935C91.5361 18.4929 90.9532 18.246 90.24 18.246C89.5061 18.246 88.9232 18.4929 88.45 18.9935C87.9974 19.4942 87.7711 20.0977 87.7711 20.7972C87.7711 21.5104 87.9974 22.1139 88.4706 22.6146C88.9438 23.1152 89.5267 23.3621 90.24 23.3621C90.9532 23.3621 91.5361 23.1152 92.0093 22.6146C92.4825 22.1139 92.7226 21.5104 92.7226 20.7972C92.7226 20.0977 92.4757 19.4942 92.0093 18.9935Z" fill="white"/>
<path d="M102.632 16.3809H105.136L101.576 25.6735C100.712 27.9298 99.5806 28.9997 97.8249 28.9997C97.1597 28.9997 96.5905 28.8556 96.1173 28.5607L96.5082 26.6473C96.9128 26.8394 97.3037 26.9422 97.6466 26.9422C98.3598 26.9422 98.9291 26.469 99.368 25.5432L99.5463 25.1386L95.6783 16.3877H98.3255L100.616 22.1553L102.632 16.3809Z" fill="white"/>
<path d="M106 24.0894C106 23.3556 106.583 22.7933 107.351 22.7933C108.085 22.7933 108.668 23.3625 108.668 24.0894C108.668 24.8713 108.085 25.4199 107.351 25.4199C106.583 25.4268 106 24.8713 106 24.0894ZM106.26 21.9017L106.13 13H108.551L108.386 21.9017H106.26Z" fill="white"/>
</svg>
